G04 #@! TF.GenerationSoftware,KiCad,Pcbnew,(6.0.11-0)*
G04 #@! TF.CreationDate,2023-01-30T23:46:06+00:00*
G04 #@! TF.ProjectId,maxbox,6d617862-6f78-42e6-9b69-6361645f7063,rev?*
G04 #@! TF.SameCoordinates,Original*
G04 #@! TF.FileFunction,Copper,L3,Inr*
G04 #@! TF.FilePolarity,Positive*
%FSLAX46Y46*%
G04 Gerber Fmt 4.6, Leading zero omitted, Abs format (unit mm)*
G04 Created by KiCad (PCBNEW (6.0.11-0)) date 2023-01-30 23:46:06*
%MOMM*%
%LPD*%
G01*
G04 APERTURE LIST*
G04 #@! TA.AperFunction,ComponentPad*
%ADD10C,0.600000*%
G04 #@! TD*
G04 #@! TA.AperFunction,ViaPad*
%ADD11C,0.400000*%
G04 #@! TD*
G04 APERTURE END LIST*
D10*
X-1319500Y-30928000D03*
X-2769500Y-30928000D03*
X-2769500Y-29478000D03*
X-2769500Y-28028000D03*
X-1319500Y-28028000D03*
X130500Y-30928000D03*
X130500Y-29478000D03*
X-1319500Y-29478000D03*
X130500Y-28028000D03*
D11*
X-7200000Y7900000D03*
X-1524000Y-33655000D03*
X-10200000Y5200000D03*
X1016000Y-34417000D03*
X-6000000Y9100000D03*
X-17780000Y10922000D03*
X-8400000Y6800000D03*
X-6600000Y8500000D03*
X-9000000Y6300000D03*
X15748000Y30861000D03*
X-15748000Y-30734000D03*
X-6350000Y-28194000D03*
X11303000Y-254000D03*
X-9600000Y5700000D03*
X-3810000Y-34417000D03*
X-10200000Y3800000D03*
X-1600000Y13500000D03*
X12827000Y0D03*
X-4500000Y27700000D03*
X11430000Y-33909000D03*
X12827000Y508000D03*
X-7800000Y7400000D03*
X-23700000Y1600000D03*
X-3048000Y-26035000D03*
X-6100000Y-22200000D03*
X-10660000Y32790000D03*
X31300000Y-15300000D03*
X-6350000Y-30734000D03*
X32893000Y10668000D03*
X-32893000Y-10922000D03*
X-30734000Y15494000D03*
X-8255000Y-18288000D03*
X-5400000Y9600000D03*
X13843000Y0D03*
X-16891000Y16637000D03*
X-17526000Y17145000D03*
X-16891000Y17780000D03*
X-18161000Y16510000D03*
X-18796000Y17018000D03*
X-18161000Y17653000D03*
X-17526000Y18288000D03*
X-14732000Y5588000D03*
X-14200000Y6100000D03*
X-13589000Y6604000D03*
X-4800000Y15200000D03*
X-5400000Y15800000D03*
X-8255000Y13208000D03*
X-25000000Y1600000D03*
X0Y-34417000D03*
X19685000Y10922000D03*
X2413000Y-33655000D03*
X22606000Y7874000D03*
X4445000Y-13335000D03*
X6477000Y-26670000D03*
X8600000Y-29400000D03*
X5715000Y-13335000D03*
X6096000Y-35941000D03*
X10000000Y0D03*
X-10500000Y13100000D03*
X-5207000Y-7747000D03*
X-6350000Y-31750000D03*
X2540000Y-31369000D03*
X5969000Y26797000D03*
X6985000Y-14605000D03*
X2700000Y27900000D03*
X3700000Y28600000D03*
X4445000Y-12065000D03*
X-9144000Y-18288000D03*
X-4826000Y-27432000D03*
X6985000Y-12065000D03*
X8255000Y-12065000D03*
X5969000Y25527000D03*
X6985000Y-13335000D03*
X6985000Y-10795000D03*
X6477000Y-28956000D03*
X3700000Y27900000D03*
X4445000Y-10795000D03*
X16637000Y13843000D03*
X-3100000Y28000000D03*
X5715000Y-14605000D03*
X-6350000Y-29210000D03*
X-12446000Y-5080000D03*
X-4064000Y1778000D03*
X4445000Y-14605000D03*
X-9017000Y-4064000D03*
X6858000Y-41783000D03*
X8255000Y-13335000D03*
X-7366000Y-34544000D03*
X13843000Y508000D03*
X8255000Y-10795000D03*
X5715000Y-12065000D03*
X8255000Y-14605000D03*
X2700000Y28600000D03*
X-16256000Y16002000D03*
X2159000Y1905000D03*
X-5715000Y-5080000D03*
X-8636000Y-41656000D03*
X-2794000Y-34417000D03*
X13970000Y-23622000D03*
X7747000Y-36830000D03*
X5715000Y-10795000D03*
X-4699000Y1143000D03*
X-13600000Y10100000D03*
X9525000Y-2794000D03*
X1795000Y-1905000D03*
X745000Y-1905000D03*
X4064000Y-2159000D03*
X8001000Y-1777998D03*
X7978892Y1292108D03*
X-19558000Y6858000D03*
X-8001000Y18542000D03*
X-7366000Y19050000D03*
X-19685000Y5842000D03*
X-6858000Y18415000D03*
X-20193000Y6223000D03*
X-7366000Y17907000D03*
X1900000Y28100000D03*
X-19050000Y6477000D03*
X1900000Y28600000D03*
X1905000Y27559000D03*
X-444500Y6159500D03*
X-444500Y9080500D03*
X-7117589Y-10643355D03*
X-23700000Y-1600000D03*
X-1905000Y-10668000D03*
X-26300000Y1600000D03*
X-14769955Y27318925D03*
X17653217Y-30677367D03*
X24700000Y17300000D03*
X28650000Y13350000D03*
X-26750000Y-14350000D03*
X-30100000Y9200000D03*
X-9300000Y-31600000D03*
X10100000Y31200000D03*
X29100000Y-10000000D03*
X-8948531Y-32457653D03*
X-30624501Y8624501D03*
X28570879Y14170879D03*
X22145878Y20645878D03*
X29624501Y-9175499D03*
X-26720879Y-15120879D03*
X-15332743Y27525501D03*
X17606756Y-31372662D03*
X9175499Y31724501D03*
X28400000Y15100000D03*
X-26741758Y-15841758D03*
X-16024501Y27511203D03*
X8650998Y32249002D03*
X-31149002Y8049002D03*
X30149002Y-8350998D03*
X17735144Y-31975722D03*
X-8689810Y-33330140D03*
X-1500000Y-48500000D03*
X600000Y-45500000D03*
X-25075500Y-1646837D03*
X-6973359Y-11240882D03*
X-180739Y-14150739D03*
X-2037443Y-12587080D03*
X-24529122Y-2929122D03*
X-6350000Y-11920990D03*
X-11429998Y-10033000D03*
X0Y-15367000D03*
X2413000Y-32512000D03*
X6477000Y-32512000D03*
G04 #@! TA.AperFunction,Conductor*
G36*
X2372191Y30715093D02*
G01*
X2408155Y30665593D01*
X2413000Y30635000D01*
X2413000Y28999139D01*
X2394093Y28940948D01*
X2388204Y28933605D01*
X2316219Y28852097D01*
X2260890Y28734249D01*
X2240860Y28605610D01*
X2257741Y28476519D01*
X2310174Y28357355D01*
X2314711Y28351958D01*
X2314712Y28351956D01*
X2346633Y28313982D01*
X2369603Y28257272D01*
X2354853Y28197891D01*
X2345055Y28184748D01*
X2316219Y28152097D01*
X2260890Y28034249D01*
X2240860Y27905610D01*
X2257741Y27776519D01*
X2310174Y27657355D01*
X2314711Y27651958D01*
X2314712Y27651956D01*
X2389783Y27562649D01*
X2412753Y27505939D01*
X2413000Y27498947D01*
X2413000Y27345843D01*
X2394093Y27287652D01*
X2384204Y27276041D01*
X-19868998Y4896400D01*
X-19923434Y4868469D01*
X-19983893Y4877869D01*
X-20009202Y4896202D01*
X-21011597Y5898597D01*
X-21039374Y5953114D01*
X-21029803Y6013546D01*
X-21011198Y6039001D01*
X1385849Y28182975D01*
X1397000Y28194000D01*
X1397000Y30635000D01*
X1415907Y30693191D01*
X1465407Y30729155D01*
X1496000Y30734000D01*
X2314000Y30734000D01*
X2372191Y30715093D01*
G37*
G04 #@! TD.AperFunction*
G04 #@! TA.AperFunction,Conductor*
G36*
X13144807Y33527788D02*
G01*
X13396155Y33511314D01*
X13408980Y33509626D01*
X13652853Y33461117D01*
X13665353Y33457767D01*
X13900798Y33377844D01*
X13912761Y33372888D01*
X14135751Y33262922D01*
X14146961Y33256451D01*
X14353708Y33118307D01*
X14363972Y33110431D01*
X14553339Y32944360D01*
X14558068Y32939932D01*
X33066932Y14431068D01*
X33071359Y14426340D01*
X33237431Y14236972D01*
X33245307Y14226708D01*
X33383448Y14019966D01*
X33389922Y14008751D01*
X33499888Y13785761D01*
X33504844Y13773799D01*
X33578148Y13557854D01*
X33584766Y13538357D01*
X33588117Y13525853D01*
X33626078Y13335011D01*
X33636625Y13281987D01*
X33638314Y13269155D01*
X33654788Y13017808D01*
X33655000Y13011333D01*
X33655000Y4763174D01*
X33636093Y4704983D01*
X33601713Y4675360D01*
X33372156Y4555860D01*
X33370247Y4554866D01*
X32983271Y4308335D01*
X32619255Y4029015D01*
X32280968Y3719032D01*
X31970985Y3380745D01*
X31691665Y3016729D01*
X31445134Y2629753D01*
X31233269Y2222763D01*
X31057681Y1798857D01*
X30919707Y1361260D01*
X30919239Y1359148D01*
X30919238Y1359145D01*
X30913456Y1333065D01*
X30820398Y913304D01*
X30820118Y911178D01*
X30820116Y911166D01*
X30791241Y691836D01*
X30760508Y458396D01*
X30740494Y0D01*
X30747725Y-165616D01*
X30760508Y-458396D01*
X30768430Y-518568D01*
X30820116Y-911166D01*
X30820118Y-911178D01*
X30820398Y-913304D01*
X30894278Y-1246558D01*
X30919214Y-1359034D01*
X30919707Y-1361260D01*
X31057681Y-1798857D01*
X31233269Y-2222763D01*
X31350511Y-2447983D01*
X31436099Y-2612396D01*
X31445134Y-2629753D01*
X31446286Y-2631561D01*
X31446287Y-2631563D01*
X31638709Y-2933604D01*
X31691665Y-3016729D01*
X31970985Y-3380745D01*
X32280968Y-3719032D01*
X32619255Y-4029015D01*
X32983271Y-4308335D01*
X32985087Y-4309492D01*
X32985090Y-4309494D01*
X33307927Y-4515164D01*
X33370247Y-4554866D01*
X33372152Y-4555858D01*
X33372156Y-4555860D01*
X33601713Y-4675360D01*
X33644599Y-4719001D01*
X33655000Y-4763174D01*
X33655000Y-13011333D01*
X33654788Y-13017807D01*
X33646889Y-13138333D01*
X33638315Y-13269148D01*
X33636626Y-13281980D01*
X33599695Y-13467646D01*
X33588118Y-13525848D01*
X33584767Y-13538353D01*
X33532618Y-13691980D01*
X33504844Y-13773798D01*
X33499888Y-13785761D01*
X33389922Y-14008751D01*
X33383451Y-14019961D01*
X33245307Y-14226708D01*
X33237431Y-14236972D01*
X33131820Y-14357398D01*
X33071360Y-14426339D01*
X33066932Y-14431068D01*
X26966004Y-20531996D01*
X26911487Y-20559773D01*
X26851055Y-20550202D01*
X26807790Y-20506937D01*
X26797000Y-20461992D01*
X26797000Y-9994390D01*
X28640860Y-9994390D01*
X28657741Y-10123481D01*
X28660579Y-10129932D01*
X28660580Y-10129934D01*
X28664835Y-10139604D01*
X28710174Y-10242645D01*
X28714711Y-10248042D01*
X28714712Y-10248044D01*
X28749907Y-10289913D01*
X28793946Y-10342303D01*
X28799817Y-10346211D01*
X28799818Y-10346212D01*
X28826430Y-10363927D01*
X28902320Y-10414444D01*
X28909047Y-10416546D01*
X28909050Y-10416547D01*
X29019855Y-10451164D01*
X29019856Y-10451164D01*
X29026587Y-10453267D01*
X29093494Y-10454493D01*
X29149702Y-10455524D01*
X29149704Y-10455524D01*
X29156755Y-10455653D01*
X29163558Y-10453798D01*
X29163560Y-10453798D01*
X29231154Y-10435369D01*
X29282360Y-10421409D01*
X29393306Y-10353288D01*
X29403514Y-10342011D01*
X29475940Y-10261995D01*
X29475940Y-10261994D01*
X29480672Y-10256767D01*
X29537437Y-10139604D01*
X29555373Y-10033000D01*
X29558403Y-10014989D01*
X29558403Y-10014985D01*
X29559037Y-10011219D01*
X29559174Y-10000000D01*
X29540718Y-9871125D01*
X29494453Y-9769371D01*
X29487580Y-9708574D01*
X29517755Y-9655348D01*
X29573453Y-9630023D01*
X29586388Y-9629413D01*
X29604397Y-9629743D01*
X29674203Y-9631023D01*
X29674205Y-9631023D01*
X29681256Y-9631152D01*
X29688059Y-9629297D01*
X29688061Y-9629297D01*
X29755655Y-9610868D01*
X29806861Y-9596908D01*
X29917807Y-9528787D01*
X30005173Y-9432266D01*
X30061938Y-9315103D01*
X30063565Y-9305436D01*
X30082904Y-9190488D01*
X30082904Y-9190484D01*
X30083538Y-9186718D01*
X30083675Y-9175499D01*
X30065219Y-9046624D01*
X30018954Y-8944870D01*
X30012081Y-8884073D01*
X30042256Y-8830847D01*
X30097954Y-8805522D01*
X30110889Y-8804912D01*
X30128898Y-8805242D01*
X30198704Y-8806522D01*
X30198706Y-8806522D01*
X30205757Y-8806651D01*
X30212560Y-8804796D01*
X30212562Y-8804796D01*
X30280156Y-8786367D01*
X30331362Y-8772407D01*
X30442308Y-8704286D01*
X30529674Y-8607765D01*
X30586439Y-8490602D01*
X30588066Y-8480935D01*
X30607405Y-8365987D01*
X30607405Y-8365983D01*
X30608039Y-8362217D01*
X30608176Y-8350998D01*
X30589720Y-8222123D01*
X30584375Y-8210366D01*
X30538755Y-8110032D01*
X30538754Y-8110031D01*
X30535834Y-8103608D01*
X30450852Y-8004981D01*
X30444935Y-8001146D01*
X30444933Y-8001144D01*
X30347525Y-7938008D01*
X30347523Y-7938007D01*
X30341603Y-7934170D01*
X30216872Y-7896868D01*
X30143595Y-7896420D01*
X30093736Y-7896115D01*
X30093735Y-7896115D01*
X30086685Y-7896072D01*
X30079908Y-7898009D01*
X30079907Y-7898009D01*
X29968287Y-7929910D01*
X29968285Y-7929911D01*
X29961507Y-7931848D01*
X29851402Y-8001319D01*
X29846735Y-8006603D01*
X29846733Y-8006605D01*
X29770245Y-8093212D01*
X29765221Y-8098901D01*
X29709892Y-8216749D01*
X29689862Y-8345388D01*
X29706743Y-8474479D01*
X29709582Y-8480931D01*
X29709583Y-8480935D01*
X29754193Y-8582320D01*
X29760323Y-8643197D01*
X29729499Y-8696051D01*
X29673495Y-8720693D01*
X29662972Y-8721189D01*
X29569235Y-8720616D01*
X29569234Y-8720616D01*
X29562184Y-8720573D01*
X29555407Y-8722510D01*
X29555406Y-8722510D01*
X29443786Y-8754411D01*
X29443784Y-8754412D01*
X29437006Y-8756349D01*
X29326901Y-8825820D01*
X29322234Y-8831104D01*
X29322232Y-8831106D01*
X29275454Y-8884073D01*
X29240720Y-8923402D01*
X29185391Y-9041250D01*
X29165361Y-9169889D01*
X29182242Y-9298980D01*
X29185081Y-9305432D01*
X29185082Y-9305436D01*
X29229692Y-9406821D01*
X29235822Y-9467698D01*
X29204998Y-9520552D01*
X29148994Y-9545194D01*
X29138471Y-9545690D01*
X29044734Y-9545117D01*
X29044733Y-9545117D01*
X29037683Y-9545074D01*
X29030906Y-9547011D01*
X29030905Y-9547011D01*
X28919285Y-9578912D01*
X28919283Y-9578913D01*
X28912505Y-9580850D01*
X28802400Y-9650321D01*
X28797733Y-9655605D01*
X28797731Y-9655607D01*
X28750953Y-9708574D01*
X28716219Y-9747903D01*
X28660890Y-9865751D01*
X28640860Y-9994390D01*
X26797000Y-9994390D01*
X26797000Y762000D01*
X15240000Y762000D01*
X15240000Y-27813000D01*
X19445992Y-27813000D01*
X19504183Y-27831907D01*
X19540147Y-27881407D01*
X19540147Y-27942593D01*
X19515996Y-27982004D01*
X13970000Y-33528000D01*
X9112817Y-41515368D01*
X8841179Y-41962061D01*
X8837192Y-41968108D01*
X8673698Y-42197347D01*
X8664461Y-42208477D01*
X8637224Y-42236798D01*
X8471812Y-42408795D01*
X8461044Y-42418466D01*
X8241232Y-42588559D01*
X8229185Y-42596544D01*
X7988838Y-42731685D01*
X7986930Y-42732758D01*
X7973827Y-42738912D01*
X7714292Y-42838344D01*
X7700432Y-42842520D01*
X7429187Y-42903039D01*
X7414867Y-42905150D01*
X7134066Y-42925735D01*
X7126828Y-42926000D01*
X-8571795Y-42926000D01*
X-8579053Y-42925734D01*
X-8860648Y-42905033D01*
X-8875008Y-42902910D01*
X-9146982Y-42842051D01*
X-9160878Y-42837851D01*
X-9421032Y-42737872D01*
X-9434163Y-42731685D01*
X-9676897Y-42594741D01*
X-9688984Y-42586700D01*
X-9909090Y-42415724D01*
X-9919870Y-42406003D01*
X-10007637Y-42314327D01*
X-10112606Y-42204681D01*
X-10121839Y-42193499D01*
X-10235360Y-42033422D01*
X-10283066Y-41966151D01*
X-10290572Y-41953727D01*
X-10303159Y-41928953D01*
X-10418471Y-41701995D01*
X-10421514Y-41695418D01*
X-10440377Y-41650390D01*
X-9095140Y-41650390D01*
X-9094225Y-41657387D01*
X-9094225Y-41657388D01*
X-9093439Y-41663398D01*
X-9078259Y-41779481D01*
X-9075421Y-41785932D01*
X-9075420Y-41785934D01*
X-9068371Y-41801953D01*
X-9025826Y-41898645D01*
X-9021289Y-41904042D01*
X-9021288Y-41904044D01*
X-9005686Y-41922604D01*
X-8942054Y-41998303D01*
X-8936183Y-42002211D01*
X-8936182Y-42002212D01*
X-8919495Y-42013320D01*
X-8833680Y-42070444D01*
X-8826953Y-42072546D01*
X-8826950Y-42072547D01*
X-8716145Y-42107164D01*
X-8716144Y-42107164D01*
X-8709413Y-42109267D01*
X-8642506Y-42110493D01*
X-8586298Y-42111524D01*
X-8586296Y-42111524D01*
X-8579245Y-42111653D01*
X-8572442Y-42109798D01*
X-8572440Y-42109798D01*
X-8504846Y-42091369D01*
X-8453640Y-42077409D01*
X-8342694Y-42009288D01*
X-8303648Y-41966151D01*
X-8260060Y-41917995D01*
X-8260060Y-41917994D01*
X-8255328Y-41912767D01*
X-8198563Y-41795604D01*
X-8195498Y-41777390D01*
X6398860Y-41777390D01*
X6415741Y-41906481D01*
X6418579Y-41912932D01*
X6418580Y-41912934D01*
X6420807Y-41917995D01*
X6468174Y-42025645D01*
X6472711Y-42031042D01*
X6472712Y-42031044D01*
X6513245Y-42079263D01*
X6551946Y-42125303D01*
X6557817Y-42129211D01*
X6557818Y-42129212D01*
X6584430Y-42146927D01*
X6660320Y-42197444D01*
X6667047Y-42199546D01*
X6667050Y-42199547D01*
X6777855Y-42234164D01*
X6777856Y-42234164D01*
X6784587Y-42236267D01*
X6851494Y-42237493D01*
X6907702Y-42238524D01*
X6907704Y-42238524D01*
X6914755Y-42238653D01*
X6921558Y-42236798D01*
X6921560Y-42236798D01*
X6989154Y-42218369D01*
X7040360Y-42204409D01*
X7151306Y-42136288D01*
X7173605Y-42111653D01*
X7233940Y-42044995D01*
X7233940Y-42044994D01*
X7238672Y-42039767D01*
X7295437Y-41922604D01*
X7317037Y-41794219D01*
X7317174Y-41783000D01*
X7298718Y-41654125D01*
X7293373Y-41642368D01*
X7247753Y-41542034D01*
X7247752Y-41542033D01*
X7244832Y-41535610D01*
X7159850Y-41436983D01*
X7153933Y-41433148D01*
X7153931Y-41433146D01*
X7056523Y-41370010D01*
X7056521Y-41370009D01*
X7050601Y-41366172D01*
X6925870Y-41328870D01*
X6852593Y-41328422D01*
X6802734Y-41328117D01*
X6802733Y-41328117D01*
X6795683Y-41328074D01*
X6788906Y-41330011D01*
X6788905Y-41330011D01*
X6677285Y-41361912D01*
X6677283Y-41361913D01*
X6670505Y-41363850D01*
X6560400Y-41433321D01*
X6555733Y-41438605D01*
X6555731Y-41438607D01*
X6552446Y-41442327D01*
X6474219Y-41530903D01*
X6418890Y-41648751D01*
X6398860Y-41777390D01*
X-8195498Y-41777390D01*
X-8177597Y-41670989D01*
X-8177597Y-41670985D01*
X-8176963Y-41667219D01*
X-8176826Y-41656000D01*
X-8195282Y-41527125D01*
X-8200627Y-41515368D01*
X-8246247Y-41415034D01*
X-8246248Y-41415033D01*
X-8249168Y-41408610D01*
X-8334150Y-41309983D01*
X-8340067Y-41306148D01*
X-8340069Y-41306146D01*
X-8437477Y-41243010D01*
X-8437479Y-41243009D01*
X-8443399Y-41239172D01*
X-8568130Y-41201870D01*
X-8641407Y-41201422D01*
X-8691266Y-41201117D01*
X-8691267Y-41201117D01*
X-8698317Y-41201074D01*
X-8705094Y-41203011D01*
X-8705095Y-41203011D01*
X-8816715Y-41234912D01*
X-8816717Y-41234913D01*
X-8823495Y-41236850D01*
X-8933600Y-41306321D01*
X-8938267Y-41311605D01*
X-8938269Y-41311607D01*
X-8987731Y-41367613D01*
X-9019781Y-41403903D01*
X-9075110Y-41521751D01*
X-9095140Y-41650390D01*
X-10440377Y-41650390D01*
X-10443298Y-41643416D01*
X-11476826Y-39176287D01*
X-12462080Y-36824390D01*
X7287860Y-36824390D01*
X7304741Y-36953481D01*
X7307579Y-36959932D01*
X7307580Y-36959934D01*
X7311835Y-36969604D01*
X7357174Y-37072645D01*
X7361711Y-37078042D01*
X7361712Y-37078044D01*
X7409260Y-37134609D01*
X7440946Y-37172303D01*
X7446817Y-37176211D01*
X7446818Y-37176212D01*
X7473430Y-37193927D01*
X7549320Y-37244444D01*
X7556047Y-37246546D01*
X7556050Y-37246547D01*
X7666855Y-37281164D01*
X7666856Y-37281164D01*
X7673587Y-37283267D01*
X7740494Y-37284493D01*
X7796702Y-37285524D01*
X7796704Y-37285524D01*
X7803755Y-37285653D01*
X7810558Y-37283798D01*
X7810560Y-37283798D01*
X7878154Y-37265369D01*
X7929360Y-37251409D01*
X8040306Y-37183288D01*
X8127672Y-37086767D01*
X8184437Y-36969604D01*
X8206037Y-36841219D01*
X8206174Y-36830000D01*
X8187718Y-36701125D01*
X8182373Y-36689368D01*
X8136753Y-36589034D01*
X8136752Y-36589033D01*
X8133832Y-36582610D01*
X8048850Y-36483983D01*
X8042933Y-36480148D01*
X8042931Y-36480146D01*
X7945523Y-36417010D01*
X7945521Y-36417009D01*
X7939601Y-36413172D01*
X7814870Y-36375870D01*
X7741593Y-36375422D01*
X7691734Y-36375117D01*
X7691733Y-36375117D01*
X7684683Y-36375074D01*
X7677906Y-36377011D01*
X7677905Y-36377011D01*
X7566285Y-36408912D01*
X7566283Y-36408913D01*
X7559505Y-36410850D01*
X7449400Y-36480321D01*
X7444733Y-36485605D01*
X7444731Y-36485607D01*
X7367889Y-36572615D01*
X7363219Y-36577903D01*
X7307890Y-36695751D01*
X7287860Y-36824390D01*
X-12462080Y-36824390D01*
X-12834499Y-35935390D01*
X5636860Y-35935390D01*
X5653741Y-36064481D01*
X5656579Y-36070932D01*
X5656580Y-36070934D01*
X5660835Y-36080604D01*
X5706174Y-36183645D01*
X5710711Y-36189042D01*
X5710712Y-36189044D01*
X5758260Y-36245609D01*
X5789946Y-36283303D01*
X5795817Y-36287211D01*
X5795818Y-36287212D01*
X5822430Y-36304927D01*
X5898320Y-36355444D01*
X5905047Y-36357546D01*
X5905050Y-36357547D01*
X6015855Y-36392164D01*
X6015856Y-36392164D01*
X6022587Y-36394267D01*
X6089494Y-36395493D01*
X6145702Y-36396524D01*
X6145704Y-36396524D01*
X6152755Y-36396653D01*
X6159558Y-36394798D01*
X6159560Y-36394798D01*
X6231748Y-36375117D01*
X6278360Y-36362409D01*
X6389306Y-36294288D01*
X6476672Y-36197767D01*
X6533437Y-36080604D01*
X6555037Y-35952219D01*
X6555174Y-35941000D01*
X6536718Y-35812125D01*
X6531373Y-35800368D01*
X6485753Y-35700034D01*
X6485752Y-35700033D01*
X6482832Y-35693610D01*
X6397850Y-35594983D01*
X6391933Y-35591148D01*
X6391931Y-35591146D01*
X6294523Y-35528010D01*
X6294521Y-35528009D01*
X6288601Y-35524172D01*
X6163870Y-35486870D01*
X6090593Y-35486422D01*
X6040734Y-35486117D01*
X6040733Y-35486117D01*
X6033683Y-35486074D01*
X6026906Y-35488011D01*
X6026905Y-35488011D01*
X5915285Y-35519912D01*
X5915283Y-35519913D01*
X5908505Y-35521850D01*
X5798400Y-35591321D01*
X5793733Y-35596605D01*
X5793731Y-35596607D01*
X5716889Y-35683615D01*
X5712219Y-35688903D01*
X5656890Y-35806751D01*
X5636860Y-35935390D01*
X-12834499Y-35935390D01*
X-13419729Y-34538390D01*
X-7825140Y-34538390D01*
X-7808259Y-34667481D01*
X-7805421Y-34673932D01*
X-7805420Y-34673934D01*
X-7803193Y-34678995D01*
X-7755826Y-34786645D01*
X-7751289Y-34792042D01*
X-7751288Y-34792044D01*
X-7710755Y-34840263D01*
X-7672054Y-34886303D01*
X-7666183Y-34890211D01*
X-7666182Y-34890212D01*
X-7639570Y-34907927D01*
X-7563680Y-34958444D01*
X-7556953Y-34960546D01*
X-7556950Y-34960547D01*
X-7446145Y-34995164D01*
X-7446144Y-34995164D01*
X-7439413Y-34997267D01*
X-7372506Y-34998493D01*
X-7316298Y-34999524D01*
X-7316296Y-34999524D01*
X-7309245Y-34999653D01*
X-7302442Y-34997798D01*
X-7302440Y-34997798D01*
X-7234846Y-34979369D01*
X-7183640Y-34965409D01*
X-7072694Y-34897288D01*
X-7050395Y-34872653D01*
X-6990060Y-34805995D01*
X-6990060Y-34805994D01*
X-6985328Y-34800767D01*
X-6928563Y-34683604D01*
X-6906963Y-34555219D01*
X-6906826Y-34544000D01*
X-6925282Y-34415125D01*
X-6926980Y-34411390D01*
X-3253140Y-34411390D01*
X-3252225Y-34418387D01*
X-3252225Y-34418388D01*
X-3251439Y-34424398D01*
X-3236259Y-34540481D01*
X-3233421Y-34546932D01*
X-3233420Y-34546934D01*
X-3217161Y-34583885D01*
X-3183826Y-34659645D01*
X-3179289Y-34665042D01*
X-3179288Y-34665044D01*
X-3163686Y-34683604D01*
X-3100054Y-34759303D01*
X-3094183Y-34763211D01*
X-3094182Y-34763212D01*
X-3068678Y-34780189D01*
X-2991680Y-34831444D01*
X-2984953Y-34833546D01*
X-2984950Y-34833547D01*
X-2874145Y-34868164D01*
X-2874144Y-34868164D01*
X-2867413Y-34870267D01*
X-2800506Y-34871493D01*
X-2744298Y-34872524D01*
X-2744296Y-34872524D01*
X-2737245Y-34872653D01*
X-2730442Y-34870798D01*
X-2730440Y-34870798D01*
X-2662846Y-34852369D01*
X-2611640Y-34838409D01*
X-2500694Y-34770288D01*
X-2413328Y-34673767D01*
X-2356563Y-34556604D01*
X-2353498Y-34538390D01*
X-2335597Y-34431989D01*
X-2335597Y-34431985D01*
X-2334963Y-34428219D01*
X-2334826Y-34417000D01*
X-2335629Y-34411390D01*
X-459140Y-34411390D01*
X-458225Y-34418387D01*
X-458225Y-34418388D01*
X-457439Y-34424398D01*
X-442259Y-34540481D01*
X-439421Y-34546932D01*
X-439420Y-34546934D01*
X-423161Y-34583885D01*
X-389826Y-34659645D01*
X-385289Y-34665042D01*
X-385288Y-34665044D01*
X-369686Y-34683604D01*
X-306054Y-34759303D01*
X-300183Y-34763211D01*
X-300182Y-34763212D01*
X-274678Y-34780189D01*
X-197680Y-34831444D01*
X-190953Y-34833546D01*
X-190950Y-34833547D01*
X-80145Y-34868164D01*
X-80144Y-34868164D01*
X-73413Y-34870267D01*
X-6506Y-34871493D01*
X49702Y-34872524D01*
X49704Y-34872524D01*
X56755Y-34872653D01*
X63558Y-34870798D01*
X63560Y-34870798D01*
X131154Y-34852369D01*
X182360Y-34838409D01*
X293306Y-34770288D01*
X380672Y-34673767D01*
X437437Y-34556604D01*
X440502Y-34538390D01*
X458403Y-34431989D01*
X458403Y-34431985D01*
X459037Y-34428219D01*
X459174Y-34417000D01*
X440718Y-34288125D01*
X435373Y-34276368D01*
X389753Y-34176034D01*
X389752Y-34176033D01*
X386832Y-34169610D01*
X308123Y-34078263D01*
X306455Y-34076327D01*
X306454Y-34076326D01*
X301850Y-34070983D01*
X295933Y-34067148D01*
X295931Y-34067146D01*
X198523Y-34004010D01*
X198521Y-34004009D01*
X192601Y-34000172D01*
X67870Y-33962870D01*
X-5407Y-33962422D01*
X-55266Y-33962117D01*
X-55267Y-33962117D01*
X-62317Y-33962074D01*
X-69094Y-33964011D01*
X-69095Y-33964011D01*
X-180715Y-33995912D01*
X-180717Y-33995913D01*
X-187495Y-33997850D01*
X-297600Y-34067321D01*
X-302267Y-34072605D01*
X-302269Y-34072607D01*
X-351731Y-34128613D01*
X-383781Y-34164903D01*
X-439110Y-34282751D01*
X-459140Y-34411390D01*
X-2335629Y-34411390D01*
X-2353282Y-34288125D01*
X-2358627Y-34276368D01*
X-2404247Y-34176034D01*
X-2404248Y-34176033D01*
X-2407168Y-34169610D01*
X-2485877Y-34078263D01*
X-2487545Y-34076327D01*
X-2487546Y-34076326D01*
X-2492150Y-34070983D01*
X-2498067Y-34067148D01*
X-2498069Y-34067146D01*
X-2595477Y-34004010D01*
X-2595479Y-34004009D01*
X-2601399Y-34000172D01*
X-2726130Y-33962870D01*
X-2799407Y-33962422D01*
X-2849266Y-33962117D01*
X-2849267Y-33962117D01*
X-2856317Y-33962074D01*
X-2863094Y-33964011D01*
X-2863095Y-33964011D01*
X-2974715Y-33995912D01*
X-2974717Y-33995913D01*
X-2981495Y-33997850D01*
X-3091600Y-34067321D01*
X-3096267Y-34072605D01*
X-3096269Y-34072607D01*
X-3145731Y-34128613D01*
X-3177781Y-34164903D01*
X-3233110Y-34282751D01*
X-3253140Y-34411390D01*
X-6926980Y-34411390D01*
X-6930627Y-34403368D01*
X-6976247Y-34303034D01*
X-6976248Y-34303033D01*
X-6979168Y-34296610D01*
X-7064150Y-34197983D01*
X-7070067Y-34194148D01*
X-7070069Y-34194146D01*
X-7167477Y-34131010D01*
X-7167479Y-34131009D01*
X-7173399Y-34127172D01*
X-7298130Y-34089870D01*
X-7371407Y-34089422D01*
X-7421266Y-34089117D01*
X-7421267Y-34089117D01*
X-7428317Y-34089074D01*
X-7435094Y-34091011D01*
X-7435095Y-34091011D01*
X-7546715Y-34122912D01*
X-7546717Y-34122913D01*
X-7553495Y-34124850D01*
X-7663600Y-34194321D01*
X-7668267Y-34199605D01*
X-7668269Y-34199607D01*
X-7736061Y-34276368D01*
X-7749781Y-34291903D01*
X-7805110Y-34409751D01*
X-7825140Y-34538390D01*
X-13419729Y-34538390D01*
X-13843000Y-33528000D01*
X-15776610Y-31594390D01*
X-9759140Y-31594390D01*
X-9742259Y-31723481D01*
X-9739421Y-31729932D01*
X-9739420Y-31729934D01*
X-9729980Y-31751388D01*
X-9689826Y-31842645D01*
X-9685289Y-31848042D01*
X-9685288Y-31848044D01*
X-9650353Y-31889604D01*
X-9606054Y-31942303D01*
X-9497680Y-32014444D01*
X-9490953Y-32016546D01*
X-9490950Y-32016547D01*
X-9380603Y-32051021D01*
X-9330698Y-32086421D01*
X-9311131Y-32144393D01*
X-9327383Y-32199874D01*
X-9327642Y-32200268D01*
X-9332312Y-32205556D01*
X-9387641Y-32323404D01*
X-9407671Y-32452043D01*
X-9390790Y-32581134D01*
X-9387952Y-32587585D01*
X-9387951Y-32587587D01*
X-9383696Y-32597257D01*
X-9338357Y-32700298D01*
X-9333820Y-32705695D01*
X-9333819Y-32705697D01*
X-9306677Y-32737986D01*
X-9254585Y-32799956D01*
X-9146211Y-32872097D01*
X-9092532Y-32888867D01*
X-9042627Y-32924267D01*
X-9023060Y-32982239D01*
X-9041306Y-33040641D01*
X-9047840Y-33048885D01*
X-9073591Y-33078043D01*
X-9128920Y-33195891D01*
X-9148950Y-33324530D01*
X-9132069Y-33453621D01*
X-9129231Y-33460072D01*
X-9129230Y-33460074D01*
X-9124975Y-33469744D01*
X-9079636Y-33572785D01*
X-9075099Y-33578182D01*
X-9075098Y-33578184D01*
X-9027550Y-33634749D01*
X-8995864Y-33672443D01*
X-8989993Y-33676351D01*
X-8989992Y-33676352D01*
X-8963380Y-33694067D01*
X-8887490Y-33744584D01*
X-8880763Y-33746686D01*
X-8880760Y-33746687D01*
X-8769955Y-33781304D01*
X-8769954Y-33781304D01*
X-8763223Y-33783407D01*
X-8696316Y-33784633D01*
X-8640108Y-33785664D01*
X-8640106Y-33785664D01*
X-8633055Y-33785793D01*
X-8626252Y-33783938D01*
X-8626250Y-33783938D01*
X-8558656Y-33765509D01*
X-8507450Y-33751549D01*
X-8396504Y-33683428D01*
X-8365694Y-33649390D01*
X1953860Y-33649390D01*
X1970741Y-33778481D01*
X1973579Y-33784932D01*
X1973580Y-33784934D01*
X1977835Y-33794604D01*
X2023174Y-33897645D01*
X2027711Y-33903042D01*
X2027712Y-33903044D01*
X2075260Y-33959609D01*
X2106946Y-33997303D01*
X2112817Y-34001211D01*
X2112818Y-34001212D01*
X2139430Y-34018927D01*
X2215320Y-34069444D01*
X2222047Y-34071546D01*
X2222050Y-34071547D01*
X2332855Y-34106164D01*
X2332856Y-34106164D01*
X2339587Y-34108267D01*
X2406494Y-34109493D01*
X2462702Y-34110524D01*
X2462704Y-34110524D01*
X2469755Y-34110653D01*
X2476558Y-34108798D01*
X2476560Y-34108798D01*
X2548748Y-34089117D01*
X2595360Y-34076409D01*
X2706306Y-34008288D01*
X2715483Y-33998150D01*
X2788940Y-33916995D01*
X2788940Y-33916994D01*
X2793672Y-33911767D01*
X2850437Y-33794604D01*
X2851920Y-33785793D01*
X2871403Y-33669989D01*
X2871403Y-33669985D01*
X2872037Y-33666219D01*
X2872174Y-33655000D01*
X2853718Y-33526125D01*
X2848373Y-33514368D01*
X2802753Y-33414034D01*
X2802752Y-33414033D01*
X2799832Y-33407610D01*
X2742747Y-33341359D01*
X2719455Y-33314327D01*
X2719454Y-33314326D01*
X2714850Y-33308983D01*
X2708933Y-33305148D01*
X2708931Y-33305146D01*
X2611523Y-33242010D01*
X2611521Y-33242009D01*
X2605601Y-33238172D01*
X2480870Y-33200870D01*
X2407593Y-33200422D01*
X2357734Y-33200117D01*
X2357733Y-33200117D01*
X2350683Y-33200074D01*
X2343906Y-33202011D01*
X2343905Y-33202011D01*
X2232285Y-33233912D01*
X2232283Y-33233913D01*
X2225505Y-33235850D01*
X2115400Y-33305321D01*
X2110733Y-33310605D01*
X2110731Y-33310607D01*
X2080243Y-33345129D01*
X2029219Y-33402903D01*
X1973890Y-33520751D01*
X1953860Y-33649390D01*
X-8365694Y-33649390D01*
X-8309138Y-33586907D01*
X-8252373Y-33469744D01*
X-8240237Y-33397615D01*
X-8231407Y-33345129D01*
X-8231407Y-33345125D01*
X-8230773Y-33341359D01*
X-8230636Y-33330140D01*
X-8249092Y-33201265D01*
X-8254437Y-33189508D01*
X-8300057Y-33089174D01*
X-8300058Y-33089173D01*
X-8302978Y-33082750D01*
X-8387960Y-32984123D01*
X-8393877Y-32980288D01*
X-8393879Y-32980286D01*
X-8491287Y-32917150D01*
X-8491289Y-32917149D01*
X-8497209Y-32913312D01*
X-8517942Y-32907112D01*
X-8544158Y-32899271D01*
X-8594492Y-32864483D01*
X-8614765Y-32806754D01*
X-8597233Y-32748134D01*
X-8589190Y-32737986D01*
X-8572591Y-32719648D01*
X-8572591Y-32719647D01*
X-8567859Y-32714420D01*
X-8511094Y-32597257D01*
X-8498637Y-32523219D01*
X-8495806Y-32506390D01*
X1953860Y-32506390D01*
X1970741Y-32635481D01*
X1973579Y-32641932D01*
X1973580Y-32641934D01*
X1977835Y-32651604D01*
X2023174Y-32754645D01*
X2027711Y-32760042D01*
X2027712Y-32760044D01*
X2070496Y-32810941D01*
X2106946Y-32854303D01*
X2112817Y-32858211D01*
X2112818Y-32858212D01*
X2133677Y-32872097D01*
X2215320Y-32926444D01*
X2222047Y-32928546D01*
X2222050Y-32928547D01*
X2332855Y-32963164D01*
X2332856Y-32963164D01*
X2339587Y-32965267D01*
X2406494Y-32966493D01*
X2462702Y-32967524D01*
X2462704Y-32967524D01*
X2469755Y-32967653D01*
X2476558Y-32965798D01*
X2476560Y-32965798D01*
X2544154Y-32947369D01*
X2595360Y-32933409D01*
X2706306Y-32865288D01*
X2793672Y-32768767D01*
X2850437Y-32651604D01*
X2858513Y-32603606D01*
X2871403Y-32526989D01*
X2871403Y-32526985D01*
X2872037Y-32523219D01*
X2872174Y-32512000D01*
X2871371Y-32506390D01*
X6017860Y-32506390D01*
X6034741Y-32635481D01*
X6037579Y-32641932D01*
X6037580Y-32641934D01*
X6041835Y-32651604D01*
X6087174Y-32754645D01*
X6091711Y-32760042D01*
X6091712Y-32760044D01*
X6134496Y-32810941D01*
X6170946Y-32854303D01*
X6176817Y-32858211D01*
X6176818Y-32858212D01*
X6197677Y-32872097D01*
X6279320Y-32926444D01*
X6286047Y-32928546D01*
X6286050Y-32928547D01*
X6396855Y-32963164D01*
X6396856Y-32963164D01*
X6403587Y-32965267D01*
X6470494Y-32966493D01*
X6526702Y-32967524D01*
X6526704Y-32967524D01*
X6533755Y-32967653D01*
X6540558Y-32965798D01*
X6540560Y-32965798D01*
X6608154Y-32947369D01*
X6659360Y-32933409D01*
X6770306Y-32865288D01*
X6857672Y-32768767D01*
X6914437Y-32651604D01*
X6922513Y-32603606D01*
X6935403Y-32526989D01*
X6935403Y-32526985D01*
X6936037Y-32523219D01*
X6936174Y-32512000D01*
X6917718Y-32383125D01*
X6912373Y-32371368D01*
X6866753Y-32271034D01*
X6866752Y-32271033D01*
X6863832Y-32264610D01*
X6785123Y-32173263D01*
X6783455Y-32171327D01*
X6783454Y-32171326D01*
X6778850Y-32165983D01*
X6772933Y-32162148D01*
X6772931Y-32162146D01*
X6675523Y-32099010D01*
X6675521Y-32099009D01*
X6669601Y-32095172D01*
X6544870Y-32057870D01*
X6471593Y-32057422D01*
X6421734Y-32057117D01*
X6421733Y-32057117D01*
X6414683Y-32057074D01*
X6407906Y-32059011D01*
X6407905Y-32059011D01*
X6296285Y-32090912D01*
X6296283Y-32090913D01*
X6289505Y-32092850D01*
X6179400Y-32162321D01*
X6174733Y-32167605D01*
X6174731Y-32167607D01*
X6129902Y-32218367D01*
X6093219Y-32259903D01*
X6037890Y-32377751D01*
X6017860Y-32506390D01*
X2871371Y-32506390D01*
X2853718Y-32383125D01*
X2848373Y-32371368D01*
X2802753Y-32271034D01*
X2802752Y-32271033D01*
X2799832Y-32264610D01*
X2721123Y-32173263D01*
X2719455Y-32171327D01*
X2719454Y-32171326D01*
X2714850Y-32165983D01*
X2708933Y-32162148D01*
X2708931Y-32162146D01*
X2611523Y-32099010D01*
X2611521Y-32099009D01*
X2605601Y-32095172D01*
X2480870Y-32057870D01*
X2407593Y-32057422D01*
X2357734Y-32057117D01*
X2357733Y-32057117D01*
X2350683Y-32057074D01*
X2343906Y-32059011D01*
X2343905Y-32059011D01*
X2232285Y-32090912D01*
X2232283Y-32090913D01*
X2225505Y-32092850D01*
X2115400Y-32162321D01*
X2110733Y-32167605D01*
X2110731Y-32167607D01*
X2065902Y-32218367D01*
X2029219Y-32259903D01*
X1973890Y-32377751D01*
X1953860Y-32506390D01*
X-8495806Y-32506390D01*
X-8490128Y-32472642D01*
X-8490128Y-32472638D01*
X-8489494Y-32468872D01*
X-8489357Y-32457653D01*
X-8507813Y-32328778D01*
X-8513158Y-32317021D01*
X-8558778Y-32216687D01*
X-8558779Y-32216686D01*
X-8561699Y-32210263D01*
X-8646681Y-32111636D01*
X-8652598Y-32107801D01*
X-8652600Y-32107799D01*
X-8750008Y-32044663D01*
X-8750010Y-32044662D01*
X-8755930Y-32040825D01*
X-8867209Y-32007546D01*
X-8917542Y-31972759D01*
X-8937816Y-31915030D01*
X-8921432Y-31859092D01*
X-8919328Y-31856767D01*
X-8915101Y-31848044D01*
X-8865639Y-31745953D01*
X-8864882Y-31744390D01*
X-6809140Y-31744390D01*
X-6792259Y-31873481D01*
X-6789421Y-31879932D01*
X-6789420Y-31879934D01*
X-6785165Y-31889604D01*
X-6739826Y-31992645D01*
X-6735289Y-31998042D01*
X-6735288Y-31998044D01*
X-6721502Y-32014444D01*
X-6656054Y-32092303D01*
X-6650183Y-32096211D01*
X-6650182Y-32096212D01*
X-6632775Y-32107799D01*
X-6547680Y-32164444D01*
X-6540953Y-32166546D01*
X-6540950Y-32166547D01*
X-6430145Y-32201164D01*
X-6430144Y-32201164D01*
X-6423413Y-32203267D01*
X-6356506Y-32204493D01*
X-6300298Y-32205524D01*
X-6300296Y-32205524D01*
X-6293245Y-32205653D01*
X-6286442Y-32203798D01*
X-6286440Y-32203798D01*
X-6218846Y-32185369D01*
X-6167640Y-32171409D01*
X-6056694Y-32103288D01*
X-6047517Y-32093150D01*
X-5974060Y-32011995D01*
X-5974060Y-32011994D01*
X-5969328Y-32006767D01*
X-5912563Y-31889604D01*
X-5907134Y-31857339D01*
X-5891597Y-31764989D01*
X-5891597Y-31764985D01*
X-5890963Y-31761219D01*
X-5890826Y-31750000D01*
X-5909282Y-31621125D01*
X-5914627Y-31609368D01*
X-5960247Y-31509034D01*
X-5960248Y-31509033D01*
X-5963168Y-31502610D01*
X-6016619Y-31440577D01*
X-6043545Y-31409327D01*
X-6043546Y-31409326D01*
X-6048150Y-31403983D01*
X-6054067Y-31400148D01*
X-6054069Y-31400146D01*
X-6151477Y-31337010D01*
X-6151479Y-31337009D01*
X-6157399Y-31333172D01*
X-6282130Y-31295870D01*
X-6355407Y-31295422D01*
X-6405266Y-31295117D01*
X-6405267Y-31295117D01*
X-6412317Y-31295074D01*
X-6419094Y-31297011D01*
X-6419095Y-31297011D01*
X-6530715Y-31328912D01*
X-6530717Y-31328913D01*
X-6537495Y-31330850D01*
X-6647600Y-31400321D01*
X-6652267Y-31405605D01*
X-6652269Y-31405607D01*
X-6729111Y-31492615D01*
X-6733781Y-31497903D01*
X-6789110Y-31615751D01*
X-6809140Y-31744390D01*
X-8864882Y-31744390D01*
X-8862563Y-31739604D01*
X-8860666Y-31728332D01*
X-8841597Y-31614989D01*
X-8841597Y-31614985D01*
X-8840963Y-31611219D01*
X-8840826Y-31600000D01*
X-8859282Y-31471125D01*
X-8864627Y-31459368D01*
X-8910247Y-31359034D01*
X-8910248Y-31359033D01*
X-8913168Y-31352610D01*
X-8998150Y-31253983D01*
X-9004067Y-31250148D01*
X-9004069Y-31250146D01*
X-9101477Y-31187010D01*
X-9101479Y-31187009D01*
X-9107399Y-31183172D01*
X-9232130Y-31145870D01*
X-9305407Y-31145422D01*
X-9355266Y-31145117D01*
X-9355267Y-31145117D01*
X-9362317Y-31145074D01*
X-9369094Y-31147011D01*
X-9369095Y-31147011D01*
X-9480715Y-31178912D01*
X-9480717Y-31178913D01*
X-9487495Y-31180850D01*
X-9597600Y-31250321D01*
X-9602267Y-31255605D01*
X-9602269Y-31255607D01*
X-9670771Y-31333172D01*
X-9683781Y-31347903D01*
X-9739110Y-31465751D01*
X-9759140Y-31594390D01*
X-15776610Y-31594390D01*
X-16443000Y-30928000D01*
X-3328785Y-30928000D01*
X-3309728Y-31072754D01*
X-3253855Y-31207642D01*
X-3164974Y-31323474D01*
X-3159829Y-31327422D01*
X-3159828Y-31327423D01*
X-3054289Y-31408407D01*
X-3054285Y-31408409D01*
X-3049143Y-31412355D01*
X-2914254Y-31468228D01*
X-2769500Y-31487285D01*
X-2624746Y-31468228D01*
X-2489857Y-31412355D01*
X-2484715Y-31408409D01*
X-2484711Y-31408407D01*
X-2379172Y-31327423D01*
X-2379171Y-31327422D01*
X-2374026Y-31323474D01*
X-2285145Y-31207642D01*
X-2229272Y-31072754D01*
X-2210215Y-30928000D01*
X-1878785Y-30928000D01*
X-1859728Y-31072754D01*
X-1803855Y-31207642D01*
X-1714974Y-31323474D01*
X-1709829Y-31327422D01*
X-1709828Y-31327423D01*
X-1604289Y-31408407D01*
X-1604285Y-31408409D01*
X-1599143Y-31412355D01*
X-1464254Y-31468228D01*
X-1319500Y-31487285D01*
X-1174746Y-31468228D01*
X-1039857Y-31412355D01*
X-1034715Y-31408409D01*
X-1034711Y-31408407D01*
X-929172Y-31327423D01*
X-929171Y-31327422D01*
X-924026Y-31323474D01*
X-835145Y-31207642D01*
X-779272Y-31072754D01*
X-760215Y-30928000D01*
X-428785Y-30928000D01*
X-409728Y-31072754D01*
X-353855Y-31207642D01*
X-264974Y-31323474D01*
X-259829Y-31327422D01*
X-259828Y-31327423D01*
X-154289Y-31408407D01*
X-154285Y-31408409D01*
X-149143Y-31412355D01*
X-14254Y-31468228D01*
X130500Y-31487285D01*
X275254Y-31468228D01*
X410143Y-31412355D01*
X415285Y-31408409D01*
X415289Y-31408407D01*
X473956Y-31363390D01*
X2080860Y-31363390D01*
X2081775Y-31370387D01*
X2081775Y-31370388D01*
X2085689Y-31400321D01*
X2097741Y-31492481D01*
X2100579Y-31498932D01*
X2100580Y-31498934D01*
X2107629Y-31514953D01*
X2150174Y-31611645D01*
X2154711Y-31617042D01*
X2154712Y-31617044D01*
X2186111Y-31654397D01*
X2233946Y-31711303D01*
X2239817Y-31715211D01*
X2239818Y-31715212D01*
X2259528Y-31728332D01*
X2342320Y-31783444D01*
X2349047Y-31785546D01*
X2349050Y-31785547D01*
X2459855Y-31820164D01*
X2459856Y-31820164D01*
X2466587Y-31822267D01*
X2533494Y-31823493D01*
X2589702Y-31824524D01*
X2589704Y-31824524D01*
X2596755Y-31824653D01*
X2603558Y-31822798D01*
X2603560Y-31822798D01*
X2671154Y-31804369D01*
X2722360Y-31790409D01*
X2833306Y-31722288D01*
X2839935Y-31714965D01*
X2915940Y-31630995D01*
X2915940Y-31630994D01*
X2920672Y-31625767D01*
X2977437Y-31508604D01*
X2979238Y-31497903D01*
X2998403Y-31383989D01*
X2998403Y-31383985D01*
X2999037Y-31380219D01*
X2999174Y-31369000D01*
X2994250Y-31334613D01*
X2981718Y-31247108D01*
X2980718Y-31240125D01*
X2975373Y-31228368D01*
X2929753Y-31128034D01*
X2929752Y-31128033D01*
X2926832Y-31121610D01*
X2841850Y-31022983D01*
X2835933Y-31019148D01*
X2835931Y-31019146D01*
X2738523Y-30956010D01*
X2738521Y-30956009D01*
X2732601Y-30952172D01*
X2607870Y-30914870D01*
X2534593Y-30914422D01*
X2484734Y-30914117D01*
X2484733Y-30914117D01*
X2477683Y-30914074D01*
X2470906Y-30916011D01*
X2470905Y-30916011D01*
X2359285Y-30947912D01*
X2359283Y-30947913D01*
X2352505Y-30949850D01*
X2242400Y-31019321D01*
X2237733Y-31024605D01*
X2237731Y-31024607D01*
X2160889Y-31111615D01*
X2156219Y-31116903D01*
X2100890Y-31234751D01*
X2080860Y-31363390D01*
X473956Y-31363390D01*
X520828Y-31327423D01*
X520829Y-31327422D01*
X525974Y-31323474D01*
X614855Y-31207642D01*
X670728Y-31072754D01*
X689785Y-30928000D01*
X670728Y-30783246D01*
X614855Y-30648358D01*
X525974Y-30532526D01*
X520821Y-30528572D01*
X415289Y-30447593D01*
X415285Y-30447591D01*
X410143Y-30443645D01*
X275254Y-30387772D01*
X130500Y-30368715D01*
X-14254Y-30387772D01*
X-149142Y-30443645D01*
X-264974Y-30532526D01*
X-353855Y-30648358D01*
X-409728Y-30783246D01*
X-428785Y-30928000D01*
X-760215Y-30928000D01*
X-779272Y-30783246D01*
X-835145Y-30648358D01*
X-924026Y-30532526D01*
X-929179Y-30528572D01*
X-1034711Y-30447593D01*
X-1034715Y-30447591D01*
X-1039857Y-30443645D01*
X-1174746Y-30387772D01*
X-1319500Y-30368715D01*
X-1464254Y-30387772D01*
X-1599142Y-30443645D01*
X-1714974Y-30532526D01*
X-1803855Y-30648358D01*
X-1859728Y-30783246D01*
X-1878785Y-30928000D01*
X-2210215Y-30928000D01*
X-2229272Y-30783246D01*
X-2285145Y-30648358D01*
X-2374026Y-30532526D01*
X-2379179Y-30528572D01*
X-2484711Y-30447593D01*
X-2484715Y-30447591D01*
X-2489857Y-30443645D01*
X-2624746Y-30387772D01*
X-2769500Y-30368715D01*
X-2914254Y-30387772D01*
X-3049142Y-30443645D01*
X-3164974Y-30532526D01*
X-3253855Y-30648358D01*
X-3309728Y-30783246D01*
X-3328785Y-30928000D01*
X-16443000Y-30928000D01*
X-18166610Y-29204390D01*
X-6809140Y-29204390D01*
X-6792259Y-29333481D01*
X-6789421Y-29339932D01*
X-6789420Y-29339934D01*
X-6785165Y-29349604D01*
X-6739826Y-29452645D01*
X-6735289Y-29458042D01*
X-6735288Y-29458044D01*
X-6702651Y-29496870D01*
X-6656054Y-29552303D01*
X-6650183Y-29556211D01*
X-6650182Y-29556212D01*
X-6623570Y-29573927D01*
X-6547680Y-29624444D01*
X-6540953Y-29626546D01*
X-6540950Y-29626547D01*
X-6430145Y-29661164D01*
X-6430144Y-29661164D01*
X-6423413Y-29663267D01*
X-6356506Y-29664493D01*
X-6300298Y-29665524D01*
X-6300296Y-29665524D01*
X-6293245Y-29665653D01*
X-6286442Y-29663798D01*
X-6286440Y-29663798D01*
X-6185173Y-29636189D01*
X-6167640Y-29631409D01*
X-6056694Y-29563288D01*
X-6026503Y-29529934D01*
X-5979495Y-29478000D01*
X-3328785Y-29478000D01*
X-3309728Y-29622754D01*
X-3253855Y-29757642D01*
X-3164974Y-29873474D01*
X-3159829Y-29877422D01*
X-3159828Y-29877423D01*
X-3054289Y-29958407D01*
X-3054285Y-29958409D01*
X-3049143Y-29962355D01*
X-2914254Y-30018228D01*
X-2769500Y-30037285D01*
X-2624746Y-30018228D01*
X-2489857Y-29962355D01*
X-2484715Y-29958409D01*
X-2484711Y-29958407D01*
X-2379172Y-29877423D01*
X-2379171Y-29877422D01*
X-2374026Y-29873474D01*
X-2285145Y-29757642D01*
X-2229272Y-29622754D01*
X-2210215Y-29478000D01*
X-1878785Y-29478000D01*
X-1859728Y-29622754D01*
X-1803855Y-29757642D01*
X-1714974Y-29873474D01*
X-1709829Y-29877422D01*
X-1709828Y-29877423D01*
X-1604289Y-29958407D01*
X-1604285Y-29958409D01*
X-1599143Y-29962355D01*
X-1464254Y-30018228D01*
X-1319500Y-30037285D01*
X-1174746Y-30018228D01*
X-1039857Y-29962355D01*
X-1034715Y-29958409D01*
X-1034711Y-29958407D01*
X-929172Y-29877423D01*
X-929171Y-29877422D01*
X-924026Y-29873474D01*
X-835145Y-29757642D01*
X-779272Y-29622754D01*
X-760215Y-29478000D01*
X-428785Y-29478000D01*
X-409728Y-29622754D01*
X-353855Y-29757642D01*
X-264974Y-29873474D01*
X-259829Y-29877422D01*
X-259828Y-29877423D01*
X-154289Y-29958407D01*
X-154285Y-29958409D01*
X-149143Y-29962355D01*
X-14254Y-30018228D01*
X130500Y-30037285D01*
X275254Y-30018228D01*
X410143Y-29962355D01*
X415285Y-29958409D01*
X415289Y-29958407D01*
X520828Y-29877423D01*
X520829Y-29877422D01*
X525974Y-29873474D01*
X614855Y-29757642D01*
X670728Y-29622754D01*
X689785Y-29478000D01*
X670728Y-29333246D01*
X614855Y-29198358D01*
X525974Y-29082526D01*
X517145Y-29075751D01*
X415289Y-28997593D01*
X415285Y-28997591D01*
X410143Y-28993645D01*
X305716Y-28950390D01*
X6017860Y-28950390D01*
X6034741Y-29079481D01*
X6037579Y-29085932D01*
X6037580Y-29085934D01*
X6041835Y-29095604D01*
X6087174Y-29198645D01*
X6091711Y-29204042D01*
X6091712Y-29204044D01*
X6128569Y-29247890D01*
X6170946Y-29298303D01*
X6176817Y-29302211D01*
X6176818Y-29302212D01*
X6203430Y-29319927D01*
X6279320Y-29370444D01*
X6286047Y-29372546D01*
X6286050Y-29372547D01*
X6396855Y-29407164D01*
X6396856Y-29407164D01*
X6403587Y-29409267D01*
X6470494Y-29410493D01*
X6526702Y-29411524D01*
X6526704Y-29411524D01*
X6533755Y-29411653D01*
X6540558Y-29409798D01*
X6540560Y-29409798D01*
X6597075Y-29394390D01*
X8140860Y-29394390D01*
X8141775Y-29401387D01*
X8141775Y-29401388D01*
X8143117Y-29411653D01*
X8157741Y-29523481D01*
X8160579Y-29529932D01*
X8160580Y-29529934D01*
X8164835Y-29539604D01*
X8210174Y-29642645D01*
X8214711Y-29648042D01*
X8214712Y-29648044D01*
X8227617Y-29663396D01*
X8293946Y-29742303D01*
X8299817Y-29746211D01*
X8299818Y-29746212D01*
X8316989Y-29757642D01*
X8402320Y-29814444D01*
X8409047Y-29816546D01*
X8409050Y-29816547D01*
X8519855Y-29851164D01*
X8519856Y-29851164D01*
X8526587Y-29853267D01*
X8593494Y-29854493D01*
X8649702Y-29855524D01*
X8649704Y-29855524D01*
X8656755Y-29855653D01*
X8663558Y-29853798D01*
X8663560Y-29853798D01*
X8731154Y-29835369D01*
X8782360Y-29821409D01*
X8893306Y-29753288D01*
X8980672Y-29656767D01*
X9028497Y-29558057D01*
X9034361Y-29545953D01*
X9037437Y-29539604D01*
X9049692Y-29466767D01*
X9058403Y-29414989D01*
X9058403Y-29414985D01*
X9059037Y-29411219D01*
X9059174Y-29400000D01*
X9055411Y-29373720D01*
X9041718Y-29278108D01*
X9040718Y-29271125D01*
X9035373Y-29259368D01*
X8989753Y-29159034D01*
X8989752Y-29159033D01*
X8986832Y-29152610D01*
X8923820Y-29079481D01*
X8906455Y-29059327D01*
X8906454Y-29059326D01*
X8901850Y-29053983D01*
X8895933Y-29050148D01*
X8895931Y-29050146D01*
X8798523Y-28987010D01*
X8798521Y-28987009D01*
X8792601Y-28983172D01*
X8667870Y-28945870D01*
X8594593Y-28945422D01*
X8544734Y-28945117D01*
X8544733Y-28945117D01*
X8537683Y-28945074D01*
X8530906Y-28947011D01*
X8530905Y-28947011D01*
X8419285Y-28978912D01*
X8419283Y-28978913D01*
X8412505Y-28980850D01*
X8302400Y-29050321D01*
X8297733Y-29055605D01*
X8297731Y-29055607D01*
X8256800Y-29101953D01*
X8216219Y-29147903D01*
X8160890Y-29265751D01*
X8140860Y-29394390D01*
X6597075Y-29394390D01*
X6622655Y-29387416D01*
X6659360Y-29377409D01*
X6770306Y-29309288D01*
X6825881Y-29247890D01*
X6852940Y-29217995D01*
X6852940Y-29217994D01*
X6857672Y-29212767D01*
X6914437Y-29095604D01*
X6915699Y-29088108D01*
X6935403Y-28970989D01*
X6935403Y-28970985D01*
X6936037Y-28967219D01*
X6936174Y-28956000D01*
X6934616Y-28945117D01*
X6918718Y-28834108D01*
X6917718Y-28827125D01*
X6912373Y-28815368D01*
X6866753Y-28715034D01*
X6866752Y-28715033D01*
X6863832Y-28708610D01*
X6778850Y-28609983D01*
X6772933Y-28606148D01*
X6772931Y-28606146D01*
X6675523Y-28543010D01*
X6675521Y-28543009D01*
X6669601Y-28539172D01*
X6544870Y-28501870D01*
X6471593Y-28501422D01*
X6421734Y-28501117D01*
X6421733Y-28501117D01*
X6414683Y-28501074D01*
X6407906Y-28503011D01*
X6407905Y-28503011D01*
X6296285Y-28534912D01*
X6296283Y-28534913D01*
X6289505Y-28536850D01*
X6179400Y-28606321D01*
X6174733Y-28611605D01*
X6174731Y-28611607D01*
X6097889Y-28698615D01*
X6093219Y-28703903D01*
X6037890Y-28821751D01*
X6017860Y-28950390D01*
X305716Y-28950390D01*
X275254Y-28937772D01*
X130500Y-28918715D01*
X-14254Y-28937772D01*
X-149142Y-28993645D01*
X-264974Y-29082526D01*
X-353855Y-29198358D01*
X-409728Y-29333246D01*
X-428785Y-29478000D01*
X-760215Y-29478000D01*
X-779272Y-29333246D01*
X-835145Y-29198358D01*
X-924026Y-29082526D01*
X-932855Y-29075751D01*
X-1034711Y-28997593D01*
X-1034715Y-28997591D01*
X-1039857Y-28993645D01*
X-1174746Y-28937772D01*
X-1319500Y-28918715D01*
X-1464254Y-28937772D01*
X-1599142Y-28993645D01*
X-1714974Y-29082526D01*
X-1803855Y-29198358D01*
X-1859728Y-29333246D01*
X-1878785Y-29478000D01*
X-2210215Y-29478000D01*
X-2229272Y-29333246D01*
X-2285145Y-29198358D01*
X-2374026Y-29082526D01*
X-2382855Y-29075751D01*
X-2484711Y-28997593D01*
X-2484715Y-28997591D01*
X-2489857Y-28993645D01*
X-2624746Y-28937772D01*
X-2769500Y-28918715D01*
X-2914254Y-28937772D01*
X-3049142Y-28993645D01*
X-3164974Y-29082526D01*
X-3253855Y-29198358D01*
X-3309728Y-29333246D01*
X-3328785Y-29478000D01*
X-5979495Y-29478000D01*
X-5974060Y-29471995D01*
X-5974060Y-29471994D01*
X-5969328Y-29466767D01*
X-5912563Y-29349604D01*
X-5910893Y-29339682D01*
X-5891597Y-29224989D01*
X-5891597Y-29224985D01*
X-5890963Y-29221219D01*
X-5890826Y-29210000D01*
X-5909282Y-29081125D01*
X-5914627Y-29069368D01*
X-5960247Y-28969034D01*
X-5960248Y-28969033D01*
X-5963168Y-28962610D01*
X-6048150Y-28863983D01*
X-6054067Y-28860148D01*
X-6054069Y-28860146D01*
X-6151477Y-28797010D01*
X-6151479Y-28797009D01*
X-6157399Y-28793172D01*
X-6282130Y-28755870D01*
X-6355407Y-28755422D01*
X-6405266Y-28755117D01*
X-6405267Y-28755117D01*
X-6412317Y-28755074D01*
X-6419094Y-28757011D01*
X-6419095Y-28757011D01*
X-6530715Y-28788912D01*
X-6530717Y-28788913D01*
X-6537495Y-28790850D01*
X-6647600Y-28860321D01*
X-6652267Y-28865605D01*
X-6652269Y-28865607D01*
X-6729111Y-28952615D01*
X-6733781Y-28957903D01*
X-6789110Y-29075751D01*
X-6809140Y-29204390D01*
X-18166610Y-29204390D01*
X-19343000Y-28028000D01*
X-3328785Y-28028000D01*
X-3309728Y-28172754D01*
X-3253855Y-28307642D01*
X-3164974Y-28423474D01*
X-3159829Y-28427422D01*
X-3159828Y-28427423D01*
X-3054289Y-28508407D01*
X-3054285Y-28508409D01*
X-3049143Y-28512355D01*
X-2914254Y-28568228D01*
X-2769500Y-28587285D01*
X-2624746Y-28568228D01*
X-2489857Y-28512355D01*
X-2484715Y-28508409D01*
X-2484711Y-28508407D01*
X-2379172Y-28427423D01*
X-2379171Y-28427422D01*
X-2374026Y-28423474D01*
X-2285145Y-28307642D01*
X-2229272Y-28172754D01*
X-2210215Y-28028000D01*
X-1878785Y-28028000D01*
X-1859728Y-28172754D01*
X-1803855Y-28307642D01*
X-1714974Y-28423474D01*
X-1709829Y-28427422D01*
X-1709828Y-28427423D01*
X-1604289Y-28508407D01*
X-1604285Y-28508409D01*
X-1599143Y-28512355D01*
X-1464254Y-28568228D01*
X-1319500Y-28587285D01*
X-1174746Y-28568228D01*
X-1039857Y-28512355D01*
X-1034715Y-28508409D01*
X-1034711Y-28508407D01*
X-929172Y-28427423D01*
X-929171Y-28427422D01*
X-924026Y-28423474D01*
X-835145Y-28307642D01*
X-779272Y-28172754D01*
X-760215Y-28028000D01*
X-428785Y-28028000D01*
X-409728Y-28172754D01*
X-353855Y-28307642D01*
X-264974Y-28423474D01*
X-259829Y-28427422D01*
X-259828Y-28427423D01*
X-154289Y-28508407D01*
X-154285Y-28508409D01*
X-149143Y-28512355D01*
X-14254Y-28568228D01*
X130500Y-28587285D01*
X275254Y-28568228D01*
X410143Y-28512355D01*
X415285Y-28508409D01*
X415289Y-28508407D01*
X520828Y-28427423D01*
X520829Y-28427422D01*
X525974Y-28423474D01*
X614855Y-28307642D01*
X670728Y-28172754D01*
X689785Y-28028000D01*
X670728Y-27883246D01*
X614855Y-27748358D01*
X525974Y-27632526D01*
X446580Y-27571604D01*
X415289Y-27547593D01*
X415285Y-27547591D01*
X410143Y-27543645D01*
X275254Y-27487772D01*
X130500Y-27468715D01*
X-14254Y-27487772D01*
X-149142Y-27543645D01*
X-264974Y-27632526D01*
X-353855Y-27748358D01*
X-409728Y-27883246D01*
X-428785Y-28028000D01*
X-760215Y-28028000D01*
X-779272Y-27883246D01*
X-835145Y-27748358D01*
X-924026Y-27632526D01*
X-1003420Y-27571604D01*
X-1034711Y-27547593D01*
X-1034715Y-27547591D01*
X-1039857Y-27543645D01*
X-1174746Y-27487772D01*
X-1319500Y-27468715D01*
X-1464254Y-27487772D01*
X-1599142Y-27543645D01*
X-1714974Y-27632526D01*
X-1803855Y-27748358D01*
X-1859728Y-27883246D01*
X-1878785Y-28028000D01*
X-2210215Y-28028000D01*
X-2229272Y-27883246D01*
X-2285145Y-27748358D01*
X-2374026Y-27632526D01*
X-2453420Y-27571604D01*
X-2484711Y-27547593D01*
X-2484715Y-27547591D01*
X-2489857Y-27543645D01*
X-2624746Y-27487772D01*
X-2769500Y-27468715D01*
X-2914254Y-27487772D01*
X-3049142Y-27543645D01*
X-3164974Y-27632526D01*
X-3253855Y-27748358D01*
X-3309728Y-27883246D01*
X-3328785Y-28028000D01*
X-19343000Y-28028000D01*
X-19944610Y-27426390D01*
X-5285140Y-27426390D01*
X-5268259Y-27555481D01*
X-5265421Y-27561932D01*
X-5265420Y-27561934D01*
X-5261165Y-27571604D01*
X-5215826Y-27674645D01*
X-5211289Y-27680042D01*
X-5211288Y-27680044D01*
X-5163740Y-27736609D01*
X-5132054Y-27774303D01*
X-5126183Y-27778211D01*
X-5126182Y-27778212D01*
X-5099570Y-27795927D01*
X-5023680Y-27846444D01*
X-5016953Y-27848546D01*
X-5016950Y-27848547D01*
X-4906145Y-27883164D01*
X-4906144Y-27883164D01*
X-4899413Y-27885267D01*
X-4832506Y-27886493D01*
X-4776298Y-27887524D01*
X-4776296Y-27887524D01*
X-4769245Y-27887653D01*
X-4762442Y-27885798D01*
X-4762440Y-27885798D01*
X-4694846Y-27867369D01*
X-4643640Y-27853409D01*
X-4532694Y-27785288D01*
X-4445328Y-27688767D01*
X-4388563Y-27571604D01*
X-4384523Y-27547596D01*
X-4367597Y-27446989D01*
X-4367597Y-27446985D01*
X-4366963Y-27443219D01*
X-4366826Y-27432000D01*
X-4385282Y-27303125D01*
X-4390627Y-27291368D01*
X-4436247Y-27191034D01*
X-4436248Y-27191033D01*
X-4439168Y-27184610D01*
X-4517877Y-27093263D01*
X-4519545Y-27091327D01*
X-4519546Y-27091326D01*
X-4524150Y-27085983D01*
X-4530067Y-27082148D01*
X-4530069Y-27082146D01*
X-4627477Y-27019010D01*
X-4627479Y-27019009D01*
X-4633399Y-27015172D01*
X-4758130Y-26977870D01*
X-4831407Y-26977422D01*
X-4881266Y-26977117D01*
X-4881267Y-26977117D01*
X-4888317Y-26977074D01*
X-4895094Y-26979011D01*
X-4895095Y-26979011D01*
X-5006715Y-27010912D01*
X-5006717Y-27010913D01*
X-5013495Y-27012850D01*
X-5123600Y-27082321D01*
X-5128267Y-27087605D01*
X-5128269Y-27087607D01*
X-5205111Y-27174615D01*
X-5209781Y-27179903D01*
X-5265110Y-27297751D01*
X-5285140Y-27426390D01*
X-19944610Y-27426390D01*
X-20375385Y-26995615D01*
X-20403162Y-26941098D01*
X-20399799Y-26895841D01*
X-20397924Y-26889896D01*
X-20374707Y-26816260D01*
X-20341038Y-26664390D01*
X6017860Y-26664390D01*
X6034741Y-26793481D01*
X6037579Y-26799932D01*
X6037580Y-26799934D01*
X6053839Y-26836885D01*
X6087174Y-26912645D01*
X6091711Y-26918042D01*
X6091712Y-26918044D01*
X6111091Y-26941098D01*
X6170946Y-27012303D01*
X6176817Y-27016211D01*
X6176818Y-27016212D01*
X6203430Y-27033927D01*
X6279320Y-27084444D01*
X6286047Y-27086546D01*
X6286050Y-27086547D01*
X6396855Y-27121164D01*
X6396856Y-27121164D01*
X6403587Y-27123267D01*
X6470494Y-27124493D01*
X6526702Y-27125524D01*
X6526704Y-27125524D01*
X6533755Y-27125653D01*
X6540558Y-27123798D01*
X6540560Y-27123798D01*
X6608154Y-27105369D01*
X6659360Y-27091409D01*
X6770306Y-27023288D01*
X6779483Y-27013150D01*
X6852940Y-26931995D01*
X6852940Y-26931994D01*
X6857672Y-26926767D01*
X6914437Y-26809604D01*
X6936037Y-26681219D01*
X6936093Y-26676692D01*
X6936127Y-26673827D01*
X6936174Y-26670000D01*
X6917718Y-26541125D01*
X6912373Y-26529368D01*
X6866753Y-26429034D01*
X6866752Y-26429033D01*
X6863832Y-26422610D01*
X6778850Y-26323983D01*
X6772933Y-26320148D01*
X6772931Y-26320146D01*
X6675523Y-26257010D01*
X6675521Y-26257009D01*
X6669601Y-26253172D01*
X6544870Y-26215870D01*
X6471593Y-26215422D01*
X6421734Y-26215117D01*
X6421733Y-26215117D01*
X6414683Y-26215074D01*
X6407906Y-26217011D01*
X6407905Y-26217011D01*
X6296285Y-26248912D01*
X6296283Y-26248913D01*
X6289505Y-26250850D01*
X6179400Y-26320321D01*
X6174733Y-26325605D01*
X6174731Y-26325607D01*
X6100892Y-26409215D01*
X6093219Y-26417903D01*
X6037890Y-26535751D01*
X6017860Y-26664390D01*
X-20341038Y-26664390D01*
X-20275398Y-26368304D01*
X-20275118Y-26366178D01*
X-20275116Y-26366166D01*
X-20215790Y-25915536D01*
X-20215508Y-25913396D01*
X-20195494Y-25455000D01*
X-20215508Y-24996604D01*
X-20235547Y-24844390D01*
X-20275116Y-24543834D01*
X-20275118Y-24543822D01*
X-20275398Y-24541696D01*
X-20374707Y-24093740D01*
X-20512681Y-23656143D01*
X-20529147Y-23616390D01*
X13510860Y-23616390D01*
X13511775Y-23623387D01*
X13511775Y-23623388D01*
X13516058Y-23656143D01*
X13527741Y-23745481D01*
X13530579Y-23751932D01*
X13530580Y-23751934D01*
X13534835Y-23761604D01*
X13580174Y-23864645D01*
X13584711Y-23870042D01*
X13584712Y-23870044D01*
X13631486Y-23925688D01*
X13663946Y-23964303D01*
X13669817Y-23968211D01*
X13669818Y-23968212D01*
X13696430Y-23985927D01*
X13772320Y-24036444D01*
X13779047Y-24038546D01*
X13779050Y-24038547D01*
X13889855Y-24073164D01*
X13889856Y-24073164D01*
X13896587Y-24075267D01*
X13963494Y-24076493D01*
X14019702Y-24077524D01*
X14019704Y-24077524D01*
X14026755Y-24077653D01*
X14033558Y-24075798D01*
X14033560Y-24075798D01*
X14101154Y-24057369D01*
X14152360Y-24043409D01*
X14263306Y-23975288D01*
X14308202Y-23925688D01*
X14345940Y-23883995D01*
X14345940Y-23883994D01*
X14350672Y-23878767D01*
X14407437Y-23761604D01*
X14424833Y-23658211D01*
X14428403Y-23636989D01*
X14428403Y-23636985D01*
X14429037Y-23633219D01*
X14429174Y-23622000D01*
X14410718Y-23493125D01*
X14405373Y-23481368D01*
X14359753Y-23381034D01*
X14359752Y-23381033D01*
X14356832Y-23374610D01*
X14271850Y-23275983D01*
X14265933Y-23272148D01*
X14265931Y-23272146D01*
X14168523Y-23209010D01*
X14168521Y-23209009D01*
X14162601Y-23205172D01*
X14037870Y-23167870D01*
X13964593Y-23167422D01*
X13914734Y-23167117D01*
X13914733Y-23167117D01*
X13907683Y-23167074D01*
X13900906Y-23169011D01*
X13900905Y-23169011D01*
X13789285Y-23200912D01*
X13789283Y-23200913D01*
X13782505Y-23202850D01*
X13672400Y-23272321D01*
X13667733Y-23277605D01*
X13667731Y-23277607D01*
X13664446Y-23281327D01*
X13586219Y-23369903D01*
X13530890Y-23487751D01*
X13510860Y-23616390D01*
X-20529147Y-23616390D01*
X-20688269Y-23232237D01*
X-20900134Y-22825247D01*
X-21146665Y-22438271D01*
X-21425985Y-22074255D01*
X-21735968Y-21735968D01*
X-22074255Y-21425985D01*
X-22438271Y-21146665D01*
X-22825247Y-20900134D01*
X-22879833Y-20871718D01*
X-22992244Y-20813201D01*
X-23232237Y-20688269D01*
X-23656143Y-20512681D01*
X-24093740Y-20374707D01*
X-24095852Y-20374239D01*
X-24095855Y-20374238D01*
X-24188308Y-20353742D01*
X-24541696Y-20275398D01*
X-24543822Y-20275118D01*
X-24543834Y-20275116D01*
X-24844390Y-20235547D01*
X-24996604Y-20215508D01*
X-25455000Y-20195494D01*
X-25913396Y-20215508D01*
X-26065610Y-20235547D01*
X-26366166Y-20275116D01*
X-26366178Y-20275118D01*
X-26368304Y-20275398D01*
X-26721692Y-20353742D01*
X-26814145Y-20374238D01*
X-26814148Y-20374239D01*
X-26816260Y-20374707D01*
X-26895842Y-20399799D01*
X-26957024Y-20399265D01*
X-26995615Y-20375385D01*
X-29088610Y-18282390D01*
X-9603140Y-18282390D01*
X-9586259Y-18411481D01*
X-9583421Y-18417932D01*
X-9583420Y-18417934D01*
X-9579165Y-18427604D01*
X-9533826Y-18530645D01*
X-9529289Y-18536042D01*
X-9529288Y-18536044D01*
X-9481740Y-18592609D01*
X-9450054Y-18630303D01*
X-9444183Y-18634211D01*
X-9444182Y-18634212D01*
X-9417570Y-18651927D01*
X-9341680Y-18702444D01*
X-9334953Y-18704546D01*
X-9334950Y-18704547D01*
X-9224145Y-18739164D01*
X-9224144Y-18739164D01*
X-9217413Y-18741267D01*
X-9150506Y-18742493D01*
X-9094298Y-18743524D01*
X-9094296Y-18743524D01*
X-9087245Y-18743653D01*
X-9080442Y-18741798D01*
X-9080440Y-18741798D01*
X-9012846Y-18723369D01*
X-8961640Y-18709409D01*
X-8850694Y-18641288D01*
X-8763328Y-18544767D01*
X-8706563Y-18427604D01*
X-8684963Y-18299219D01*
X-8684826Y-18288000D01*
X-8703282Y-18159125D01*
X-8708627Y-18147368D01*
X-8754247Y-18047034D01*
X-8754248Y-18047033D01*
X-8757168Y-18040610D01*
X-8842150Y-17941983D01*
X-8848067Y-17938148D01*
X-8848069Y-17938146D01*
X-8945477Y-17875010D01*
X-8945479Y-17875009D01*
X-8951399Y-17871172D01*
X-9076130Y-17833870D01*
X-9149407Y-17833422D01*
X-9199266Y-17833117D01*
X-9199267Y-17833117D01*
X-9206317Y-17833074D01*
X-9213094Y-17835011D01*
X-9213095Y-17835011D01*
X-9324715Y-17866912D01*
X-9324717Y-17866913D01*
X-9331495Y-17868850D01*
X-9441600Y-17938321D01*
X-9446267Y-17943605D01*
X-9446269Y-17943607D01*
X-9449554Y-17947327D01*
X-9527781Y-18035903D01*
X-9583110Y-18153751D01*
X-9603140Y-18282390D01*
X-29088610Y-18282390D01*
X-32812932Y-14558068D01*
X-32817360Y-14553339D01*
X-32881735Y-14479934D01*
X-32983431Y-14363972D01*
X-32991307Y-14353708D01*
X-32997533Y-14344390D01*
X-27209140Y-14344390D01*
X-27192259Y-14473481D01*
X-27189421Y-14479932D01*
X-27189420Y-14479934D01*
X-27188023Y-14483108D01*
X-27139826Y-14592645D01*
X-27135288Y-14598044D01*
X-27135287Y-14598045D01*
X-27058641Y-14689225D01*
X-27035670Y-14745935D01*
X-27050420Y-14805316D01*
X-27060213Y-14818456D01*
X-27104660Y-14868782D01*
X-27159989Y-14986630D01*
X-27180019Y-15115269D01*
X-27163138Y-15244360D01*
X-27160300Y-15250811D01*
X-27160299Y-15250813D01*
X-27156044Y-15260483D01*
X-27110705Y-15363524D01*
X-27106167Y-15368923D01*
X-27106166Y-15368924D01*
X-27075437Y-15405480D01*
X-27052466Y-15462190D01*
X-27067216Y-15521571D01*
X-27077015Y-15534717D01*
X-27097495Y-15557907D01*
X-27125539Y-15589661D01*
X-27180868Y-15707509D01*
X-27200898Y-15836148D01*
X-27184017Y-15965239D01*
X-27181179Y-15971690D01*
X-27181178Y-15971692D01*
X-27176923Y-15981362D01*
X-27131584Y-16084403D01*
X-27127047Y-16089800D01*
X-27127046Y-16089802D01*
X-27079498Y-16146367D01*
X-27047812Y-16184061D01*
X-27041941Y-16187969D01*
X-27041940Y-16187970D01*
X-27015328Y-16205685D01*
X-26939438Y-16256202D01*
X-26932711Y-16258304D01*
X-26932708Y-16258305D01*
X-26821903Y-16292922D01*
X-26821902Y-16292922D01*
X-26815171Y-16295025D01*
X-26748264Y-16296251D01*
X-26692056Y-16297282D01*
X-26692054Y-16297282D01*
X-26685003Y-16297411D01*
X-26678200Y-16295556D01*
X-26678198Y-16295556D01*
X-26610604Y-16277127D01*
X-26559398Y-16263167D01*
X-26448452Y-16195046D01*
X-26361086Y-16098525D01*
X-26304321Y-15981362D01*
X-26282721Y-15852977D01*
X-26282584Y-15841758D01*
X-26301040Y-15712883D01*
X-26306385Y-15701126D01*
X-26352005Y-15600792D01*
X-26352006Y-15600791D01*
X-26354926Y-15594368D01*
X-26386343Y-15557906D01*
X-26410004Y-15501482D01*
X-26395980Y-15441926D01*
X-26384742Y-15426848D01*
X-26344939Y-15382874D01*
X-26344939Y-15382873D01*
X-26340207Y-15377646D01*
X-26332331Y-15361390D01*
X-459140Y-15361390D01*
X-442259Y-15490481D01*
X-439421Y-15496932D01*
X-439420Y-15496934D01*
X-435165Y-15506604D01*
X-389826Y-15609645D01*
X-385289Y-15615042D01*
X-385288Y-15615044D01*
X-337740Y-15671609D01*
X-306054Y-15709303D01*
X-300183Y-15713211D01*
X-300182Y-15713212D01*
X-273570Y-15730927D01*
X-197680Y-15781444D01*
X-190953Y-15783546D01*
X-190950Y-15783547D01*
X-80145Y-15818164D01*
X-80144Y-15818164D01*
X-73413Y-15820267D01*
X-6506Y-15821493D01*
X49702Y-15822524D01*
X49704Y-15822524D01*
X56755Y-15822653D01*
X63558Y-15820798D01*
X63560Y-15820798D01*
X131154Y-15802369D01*
X182360Y-15788409D01*
X293306Y-15720288D01*
X310651Y-15701126D01*
X375940Y-15628995D01*
X375940Y-15628994D01*
X380672Y-15623767D01*
X437437Y-15506604D01*
X440475Y-15488551D01*
X458403Y-15381989D01*
X458403Y-15381985D01*
X459037Y-15378219D01*
X459174Y-15367000D01*
X440718Y-15238125D01*
X435373Y-15226368D01*
X389753Y-15126034D01*
X389752Y-15126033D01*
X386832Y-15119610D01*
X308123Y-15028263D01*
X306455Y-15026327D01*
X306454Y-15026326D01*
X301850Y-15020983D01*
X295933Y-15017148D01*
X295931Y-15017146D01*
X198523Y-14954010D01*
X198521Y-14954009D01*
X192601Y-14950172D01*
X67870Y-14912870D01*
X-5407Y-14912422D01*
X-55266Y-14912117D01*
X-55267Y-14912117D01*
X-62317Y-14912074D01*
X-69094Y-14914011D01*
X-69095Y-14914011D01*
X-180715Y-14945912D01*
X-180717Y-14945913D01*
X-187495Y-14947850D01*
X-297600Y-15017321D01*
X-302267Y-15022605D01*
X-302269Y-15022607D01*
X-377945Y-15108295D01*
X-383781Y-15114903D01*
X-439110Y-15232751D01*
X-459140Y-15361390D01*
X-26332331Y-15361390D01*
X-26283442Y-15260483D01*
X-26261842Y-15132098D01*
X-26261705Y-15120879D01*
X-26280161Y-14992004D01*
X-26285506Y-14980247D01*
X-26331126Y-14879913D01*
X-26331127Y-14879912D01*
X-26334047Y-14873489D01*
X-26411920Y-14783112D01*
X-26435581Y-14726687D01*
X-26421557Y-14667130D01*
X-26410319Y-14652053D01*
X-26374060Y-14611995D01*
X-26374060Y-14611994D01*
X-26369328Y-14606767D01*
X-26312563Y-14489604D01*
X-26310563Y-14477721D01*
X-26291597Y-14364989D01*
X-26291597Y-14364985D01*
X-26290963Y-14361219D01*
X-26290826Y-14350000D01*
X-26309282Y-14221125D01*
X-26314627Y-14209368D01*
X-26343835Y-14145129D01*
X-639879Y-14145129D01*
X-622998Y-14274220D01*
X-620160Y-14280671D01*
X-620159Y-14280673D01*
X-615904Y-14290343D01*
X-570565Y-14393384D01*
X-566028Y-14398781D01*
X-566027Y-14398783D01*
X-542863Y-14426339D01*
X-486793Y-14493042D01*
X-480922Y-14496950D01*
X-480921Y-14496951D01*
X-454309Y-14514666D01*
X-378419Y-14565183D01*
X-371692Y-14567285D01*
X-371689Y-14567286D01*
X-260884Y-14601903D01*
X-260883Y-14601903D01*
X-254152Y-14604006D01*
X-187245Y-14605232D01*
X-131037Y-14606263D01*
X-131035Y-14606263D01*
X-123984Y-14606392D01*
X-117181Y-14604537D01*
X-117179Y-14604537D01*
X-98301Y-14599390D01*
X3985860Y-14599390D01*
X4002741Y-14728481D01*
X4005579Y-14734932D01*
X4005580Y-14734934D01*
X4009835Y-14744604D01*
X4055174Y-14847645D01*
X4059711Y-14853042D01*
X4059712Y-14853044D01*
X4076898Y-14873489D01*
X4138946Y-14947303D01*
X4144817Y-14951211D01*
X4144818Y-14951212D01*
X4171430Y-14968927D01*
X4247320Y-15019444D01*
X4254047Y-15021546D01*
X4254050Y-15021547D01*
X4364855Y-15056164D01*
X4364856Y-15056164D01*
X4371587Y-15058267D01*
X4438494Y-15059493D01*
X4494702Y-15060524D01*
X4494704Y-15060524D01*
X4501755Y-15060653D01*
X4508558Y-15058798D01*
X4508560Y-15058798D01*
X4576154Y-15040369D01*
X4627360Y-15026409D01*
X4738306Y-14958288D01*
X4747483Y-14948150D01*
X4820940Y-14866995D01*
X4820940Y-14866994D01*
X4825672Y-14861767D01*
X4882437Y-14744604D01*
X4885452Y-14726687D01*
X4903403Y-14619989D01*
X4903403Y-14619985D01*
X4904037Y-14616219D01*
X4904174Y-14605000D01*
X4903371Y-14599390D01*
X5255860Y-14599390D01*
X5272741Y-14728481D01*
X5275579Y-14734932D01*
X5275580Y-14734934D01*
X5279835Y-14744604D01*
X5325174Y-14847645D01*
X5329711Y-14853042D01*
X5329712Y-14853044D01*
X5346898Y-14873489D01*
X5408946Y-14947303D01*
X5414817Y-14951211D01*
X5414818Y-14951212D01*
X5441430Y-14968927D01*
X5517320Y-15019444D01*
X5524047Y-15021546D01*
X5524050Y-15021547D01*
X5634855Y-15056164D01*
X5634856Y-15056164D01*
X5641587Y-15058267D01*
X5708494Y-15059493D01*
X5764702Y-15060524D01*
X5764704Y-15060524D01*
X5771755Y-15060653D01*
X5778558Y-15058798D01*
X5778560Y-15058798D01*
X5846154Y-15040369D01*
X5897360Y-15026409D01*
X6008306Y-14958288D01*
X6017483Y-14948150D01*
X6090940Y-14866995D01*
X6090940Y-14866994D01*
X6095672Y-14861767D01*
X6152437Y-14744604D01*
X6155452Y-14726687D01*
X6173403Y-14619989D01*
X6173403Y-14619985D01*
X6174037Y-14616219D01*
X6174174Y-14605000D01*
X6173371Y-14599390D01*
X6525860Y-14599390D01*
X6542741Y-14728481D01*
X6545579Y-14734932D01*
X6545580Y-14734934D01*
X6549835Y-14744604D01*
X6595174Y-14847645D01*
X6599711Y-14853042D01*
X6599712Y-14853044D01*
X6616898Y-14873489D01*
X6678946Y-14947303D01*
X6684817Y-14951211D01*
X6684818Y-14951212D01*
X6711430Y-14968927D01*
X6787320Y-15019444D01*
X6794047Y-15021546D01*
X6794050Y-15021547D01*
X6904855Y-15056164D01*
X6904856Y-15056164D01*
X6911587Y-15058267D01*
X6978494Y-15059493D01*
X7034702Y-15060524D01*
X7034704Y-15060524D01*
X7041755Y-15060653D01*
X7048558Y-15058798D01*
X7048560Y-15058798D01*
X7116154Y-15040369D01*
X7167360Y-15026409D01*
X7278306Y-14958288D01*
X7287483Y-14948150D01*
X7360940Y-14866995D01*
X7360940Y-14866994D01*
X7365672Y-14861767D01*
X7422437Y-14744604D01*
X7425452Y-14726687D01*
X7443403Y-14619989D01*
X7443403Y-14619985D01*
X7444037Y-14616219D01*
X7444174Y-14605000D01*
X7443371Y-14599390D01*
X7795860Y-14599390D01*
X7812741Y-14728481D01*
X7815579Y-14734932D01*
X7815580Y-14734934D01*
X7819835Y-14744604D01*
X7865174Y-14847645D01*
X7869711Y-14853042D01*
X7869712Y-14853044D01*
X7886898Y-14873489D01*
X7948946Y-14947303D01*
X7954817Y-14951211D01*
X7954818Y-14951212D01*
X7981430Y-14968927D01*
X8057320Y-15019444D01*
X8064047Y-15021546D01*
X8064050Y-15021547D01*
X8174855Y-15056164D01*
X8174856Y-15056164D01*
X8181587Y-15058267D01*
X8248494Y-15059493D01*
X8304702Y-15060524D01*
X8304704Y-15060524D01*
X8311755Y-15060653D01*
X8318558Y-15058798D01*
X8318560Y-15058798D01*
X8386154Y-15040369D01*
X8437360Y-15026409D01*
X8548306Y-14958288D01*
X8557483Y-14948150D01*
X8630940Y-14866995D01*
X8630940Y-14866994D01*
X8635672Y-14861767D01*
X8692437Y-14744604D01*
X8695452Y-14726687D01*
X8713403Y-14619989D01*
X8713403Y-14619985D01*
X8714037Y-14616219D01*
X8714174Y-14605000D01*
X8695718Y-14476125D01*
X8691338Y-14466490D01*
X8644753Y-14364034D01*
X8644752Y-14364033D01*
X8641832Y-14357610D01*
X8556850Y-14258983D01*
X8550933Y-14255148D01*
X8550931Y-14255146D01*
X8453523Y-14192010D01*
X8453521Y-14192009D01*
X8447601Y-14188172D01*
X8322870Y-14150870D01*
X8249593Y-14150422D01*
X8199734Y-14150117D01*
X8199733Y-14150117D01*
X8192683Y-14150074D01*
X8185906Y-14152011D01*
X8185905Y-14152011D01*
X8074285Y-14183912D01*
X8074283Y-14183913D01*
X8067505Y-14185850D01*
X7957400Y-14255321D01*
X7952733Y-14260605D01*
X7952731Y-14260607D01*
X7878737Y-14344390D01*
X7871219Y-14352903D01*
X7815890Y-14470751D01*
X7795860Y-14599390D01*
X7443371Y-14599390D01*
X7425718Y-14476125D01*
X7421338Y-14466490D01*
X7374753Y-14364034D01*
X7374752Y-14364033D01*
X7371832Y-14357610D01*
X7286850Y-14258983D01*
X7280933Y-14255148D01*
X7280931Y-14255146D01*
X7183523Y-14192010D01*
X7183521Y-14192009D01*
X7177601Y-14188172D01*
X7052870Y-14150870D01*
X6979593Y-14150422D01*
X6929734Y-14150117D01*
X6929733Y-14150117D01*
X6922683Y-14150074D01*
X6915906Y-14152011D01*
X6915905Y-14152011D01*
X6804285Y-14183912D01*
X6804283Y-14183913D01*
X6797505Y-14185850D01*
X6687400Y-14255321D01*
X6682733Y-14260605D01*
X6682731Y-14260607D01*
X6608737Y-14344390D01*
X6601219Y-14352903D01*
X6545890Y-14470751D01*
X6525860Y-14599390D01*
X6173371Y-14599390D01*
X6155718Y-14476125D01*
X6151338Y-14466490D01*
X6104753Y-14364034D01*
X6104752Y-14364033D01*
X6101832Y-14357610D01*
X6016850Y-14258983D01*
X6010933Y-14255148D01*
X6010931Y-14255146D01*
X5913523Y-14192010D01*
X5913521Y-14192009D01*
X5907601Y-14188172D01*
X5782870Y-14150870D01*
X5709593Y-14150422D01*
X5659734Y-14150117D01*
X5659733Y-14150117D01*
X5652683Y-14150074D01*
X5645906Y-14152011D01*
X5645905Y-14152011D01*
X5534285Y-14183912D01*
X5534283Y-14183913D01*
X5527505Y-14185850D01*
X5417400Y-14255321D01*
X5412733Y-14260605D01*
X5412731Y-14260607D01*
X5338737Y-14344390D01*
X5331219Y-14352903D01*
X5275890Y-14470751D01*
X5255860Y-14599390D01*
X4903371Y-14599390D01*
X4885718Y-14476125D01*
X4881338Y-14466490D01*
X4834753Y-14364034D01*
X4834752Y-14364033D01*
X4831832Y-14357610D01*
X4746850Y-14258983D01*
X4740933Y-14255148D01*
X4740931Y-14255146D01*
X4643523Y-14192010D01*
X4643521Y-14192009D01*
X4637601Y-14188172D01*
X4512870Y-14150870D01*
X4439593Y-14150422D01*
X4389734Y-14150117D01*
X4389733Y-14150117D01*
X4382683Y-14150074D01*
X4375906Y-14152011D01*
X4375905Y-14152011D01*
X4264285Y-14183912D01*
X4264283Y-14183913D01*
X4257505Y-14185850D01*
X4147400Y-14255321D01*
X4142733Y-14260605D01*
X4142731Y-14260607D01*
X4068737Y-14344390D01*
X4061219Y-14352903D01*
X4005890Y-14470751D01*
X3985860Y-14599390D01*
X-98301Y-14599390D01*
X-49585Y-14586108D01*
X1621Y-14572148D01*
X112567Y-14504027D01*
X143635Y-14469704D01*
X195201Y-14412734D01*
X195201Y-14412733D01*
X199933Y-14407506D01*
X256698Y-14290343D01*
X262591Y-14255321D01*
X277664Y-14165728D01*
X277664Y-14165724D01*
X278298Y-14161958D01*
X278435Y-14150739D01*
X272463Y-14109034D01*
X260979Y-14028847D01*
X259979Y-14021864D01*
X254634Y-14010107D01*
X209014Y-13909773D01*
X209013Y-13909772D01*
X206093Y-13903349D01*
X121111Y-13804722D01*
X115194Y-13800887D01*
X115192Y-13800885D01*
X17784Y-13737749D01*
X17782Y-13737748D01*
X11862Y-13733911D01*
X-112869Y-13696609D01*
X-186146Y-13696161D01*
X-236005Y-13695856D01*
X-236006Y-13695856D01*
X-243056Y-13695813D01*
X-249833Y-13697750D01*
X-249834Y-13697750D01*
X-361454Y-13729651D01*
X-361456Y-13729652D01*
X-368234Y-13731589D01*
X-478339Y-13801060D01*
X-483006Y-13806344D01*
X-483008Y-13806346D01*
X-486293Y-13810066D01*
X-564520Y-13898642D01*
X-619849Y-14016490D01*
X-639879Y-14145129D01*
X-26343835Y-14145129D01*
X-26360247Y-14109034D01*
X-26360248Y-14109033D01*
X-26363168Y-14102610D01*
X-26426726Y-14028847D01*
X-26443545Y-14009327D01*
X-26443546Y-14009326D01*
X-26448150Y-14003983D01*
X-26454067Y-14000148D01*
X-26454069Y-14000146D01*
X-26551477Y-13937010D01*
X-26551479Y-13937009D01*
X-26557399Y-13933172D01*
X-26682130Y-13895870D01*
X-26755407Y-13895422D01*
X-26805266Y-13895117D01*
X-26805267Y-13895117D01*
X-26812317Y-13895074D01*
X-26819094Y-13897011D01*
X-26819095Y-13897011D01*
X-26930715Y-13928912D01*
X-26930717Y-13928913D01*
X-26937495Y-13930850D01*
X-27047600Y-14000321D01*
X-27052267Y-14005605D01*
X-27052269Y-14005607D01*
X-27129111Y-14092615D01*
X-27133781Y-14097903D01*
X-27189110Y-14215751D01*
X-27209140Y-14344390D01*
X-32997533Y-14344390D01*
X-33129451Y-14146961D01*
X-33135922Y-14135751D01*
X-33245888Y-13912761D01*
X-33250844Y-13900798D01*
X-33251830Y-13897892D01*
X-33330767Y-13665353D01*
X-33334118Y-13652848D01*
X-33350361Y-13571189D01*
X-33382626Y-13408980D01*
X-33384315Y-13396148D01*
X-33387837Y-13342398D01*
X-33388690Y-13329390D01*
X3985860Y-13329390D01*
X4002741Y-13458481D01*
X4005579Y-13464932D01*
X4005580Y-13464934D01*
X4009835Y-13474604D01*
X4055174Y-13577645D01*
X4059711Y-13583042D01*
X4059712Y-13583044D01*
X4107260Y-13639609D01*
X4138946Y-13677303D01*
X4144817Y-13681211D01*
X4144818Y-13681212D01*
X4166753Y-13695813D01*
X4247320Y-13749444D01*
X4254047Y-13751546D01*
X4254050Y-13751547D01*
X4364855Y-13786164D01*
X4364856Y-13786164D01*
X4371587Y-13788267D01*
X4438494Y-13789493D01*
X4494702Y-13790524D01*
X4494704Y-13790524D01*
X4501755Y-13790653D01*
X4508558Y-13788798D01*
X4508560Y-13788798D01*
X4576154Y-13770369D01*
X4627360Y-13756409D01*
X4738306Y-13688288D01*
X4825672Y-13591767D01*
X4882437Y-13474604D01*
X4904037Y-13346219D01*
X4904174Y-13335000D01*
X4903371Y-13329390D01*
X5255860Y-13329390D01*
X5272741Y-13458481D01*
X5275579Y-13464932D01*
X5275580Y-13464934D01*
X5279835Y-13474604D01*
X5325174Y-13577645D01*
X5329711Y-13583042D01*
X5329712Y-13583044D01*
X5377260Y-13639609D01*
X5408946Y-13677303D01*
X5414817Y-13681211D01*
X5414818Y-13681212D01*
X5436753Y-13695813D01*
X5517320Y-13749444D01*
X5524047Y-13751546D01*
X5524050Y-13751547D01*
X5634855Y-13786164D01*
X5634856Y-13786164D01*
X5641587Y-13788267D01*
X5708494Y-13789493D01*
X5764702Y-13790524D01*
X5764704Y-13790524D01*
X5771755Y-13790653D01*
X5778558Y-13788798D01*
X5778560Y-13788798D01*
X5846154Y-13770369D01*
X5897360Y-13756409D01*
X6008306Y-13688288D01*
X6095672Y-13591767D01*
X6152437Y-13474604D01*
X6174037Y-13346219D01*
X6174174Y-13335000D01*
X6173371Y-13329390D01*
X6525860Y-13329390D01*
X6542741Y-13458481D01*
X6545579Y-13464932D01*
X6545580Y-13464934D01*
X6549835Y-13474604D01*
X6595174Y-13577645D01*
X6599711Y-13583042D01*
X6599712Y-13583044D01*
X6647260Y-13639609D01*
X6678946Y-13677303D01*
X6684817Y-13681211D01*
X6684818Y-13681212D01*
X6706753Y-13695813D01*
X6787320Y-13749444D01*
X6794047Y-13751546D01*
X6794050Y-13751547D01*
X6904855Y-13786164D01*
X6904856Y-13786164D01*
X6911587Y-13788267D01*
X6978494Y-13789493D01*
X7034702Y-13790524D01*
X7034704Y-13790524D01*
X7041755Y-13790653D01*
X7048558Y-13788798D01*
X7048560Y-13788798D01*
X7116154Y-13770369D01*
X7167360Y-13756409D01*
X7278306Y-13688288D01*
X7365672Y-13591767D01*
X7422437Y-13474604D01*
X7444037Y-13346219D01*
X7444174Y-13335000D01*
X7443371Y-13329390D01*
X7795860Y-13329390D01*
X7812741Y-13458481D01*
X7815579Y-13464932D01*
X7815580Y-13464934D01*
X7819835Y-13474604D01*
X7865174Y-13577645D01*
X7869711Y-13583042D01*
X7869712Y-13583044D01*
X7917260Y-13639609D01*
X7948946Y-13677303D01*
X7954817Y-13681211D01*
X7954818Y-13681212D01*
X7976753Y-13695813D01*
X8057320Y-13749444D01*
X8064047Y-13751546D01*
X8064050Y-13751547D01*
X8174855Y-13786164D01*
X8174856Y-13786164D01*
X8181587Y-13788267D01*
X8248494Y-13789493D01*
X8304702Y-13790524D01*
X8304704Y-13790524D01*
X8311755Y-13790653D01*
X8318558Y-13788798D01*
X8318560Y-13788798D01*
X8386154Y-13770369D01*
X8437360Y-13756409D01*
X8548306Y-13688288D01*
X8635672Y-13591767D01*
X8692437Y-13474604D01*
X8714037Y-13346219D01*
X8714174Y-13335000D01*
X8695718Y-13206125D01*
X8690373Y-13194368D01*
X8644753Y-13094034D01*
X8644752Y-13094033D01*
X8641832Y-13087610D01*
X8575255Y-13010343D01*
X8561455Y-12994327D01*
X8561454Y-12994326D01*
X8556850Y-12988983D01*
X8550933Y-12985148D01*
X8550931Y-12985146D01*
X8453523Y-12922010D01*
X8453521Y-12922009D01*
X8447601Y-12918172D01*
X8322870Y-12880870D01*
X8249593Y-12880422D01*
X8199734Y-12880117D01*
X8199733Y-12880117D01*
X8192683Y-12880074D01*
X8185906Y-12882011D01*
X8185905Y-12882011D01*
X8074285Y-12913912D01*
X8074283Y-12913913D01*
X8067505Y-12915850D01*
X7957400Y-12985321D01*
X7952733Y-12990605D01*
X7952731Y-12990607D01*
X7903459Y-13046398D01*
X7871219Y-13082903D01*
X7815890Y-13200751D01*
X7795860Y-13329390D01*
X7443371Y-13329390D01*
X7425718Y-13206125D01*
X7420373Y-13194368D01*
X7374753Y-13094034D01*
X7374752Y-13094033D01*
X7371832Y-13087610D01*
X7305255Y-13010343D01*
X7291455Y-12994327D01*
X7291454Y-12994326D01*
X7286850Y-12988983D01*
X7280933Y-12985148D01*
X7280931Y-12985146D01*
X7183523Y-12922010D01*
X7183521Y-12922009D01*
X7177601Y-12918172D01*
X7052870Y-12880870D01*
X6979593Y-12880422D01*
X6929734Y-12880117D01*
X6929733Y-12880117D01*
X6922683Y-12880074D01*
X6915906Y-12882011D01*
X6915905Y-12882011D01*
X6804285Y-12913912D01*
X6804283Y-12913913D01*
X6797505Y-12915850D01*
X6687400Y-12985321D01*
X6682733Y-12990605D01*
X6682731Y-12990607D01*
X6633459Y-13046398D01*
X6601219Y-13082903D01*
X6545890Y-13200751D01*
X6525860Y-13329390D01*
X6173371Y-13329390D01*
X6155718Y-13206125D01*
X6150373Y-13194368D01*
X6104753Y-13094034D01*
X6104752Y-13094033D01*
X6101832Y-13087610D01*
X6035255Y-13010343D01*
X6021455Y-12994327D01*
X6021454Y-12994326D01*
X6016850Y-12988983D01*
X6010933Y-12985148D01*
X6010931Y-12985146D01*
X5913523Y-12922010D01*
X5913521Y-12922009D01*
X5907601Y-12918172D01*
X5782870Y-12880870D01*
X5709593Y-12880422D01*
X5659734Y-12880117D01*
X5659733Y-12880117D01*
X5652683Y-12880074D01*
X5645906Y-12882011D01*
X5645905Y-12882011D01*
X5534285Y-12913912D01*
X5534283Y-12913913D01*
X5527505Y-12915850D01*
X5417400Y-12985321D01*
X5412733Y-12990605D01*
X5412731Y-12990607D01*
X5363459Y-13046398D01*
X5331219Y-13082903D01*
X5275890Y-13200751D01*
X5255860Y-13329390D01*
X4903371Y-13329390D01*
X4885718Y-13206125D01*
X4880373Y-13194368D01*
X4834753Y-13094034D01*
X4834752Y-13094033D01*
X4831832Y-13087610D01*
X4765255Y-13010343D01*
X4751455Y-12994327D01*
X4751454Y-12994326D01*
X4746850Y-12988983D01*
X4740933Y-12985148D01*
X4740931Y-12985146D01*
X4643523Y-12922010D01*
X4643521Y-12922009D01*
X4637601Y-12918172D01*
X4512870Y-12880870D01*
X4439593Y-12880422D01*
X4389734Y-12880117D01*
X4389733Y-12880117D01*
X4382683Y-12880074D01*
X4375906Y-12882011D01*
X4375905Y-12882011D01*
X4264285Y-12913912D01*
X4264283Y-12913913D01*
X4257505Y-12915850D01*
X4147400Y-12985321D01*
X4142733Y-12990605D01*
X4142731Y-12990607D01*
X4093459Y-13046398D01*
X4061219Y-13082903D01*
X4005890Y-13200751D01*
X3985860Y-13329390D01*
X-33388690Y-13329390D01*
X-33400788Y-13144807D01*
X-33401000Y-13138333D01*
X-33401000Y-12581470D01*
X-2496583Y-12581470D01*
X-2479702Y-12710561D01*
X-2476864Y-12717012D01*
X-2476863Y-12717014D01*
X-2472608Y-12726684D01*
X-2427269Y-12829725D01*
X-2422732Y-12835122D01*
X-2422731Y-12835124D01*
X-2384946Y-12880074D01*
X-2343497Y-12929383D01*
X-2337626Y-12933291D01*
X-2337625Y-12933292D01*
X-2311013Y-12951007D01*
X-2235123Y-13001524D01*
X-2228396Y-13003626D01*
X-2228393Y-13003627D01*
X-2117588Y-13038244D01*
X-2117587Y-13038244D01*
X-2110856Y-13040347D01*
X-2043949Y-13041573D01*
X-1987741Y-13042604D01*
X-1987739Y-13042604D01*
X-1980688Y-13042733D01*
X-1973885Y-13040878D01*
X-1973883Y-13040878D01*
X-1865515Y-13011333D01*
X-1855083Y-13008489D01*
X-1744137Y-12940368D01*
X-1725350Y-12919613D01*
X-1661503Y-12849075D01*
X-1661503Y-12849074D01*
X-1656771Y-12843847D01*
X-1600006Y-12726684D01*
X-1578406Y-12598299D01*
X-1578269Y-12587080D01*
X-1596725Y-12458205D01*
X-1602070Y-12446448D01*
X-1647690Y-12346114D01*
X-1647691Y-12346113D01*
X-1650611Y-12339690D01*
X-1706973Y-12274278D01*
X-1730988Y-12246407D01*
X-1730989Y-12246406D01*
X-1735593Y-12241063D01*
X-1741510Y-12237228D01*
X-1741512Y-12237226D01*
X-1838920Y-12174090D01*
X-1838922Y-12174089D01*
X-1844842Y-12170252D01*
X-1969573Y-12132950D01*
X-2042850Y-12132502D01*
X-2092709Y-12132197D01*
X-2092710Y-12132197D01*
X-2099760Y-12132154D01*
X-2106537Y-12134091D01*
X-2106538Y-12134091D01*
X-2218158Y-12165992D01*
X-2218160Y-12165993D01*
X-2224938Y-12167930D01*
X-2335043Y-12237401D01*
X-2339710Y-12242685D01*
X-2339712Y-12242687D01*
X-2409552Y-12321767D01*
X-2421224Y-12334983D01*
X-2476553Y-12452831D01*
X-2496583Y-12581470D01*
X-33401000Y-12581470D01*
X-33401000Y-10637745D01*
X-7576729Y-10637745D01*
X-7575814Y-10644742D01*
X-7575814Y-10644743D01*
X-7573018Y-10666125D01*
X-7559848Y-10766836D01*
X-7557010Y-10773287D01*
X-7557009Y-10773289D01*
X-7542519Y-10806219D01*
X-7507415Y-10886000D01*
X-7502878Y-10891397D01*
X-7502877Y-10891399D01*
X-7423643Y-10985658D01*
X-7425258Y-10987015D01*
X-7399508Y-11031259D01*
X-7406656Y-11094251D01*
X-7412469Y-11106633D01*
X-7413554Y-11113604D01*
X-7413555Y-11113606D01*
X-7418955Y-11148288D01*
X-7432499Y-11235272D01*
X-7415618Y-11364363D01*
X-7363185Y-11483527D01*
X-7358648Y-11488924D01*
X-7358647Y-11488926D01*
X-7342613Y-11508000D01*
X-7279413Y-11583185D01*
X-7171039Y-11655326D01*
X-7164312Y-11657428D01*
X-7164309Y-11657429D01*
X-7053504Y-11692046D01*
X-7053503Y-11692046D01*
X-7046772Y-11694149D01*
X-6979865Y-11695375D01*
X-6923657Y-11696406D01*
X-6923655Y-11696406D01*
X-6916604Y-11696535D01*
X-6909800Y-11694680D01*
X-6902799Y-11693808D01*
X-6902392Y-11697080D01*
X-6855078Y-11699330D01*
X-6807343Y-11737606D01*
X-6791222Y-11796629D01*
X-6792289Y-11807156D01*
X-6809140Y-11915380D01*
X-6792259Y-12044471D01*
X-6789421Y-12050922D01*
X-6789420Y-12050924D01*
X-6782371Y-12066943D01*
X-6739826Y-12163635D01*
X-6735289Y-12169032D01*
X-6735288Y-12169034D01*
X-6718941Y-12188481D01*
X-6656054Y-12263293D01*
X-6650183Y-12267201D01*
X-6650182Y-12267202D01*
X-6623570Y-12284917D01*
X-6547680Y-12335434D01*
X-6540953Y-12337536D01*
X-6540950Y-12337537D01*
X-6430145Y-12372154D01*
X-6430144Y-12372154D01*
X-6423413Y-12374257D01*
X-6356506Y-12375483D01*
X-6300298Y-12376514D01*
X-6300296Y-12376514D01*
X-6293245Y-12376643D01*
X-6286442Y-12374788D01*
X-6286440Y-12374788D01*
X-6218846Y-12356359D01*
X-6167640Y-12342399D01*
X-6056694Y-12274278D01*
X-6031466Y-12246407D01*
X-5974060Y-12182985D01*
X-5974060Y-12182984D01*
X-5969328Y-12177757D01*
X-5912563Y-12060594D01*
X-5912360Y-12059390D01*
X3985860Y-12059390D01*
X4002741Y-12188481D01*
X4005579Y-12194932D01*
X4005580Y-12194934D01*
X4009835Y-12204604D01*
X4055174Y-12307645D01*
X4059711Y-12313042D01*
X4059712Y-12313044D01*
X4084388Y-12342399D01*
X4138946Y-12407303D01*
X4144817Y-12411211D01*
X4144818Y-12411212D01*
X4171430Y-12428927D01*
X4247320Y-12479444D01*
X4254047Y-12481546D01*
X4254050Y-12481547D01*
X4364855Y-12516164D01*
X4364856Y-12516164D01*
X4371587Y-12518267D01*
X4438494Y-12519493D01*
X4494702Y-12520524D01*
X4494704Y-12520524D01*
X4501755Y-12520653D01*
X4508558Y-12518798D01*
X4508560Y-12518798D01*
X4576154Y-12500369D01*
X4627360Y-12486409D01*
X4738306Y-12418288D01*
X4825672Y-12321767D01*
X4882437Y-12204604D01*
X4886075Y-12182985D01*
X4903403Y-12079989D01*
X4903403Y-12079985D01*
X4904037Y-12076219D01*
X4904174Y-12065000D01*
X4903371Y-12059390D01*
X5255860Y-12059390D01*
X5272741Y-12188481D01*
X5275579Y-12194932D01*
X5275580Y-12194934D01*
X5279835Y-12204604D01*
X5325174Y-12307645D01*
X5329711Y-12313042D01*
X5329712Y-12313044D01*
X5354388Y-12342399D01*
X5408946Y-12407303D01*
X5414817Y-12411211D01*
X5414818Y-12411212D01*
X5441430Y-12428927D01*
X5517320Y-12479444D01*
X5524047Y-12481546D01*
X5524050Y-12481547D01*
X5634855Y-12516164D01*
X5634856Y-12516164D01*
X5641587Y-12518267D01*
X5708494Y-12519493D01*
X5764702Y-12520524D01*
X5764704Y-12520524D01*
X5771755Y-12520653D01*
X5778558Y-12518798D01*
X5778560Y-12518798D01*
X5846154Y-12500369D01*
X5897360Y-12486409D01*
X6008306Y-12418288D01*
X6095672Y-12321767D01*
X6152437Y-12204604D01*
X6156075Y-12182985D01*
X6173403Y-12079989D01*
X6173403Y-12079985D01*
X6174037Y-12076219D01*
X6174174Y-12065000D01*
X6173371Y-12059390D01*
X6525860Y-12059390D01*
X6542741Y-12188481D01*
X6545579Y-12194932D01*
X6545580Y-12194934D01*
X6549835Y-12204604D01*
X6595174Y-12307645D01*
X6599711Y-12313042D01*
X6599712Y-12313044D01*
X6624388Y-12342399D01*
X6678946Y-12407303D01*
X6684817Y-12411211D01*
X6684818Y-12411212D01*
X6711430Y-12428927D01*
X6787320Y-12479444D01*
X6794047Y-12481546D01*
X6794050Y-12481547D01*
X6904855Y-12516164D01*
X6904856Y-12516164D01*
X6911587Y-12518267D01*
X6978494Y-12519493D01*
X7034702Y-12520524D01*
X7034704Y-12520524D01*
X7041755Y-12520653D01*
X7048558Y-12518798D01*
X7048560Y-12518798D01*
X7116154Y-12500369D01*
X7167360Y-12486409D01*
X7278306Y-12418288D01*
X7365672Y-12321767D01*
X7422437Y-12204604D01*
X7426075Y-12182985D01*
X7443403Y-12079989D01*
X7443403Y-12079985D01*
X7444037Y-12076219D01*
X7444174Y-12065000D01*
X7443371Y-12059390D01*
X7795860Y-12059390D01*
X7812741Y-12188481D01*
X7815579Y-12194932D01*
X7815580Y-12194934D01*
X7819835Y-12204604D01*
X7865174Y-12307645D01*
X7869711Y-12313042D01*
X7869712Y-12313044D01*
X7894388Y-12342399D01*
X7948946Y-12407303D01*
X7954817Y-12411211D01*
X7954818Y-12411212D01*
X7981430Y-12428927D01*
X8057320Y-12479444D01*
X8064047Y-12481546D01*
X8064050Y-12481547D01*
X8174855Y-12516164D01*
X8174856Y-12516164D01*
X8181587Y-12518267D01*
X8248494Y-12519493D01*
X8304702Y-12520524D01*
X8304704Y-12520524D01*
X8311755Y-12520653D01*
X8318558Y-12518798D01*
X8318560Y-12518798D01*
X8386154Y-12500369D01*
X8437360Y-12486409D01*
X8548306Y-12418288D01*
X8635672Y-12321767D01*
X8692437Y-12204604D01*
X8696075Y-12182985D01*
X8713403Y-12079989D01*
X8713403Y-12079985D01*
X8714037Y-12076219D01*
X8714174Y-12065000D01*
X8695718Y-11936125D01*
X8692201Y-11928388D01*
X8644753Y-11824034D01*
X8644752Y-11824033D01*
X8641832Y-11817610D01*
X8556850Y-11718983D01*
X8550933Y-11715148D01*
X8550931Y-11715146D01*
X8453523Y-11652010D01*
X8453521Y-11652009D01*
X8447601Y-11648172D01*
X8322870Y-11610870D01*
X8249593Y-11610422D01*
X8199734Y-11610117D01*
X8199733Y-11610117D01*
X8192683Y-11610074D01*
X8185906Y-11612011D01*
X8185905Y-11612011D01*
X8074285Y-11643912D01*
X8074283Y-11643913D01*
X8067505Y-11645850D01*
X7957400Y-11715321D01*
X7952733Y-11720605D01*
X7952731Y-11720607D01*
X7875889Y-11807615D01*
X7871219Y-11812903D01*
X7815890Y-11930751D01*
X7795860Y-12059390D01*
X7443371Y-12059390D01*
X7425718Y-11936125D01*
X7422201Y-11928388D01*
X7374753Y-11824034D01*
X7374752Y-11824033D01*
X7371832Y-11817610D01*
X7286850Y-11718983D01*
X7280933Y-11715148D01*
X7280931Y-11715146D01*
X7183523Y-11652010D01*
X7183521Y-11652009D01*
X7177601Y-11648172D01*
X7052870Y-11610870D01*
X6979593Y-11610422D01*
X6929734Y-11610117D01*
X6929733Y-11610117D01*
X6922683Y-11610074D01*
X6915906Y-11612011D01*
X6915905Y-11612011D01*
X6804285Y-11643912D01*
X6804283Y-11643913D01*
X6797505Y-11645850D01*
X6687400Y-11715321D01*
X6682733Y-11720605D01*
X6682731Y-11720607D01*
X6605889Y-11807615D01*
X6601219Y-11812903D01*
X6545890Y-11930751D01*
X6525860Y-12059390D01*
X6173371Y-12059390D01*
X6155718Y-11936125D01*
X6152201Y-11928388D01*
X6104753Y-11824034D01*
X6104752Y-11824033D01*
X6101832Y-11817610D01*
X6016850Y-11718983D01*
X6010933Y-11715148D01*
X6010931Y-11715146D01*
X5913523Y-11652010D01*
X5913521Y-11652009D01*
X5907601Y-11648172D01*
X5782870Y-11610870D01*
X5709593Y-11610422D01*
X5659734Y-11610117D01*
X5659733Y-11610117D01*
X5652683Y-11610074D01*
X5645906Y-11612011D01*
X5645905Y-11612011D01*
X5534285Y-11643912D01*
X5534283Y-11643913D01*
X5527505Y-11645850D01*
X5417400Y-11715321D01*
X5412733Y-11720605D01*
X5412731Y-11720607D01*
X5335889Y-11807615D01*
X5331219Y-11812903D01*
X5275890Y-11930751D01*
X5255860Y-12059390D01*
X4903371Y-12059390D01*
X4885718Y-11936125D01*
X4882201Y-11928388D01*
X4834753Y-11824034D01*
X4834752Y-11824033D01*
X4831832Y-11817610D01*
X4746850Y-11718983D01*
X4740933Y-11715148D01*
X4740931Y-11715146D01*
X4643523Y-11652010D01*
X4643521Y-11652009D01*
X4637601Y-11648172D01*
X4512870Y-11610870D01*
X4439593Y-11610422D01*
X4389734Y-11610117D01*
X4389733Y-11610117D01*
X4382683Y-11610074D01*
X4375906Y-11612011D01*
X4375905Y-11612011D01*
X4264285Y-11643912D01*
X4264283Y-11643913D01*
X4257505Y-11645850D01*
X4147400Y-11715321D01*
X4142733Y-11720605D01*
X4142731Y-11720607D01*
X4065889Y-11807615D01*
X4061219Y-11812903D01*
X4005890Y-11930751D01*
X3985860Y-12059390D01*
X-5912360Y-12059390D01*
X-5892796Y-11943108D01*
X-5891597Y-11935979D01*
X-5891597Y-11935975D01*
X-5890963Y-11932209D01*
X-5890826Y-11920990D01*
X-5909282Y-11792115D01*
X-5940103Y-11724327D01*
X-5960247Y-11680024D01*
X-5960248Y-11680023D01*
X-5963168Y-11673600D01*
X-6048150Y-11574973D01*
X-6054067Y-11571138D01*
X-6054069Y-11571136D01*
X-6151477Y-11508000D01*
X-6151479Y-11507999D01*
X-6157399Y-11504162D01*
X-6282130Y-11466860D01*
X-6351046Y-11466439D01*
X-6405263Y-11466107D01*
X-6405264Y-11466107D01*
X-6412317Y-11466064D01*
X-6419099Y-11468002D01*
X-6420345Y-11468173D01*
X-6480564Y-11457338D01*
X-6522913Y-11413177D01*
X-6531409Y-11353664D01*
X-6514956Y-11255871D01*
X-6514956Y-11255867D01*
X-6514322Y-11252101D01*
X-6514185Y-11240882D01*
X-6532641Y-11112007D01*
X-6540713Y-11094252D01*
X-6583606Y-10999916D01*
X-6583607Y-10999915D01*
X-6586527Y-10993492D01*
X-6669296Y-10897433D01*
X-6692957Y-10841008D01*
X-6684625Y-10796262D01*
X-6685371Y-10796024D01*
X-6683473Y-10790076D01*
X-6683393Y-10789648D01*
X-6683226Y-10789304D01*
X-6683226Y-10789303D01*
X-6680152Y-10782959D01*
X-6676263Y-10759845D01*
X-6659867Y-10662390D01*
X-2364140Y-10662390D01*
X-2363225Y-10669387D01*
X-2363225Y-10669388D01*
X-2362439Y-10675398D01*
X-2347259Y-10791481D01*
X-2344421Y-10797932D01*
X-2344420Y-10797934D01*
X-2337371Y-10813953D01*
X-2294826Y-10910645D01*
X-2290289Y-10916042D01*
X-2290288Y-10916044D01*
X-2274686Y-10934604D01*
X-2211054Y-11010303D01*
X-2205183Y-11014211D01*
X-2205182Y-11014212D01*
X-2179678Y-11031189D01*
X-2102680Y-11082444D01*
X-2095953Y-11084546D01*
X-2095950Y-11084547D01*
X-1985145Y-11119164D01*
X-1985144Y-11119164D01*
X-1978413Y-11121267D01*
X-1911506Y-11122493D01*
X-1855298Y-11123524D01*
X-1855296Y-11123524D01*
X-1848245Y-11123653D01*
X-1841442Y-11121798D01*
X-1841440Y-11121798D01*
X-1773846Y-11103369D01*
X-1722640Y-11089409D01*
X-1611694Y-11021288D01*
X-1581695Y-10988146D01*
X-1529060Y-10929995D01*
X-1529060Y-10929994D01*
X-1524328Y-10924767D01*
X-1467563Y-10807604D01*
X-1465654Y-10796262D01*
X-1464498Y-10789390D01*
X3985860Y-10789390D01*
X4002741Y-10918481D01*
X4005579Y-10924932D01*
X4005580Y-10924934D01*
X4007807Y-10929995D01*
X4055174Y-11037645D01*
X4059711Y-11043042D01*
X4059712Y-11043044D01*
X4100245Y-11091263D01*
X4138946Y-11137303D01*
X4144817Y-11141211D01*
X4144818Y-11141212D01*
X4171430Y-11158927D01*
X4247320Y-11209444D01*
X4254047Y-11211546D01*
X4254050Y-11211547D01*
X4364855Y-11246164D01*
X4364856Y-11246164D01*
X4371587Y-11248267D01*
X4438494Y-11249493D01*
X4494702Y-11250524D01*
X4494704Y-11250524D01*
X4501755Y-11250653D01*
X4508558Y-11248798D01*
X4508560Y-11248798D01*
X4583752Y-11228298D01*
X4627360Y-11216409D01*
X4738306Y-11148288D01*
X4760605Y-11123653D01*
X4820940Y-11056995D01*
X4820940Y-11056994D01*
X4825672Y-11051767D01*
X4882437Y-10934604D01*
X4890615Y-10886000D01*
X4903403Y-10809989D01*
X4903403Y-10809985D01*
X4904037Y-10806219D01*
X4904174Y-10795000D01*
X4903371Y-10789390D01*
X5255860Y-10789390D01*
X5272741Y-10918481D01*
X5275579Y-10924932D01*
X5275580Y-10924934D01*
X5277807Y-10929995D01*
X5325174Y-11037645D01*
X5329711Y-11043042D01*
X5329712Y-11043044D01*
X5370245Y-11091263D01*
X5408946Y-11137303D01*
X5414817Y-11141211D01*
X5414818Y-11141212D01*
X5441430Y-11158927D01*
X5517320Y-11209444D01*
X5524047Y-11211546D01*
X5524050Y-11211547D01*
X5634855Y-11246164D01*
X5634856Y-11246164D01*
X5641587Y-11248267D01*
X5708494Y-11249493D01*
X5764702Y-11250524D01*
X5764704Y-11250524D01*
X5771755Y-11250653D01*
X5778558Y-11248798D01*
X5778560Y-11248798D01*
X5853752Y-11228298D01*
X5897360Y-11216409D01*
X6008306Y-11148288D01*
X6030605Y-11123653D01*
X6090940Y-11056995D01*
X6090940Y-11056994D01*
X6095672Y-11051767D01*
X6152437Y-10934604D01*
X6160615Y-10886000D01*
X6173403Y-10809989D01*
X6173403Y-10809985D01*
X6174037Y-10806219D01*
X6174174Y-10795000D01*
X6173371Y-10789390D01*
X6525860Y-10789390D01*
X6542741Y-10918481D01*
X6545579Y-10924932D01*
X6545580Y-10924934D01*
X6547807Y-10929995D01*
X6595174Y-11037645D01*
X6599711Y-11043042D01*
X6599712Y-11043044D01*
X6640245Y-11091263D01*
X6678946Y-11137303D01*
X6684817Y-11141211D01*
X6684818Y-11141212D01*
X6711430Y-11158927D01*
X6787320Y-11209444D01*
X6794047Y-11211546D01*
X6794050Y-11211547D01*
X6904855Y-11246164D01*
X6904856Y-11246164D01*
X6911587Y-11248267D01*
X6978494Y-11249493D01*
X7034702Y-11250524D01*
X7034704Y-11250524D01*
X7041755Y-11250653D01*
X7048558Y-11248798D01*
X7048560Y-11248798D01*
X7123752Y-11228298D01*
X7167360Y-11216409D01*
X7278306Y-11148288D01*
X7300605Y-11123653D01*
X7360940Y-11056995D01*
X7360940Y-11056994D01*
X7365672Y-11051767D01*
X7422437Y-10934604D01*
X7430615Y-10886000D01*
X7443403Y-10809989D01*
X7443403Y-10809985D01*
X7444037Y-10806219D01*
X7444174Y-10795000D01*
X7443371Y-10789390D01*
X7795860Y-10789390D01*
X7812741Y-10918481D01*
X7815579Y-10924932D01*
X7815580Y-10924934D01*
X7817807Y-10929995D01*
X7865174Y-11037645D01*
X7869711Y-11043042D01*
X7869712Y-11043044D01*
X7910245Y-11091263D01*
X7948946Y-11137303D01*
X7954817Y-11141211D01*
X7954818Y-11141212D01*
X7981430Y-11158927D01*
X8057320Y-11209444D01*
X8064047Y-11211546D01*
X8064050Y-11211547D01*
X8174855Y-11246164D01*
X8174856Y-11246164D01*
X8181587Y-11248267D01*
X8248494Y-11249493D01*
X8304702Y-11250524D01*
X8304704Y-11250524D01*
X8311755Y-11250653D01*
X8318558Y-11248798D01*
X8318560Y-11248798D01*
X8393752Y-11228298D01*
X8437360Y-11216409D01*
X8548306Y-11148288D01*
X8570605Y-11123653D01*
X8630940Y-11056995D01*
X8630940Y-11056994D01*
X8635672Y-11051767D01*
X8692437Y-10934604D01*
X8700615Y-10886000D01*
X8713403Y-10809989D01*
X8713403Y-10809985D01*
X8714037Y-10806219D01*
X8714174Y-10795000D01*
X8695718Y-10666125D01*
X8692181Y-10658344D01*
X8644753Y-10554034D01*
X8644752Y-10554033D01*
X8641832Y-10547610D01*
X8563123Y-10456263D01*
X8561455Y-10454327D01*
X8561454Y-10454326D01*
X8556850Y-10448983D01*
X8550933Y-10445148D01*
X8550931Y-10445146D01*
X8453523Y-10382010D01*
X8453521Y-10382009D01*
X8447601Y-10378172D01*
X8322870Y-10340870D01*
X8249593Y-10340422D01*
X8199734Y-10340117D01*
X8199733Y-10340117D01*
X8192683Y-10340074D01*
X8185906Y-10342011D01*
X8185905Y-10342011D01*
X8074285Y-10373912D01*
X8074283Y-10373913D01*
X8067505Y-10375850D01*
X7957400Y-10445321D01*
X7952733Y-10450605D01*
X7952731Y-10450607D01*
X7890154Y-10521463D01*
X7871219Y-10542903D01*
X7815890Y-10660751D01*
X7795860Y-10789390D01*
X7443371Y-10789390D01*
X7425718Y-10666125D01*
X7422181Y-10658344D01*
X7374753Y-10554034D01*
X7374752Y-10554033D01*
X7371832Y-10547610D01*
X7293123Y-10456263D01*
X7291455Y-10454327D01*
X7291454Y-10454326D01*
X7286850Y-10448983D01*
X7280933Y-10445148D01*
X7280931Y-10445146D01*
X7183523Y-10382010D01*
X7183521Y-10382009D01*
X7177601Y-10378172D01*
X7052870Y-10340870D01*
X6979593Y-10340422D01*
X6929734Y-10340117D01*
X6929733Y-10340117D01*
X6922683Y-10340074D01*
X6915906Y-10342011D01*
X6915905Y-10342011D01*
X6804285Y-10373912D01*
X6804283Y-10373913D01*
X6797505Y-10375850D01*
X6687400Y-10445321D01*
X6682733Y-10450605D01*
X6682731Y-10450607D01*
X6620154Y-10521463D01*
X6601219Y-10542903D01*
X6545890Y-10660751D01*
X6525860Y-10789390D01*
X6173371Y-10789390D01*
X6155718Y-10666125D01*
X6152181Y-10658344D01*
X6104753Y-10554034D01*
X6104752Y-10554033D01*
X6101832Y-10547610D01*
X6023123Y-10456263D01*
X6021455Y-10454327D01*
X6021454Y-10454326D01*
X6016850Y-10448983D01*
X6010933Y-10445148D01*
X6010931Y-10445146D01*
X5913523Y-10382010D01*
X5913521Y-10382009D01*
X5907601Y-10378172D01*
X5782870Y-10340870D01*
X5709593Y-10340422D01*
X5659734Y-10340117D01*
X5659733Y-10340117D01*
X5652683Y-10340074D01*
X5645906Y-10342011D01*
X5645905Y-10342011D01*
X5534285Y-10373912D01*
X5534283Y-10373913D01*
X5527505Y-10375850D01*
X5417400Y-10445321D01*
X5412733Y-10450605D01*
X5412731Y-10450607D01*
X5350154Y-10521463D01*
X5331219Y-10542903D01*
X5275890Y-10660751D01*
X5255860Y-10789390D01*
X4903371Y-10789390D01*
X4885718Y-10666125D01*
X4882181Y-10658344D01*
X4834753Y-10554034D01*
X4834752Y-10554033D01*
X4831832Y-10547610D01*
X4753123Y-10456263D01*
X4751455Y-10454327D01*
X4751454Y-10454326D01*
X4746850Y-10448983D01*
X4740933Y-10445148D01*
X4740931Y-10445146D01*
X4643523Y-10382010D01*
X4643521Y-10382009D01*
X4637601Y-10378172D01*
X4512870Y-10340870D01*
X4439593Y-10340422D01*
X4389734Y-10340117D01*
X4389733Y-10340117D01*
X4382683Y-10340074D01*
X4375906Y-10342011D01*
X4375905Y-10342011D01*
X4264285Y-10373912D01*
X4264283Y-10373913D01*
X4257505Y-10375850D01*
X4147400Y-10445321D01*
X4142733Y-10450605D01*
X4142731Y-10450607D01*
X4080154Y-10521463D01*
X4061219Y-10542903D01*
X4005890Y-10660751D01*
X3985860Y-10789390D01*
X-1464498Y-10789390D01*
X-1446597Y-10682989D01*
X-1446597Y-10682985D01*
X-1445963Y-10679219D01*
X-1445826Y-10668000D01*
X-1451157Y-10630771D01*
X-1463282Y-10546108D01*
X-1464282Y-10539125D01*
X-1469627Y-10527368D01*
X-1515247Y-10427034D01*
X-1515248Y-10427033D01*
X-1518168Y-10420610D01*
X-1603150Y-10321983D01*
X-1609067Y-10318148D01*
X-1609069Y-10318146D01*
X-1706477Y-10255010D01*
X-1706479Y-10255009D01*
X-1712399Y-10251172D01*
X-1837130Y-10213870D01*
X-1910407Y-10213422D01*
X-1960266Y-10213117D01*
X-1960267Y-10213117D01*
X-1967317Y-10213074D01*
X-1974094Y-10215011D01*
X-1974095Y-10215011D01*
X-2085715Y-10246912D01*
X-2085717Y-10246913D01*
X-2092495Y-10248850D01*
X-2202600Y-10318321D01*
X-2207267Y-10323605D01*
X-2207269Y-10323607D01*
X-2272654Y-10397642D01*
X-2288781Y-10415903D01*
X-2344110Y-10533751D01*
X-2364140Y-10662390D01*
X-6659867Y-10662390D01*
X-6659186Y-10658344D01*
X-6659186Y-10658340D01*
X-6658552Y-10654574D01*
X-6658415Y-10643355D01*
X-6676871Y-10514480D01*
X-6682216Y-10502723D01*
X-6727836Y-10402389D01*
X-6727837Y-10402388D01*
X-6730757Y-10395965D01*
X-6793104Y-10323607D01*
X-6811134Y-10302682D01*
X-6811135Y-10302681D01*
X-6815739Y-10297338D01*
X-6821656Y-10293503D01*
X-6821658Y-10293501D01*
X-6919066Y-10230365D01*
X-6919068Y-10230364D01*
X-6924988Y-10226527D01*
X-7049719Y-10189225D01*
X-7122996Y-10188777D01*
X-7172855Y-10188472D01*
X-7172856Y-10188472D01*
X-7179906Y-10188429D01*
X-7186683Y-10190366D01*
X-7186684Y-10190366D01*
X-7298304Y-10222267D01*
X-7298306Y-10222268D01*
X-7305084Y-10224205D01*
X-7415189Y-10293676D01*
X-7419856Y-10298960D01*
X-7419858Y-10298962D01*
X-7496700Y-10385970D01*
X-7501370Y-10391258D01*
X-7556699Y-10509106D01*
X-7576729Y-10637745D01*
X-33401000Y-10637745D01*
X-33401000Y-10027390D01*
X-11889138Y-10027390D01*
X-11872257Y-10156481D01*
X-11869419Y-10162932D01*
X-11869418Y-10162934D01*
X-11857347Y-10190366D01*
X-11819824Y-10275645D01*
X-11815287Y-10281042D01*
X-11815286Y-10281044D01*
X-11801589Y-10297338D01*
X-11736052Y-10375303D01*
X-11730181Y-10379211D01*
X-11730180Y-10379212D01*
X-11713044Y-10390619D01*
X-11627678Y-10447444D01*
X-11620951Y-10449546D01*
X-11620948Y-10449547D01*
X-11510143Y-10484164D01*
X-11510142Y-10484164D01*
X-11503411Y-10486267D01*
X-11436504Y-10487493D01*
X-11380296Y-10488524D01*
X-11380294Y-10488524D01*
X-11373243Y-10488653D01*
X-11366440Y-10486798D01*
X-11366438Y-10486798D01*
X-11298844Y-10468369D01*
X-11247638Y-10454409D01*
X-11136692Y-10386288D01*
X-11127515Y-10376150D01*
X-11054058Y-10294995D01*
X-11054058Y-10294994D01*
X-11049326Y-10289767D01*
X-10992561Y-10172604D01*
X-10970961Y-10044219D01*
X-10970824Y-10033000D01*
X-10989280Y-9904125D01*
X-10994625Y-9892368D01*
X-11040245Y-9792034D01*
X-11040246Y-9792033D01*
X-11043166Y-9785610D01*
X-11128148Y-9686983D01*
X-11134065Y-9683148D01*
X-11134067Y-9683146D01*
X-11231475Y-9620010D01*
X-11231477Y-9620009D01*
X-11237397Y-9616172D01*
X-11362128Y-9578870D01*
X-11435405Y-9578422D01*
X-11485264Y-9578117D01*
X-11485265Y-9578117D01*
X-11492315Y-9578074D01*
X-11499092Y-9580011D01*
X-11499093Y-9580011D01*
X-11610713Y-9611912D01*
X-11610715Y-9611913D01*
X-11617493Y-9613850D01*
X-11727598Y-9683321D01*
X-11732265Y-9688605D01*
X-11732267Y-9688607D01*
X-11784635Y-9747903D01*
X-11813779Y-9780903D01*
X-11869108Y-9898751D01*
X-11889138Y-10027390D01*
X-33401000Y-10027390D01*
X-33401000Y-7741390D01*
X-5666140Y-7741390D01*
X-5649259Y-7870481D01*
X-5646421Y-7876932D01*
X-5646420Y-7876934D01*
X-5636759Y-7898890D01*
X-5596826Y-7989645D01*
X-5592289Y-7995042D01*
X-5592288Y-7995044D01*
X-5544740Y-8051609D01*
X-5513054Y-8089303D01*
X-5507183Y-8093211D01*
X-5507182Y-8093212D01*
X-5489045Y-8105285D01*
X-5404680Y-8161444D01*
X-5397953Y-8163546D01*
X-5397950Y-8163547D01*
X-5287145Y-8198164D01*
X-5287144Y-8198164D01*
X-5280413Y-8200267D01*
X-5213506Y-8201493D01*
X-5157298Y-8202524D01*
X-5157296Y-8202524D01*
X-5150245Y-8202653D01*
X-5143442Y-8200798D01*
X-5143440Y-8200798D01*
X-5075846Y-8182369D01*
X-5024640Y-8168409D01*
X-4913694Y-8100288D01*
X-4826328Y-8003767D01*
X-4789759Y-7928289D01*
X-4772639Y-7892953D01*
X-4769563Y-7886604D01*
X-4747963Y-7758219D01*
X-4747826Y-7747000D01*
X-4766282Y-7618125D01*
X-4771627Y-7606368D01*
X-4817247Y-7506034D01*
X-4817248Y-7506033D01*
X-4820168Y-7499610D01*
X-4905150Y-7400983D01*
X-4911067Y-7397148D01*
X-4911069Y-7397146D01*
X-5008477Y-7334010D01*
X-5008479Y-7334009D01*
X-5014399Y-7330172D01*
X-5139130Y-7292870D01*
X-5212407Y-7292422D01*
X-5262266Y-7292117D01*
X-5262267Y-7292117D01*
X-5269317Y-7292074D01*
X-5276094Y-7294011D01*
X-5276095Y-7294011D01*
X-5387715Y-7325912D01*
X-5387717Y-7325913D01*
X-5394495Y-7327850D01*
X-5504600Y-7397321D01*
X-5509267Y-7402605D01*
X-5509269Y-7402607D01*
X-5512554Y-7406327D01*
X-5590781Y-7494903D01*
X-5646110Y-7612751D01*
X-5666140Y-7741390D01*
X-33401000Y-7741390D01*
X-33401000Y-5074390D01*
X-12905140Y-5074390D01*
X-12888259Y-5203481D01*
X-12885421Y-5209932D01*
X-12885420Y-5209934D01*
X-12881165Y-5219604D01*
X-12835826Y-5322645D01*
X-12831289Y-5328042D01*
X-12831288Y-5328044D01*
X-12783740Y-5384609D01*
X-12752054Y-5422303D01*
X-12746183Y-5426211D01*
X-12746182Y-5426212D01*
X-12719570Y-5443927D01*
X-12643680Y-5494444D01*
X-12636953Y-5496546D01*
X-12636950Y-5496547D01*
X-12526145Y-5531164D01*
X-12526144Y-5531164D01*
X-12519413Y-5533267D01*
X-12452506Y-5534493D01*
X-12396298Y-5535524D01*
X-12396296Y-5535524D01*
X-12389245Y-5535653D01*
X-12382442Y-5533798D01*
X-12382440Y-5533798D01*
X-12314846Y-5515369D01*
X-12263640Y-5501409D01*
X-12152694Y-5433288D01*
X-12065328Y-5336767D01*
X-12008563Y-5219604D01*
X-11986963Y-5091219D01*
X-11986826Y-5080000D01*
X-11987629Y-5074390D01*
X-6174140Y-5074390D01*
X-6157259Y-5203481D01*
X-6154421Y-5209932D01*
X-6154420Y-5209934D01*
X-6150165Y-5219604D01*
X-6104826Y-5322645D01*
X-6100289Y-5328042D01*
X-6100288Y-5328044D01*
X-6052740Y-5384609D01*
X-6021054Y-5422303D01*
X-6015183Y-5426211D01*
X-6015182Y-5426212D01*
X-5988570Y-5443927D01*
X-5912680Y-5494444D01*
X-5905953Y-5496546D01*
X-5905950Y-5496547D01*
X-5795145Y-5531164D01*
X-5795144Y-5531164D01*
X-5788413Y-5533267D01*
X-5721506Y-5534493D01*
X-5665298Y-5535524D01*
X-5665296Y-5535524D01*
X-5658245Y-5535653D01*
X-5651442Y-5533798D01*
X-5651440Y-5533798D01*
X-5583846Y-5515369D01*
X-5532640Y-5501409D01*
X-5421694Y-5433288D01*
X-5334328Y-5336767D01*
X-5277563Y-5219604D01*
X-5255963Y-5091219D01*
X-5255826Y-5080000D01*
X-5274282Y-4951125D01*
X-5278285Y-4942319D01*
X-5325247Y-4839034D01*
X-5325248Y-4839033D01*
X-5328168Y-4832610D01*
X-5384933Y-4766731D01*
X-5408545Y-4739327D01*
X-5408546Y-4739326D01*
X-5413150Y-4733983D01*
X-5419067Y-4730148D01*
X-5419069Y-4730146D01*
X-5516477Y-4667010D01*
X-5516479Y-4667009D01*
X-5522399Y-4663172D01*
X-5647130Y-4625870D01*
X-5720407Y-4625422D01*
X-5770266Y-4625117D01*
X-5770267Y-4625117D01*
X-5777317Y-4625074D01*
X-5784094Y-4627011D01*
X-5784095Y-4627011D01*
X-5895715Y-4658912D01*
X-5895717Y-4658913D01*
X-5902495Y-4660850D01*
X-6012600Y-4730321D01*
X-6017267Y-4735605D01*
X-6017269Y-4735607D01*
X-6041615Y-4763174D01*
X-6098781Y-4827903D01*
X-6154110Y-4945751D01*
X-6174140Y-5074390D01*
X-11987629Y-5074390D01*
X-12005282Y-4951125D01*
X-12009285Y-4942319D01*
X-12056247Y-4839034D01*
X-12056248Y-4839033D01*
X-12059168Y-4832610D01*
X-12115933Y-4766731D01*
X-12139545Y-4739327D01*
X-12139546Y-4739326D01*
X-12144150Y-4733983D01*
X-12150067Y-4730148D01*
X-12150069Y-4730146D01*
X-12247477Y-4667010D01*
X-12247479Y-4667009D01*
X-12253399Y-4663172D01*
X-12378130Y-4625870D01*
X-12451407Y-4625422D01*
X-12501266Y-4625117D01*
X-12501267Y-4625117D01*
X-12508317Y-4625074D01*
X-12515094Y-4627011D01*
X-12515095Y-4627011D01*
X-12626715Y-4658912D01*
X-12626717Y-4658913D01*
X-12633495Y-4660850D01*
X-12743600Y-4730321D01*
X-12748267Y-4735605D01*
X-12748269Y-4735607D01*
X-12772615Y-4763174D01*
X-12829781Y-4827903D01*
X-12885110Y-4945751D01*
X-12905140Y-5074390D01*
X-33401000Y-5074390D01*
X-33401000Y-4058390D01*
X-9476140Y-4058390D01*
X-9459259Y-4187481D01*
X-9456421Y-4193932D01*
X-9456420Y-4193934D01*
X-9452165Y-4203604D01*
X-9406826Y-4306645D01*
X-9402289Y-4312042D01*
X-9402288Y-4312044D01*
X-9354740Y-4368609D01*
X-9323054Y-4406303D01*
X-9317183Y-4410211D01*
X-9317182Y-4410212D01*
X-9295953Y-4424343D01*
X-9214680Y-4478444D01*
X-9207953Y-4480546D01*
X-9207950Y-4480547D01*
X-9097145Y-4515164D01*
X-9097144Y-4515164D01*
X-9090413Y-4517267D01*
X-9023506Y-4518493D01*
X-8967298Y-4519524D01*
X-8967296Y-4519524D01*
X-8960245Y-4519653D01*
X-8953442Y-4517798D01*
X-8953440Y-4517798D01*
X-8885846Y-4499369D01*
X-8834640Y-4485409D01*
X-8723694Y-4417288D01*
X-8636328Y-4320767D01*
X-8579563Y-4203604D01*
X-8557963Y-4075219D01*
X-8557826Y-4064000D01*
X-8576282Y-3935125D01*
X-8581627Y-3923368D01*
X-8627247Y-3823034D01*
X-8627248Y-3823033D01*
X-8630168Y-3816610D01*
X-8715150Y-3717983D01*
X-8721067Y-3714148D01*
X-8721069Y-3714146D01*
X-8818477Y-3651010D01*
X-8818479Y-3651009D01*
X-8824399Y-3647172D01*
X-8949130Y-3609870D01*
X-9022407Y-3609422D01*
X-9072266Y-3609117D01*
X-9072267Y-3609117D01*
X-9079317Y-3609074D01*
X-9086094Y-3611011D01*
X-9086095Y-3611011D01*
X-9197715Y-3642912D01*
X-9197717Y-3642913D01*
X-9204495Y-3644850D01*
X-9314600Y-3714321D01*
X-9319267Y-3719605D01*
X-9319269Y-3719607D01*
X-9320067Y-3720511D01*
X-9400781Y-3811903D01*
X-9456110Y-3929751D01*
X-9476140Y-4058390D01*
X-33401000Y-4058390D01*
X-33401000Y-2923512D01*
X-24988262Y-2923512D01*
X-24971381Y-3052603D01*
X-24968543Y-3059054D01*
X-24968542Y-3059056D01*
X-24964287Y-3068726D01*
X-24918948Y-3171767D01*
X-24914411Y-3177164D01*
X-24914410Y-3177166D01*
X-24891403Y-3204536D01*
X-24835176Y-3271425D01*
X-24829305Y-3275333D01*
X-24829304Y-3275334D01*
X-24802692Y-3293049D01*
X-24726802Y-3343566D01*
X-24720075Y-3345668D01*
X-24720072Y-3345669D01*
X-24609267Y-3380286D01*
X-24609266Y-3380286D01*
X-24602535Y-3382389D01*
X-24535628Y-3383615D01*
X-24479420Y-3384646D01*
X-24479418Y-3384646D01*
X-24472367Y-3384775D01*
X-24465564Y-3382920D01*
X-24465562Y-3382920D01*
X-24397968Y-3364491D01*
X-24346762Y-3350531D01*
X-24235816Y-3282410D01*
X-24148450Y-3185889D01*
X-24091685Y-3068726D01*
X-24088663Y-3050767D01*
X-24070719Y-2944111D01*
X-24070719Y-2944107D01*
X-24070085Y-2940341D01*
X-24069948Y-2929122D01*
X-24088404Y-2800247D01*
X-24093749Y-2788490D01*
X-24093794Y-2788390D01*
X9065860Y-2788390D01*
X9066775Y-2795387D01*
X9066775Y-2795388D01*
X9067561Y-2801398D01*
X9082741Y-2917481D01*
X9085579Y-2923932D01*
X9085580Y-2923934D01*
X9094458Y-2944111D01*
X9135174Y-3036645D01*
X9139711Y-3042042D01*
X9139712Y-3042044D01*
X9156292Y-3061768D01*
X9218946Y-3136303D01*
X9224817Y-3140211D01*
X9224818Y-3140212D01*
X9251430Y-3157927D01*
X9327320Y-3208444D01*
X9334047Y-3210546D01*
X9334050Y-3210547D01*
X9444855Y-3245164D01*
X9444856Y-3245164D01*
X9451587Y-3247267D01*
X9518494Y-3248493D01*
X9574702Y-3249524D01*
X9574704Y-3249524D01*
X9581755Y-3249653D01*
X9588558Y-3247798D01*
X9588560Y-3247798D01*
X9656154Y-3229369D01*
X9707360Y-3215409D01*
X9818306Y-3147288D01*
X9889417Y-3068726D01*
X9900940Y-3055995D01*
X9900940Y-3055994D01*
X9905672Y-3050767D01*
X9962437Y-2933604D01*
X9965309Y-2916538D01*
X9983403Y-2808989D01*
X9983403Y-2808985D01*
X9984037Y-2805219D01*
X9984174Y-2794000D01*
X9965718Y-2665125D01*
X9960373Y-2653368D01*
X9914753Y-2553034D01*
X9914752Y-2553033D01*
X9911832Y-2546610D01*
X9851865Y-2477014D01*
X9831455Y-2453327D01*
X9831454Y-2453326D01*
X9826850Y-2447983D01*
X9820933Y-2444148D01*
X9820931Y-2444146D01*
X9723523Y-2381010D01*
X9723521Y-2381009D01*
X9717601Y-2377172D01*
X9592870Y-2339870D01*
X9519593Y-2339422D01*
X9469734Y-2339117D01*
X9469733Y-2339117D01*
X9462683Y-2339074D01*
X9455906Y-2341011D01*
X9455905Y-2341011D01*
X9344285Y-2372912D01*
X9344283Y-2372913D01*
X9337505Y-2374850D01*
X9227400Y-2444321D01*
X9222733Y-2449605D01*
X9222731Y-2449607D01*
X9166096Y-2513735D01*
X9141219Y-2541903D01*
X9085890Y-2659751D01*
X9065860Y-2788390D01*
X-24093794Y-2788390D01*
X-24139369Y-2688156D01*
X-24139370Y-2688155D01*
X-24142290Y-2681732D01*
X-24202033Y-2612396D01*
X-24222667Y-2588449D01*
X-24222668Y-2588448D01*
X-24227272Y-2583105D01*
X-24233189Y-2579270D01*
X-24233191Y-2579268D01*
X-24330599Y-2516132D01*
X-24330601Y-2516131D01*
X-24336521Y-2512294D01*
X-24461252Y-2474992D01*
X-24534529Y-2474544D01*
X-24584388Y-2474239D01*
X-24584389Y-2474239D01*
X-24591439Y-2474196D01*
X-24598216Y-2476133D01*
X-24598217Y-2476133D01*
X-24709837Y-2508034D01*
X-24709839Y-2508035D01*
X-24716617Y-2509972D01*
X-24826722Y-2579443D01*
X-24831389Y-2584727D01*
X-24831391Y-2584729D01*
X-24903803Y-2666721D01*
X-24912903Y-2677025D01*
X-24968232Y-2794873D01*
X-24988262Y-2923512D01*
X-33401000Y-2923512D01*
X-33401000Y-1056824D01*
X-28293799Y-1056824D01*
X-28264190Y-1229141D01*
X-28261938Y-1234432D01*
X-28261938Y-1234434D01*
X-28197984Y-1384734D01*
X-28195733Y-1390024D01*
X-28150987Y-1450827D01*
X-28096442Y-1524945D01*
X-28092102Y-1530843D01*
X-28087720Y-1534565D01*
X-28087718Y-1534568D01*
X-27970380Y-1634253D01*
X-27958854Y-1644045D01*
X-27924032Y-1661826D01*
X-27808262Y-1720942D01*
X-27808259Y-1720943D01*
X-27803138Y-1723558D01*
X-27797553Y-1724925D01*
X-27797552Y-1724925D01*
X-27637587Y-1764068D01*
X-27637584Y-1764068D01*
X-27633307Y-1765115D01*
X-27628909Y-1765388D01*
X-27628908Y-1765388D01*
X-27623782Y-1765706D01*
X-27623780Y-1765706D01*
X-27622266Y-1765800D01*
X-27496221Y-1765800D01*
X-27490345Y-1765115D01*
X-27477222Y-1763585D01*
X-27366335Y-1750657D01*
X-27360929Y-1748695D01*
X-27360926Y-1748694D01*
X-27207393Y-1692964D01*
X-27201985Y-1691001D01*
X-27197176Y-1687848D01*
X-27197172Y-1687846D01*
X-27126067Y-1641227D01*
X-25534640Y-1641227D01*
X-25533725Y-1648224D01*
X-25533725Y-1648225D01*
X-25533406Y-1650664D01*
X-25517759Y-1770318D01*
X-25514921Y-1776769D01*
X-25514920Y-1776771D01*
X-25507454Y-1793738D01*
X-25465326Y-1889482D01*
X-25460789Y-1894879D01*
X-25460788Y-1894881D01*
X-25439682Y-1919989D01*
X-25381554Y-1989140D01*
X-25375683Y-1993048D01*
X-25375682Y-1993049D01*
X-25349412Y-2010536D01*
X-25273180Y-2061281D01*
X-25266453Y-2063383D01*
X-25266450Y-2063384D01*
X-25155645Y-2098001D01*
X-25155644Y-2098001D01*
X-25148913Y-2100104D01*
X-25082006Y-2101330D01*
X-25025798Y-2102361D01*
X-25025796Y-2102361D01*
X-25018745Y-2102490D01*
X-25011942Y-2100635D01*
X-25011940Y-2100635D01*
X-24944346Y-2082206D01*
X-24893140Y-2068246D01*
X-24782194Y-2000125D01*
X-24773600Y-1990631D01*
X-24699560Y-1908832D01*
X-24699560Y-1908831D01*
X-24694828Y-1903604D01*
X-24645049Y-1800860D01*
X-24641139Y-1792790D01*
X-24638063Y-1786441D01*
X-24636642Y-1777998D01*
X-24617097Y-1661826D01*
X-24617097Y-1661822D01*
X-24616463Y-1658056D01*
X-24616326Y-1646837D01*
X-24623576Y-1596208D01*
X-24623836Y-1594390D01*
X-24159140Y-1594390D01*
X-24142259Y-1723481D01*
X-24139421Y-1729932D01*
X-24139420Y-1729934D01*
X-24124613Y-1763585D01*
X-24089826Y-1842645D01*
X-24085289Y-1848042D01*
X-24085288Y-1848044D01*
X-24055882Y-1883026D01*
X-24006054Y-1942303D01*
X-24000183Y-1946211D01*
X-24000182Y-1946212D01*
X-23973570Y-1963927D01*
X-23897680Y-2014444D01*
X-23890953Y-2016546D01*
X-23890950Y-2016547D01*
X-23780145Y-2051164D01*
X-23780144Y-2051164D01*
X-23773413Y-2053267D01*
X-23706506Y-2054493D01*
X-23650298Y-2055524D01*
X-23650296Y-2055524D01*
X-23643245Y-2055653D01*
X-23636442Y-2053798D01*
X-23636440Y-2053798D01*
X-23534634Y-2026042D01*
X-23517640Y-2021409D01*
X-23406694Y-1953288D01*
X-23380139Y-1923951D01*
X-23357908Y-1899390D01*
X285860Y-1899390D01*
X286775Y-1906387D01*
X286775Y-1906388D01*
X291472Y-1942303D01*
X302741Y-2028481D01*
X305579Y-2034932D01*
X305580Y-2034934D01*
X318615Y-2064557D01*
X355174Y-2147645D01*
X359711Y-2153042D01*
X359712Y-2153044D01*
X389545Y-2188534D01*
X438946Y-2247303D01*
X444817Y-2251211D01*
X444818Y-2251212D01*
X471430Y-2268927D01*
X547320Y-2319444D01*
X554047Y-2321546D01*
X554050Y-2321547D01*
X664855Y-2356164D01*
X664856Y-2356164D01*
X671587Y-2358267D01*
X738494Y-2359493D01*
X794702Y-2360524D01*
X794704Y-2360524D01*
X801755Y-2360653D01*
X808558Y-2358798D01*
X808560Y-2358798D01*
X880748Y-2339117D01*
X927360Y-2326409D01*
X1038306Y-2258288D01*
X1064670Y-2229162D01*
X1120940Y-2166995D01*
X1120940Y-2166994D01*
X1125672Y-2161767D01*
X1181985Y-2045537D01*
X1224373Y-2001413D01*
X1284600Y-1990631D01*
X1339664Y-2017309D01*
X1361695Y-2048831D01*
X1385249Y-2102361D01*
X1405174Y-2147645D01*
X1409711Y-2153042D01*
X1409712Y-2153044D01*
X1439545Y-2188534D01*
X1488946Y-2247303D01*
X1494817Y-2251211D01*
X1494818Y-2251212D01*
X1521430Y-2268927D01*
X1597320Y-2319444D01*
X1604047Y-2321546D01*
X1604050Y-2321547D01*
X1714855Y-2356164D01*
X1714856Y-2356164D01*
X1721587Y-2358267D01*
X1788494Y-2359493D01*
X1844702Y-2360524D01*
X1844704Y-2360524D01*
X1851755Y-2360653D01*
X1858558Y-2358798D01*
X1858560Y-2358798D01*
X1930748Y-2339117D01*
X1977360Y-2326409D01*
X2088306Y-2258288D01*
X2114670Y-2229162D01*
X2170940Y-2166995D01*
X2170940Y-2166994D01*
X2175672Y-2161767D01*
X2179731Y-2153390D01*
X3604860Y-2153390D01*
X3621741Y-2282481D01*
X3624579Y-2288932D01*
X3624580Y-2288934D01*
X3628835Y-2298604D01*
X3674174Y-2401645D01*
X3678711Y-2407042D01*
X3678712Y-2407044D01*
X3706884Y-2440558D01*
X3757946Y-2501303D01*
X3763817Y-2505211D01*
X3763818Y-2505212D01*
X3780223Y-2516132D01*
X3866320Y-2573444D01*
X3873047Y-2575546D01*
X3873050Y-2575547D01*
X3983855Y-2610164D01*
X3983856Y-2610164D01*
X3990587Y-2612267D01*
X4057494Y-2613493D01*
X4113702Y-2614524D01*
X4113704Y-2614524D01*
X4120755Y-2614653D01*
X4127558Y-2612798D01*
X4127560Y-2612798D01*
X4195154Y-2594369D01*
X4246360Y-2580409D01*
X4357306Y-2512288D01*
X4391065Y-2474992D01*
X4439940Y-2420995D01*
X4439940Y-2420994D01*
X4444672Y-2415767D01*
X4501437Y-2298604D01*
X4509411Y-2251212D01*
X4522403Y-2173989D01*
X4522403Y-2173985D01*
X4523037Y-2170219D01*
X4523174Y-2159000D01*
X4504718Y-2030125D01*
X4500756Y-2021409D01*
X4453753Y-1918034D01*
X4453752Y-1918033D01*
X4450832Y-1911610D01*
X4388229Y-1838955D01*
X4370455Y-1818327D01*
X4370454Y-1818326D01*
X4365850Y-1812983D01*
X4359933Y-1809148D01*
X4359931Y-1809146D01*
X4303220Y-1772388D01*
X7541860Y-1772388D01*
X7558741Y-1901479D01*
X7561579Y-1907930D01*
X7561580Y-1907932D01*
X7568629Y-1923951D01*
X7611174Y-2020643D01*
X7615711Y-2026040D01*
X7615712Y-2026042D01*
X7647102Y-2063384D01*
X7694946Y-2120301D01*
X7700817Y-2124209D01*
X7700818Y-2124210D01*
X7726325Y-2141189D01*
X7803320Y-2192442D01*
X7810047Y-2194544D01*
X7810050Y-2194545D01*
X7920855Y-2229162D01*
X7920856Y-2229162D01*
X7927587Y-2231265D01*
X7994494Y-2232491D01*
X8050702Y-2233522D01*
X8050704Y-2233522D01*
X8057755Y-2233651D01*
X8064558Y-2231796D01*
X8064560Y-2231796D01*
X8132154Y-2213367D01*
X8183360Y-2199407D01*
X8294306Y-2131286D01*
X8320488Y-2102361D01*
X8376940Y-2039993D01*
X8376940Y-2039992D01*
X8381672Y-2034765D01*
X8438437Y-1917602D01*
X8439913Y-1908832D01*
X8459403Y-1792987D01*
X8459403Y-1792983D01*
X8460037Y-1789217D01*
X8460174Y-1777998D01*
X8452574Y-1724925D01*
X8442718Y-1656106D01*
X8441718Y-1649123D01*
X8436373Y-1637366D01*
X8390753Y-1537032D01*
X8390752Y-1537031D01*
X8387832Y-1530608D01*
X8302850Y-1431981D01*
X8296933Y-1428146D01*
X8296931Y-1428144D01*
X8199523Y-1365008D01*
X8199521Y-1365007D01*
X8193601Y-1361170D01*
X8068870Y-1323868D01*
X7995593Y-1323420D01*
X7945734Y-1323115D01*
X7945733Y-1323115D01*
X7938683Y-1323072D01*
X7931906Y-1325009D01*
X7931905Y-1325009D01*
X7820285Y-1356910D01*
X7820283Y-1356911D01*
X7813505Y-1358848D01*
X7703400Y-1428319D01*
X7698733Y-1433603D01*
X7698731Y-1433605D01*
X7624230Y-1517962D01*
X7617219Y-1525901D01*
X7561890Y-1643749D01*
X7541860Y-1772388D01*
X4303220Y-1772388D01*
X4262523Y-1746010D01*
X4262521Y-1746009D01*
X4256601Y-1742172D01*
X4131870Y-1704870D01*
X4058593Y-1704422D01*
X4008734Y-1704117D01*
X4008733Y-1704117D01*
X4001683Y-1704074D01*
X3994906Y-1706011D01*
X3994905Y-1706011D01*
X3883285Y-1737912D01*
X3883283Y-1737913D01*
X3876505Y-1739850D01*
X3766400Y-1809321D01*
X3761733Y-1814605D01*
X3761731Y-1814607D01*
X3685009Y-1901479D01*
X3680219Y-1906903D01*
X3624890Y-2024751D01*
X3604860Y-2153390D01*
X2179731Y-2153390D01*
X2224357Y-2061281D01*
X2229361Y-2050953D01*
X2232437Y-2044604D01*
X2233699Y-2037108D01*
X2253403Y-1919989D01*
X2253403Y-1919985D01*
X2254037Y-1916219D01*
X2254174Y-1905000D01*
X2235718Y-1776125D01*
X2231024Y-1765800D01*
X2184753Y-1664034D01*
X2184752Y-1664033D01*
X2181832Y-1657610D01*
X2096850Y-1558983D01*
X2090933Y-1555148D01*
X2090931Y-1555146D01*
X1993523Y-1492010D01*
X1993521Y-1492009D01*
X1987601Y-1488172D01*
X1862870Y-1450870D01*
X1789593Y-1450422D01*
X1739734Y-1450117D01*
X1739733Y-1450117D01*
X1732683Y-1450074D01*
X1725906Y-1452011D01*
X1725905Y-1452011D01*
X1614285Y-1483912D01*
X1614283Y-1483913D01*
X1607505Y-1485850D01*
X1497400Y-1555321D01*
X1492733Y-1560605D01*
X1492731Y-1560607D01*
X1444703Y-1614989D01*
X1411219Y-1652903D01*
X1393332Y-1691001D01*
X1359254Y-1763585D01*
X1317408Y-1808224D01*
X1257317Y-1819741D01*
X1201932Y-1793738D01*
X1179517Y-1762487D01*
X1170936Y-1743613D01*
X1153320Y-1704870D01*
X1134753Y-1664034D01*
X1134752Y-1664033D01*
X1131832Y-1657610D01*
X1046850Y-1558983D01*
X1040933Y-1555148D01*
X1040931Y-1555146D01*
X943523Y-1492010D01*
X943521Y-1492009D01*
X937601Y-1488172D01*
X812870Y-1450870D01*
X739593Y-1450422D01*
X689734Y-1450117D01*
X689733Y-1450117D01*
X682683Y-1450074D01*
X675906Y-1452011D01*
X675905Y-1452011D01*
X564285Y-1483912D01*
X564283Y-1483913D01*
X557505Y-1485850D01*
X447400Y-1555321D01*
X442733Y-1560605D01*
X442731Y-1560607D01*
X394703Y-1614989D01*
X361219Y-1652903D01*
X305890Y-1770751D01*
X285860Y-1899390D01*
X-23357908Y-1899390D01*
X-23324060Y-1861995D01*
X-23324060Y-1861994D01*
X-23319328Y-1856767D01*
X-23262563Y-1739604D01*
X-23256592Y-1704117D01*
X-23241597Y-1614989D01*
X-23241597Y-1614985D01*
X-23240963Y-1611219D01*
X-23240826Y-1600000D01*
X-23259282Y-1471125D01*
X-23262868Y-1463236D01*
X-23310247Y-1359034D01*
X-23310248Y-1359033D01*
X-23313168Y-1352610D01*
X-23398150Y-1253983D01*
X-23404067Y-1250148D01*
X-23404069Y-1250146D01*
X-23501477Y-1187010D01*
X-23501479Y-1187009D01*
X-23507399Y-1183172D01*
X-23632130Y-1145870D01*
X-23705407Y-1145422D01*
X-23755266Y-1145117D01*
X-23755267Y-1145117D01*
X-23762317Y-1145074D01*
X-23769094Y-1147011D01*
X-23769095Y-1147011D01*
X-23880715Y-1178912D01*
X-23880717Y-1178913D01*
X-23887495Y-1180850D01*
X-23997600Y-1250321D01*
X-24002267Y-1255605D01*
X-24002269Y-1255607D01*
X-24061851Y-1323072D01*
X-24083781Y-1347903D01*
X-24139110Y-1465751D01*
X-24159140Y-1594390D01*
X-24623836Y-1594390D01*
X-24633782Y-1524945D01*
X-24634782Y-1517962D01*
X-24640127Y-1506205D01*
X-24685747Y-1405871D01*
X-24685748Y-1405870D01*
X-24688668Y-1399447D01*
X-24752048Y-1325890D01*
X-24769045Y-1306164D01*
X-24769046Y-1306163D01*
X-24773650Y-1300820D01*
X-24779567Y-1296985D01*
X-24779569Y-1296983D01*
X-24876977Y-1233847D01*
X-24876979Y-1233846D01*
X-24882899Y-1230009D01*
X-25007630Y-1192707D01*
X-25080907Y-1192259D01*
X-25130766Y-1191954D01*
X-25130767Y-1191954D01*
X-25137817Y-1191911D01*
X-25144594Y-1193848D01*
X-25144595Y-1193848D01*
X-25256215Y-1225749D01*
X-25256217Y-1225750D01*
X-25262995Y-1227687D01*
X-25373100Y-1297158D01*
X-25377767Y-1302442D01*
X-25377769Y-1302444D01*
X-25429633Y-1361170D01*
X-25459281Y-1394740D01*
X-25514610Y-1512588D01*
X-25534640Y-1641227D01*
X-27126067Y-1641227D01*
X-27074470Y-1607398D01*
X-27055767Y-1595136D01*
X-26935525Y-1468205D01*
X-26875583Y-1365008D01*
X-26850597Y-1321991D01*
X-26850597Y-1321990D01*
X-26847708Y-1317017D01*
X-26820652Y-1227687D01*
X-26798694Y-1155187D01*
X-26798694Y-1155185D01*
X-26797027Y-1149682D01*
X-26786201Y-975176D01*
X-26815810Y-802859D01*
X-26838678Y-749115D01*
X-26882016Y-647266D01*
X-26884267Y-641976D01*
X-26950893Y-551441D01*
X-26984489Y-505789D01*
X-26984490Y-505788D01*
X-26987898Y-501157D01*
X-26992280Y-497435D01*
X-26992282Y-497432D01*
X-27116760Y-391681D01*
X-27116761Y-391680D01*
X-27121146Y-387955D01*
X-27206925Y-344154D01*
X-27271738Y-311058D01*
X-27271741Y-311057D01*
X-27276862Y-308442D01*
X-27282447Y-307075D01*
X-27282448Y-307075D01*
X-27442413Y-267932D01*
X-27442416Y-267932D01*
X-27446693Y-266885D01*
X-27451091Y-266612D01*
X-27451092Y-266612D01*
X-27456218Y-266294D01*
X-27456220Y-266294D01*
X-27457734Y-266200D01*
X-27583779Y-266200D01*
X-27586626Y-266532D01*
X-27586627Y-266532D01*
X-27597242Y-267770D01*
X-27713665Y-281343D01*
X-27719071Y-283305D01*
X-27719074Y-283306D01*
X-27784556Y-307075D01*
X-27878015Y-340999D01*
X-27882824Y-344152D01*
X-27882828Y-344154D01*
X-27935447Y-378653D01*
X-28024233Y-436864D01*
X-28144475Y-563795D01*
X-28232292Y-714983D01*
X-28282973Y-882318D01*
X-28293799Y-1056824D01*
X-33401000Y-1056824D01*
X-33401000Y-40824D01*
X-23213799Y-40824D01*
X-23184190Y-213141D01*
X-23181938Y-218432D01*
X-23181938Y-218434D01*
X-23146798Y-301017D01*
X-23115733Y-374024D01*
X-23012102Y-514843D01*
X-23007720Y-518565D01*
X-23007718Y-518568D01*
X-22918023Y-594769D01*
X-22878854Y-628045D01*
X-22841212Y-647266D01*
X-22728262Y-704942D01*
X-22728259Y-704943D01*
X-22723138Y-707558D01*
X-22717553Y-708925D01*
X-22717552Y-708925D01*
X-22557587Y-748068D01*
X-22557584Y-748068D01*
X-22553307Y-749115D01*
X-22548909Y-749388D01*
X-22548908Y-749388D01*
X-22543782Y-749706D01*
X-22543780Y-749706D01*
X-22542266Y-749800D01*
X-22416221Y-749800D01*
X-22410345Y-749115D01*
X-22401365Y-748068D01*
X-22286335Y-734657D01*
X-22280929Y-732695D01*
X-22280926Y-732694D01*
X-22127393Y-676964D01*
X-22121985Y-675001D01*
X-22117176Y-671848D01*
X-22117172Y-671846D01*
X-22044682Y-624319D01*
X-21975767Y-579136D01*
X-21855525Y-452205D01*
X-21767708Y-301017D01*
X-21726699Y-165616D01*
X-21718694Y-139187D01*
X-21718694Y-139185D01*
X-21717027Y-133682D01*
X-21708386Y5610D01*
X9540860Y5610D01*
X9557741Y-123481D01*
X9560579Y-129932D01*
X9560580Y-129934D01*
X9564835Y-139604D01*
X9610174Y-242645D01*
X9614711Y-248042D01*
X9614712Y-248044D01*
X9642703Y-281343D01*
X9693946Y-342303D01*
X9699817Y-346211D01*
X9699818Y-346212D01*
X9726430Y-363927D01*
X9802320Y-414444D01*
X9809047Y-416546D01*
X9809050Y-416547D01*
X9919855Y-451164D01*
X9919856Y-451164D01*
X9926587Y-453267D01*
X9993494Y-454493D01*
X10049702Y-455524D01*
X10049704Y-455524D01*
X10056755Y-455653D01*
X10063558Y-453798D01*
X10063560Y-453798D01*
X10137244Y-433709D01*
X10182360Y-421409D01*
X10293306Y-353288D01*
X10304430Y-340999D01*
X10375940Y-261995D01*
X10375940Y-261994D01*
X10380672Y-256767D01*
X10437437Y-139604D01*
X10459037Y-11219D01*
X10459174Y0D01*
X10458371Y5610D01*
X13383860Y5610D01*
X13400741Y-123481D01*
X13403579Y-129932D01*
X13403580Y-129934D01*
X13407835Y-139604D01*
X13453174Y-242645D01*
X13457711Y-248042D01*
X13457712Y-248044D01*
X13485703Y-281343D01*
X13536946Y-342303D01*
X13542817Y-346211D01*
X13542818Y-346212D01*
X13569430Y-363927D01*
X13645320Y-414444D01*
X13652047Y-416546D01*
X13652050Y-416547D01*
X13762855Y-451164D01*
X13762856Y-451164D01*
X13769587Y-453267D01*
X13836494Y-454493D01*
X13892702Y-455524D01*
X13892704Y-455524D01*
X13899755Y-455653D01*
X13906558Y-453798D01*
X13906560Y-453798D01*
X13980244Y-433709D01*
X14025360Y-421409D01*
X14136306Y-353288D01*
X14147430Y-340999D01*
X14218940Y-261995D01*
X14218940Y-261994D01*
X14223672Y-256767D01*
X14280437Y-139604D01*
X14302037Y-11219D01*
X14302174Y0D01*
X14283718Y128875D01*
X14279030Y139187D01*
X14245187Y213619D01*
X14238314Y274417D01*
X14246215Y297760D01*
X14277360Y362044D01*
X14277361Y362047D01*
X14280437Y368396D01*
X14282064Y378063D01*
X14301403Y493011D01*
X14301403Y493015D01*
X14302037Y496781D01*
X14302091Y501157D01*
X14302127Y504173D01*
X14302174Y508000D01*
X14283718Y636875D01*
X14278994Y647266D01*
X14232753Y748966D01*
X14232752Y748967D01*
X14229832Y755390D01*
X14176381Y817423D01*
X14149455Y848673D01*
X14149454Y848674D01*
X14144850Y854017D01*
X14138933Y857852D01*
X14138931Y857854D01*
X14041523Y920990D01*
X14041521Y920991D01*
X14035601Y924828D01*
X13910870Y962130D01*
X13837593Y962578D01*
X13787734Y962883D01*
X13787733Y962883D01*
X13780683Y962926D01*
X13773906Y960989D01*
X13773905Y960989D01*
X13662285Y929088D01*
X13662283Y929087D01*
X13655505Y927150D01*
X13545400Y857679D01*
X13540733Y852395D01*
X13540731Y852393D01*
X13485374Y789712D01*
X13459219Y760097D01*
X13403890Y642249D01*
X13383860Y513610D01*
X13384775Y506613D01*
X13384775Y506612D01*
X13386061Y496781D01*
X13400741Y384519D01*
X13403580Y378067D01*
X13403581Y378063D01*
X13440981Y293064D01*
X13447111Y232187D01*
X13439980Y211119D01*
X13403890Y134249D01*
X13383860Y5610D01*
X10458371Y5610D01*
X10440718Y128875D01*
X10436030Y139187D01*
X10389753Y240966D01*
X10389752Y240967D01*
X10386832Y247390D01*
X10331972Y311058D01*
X10306455Y340673D01*
X10306454Y340674D01*
X10301850Y346017D01*
X10295933Y349852D01*
X10295931Y349854D01*
X10198523Y412990D01*
X10198521Y412991D01*
X10192601Y416828D01*
X10067870Y454130D01*
X9994593Y454578D01*
X9944734Y454883D01*
X9944733Y454883D01*
X9937683Y454926D01*
X9930906Y452989D01*
X9930905Y452989D01*
X9819285Y421088D01*
X9819283Y421087D01*
X9812505Y419150D01*
X9702400Y349679D01*
X9697733Y344395D01*
X9697731Y344393D01*
X9642048Y281343D01*
X9616219Y252097D01*
X9560890Y134249D01*
X9540860Y5610D01*
X-21708386Y5610D01*
X-21706201Y40824D01*
X-21735810Y213141D01*
X-21749669Y245713D01*
X-21802016Y368734D01*
X-21804267Y374024D01*
X-21901235Y505789D01*
X-21904489Y510211D01*
X-21904490Y510212D01*
X-21907898Y514843D01*
X-21912280Y518565D01*
X-21912282Y518568D01*
X-22036760Y624319D01*
X-22036761Y624320D01*
X-22041146Y628045D01*
X-22133103Y675001D01*
X-22191738Y704942D01*
X-22191741Y704943D01*
X-22196862Y707558D01*
X-22202447Y708925D01*
X-22202448Y708925D01*
X-22362413Y748068D01*
X-22362416Y748068D01*
X-22366693Y749115D01*
X-22371091Y749388D01*
X-22371092Y749388D01*
X-22376218Y749706D01*
X-22376220Y749706D01*
X-22377734Y749800D01*
X-22503779Y749800D01*
X-22506626Y749468D01*
X-22506627Y749468D01*
X-22517242Y748230D01*
X-22633665Y734657D01*
X-22639071Y732695D01*
X-22639074Y732694D01*
X-22758892Y689202D01*
X-22798015Y675001D01*
X-22802824Y671848D01*
X-22802828Y671846D01*
X-22869635Y628045D01*
X-22944233Y579136D01*
X-23064475Y452205D01*
X-23152292Y301017D01*
X-23202973Y133682D01*
X-23213799Y-40824D01*
X-33401000Y-40824D01*
X-33401000Y975176D01*
X-28293799Y975176D01*
X-28264190Y802859D01*
X-28261938Y797568D01*
X-28261938Y797566D01*
X-28228821Y719737D01*
X-28195733Y641976D01*
X-28186840Y629892D01*
X-28096116Y506612D01*
X-28092102Y501157D01*
X-28087720Y497435D01*
X-28087718Y497432D01*
X-27963240Y391681D01*
X-27958854Y387955D01*
X-27891265Y353442D01*
X-27808262Y311058D01*
X-27808259Y311057D01*
X-27803138Y308442D01*
X-27797553Y307075D01*
X-27797552Y307075D01*
X-27637587Y267932D01*
X-27637584Y267932D01*
X-27633307Y266885D01*
X-27628909Y266612D01*
X-27628908Y266612D01*
X-27623782Y266294D01*
X-27623780Y266294D01*
X-27622266Y266200D01*
X-27496221Y266200D01*
X-27490345Y266885D01*
X-27481365Y267932D01*
X-27366335Y281343D01*
X-27360929Y283305D01*
X-27360926Y283306D01*
X-27207393Y339036D01*
X-27201985Y340999D01*
X-27197176Y344152D01*
X-27197172Y344154D01*
X-27083243Y418850D01*
X-27055767Y436864D01*
X-26935525Y563795D01*
X-26847708Y714983D01*
X-26819376Y808529D01*
X-26798694Y876813D01*
X-26798694Y876815D01*
X-26797027Y882318D01*
X-26786201Y1056824D01*
X-26813952Y1218326D01*
X-26805172Y1278877D01*
X-26762478Y1322704D01*
X-26702176Y1333065D01*
X-26647301Y1306004D01*
X-26640600Y1298793D01*
X-26612229Y1265043D01*
X-26606054Y1257697D01*
X-26600183Y1253789D01*
X-26600182Y1253788D01*
X-26573570Y1236073D01*
X-26497680Y1185556D01*
X-26490953Y1183454D01*
X-26490950Y1183453D01*
X-26380145Y1148836D01*
X-26380144Y1148836D01*
X-26373413Y1146733D01*
X-26306506Y1145507D01*
X-26250298Y1144476D01*
X-26250296Y1144476D01*
X-26243245Y1144347D01*
X-26236442Y1146202D01*
X-26236440Y1146202D01*
X-26168846Y1164631D01*
X-26117640Y1178591D01*
X-26006694Y1246712D01*
X-25928531Y1333065D01*
X-25924060Y1338005D01*
X-25924060Y1338006D01*
X-25919328Y1343233D01*
X-25862563Y1460396D01*
X-25858972Y1481737D01*
X-25841597Y1585011D01*
X-25841597Y1585015D01*
X-25840963Y1588781D01*
X-25840826Y1600000D01*
X-25841629Y1605610D01*
X-25459140Y1605610D01*
X-25458225Y1598613D01*
X-25458225Y1598612D01*
X-25453710Y1564088D01*
X-25442259Y1476519D01*
X-25439421Y1470068D01*
X-25439420Y1470066D01*
X-25430360Y1449476D01*
X-25389826Y1357355D01*
X-25385289Y1351958D01*
X-25385288Y1351956D01*
X-25360099Y1321991D01*
X-25306054Y1257697D01*
X-25300183Y1253789D01*
X-25300182Y1253788D01*
X-25273570Y1236073D01*
X-25197680Y1185556D01*
X-25190953Y1183454D01*
X-25190950Y1183453D01*
X-25080145Y1148836D01*
X-25080144Y1148836D01*
X-25073413Y1146733D01*
X-25006506Y1145507D01*
X-24950298Y1144476D01*
X-24950296Y1144476D01*
X-24943245Y1144347D01*
X-24936442Y1146202D01*
X-24936440Y1146202D01*
X-24927608Y1148610D01*
X-5158140Y1148610D01*
X-5141259Y1019519D01*
X-5138421Y1013068D01*
X-5138420Y1013066D01*
X-5134165Y1003396D01*
X-5088826Y900355D01*
X-5084289Y894958D01*
X-5084288Y894956D01*
X-5062339Y868845D01*
X-5005054Y800697D01*
X-4999183Y796789D01*
X-4999182Y796788D01*
X-4972570Y779073D01*
X-4896680Y728556D01*
X-4889953Y726454D01*
X-4889950Y726453D01*
X-4779145Y691836D01*
X-4779144Y691836D01*
X-4772413Y689733D01*
X-4705506Y688507D01*
X-4649298Y687476D01*
X-4649296Y687476D01*
X-4642245Y687347D01*
X-4635442Y689202D01*
X-4635440Y689202D01*
X-4540878Y714983D01*
X-4516640Y721591D01*
X-4405694Y789712D01*
X-4363384Y836455D01*
X-4323060Y881005D01*
X-4323060Y881006D01*
X-4318328Y886233D01*
X-4261563Y1003396D01*
X-4253812Y1049463D01*
X-4240597Y1128011D01*
X-4240597Y1128015D01*
X-4239963Y1131781D01*
X-4239826Y1143000D01*
X-4249962Y1213778D01*
X-4239495Y1274061D01*
X-4215125Y1297718D01*
X7519752Y1297718D01*
X7536633Y1168627D01*
X7539471Y1162176D01*
X7539472Y1162174D01*
X7547316Y1144347D01*
X7589066Y1049463D01*
X7593603Y1044066D01*
X7593604Y1044064D01*
X7608360Y1026510D01*
X7672838Y949805D01*
X7678709Y945897D01*
X7678710Y945896D01*
X7703960Y929088D01*
X7781212Y877664D01*
X7787939Y875562D01*
X7787942Y875561D01*
X7898747Y840944D01*
X7898748Y840944D01*
X7905479Y838841D01*
X7972386Y837615D01*
X8028594Y836584D01*
X8028596Y836584D01*
X8035647Y836455D01*
X8042450Y838310D01*
X8042452Y838310D01*
X8127298Y861442D01*
X8161252Y870699D01*
X8272198Y938820D01*
X8359564Y1035341D01*
X8412377Y1144347D01*
X8413253Y1146155D01*
X8416329Y1152504D01*
X8422548Y1189464D01*
X8437295Y1277119D01*
X8437295Y1277123D01*
X8437929Y1280889D01*
X8438066Y1292108D01*
X8433787Y1321991D01*
X8420610Y1414000D01*
X8419610Y1420983D01*
X8415537Y1429943D01*
X8368645Y1533074D01*
X8368644Y1533075D01*
X8365724Y1539498D01*
X8308759Y1605610D01*
X8285347Y1632781D01*
X8285346Y1632782D01*
X8280742Y1638125D01*
X8274825Y1641960D01*
X8274823Y1641962D01*
X8177415Y1705098D01*
X8177413Y1705099D01*
X8171493Y1708936D01*
X8046762Y1746238D01*
X7973485Y1746686D01*
X7923626Y1746991D01*
X7923625Y1746991D01*
X7916575Y1747034D01*
X7909798Y1745097D01*
X7909797Y1745097D01*
X7798177Y1713196D01*
X7798175Y1713195D01*
X7791397Y1711258D01*
X7681292Y1641787D01*
X7676625Y1636503D01*
X7676623Y1636501D01*
X7607990Y1558788D01*
X7595111Y1544205D01*
X7539782Y1426357D01*
X7519752Y1297718D01*
X-4215125Y1297718D01*
X-4195593Y1316679D01*
X-4138748Y1325150D01*
X-4137413Y1324733D01*
X-4076355Y1323614D01*
X-4014298Y1322476D01*
X-4014296Y1322476D01*
X-4007245Y1322347D01*
X-4000442Y1324202D01*
X-4000440Y1324202D01*
X-3930636Y1343233D01*
X-3881640Y1356591D01*
X-3770694Y1424712D01*
X-3748395Y1449347D01*
X-3688060Y1516005D01*
X-3688060Y1516006D01*
X-3683328Y1521233D01*
X-3626563Y1638396D01*
X-3617712Y1691001D01*
X-3605597Y1763011D01*
X-3605597Y1763015D01*
X-3604963Y1766781D01*
X-3604826Y1778000D01*
X-3623282Y1906875D01*
X-3624980Y1910610D01*
X1699860Y1910610D01*
X1700775Y1903613D01*
X1700775Y1903612D01*
X1701561Y1897602D01*
X1716741Y1781519D01*
X1719579Y1775068D01*
X1719580Y1775066D01*
X1732246Y1746281D01*
X1769174Y1662355D01*
X1773711Y1656958D01*
X1773712Y1656956D01*
X1790907Y1636501D01*
X1852946Y1562697D01*
X1858817Y1558789D01*
X1858818Y1558788D01*
X1879766Y1544844D01*
X1961320Y1490556D01*
X1968047Y1488454D01*
X1968050Y1488453D01*
X2078855Y1453836D01*
X2078856Y1453836D01*
X2085587Y1451733D01*
X2152494Y1450507D01*
X2208702Y1449476D01*
X2208704Y1449476D01*
X2215755Y1449347D01*
X2222558Y1451202D01*
X2222560Y1451202D01*
X2315420Y1476519D01*
X2341360Y1483591D01*
X2452306Y1551712D01*
X2487831Y1590959D01*
X2534940Y1643005D01*
X2534940Y1643006D01*
X2539672Y1648233D01*
X2596437Y1765396D01*
X2599502Y1783610D01*
X2617403Y1890011D01*
X2617403Y1890015D01*
X2618037Y1893781D01*
X2618174Y1905000D01*
X2599718Y2033875D01*
X2594373Y2045632D01*
X2548753Y2145966D01*
X2548752Y2145967D01*
X2545832Y2152390D01*
X2460850Y2251017D01*
X2454933Y2254852D01*
X2454931Y2254854D01*
X2357523Y2317990D01*
X2357521Y2317991D01*
X2351601Y2321828D01*
X2226870Y2359130D01*
X2153593Y2359578D01*
X2103734Y2359883D01*
X2103733Y2359883D01*
X2096683Y2359926D01*
X2089906Y2357989D01*
X2089905Y2357989D01*
X1978285Y2326088D01*
X1978283Y2326087D01*
X1971505Y2324150D01*
X1861400Y2254679D01*
X1856733Y2249395D01*
X1856731Y2249393D01*
X1807269Y2193387D01*
X1775219Y2157097D01*
X1719890Y2039249D01*
X1699860Y1910610D01*
X-3624980Y1910610D01*
X-3628627Y1918632D01*
X-3674247Y2018966D01*
X-3674248Y2018967D01*
X-3677168Y2025390D01*
X-3762150Y2124017D01*
X-3768067Y2127852D01*
X-3768069Y2127854D01*
X-3865477Y2190990D01*
X-3865479Y2190991D01*
X-3871399Y2194828D01*
X-3996130Y2232130D01*
X-4069407Y2232578D01*
X-4119266Y2232883D01*
X-4119267Y2232883D01*
X-4126317Y2232926D01*
X-4133094Y2230989D01*
X-4133095Y2230989D01*
X-4244715Y2199088D01*
X-4244717Y2199087D01*
X-4251495Y2197150D01*
X-4361600Y2127679D01*
X-4366267Y2122395D01*
X-4366269Y2122393D01*
X-4425853Y2054926D01*
X-4447781Y2030097D01*
X-4503110Y1912249D01*
X-4523140Y1783610D01*
X-4513186Y1707495D01*
X-4513000Y1706071D01*
X-4524202Y1645920D01*
X-4568621Y1603841D01*
X-4625322Y1595393D01*
X-4631130Y1597130D01*
X-4700625Y1597555D01*
X-4754266Y1597883D01*
X-4754267Y1597883D01*
X-4761317Y1597926D01*
X-4768094Y1595989D01*
X-4768095Y1595989D01*
X-4879715Y1564088D01*
X-4879717Y1564087D01*
X-4886495Y1562150D01*
X-4996600Y1492679D01*
X-5001267Y1487395D01*
X-5001269Y1487393D01*
X-5072908Y1406276D01*
X-5082781Y1395097D01*
X-5138110Y1277249D01*
X-5158140Y1148610D01*
X-24927608Y1148610D01*
X-24868846Y1164631D01*
X-24817640Y1178591D01*
X-24706694Y1246712D01*
X-24628531Y1333065D01*
X-24624060Y1338005D01*
X-24624060Y1338006D01*
X-24619328Y1343233D01*
X-24562563Y1460396D01*
X-24558972Y1481737D01*
X-24541597Y1585011D01*
X-24541597Y1585015D01*
X-24540963Y1588781D01*
X-24540826Y1600000D01*
X-24545520Y1632781D01*
X-24558282Y1721892D01*
X-24559282Y1728875D01*
X-24564627Y1740632D01*
X-24610247Y1840966D01*
X-24610248Y1840967D01*
X-24613168Y1847390D01*
X-24674554Y1918632D01*
X-24693545Y1940673D01*
X-24693546Y1940674D01*
X-24698150Y1946017D01*
X-24704067Y1949852D01*
X-24704069Y1949854D01*
X-24801477Y2012990D01*
X-24801479Y2012991D01*
X-24807399Y2016828D01*
X-24932130Y2054130D01*
X-25005407Y2054578D01*
X-25055266Y2054883D01*
X-25055267Y2054883D01*
X-25062317Y2054926D01*
X-25069094Y2052989D01*
X-25069095Y2052989D01*
X-25180715Y2021088D01*
X-25180717Y2021087D01*
X-25187495Y2019150D01*
X-25297600Y1949679D01*
X-25302267Y1944395D01*
X-25302269Y1944393D01*
X-25350297Y1890011D01*
X-25383781Y1852097D01*
X-25439110Y1734249D01*
X-25459140Y1605610D01*
X-25841629Y1605610D01*
X-25845520Y1632781D01*
X-25858282Y1721892D01*
X-25859282Y1728875D01*
X-25864627Y1740632D01*
X-25910247Y1840966D01*
X-25910248Y1840967D01*
X-25913168Y1847390D01*
X-25974554Y1918632D01*
X-25993545Y1940673D01*
X-25993546Y1940674D01*
X-25998150Y1946017D01*
X-26004067Y1949852D01*
X-26004069Y1949854D01*
X-26101477Y2012990D01*
X-26101479Y2012991D01*
X-26107399Y2016828D01*
X-26232130Y2054130D01*
X-26305407Y2054578D01*
X-26355266Y2054883D01*
X-26355267Y2054883D01*
X-26362317Y2054926D01*
X-26369094Y2052989D01*
X-26369095Y2052989D01*
X-26480715Y2021088D01*
X-26480717Y2021087D01*
X-26487495Y2019150D01*
X-26597600Y1949679D01*
X-26602267Y1944395D01*
X-26602269Y1944393D01*
X-26650297Y1890011D01*
X-26683781Y1852097D01*
X-26739110Y1734249D01*
X-26759140Y1605610D01*
X-26758225Y1598613D01*
X-26758225Y1598612D01*
X-26747633Y1517614D01*
X-26758835Y1457463D01*
X-26803254Y1415384D01*
X-26863923Y1407451D01*
X-26917668Y1436692D01*
X-26925533Y1446098D01*
X-26933896Y1457463D01*
X-26955922Y1487393D01*
X-26984489Y1526211D01*
X-26984490Y1526212D01*
X-26987898Y1530843D01*
X-26992280Y1534565D01*
X-26992282Y1534568D01*
X-27116760Y1640319D01*
X-27116761Y1640320D01*
X-27121146Y1644045D01*
X-27213103Y1691001D01*
X-27271738Y1720942D01*
X-27271741Y1720943D01*
X-27276862Y1723558D01*
X-27282447Y1724925D01*
X-27282448Y1724925D01*
X-27442413Y1764068D01*
X-27442416Y1764068D01*
X-27446693Y1765115D01*
X-27451091Y1765388D01*
X-27451092Y1765388D01*
X-27456218Y1765706D01*
X-27456220Y1765706D01*
X-27457734Y1765800D01*
X-27583779Y1765800D01*
X-27586626Y1765468D01*
X-27586627Y1765468D01*
X-27597242Y1764230D01*
X-27713665Y1750657D01*
X-27719071Y1748695D01*
X-27719074Y1748694D01*
X-27871098Y1693512D01*
X-27878015Y1691001D01*
X-27882824Y1687848D01*
X-27882828Y1687846D01*
X-27929942Y1656956D01*
X-28024233Y1595136D01*
X-28028189Y1590959D01*
X-28028190Y1590959D01*
X-28042712Y1575630D01*
X-28144475Y1468205D01*
X-28189674Y1390390D01*
X-28210382Y1354737D01*
X-28232292Y1317017D01*
X-28248623Y1263097D01*
X-28281185Y1155584D01*
X-28282973Y1149682D01*
X-28293799Y975176D01*
X-33401000Y975176D01*
X-33401000Y5932757D01*
X-21298074Y5932757D01*
X-21270592Y5835306D01*
X-21242815Y5780789D01*
X-21240528Y5777641D01*
X-21240526Y5777638D01*
X-21200283Y5722249D01*
X-21195091Y5715103D01*
X-20192696Y4712708D01*
X-20161433Y4686045D01*
X-20136124Y4667712D01*
X-20118853Y4656225D01*
X-20079405Y4641799D01*
X-20028330Y4623121D01*
X-20028328Y4623120D01*
X-20023760Y4621450D01*
X-19963301Y4612050D01*
X-19902341Y4609828D01*
X-19894849Y4611964D01*
X-19894847Y4611964D01*
X-19848113Y4625287D01*
X-19804969Y4637587D01*
X-19772564Y4654214D01*
X-19753998Y4663740D01*
X-19753997Y4663741D01*
X-19750533Y4665518D01*
X-19684985Y4713426D01*
X-18809774Y5593610D01*
X-15191140Y5593610D01*
X-15174259Y5464519D01*
X-15121826Y5345355D01*
X-15117289Y5339958D01*
X-15117288Y5339956D01*
X-15069740Y5283391D01*
X-15038054Y5245697D01*
X-15032183Y5241789D01*
X-15032182Y5241788D01*
X-15005570Y5224073D01*
X-14929680Y5173556D01*
X-14922953Y5171454D01*
X-14922950Y5171453D01*
X-14812145Y5136836D01*
X-14812144Y5136836D01*
X-14805413Y5134733D01*
X-14738506Y5133507D01*
X-14682298Y5132476D01*
X-14682296Y5132476D01*
X-14675245Y5132347D01*
X-14668442Y5134202D01*
X-14668440Y5134202D01*
X-14600846Y5152631D01*
X-14549640Y5166591D01*
X-14438694Y5234712D01*
X-14351328Y5331233D01*
X-14294563Y5448396D01*
X-14283250Y5515636D01*
X-14275384Y5562389D01*
X-14247084Y5616636D01*
X-14192303Y5643888D01*
X-14175943Y5644946D01*
X-14150299Y5644476D01*
X-14150297Y5644476D01*
X-14143245Y5644347D01*
X-14136442Y5646202D01*
X-14136440Y5646202D01*
X-14068846Y5664631D01*
X-14017640Y5678591D01*
X-13906694Y5746712D01*
X-13852837Y5806212D01*
X-13824060Y5838005D01*
X-13824060Y5838006D01*
X-13819328Y5843233D01*
X-13762563Y5960396D01*
X-13744483Y6067858D01*
X-13716183Y6122105D01*
X-13661402Y6149357D01*
X-13645045Y6150415D01*
X-13580098Y6149224D01*
X-13539298Y6148476D01*
X-13539296Y6148476D01*
X-13532245Y6148347D01*
X-13525442Y6150202D01*
X-13525440Y6150202D01*
X-13470759Y6165110D01*
X-903640Y6165110D01*
X-886759Y6036019D01*
X-883921Y6029568D01*
X-883920Y6029566D01*
X-872401Y6003387D01*
X-834326Y5916855D01*
X-829789Y5911458D01*
X-829788Y5911456D01*
X-782240Y5854891D01*
X-750554Y5817197D01*
X-744683Y5813289D01*
X-744682Y5813288D01*
X-718070Y5795573D01*
X-642180Y5745056D01*
X-635453Y5742954D01*
X-635450Y5742953D01*
X-524645Y5708336D01*
X-524644Y5708336D01*
X-517913Y5706233D01*
X-451006Y5705007D01*
X-394798Y5703976D01*
X-394796Y5703976D01*
X-387745Y5703847D01*
X-380942Y5705702D01*
X-380940Y5705702D01*
X-296835Y5728632D01*
X-262140Y5738091D01*
X-151194Y5806212D01*
X-124859Y5835306D01*
X-68560Y5897505D01*
X-68560Y5897506D01*
X-63828Y5902733D01*
X-18353Y5996594D01*
X-10139Y6013547D01*
X-7063Y6019896D01*
X-3229Y6042681D01*
X13903Y6144511D01*
X13903Y6144515D01*
X14537Y6148281D01*
X14674Y6159500D01*
X13766Y6165844D01*
X-2782Y6281392D01*
X-3782Y6288375D01*
X-9127Y6300132D01*
X-54747Y6400466D01*
X-54748Y6400467D01*
X-57668Y6406890D01*
X-142650Y6505517D01*
X-148567Y6509352D01*
X-148569Y6509354D01*
X-245977Y6572490D01*
X-245979Y6572491D01*
X-251899Y6576328D01*
X-376630Y6613630D01*
X-449907Y6614078D01*
X-499766Y6614383D01*
X-499767Y6614383D01*
X-506817Y6614426D01*
X-513594Y6612489D01*
X-513595Y6612489D01*
X-625215Y6580588D01*
X-625217Y6580587D01*
X-631995Y6578650D01*
X-742100Y6509179D01*
X-746767Y6503895D01*
X-746769Y6503893D01*
X-799317Y6444393D01*
X-828281Y6411597D01*
X-883610Y6293749D01*
X-903640Y6165110D01*
X-13470759Y6165110D01*
X-13420714Y6178754D01*
X-13406640Y6182591D01*
X-13295694Y6250712D01*
X-13208328Y6347233D01*
X-13151563Y6464396D01*
X-13145543Y6500173D01*
X-13130597Y6589011D01*
X-13130597Y6589015D01*
X-13129963Y6592781D01*
X-13129826Y6604000D01*
X-13130915Y6611608D01*
X-13147282Y6725892D01*
X-13148282Y6732875D01*
X-13153627Y6744632D01*
X-13199247Y6844966D01*
X-13199248Y6844967D01*
X-13202168Y6851390D01*
X-13287150Y6950017D01*
X-13293067Y6953852D01*
X-13293069Y6953854D01*
X-13390477Y7016990D01*
X-13390479Y7016991D01*
X-13396399Y7020828D01*
X-13521130Y7058130D01*
X-13594407Y7058578D01*
X-13644266Y7058883D01*
X-13644267Y7058883D01*
X-13651317Y7058926D01*
X-13658094Y7056989D01*
X-13658095Y7056989D01*
X-13769715Y7025088D01*
X-13769717Y7025087D01*
X-13776495Y7023150D01*
X-13886600Y6953679D01*
X-13891267Y6948395D01*
X-13891269Y6948393D01*
X-13968111Y6861385D01*
X-13972781Y6856097D01*
X-14028110Y6738249D01*
X-14029195Y6731279D01*
X-14043726Y6637958D01*
X-14071361Y6583369D01*
X-14125805Y6555449D01*
X-14142150Y6554191D01*
X-14223271Y6554687D01*
X-14255266Y6554883D01*
X-14255267Y6554883D01*
X-14262317Y6554926D01*
X-14269094Y6552989D01*
X-14269095Y6552989D01*
X-14380715Y6521088D01*
X-14380717Y6521087D01*
X-14387495Y6519150D01*
X-14497600Y6449679D01*
X-14502267Y6444395D01*
X-14502269Y6444393D01*
X-14579111Y6357385D01*
X-14583781Y6352097D01*
X-14639110Y6234249D01*
X-14653082Y6144511D01*
X-14655895Y6126448D01*
X-14683530Y6071859D01*
X-14737973Y6043939D01*
X-14754316Y6042681D01*
X-14781104Y6042845D01*
X-14787267Y6042883D01*
X-14787268Y6042883D01*
X-14794317Y6042926D01*
X-14801094Y6040989D01*
X-14801095Y6040989D01*
X-14912715Y6009088D01*
X-14912717Y6009087D01*
X-14919495Y6007150D01*
X-15029600Y5937679D01*
X-15034267Y5932395D01*
X-15034269Y5932393D01*
X-15107408Y5849578D01*
X-15115781Y5840097D01*
X-15171110Y5722249D01*
X-15191140Y5593610D01*
X-18809774Y5593610D01*
X-17355539Y7056108D01*
X-16536689Y7879610D01*
X22146860Y7879610D01*
X22163741Y7750519D01*
X22166579Y7744068D01*
X22166580Y7744066D01*
X22170835Y7734396D01*
X22216174Y7631355D01*
X22220711Y7625958D01*
X22220712Y7625956D01*
X22268260Y7569391D01*
X22299946Y7531697D01*
X22305817Y7527789D01*
X22305818Y7527788D01*
X22332430Y7510073D01*
X22408320Y7459556D01*
X22415047Y7457454D01*
X22415050Y7457453D01*
X22525855Y7422836D01*
X22525856Y7422836D01*
X22532587Y7420733D01*
X22599494Y7419507D01*
X22655702Y7418476D01*
X22655704Y7418476D01*
X22662755Y7418347D01*
X22669558Y7420202D01*
X22669560Y7420202D01*
X22737154Y7438631D01*
X22788360Y7452591D01*
X22899306Y7520712D01*
X22965054Y7593349D01*
X22981940Y7612005D01*
X22981940Y7612006D01*
X22986672Y7617233D01*
X23043437Y7734396D01*
X23052289Y7787007D01*
X23064403Y7859011D01*
X23064403Y7859015D01*
X23065037Y7862781D01*
X23065174Y7874000D01*
X23046718Y8002875D01*
X23041373Y8014632D01*
X22995753Y8114966D01*
X22995752Y8114967D01*
X22992832Y8121390D01*
X22924031Y8201238D01*
X22912455Y8214673D01*
X22912454Y8214674D01*
X22907850Y8220017D01*
X22901933Y8223852D01*
X22901931Y8223854D01*
X22804523Y8286990D01*
X22804521Y8286991D01*
X22798601Y8290828D01*
X22673870Y8328130D01*
X22600593Y8328578D01*
X22550734Y8328883D01*
X22550733Y8328883D01*
X22543683Y8328926D01*
X22536906Y8326989D01*
X22536905Y8326989D01*
X22425285Y8295088D01*
X22425283Y8295087D01*
X22418505Y8293150D01*
X22308400Y8223679D01*
X22303733Y8218395D01*
X22303731Y8218393D01*
X22262082Y8171234D01*
X22222219Y8126097D01*
X22166890Y8008249D01*
X22146860Y7879610D01*
X-16536689Y7879610D01*
X-15337005Y9086110D01*
X-903640Y9086110D01*
X-886759Y8957019D01*
X-883921Y8950568D01*
X-883920Y8950566D01*
X-880693Y8943233D01*
X-834326Y8837855D01*
X-829789Y8832458D01*
X-829788Y8832456D01*
X-787610Y8782280D01*
X-750554Y8738197D01*
X-744683Y8734289D01*
X-744682Y8734288D01*
X-718070Y8716573D01*
X-642180Y8666056D01*
X-635453Y8663954D01*
X-635450Y8663953D01*
X-524645Y8629336D01*
X-524644Y8629336D01*
X-517913Y8627233D01*
X-451006Y8626007D01*
X-394798Y8624976D01*
X-394796Y8624976D01*
X-387745Y8624847D01*
X-380942Y8626702D01*
X-380940Y8626702D01*
X-313346Y8645131D01*
X-262140Y8659091D01*
X-151194Y8727212D01*
X-133524Y8746733D01*
X-68560Y8818505D01*
X-68560Y8818506D01*
X-63828Y8823733D01*
X-7063Y8940896D01*
X-2352Y8968894D01*
X13903Y9065511D01*
X13903Y9065515D01*
X14537Y9069281D01*
X14674Y9080500D01*
X-3782Y9209375D01*
X-9127Y9221132D01*
X-54747Y9321466D01*
X-54748Y9321467D01*
X-57668Y9327890D01*
X-142650Y9426517D01*
X-148567Y9430352D01*
X-148569Y9430354D01*
X-245977Y9493490D01*
X-245979Y9493491D01*
X-251899Y9497328D01*
X-376630Y9534630D01*
X-449907Y9535078D01*
X-499766Y9535383D01*
X-499767Y9535383D01*
X-506817Y9535426D01*
X-513594Y9533489D01*
X-513595Y9533489D01*
X-625215Y9501588D01*
X-625217Y9501587D01*
X-631995Y9499650D01*
X-742100Y9430179D01*
X-746767Y9424895D01*
X-746769Y9424893D01*
X-750054Y9421173D01*
X-828281Y9332597D01*
X-883610Y9214749D01*
X-903640Y9086110D01*
X-15337005Y9086110D01*
X-14225019Y10204414D01*
X-14170581Y10232346D01*
X-14110122Y10222946D01*
X-14066735Y10179804D01*
X-14056996Y10119378D01*
X-14059140Y10105610D01*
X-14042259Y9976519D01*
X-14039421Y9970068D01*
X-14039420Y9970066D01*
X-14035165Y9960396D01*
X-13989826Y9857355D01*
X-13985289Y9851958D01*
X-13985288Y9851956D01*
X-13937740Y9795391D01*
X-13906054Y9757697D01*
X-13900183Y9753789D01*
X-13900182Y9753788D01*
X-13873570Y9736073D01*
X-13797680Y9685556D01*
X-13790953Y9683454D01*
X-13790950Y9683453D01*
X-13680145Y9648836D01*
X-13680144Y9648836D01*
X-13673413Y9646733D01*
X-13606506Y9645507D01*
X-13550298Y9644476D01*
X-13550296Y9644476D01*
X-13543245Y9644347D01*
X-13536442Y9646202D01*
X-13536440Y9646202D01*
X-13467487Y9665001D01*
X-13417640Y9678591D01*
X-13306694Y9746712D01*
X-13219328Y9843233D01*
X-13162563Y9960396D01*
X-13140963Y10088781D01*
X-13140826Y10100000D01*
X-13159282Y10228875D01*
X-13213168Y10347390D01*
X-13298150Y10446017D01*
X-13304067Y10449852D01*
X-13304069Y10449854D01*
X-13401477Y10512990D01*
X-13401479Y10512991D01*
X-13407399Y10516828D01*
X-13532130Y10554130D01*
X-13564088Y10554325D01*
X-13639183Y10554785D01*
X-13697257Y10574048D01*
X-13732917Y10623767D01*
X-13732543Y10684951D01*
X-13708779Y10723588D01*
X-13643384Y10789354D01*
X-13505909Y10927610D01*
X19225860Y10927610D01*
X19242741Y10798519D01*
X19245579Y10792068D01*
X19245580Y10792066D01*
X19249835Y10782396D01*
X19295174Y10679355D01*
X19299711Y10673958D01*
X19299712Y10673956D01*
X19341901Y10623767D01*
X19378946Y10579697D01*
X19384817Y10575789D01*
X19384818Y10575788D01*
X19411430Y10558073D01*
X19487320Y10507556D01*
X19494047Y10505454D01*
X19494050Y10505453D01*
X19604855Y10470836D01*
X19604856Y10470836D01*
X19611587Y10468733D01*
X19678494Y10467507D01*
X19734702Y10466476D01*
X19734704Y10466476D01*
X19741755Y10466347D01*
X19748558Y10468202D01*
X19748560Y10468202D01*
X19816154Y10486631D01*
X19867360Y10500591D01*
X19978306Y10568712D01*
X20065672Y10665233D01*
X20122437Y10782396D01*
X20144037Y10910781D01*
X20144174Y10922000D01*
X20125718Y11050875D01*
X20120373Y11062632D01*
X20074753Y11162966D01*
X20074752Y11162967D01*
X20071832Y11169390D01*
X19986850Y11268017D01*
X19980933Y11271852D01*
X19980931Y11271854D01*
X19883523Y11334990D01*
X19883521Y11334991D01*
X19877601Y11338828D01*
X19752870Y11376130D01*
X19679593Y11376578D01*
X19629734Y11376883D01*
X19629733Y11376883D01*
X19622683Y11376926D01*
X19615906Y11374989D01*
X19615905Y11374989D01*
X19504285Y11343088D01*
X19504283Y11343087D01*
X19497505Y11341150D01*
X19387400Y11271679D01*
X19382733Y11266395D01*
X19382731Y11266393D01*
X19379446Y11262673D01*
X19301219Y11174097D01*
X19245890Y11056249D01*
X19225860Y10927610D01*
X-13505909Y10927610D01*
X-12067015Y12374680D01*
X-11097023Y13350183D01*
X-11042585Y13378115D01*
X-10982126Y13368715D01*
X-10938739Y13325573D01*
X-10928996Y13265168D01*
X-10934400Y13247488D01*
X-10934050Y13247381D01*
X-10936113Y13240633D01*
X-10939110Y13234249D01*
X-10959140Y13105610D01*
X-10958225Y13098613D01*
X-10958225Y13098612D01*
X-10954274Y13068396D01*
X-10942259Y12976519D01*
X-10939421Y12970068D01*
X-10939420Y12970066D01*
X-10937347Y12965355D01*
X-10889826Y12857355D01*
X-10885289Y12851958D01*
X-10885288Y12851956D01*
X-10839482Y12797464D01*
X-10806054Y12757697D01*
X-10800183Y12753789D01*
X-10800182Y12753788D01*
X-10773570Y12736073D01*
X-10697680Y12685556D01*
X-10690953Y12683454D01*
X-10690950Y12683453D01*
X-10580145Y12648836D01*
X-10580144Y12648836D01*
X-10573413Y12646733D01*
X-10506506Y12645507D01*
X-10450298Y12644476D01*
X-10450296Y12644476D01*
X-10443245Y12644347D01*
X-10436442Y12646202D01*
X-10436440Y12646202D01*
X-10368846Y12664631D01*
X-10317640Y12678591D01*
X-10206694Y12746712D01*
X-10199550Y12754604D01*
X-10124060Y12838005D01*
X-10124060Y12838006D01*
X-10119328Y12843233D01*
X-10062563Y12960396D01*
X-10055262Y13003788D01*
X-10041597Y13085011D01*
X-10041597Y13085015D01*
X-10040963Y13088781D01*
X-10040908Y13093233D01*
X-10040873Y13096173D01*
X-10040826Y13100000D01*
X-10057096Y13213610D01*
X-8714140Y13213610D01*
X-8713225Y13206613D01*
X-8713225Y13206612D01*
X-8712439Y13200602D01*
X-8697259Y13084519D01*
X-8694421Y13078068D01*
X-8694420Y13078066D01*
X-8678161Y13041115D01*
X-8644826Y12965355D01*
X-8640289Y12959958D01*
X-8640288Y12959956D01*
X-8612364Y12926737D01*
X-8561054Y12865697D01*
X-8555183Y12861789D01*
X-8555182Y12861788D01*
X-8536839Y12849578D01*
X-8452680Y12793556D01*
X-8445953Y12791454D01*
X-8445950Y12791453D01*
X-8335145Y12756836D01*
X-8335144Y12756836D01*
X-8328413Y12754733D01*
X-8261506Y12753507D01*
X-8205298Y12752476D01*
X-8205296Y12752476D01*
X-8198245Y12752347D01*
X-8191442Y12754202D01*
X-8191440Y12754202D01*
X-8123846Y12772631D01*
X-8072640Y12786591D01*
X-7961694Y12854712D01*
X-7925701Y12894476D01*
X-7879060Y12946005D01*
X-7879060Y12946006D01*
X-7874328Y12951233D01*
X-7817563Y13068396D01*
X-7814767Y13085011D01*
X-7796597Y13193011D01*
X-7796597Y13193015D01*
X-7795963Y13196781D01*
X-7795826Y13208000D01*
X-7814282Y13336875D01*
X-7818509Y13346173D01*
X-7865247Y13448966D01*
X-7865248Y13448967D01*
X-7868168Y13455390D01*
X-7928882Y13525853D01*
X-7948545Y13548673D01*
X-7948546Y13548674D01*
X-7953150Y13554017D01*
X-7959067Y13557852D01*
X-7959069Y13557854D01*
X-8056477Y13620990D01*
X-8056479Y13620991D01*
X-8062399Y13624828D01*
X-8187130Y13662130D01*
X-8260407Y13662578D01*
X-8310266Y13662883D01*
X-8310267Y13662883D01*
X-8317317Y13662926D01*
X-8324094Y13660989D01*
X-8324095Y13660989D01*
X-8435715Y13629088D01*
X-8435717Y13629087D01*
X-8442495Y13627150D01*
X-8552600Y13557679D01*
X-8557267Y13552395D01*
X-8557269Y13552393D01*
X-8628364Y13471892D01*
X-8638781Y13460097D01*
X-8694110Y13342249D01*
X-8714140Y13213610D01*
X-10057096Y13213610D01*
X-10059282Y13228875D01*
X-10067744Y13247488D01*
X-10110247Y13340966D01*
X-10110248Y13340967D01*
X-10113168Y13347390D01*
X-10180282Y13425280D01*
X-10193545Y13440673D01*
X-10193546Y13440674D01*
X-10198150Y13446017D01*
X-10204067Y13449852D01*
X-10204069Y13449854D01*
X-10301477Y13512990D01*
X-10301479Y13512991D01*
X-10307399Y13516828D01*
X-10432130Y13554130D01*
X-10505407Y13554578D01*
X-10555266Y13554883D01*
X-10555267Y13554883D01*
X-10562317Y13554926D01*
X-10584196Y13548673D01*
X-10659622Y13527117D01*
X-10720768Y13529306D01*
X-10768949Y13567018D01*
X-10785763Y13625848D01*
X-10764785Y13683325D01*
X-10757035Y13692104D01*
X-10601413Y13848610D01*
X16177860Y13848610D01*
X16194741Y13719519D01*
X16197579Y13713068D01*
X16197580Y13713066D01*
X16204629Y13697047D01*
X16247174Y13600355D01*
X16251711Y13594958D01*
X16251712Y13594956D01*
X16285994Y13554173D01*
X16330946Y13500697D01*
X16336817Y13496789D01*
X16336818Y13496788D01*
X16354082Y13485296D01*
X16439320Y13428556D01*
X16446047Y13426454D01*
X16446050Y13426453D01*
X16556855Y13391836D01*
X16556856Y13391836D01*
X16563587Y13389733D01*
X16630494Y13388507D01*
X16686702Y13387476D01*
X16686704Y13387476D01*
X16693755Y13387347D01*
X16700558Y13389202D01*
X16700560Y13389202D01*
X16773129Y13408987D01*
X16819360Y13421591D01*
X16930306Y13489712D01*
X16989335Y13554926D01*
X17012940Y13581005D01*
X17012940Y13581006D01*
X17017672Y13586233D01*
X17068273Y13690673D01*
X17071361Y13697047D01*
X17074437Y13703396D01*
X17080930Y13741985D01*
X17095403Y13828011D01*
X17095403Y13828015D01*
X17096037Y13831781D01*
X17096174Y13843000D01*
X17077718Y13971875D01*
X17072373Y13983632D01*
X17026753Y14083966D01*
X17026752Y14083967D01*
X17023832Y14090390D01*
X16967394Y14155890D01*
X16943455Y14183673D01*
X16943454Y14183674D01*
X16938850Y14189017D01*
X16932933Y14192852D01*
X16932931Y14192854D01*
X16835523Y14255990D01*
X16835521Y14255991D01*
X16829601Y14259828D01*
X16704870Y14297130D01*
X16631593Y14297578D01*
X16581734Y14297883D01*
X16581733Y14297883D01*
X16574683Y14297926D01*
X16567906Y14295989D01*
X16567905Y14295989D01*
X16456285Y14264088D01*
X16456283Y14264087D01*
X16449505Y14262150D01*
X16339400Y14192679D01*
X16334733Y14187395D01*
X16334731Y14187393D01*
X16289123Y14135751D01*
X16253219Y14095097D01*
X16197890Y13977249D01*
X16177860Y13848610D01*
X-10601413Y13848610D01*
X-8655470Y15805610D01*
X-5859140Y15805610D01*
X-5842259Y15676519D01*
X-5839421Y15670068D01*
X-5839420Y15670066D01*
X-5831518Y15652108D01*
X-5789826Y15557355D01*
X-5785289Y15551958D01*
X-5785288Y15551956D01*
X-5778848Y15544295D01*
X-5706054Y15457697D01*
X-5700183Y15453789D01*
X-5700182Y15453788D01*
X-5694272Y15449854D01*
X-5597680Y15385556D01*
X-5590953Y15383454D01*
X-5590950Y15383453D01*
X-5480145Y15348836D01*
X-5480144Y15348836D01*
X-5473413Y15346733D01*
X-5351305Y15344495D01*
X-5293471Y15324525D01*
X-5258421Y15274374D01*
X-5255298Y15230284D01*
X-5259140Y15205610D01*
X-5242259Y15076519D01*
X-5239421Y15070068D01*
X-5239420Y15070066D01*
X-5235165Y15060396D01*
X-5189826Y14957355D01*
X-5185289Y14951958D01*
X-5185288Y14951956D01*
X-5137740Y14895391D01*
X-5106054Y14857697D01*
X-5100183Y14853789D01*
X-5100182Y14853788D01*
X-5076472Y14838005D01*
X-4997680Y14785556D01*
X-4990953Y14783454D01*
X-4990950Y14783453D01*
X-4880145Y14748836D01*
X-4880144Y14748836D01*
X-4873413Y14746733D01*
X-4806506Y14745507D01*
X-4750298Y14744476D01*
X-4750296Y14744476D01*
X-4743245Y14744347D01*
X-4736442Y14746202D01*
X-4736440Y14746202D01*
X-4668846Y14764631D01*
X-4617640Y14778591D01*
X-4506694Y14846712D01*
X-4467189Y14890356D01*
X-4424060Y14938005D01*
X-4424060Y14938006D01*
X-4419328Y14943233D01*
X-4362563Y15060396D01*
X-4358421Y15085011D01*
X-4354955Y15105610D01*
X27940860Y15105610D01*
X27957741Y14976519D01*
X27960579Y14970068D01*
X27960580Y14970066D01*
X27964835Y14960396D01*
X28010174Y14857355D01*
X28014711Y14851958D01*
X28014712Y14851956D01*
X28062260Y14795391D01*
X28093946Y14757697D01*
X28202320Y14685556D01*
X28209050Y14683453D01*
X28209051Y14683453D01*
X28226352Y14678048D01*
X28276257Y14642649D01*
X28295825Y14584677D01*
X28277580Y14526275D01*
X28271035Y14518018D01*
X28191768Y14428264D01*
X28187098Y14422976D01*
X28131769Y14305128D01*
X28111739Y14176489D01*
X28128620Y14047398D01*
X28131458Y14040947D01*
X28131459Y14040945D01*
X28135714Y14031275D01*
X28181053Y13928234D01*
X28185590Y13922837D01*
X28185591Y13922835D01*
X28233139Y13866270D01*
X28264825Y13828576D01*
X28270696Y13824668D01*
X28270697Y13824667D01*
X28297199Y13807026D01*
X28335162Y13759043D01*
X28337671Y13697909D01*
X28316545Y13659081D01*
X28270889Y13607385D01*
X28266219Y13602097D01*
X28210890Y13484249D01*
X28190860Y13355610D01*
X28207741Y13226519D01*
X28210579Y13220068D01*
X28210580Y13220066D01*
X28220826Y13196781D01*
X28260174Y13107355D01*
X28264711Y13101958D01*
X28264712Y13101956D01*
X28278956Y13085011D01*
X28343946Y13007697D01*
X28349817Y13003789D01*
X28349818Y13003788D01*
X28376430Y12986073D01*
X28452320Y12935556D01*
X28459047Y12933454D01*
X28459050Y12933453D01*
X28569855Y12898836D01*
X28569856Y12898836D01*
X28576587Y12896733D01*
X28643494Y12895507D01*
X28699702Y12894476D01*
X28699704Y12894476D01*
X28706755Y12894347D01*
X28713558Y12896202D01*
X28713560Y12896202D01*
X28781154Y12914631D01*
X28832360Y12928591D01*
X28943306Y12996712D01*
X29030672Y13093233D01*
X29087437Y13210396D01*
X29090278Y13227279D01*
X29108403Y13335011D01*
X29108403Y13335015D01*
X29109037Y13338781D01*
X29109174Y13350000D01*
X29090718Y13478875D01*
X29087470Y13486020D01*
X29039753Y13590966D01*
X29039752Y13590967D01*
X29036832Y13597390D01*
X28951850Y13696017D01*
X28945929Y13699855D01*
X28924859Y13713512D01*
X28886313Y13761028D01*
X28883057Y13822127D01*
X28905308Y13863023D01*
X28946819Y13908884D01*
X28946819Y13908885D01*
X28951551Y13914112D01*
X29008316Y14031275D01*
X29019944Y14100385D01*
X29029282Y14155890D01*
X29029282Y14155894D01*
X29029916Y14159660D01*
X29030053Y14170879D01*
X29027456Y14189017D01*
X29012597Y14292771D01*
X29011597Y14299754D01*
X29006252Y14311511D01*
X28960632Y14411845D01*
X28960631Y14411846D01*
X28957711Y14418269D01*
X28872729Y14516896D01*
X28866812Y14520731D01*
X28866810Y14520733D01*
X28769402Y14583869D01*
X28769400Y14583870D01*
X28763480Y14587707D01*
X28745316Y14593139D01*
X28694983Y14627928D01*
X28674711Y14685658D01*
X28692244Y14744277D01*
X28700282Y14754419D01*
X28780672Y14843233D01*
X28837437Y14960396D01*
X28851801Y15045769D01*
X28858403Y15085011D01*
X28858403Y15085015D01*
X28859037Y15088781D01*
X28859174Y15100000D01*
X28840718Y15228875D01*
X28835373Y15240632D01*
X28789753Y15340966D01*
X28789752Y15340967D01*
X28786832Y15347390D01*
X28701850Y15446017D01*
X28695933Y15449852D01*
X28695931Y15449854D01*
X28598523Y15512990D01*
X28598521Y15512991D01*
X28592601Y15516828D01*
X28467870Y15554130D01*
X28394593Y15554578D01*
X28344734Y15554883D01*
X28344733Y15554883D01*
X28337683Y15554926D01*
X28330906Y15552989D01*
X28330905Y15552989D01*
X28219285Y15521088D01*
X28219283Y15521087D01*
X28212505Y15519150D01*
X28102400Y15449679D01*
X28097733Y15444395D01*
X28097731Y15444393D01*
X28039437Y15378387D01*
X28016219Y15352097D01*
X27960890Y15234249D01*
X27940860Y15105610D01*
X-4354955Y15105610D01*
X-4341597Y15185011D01*
X-4341597Y15185015D01*
X-4340963Y15188781D01*
X-4340826Y15200000D01*
X-4359282Y15328875D01*
X-4366316Y15344347D01*
X-4410247Y15440966D01*
X-4410248Y15440967D01*
X-4413168Y15447390D01*
X-4472999Y15516828D01*
X-4493545Y15540673D01*
X-4493546Y15540674D01*
X-4498150Y15546017D01*
X-4504067Y15549852D01*
X-4504069Y15549854D01*
X-4601477Y15612990D01*
X-4601479Y15612991D01*
X-4607399Y15616828D01*
X-4732130Y15654130D01*
X-4775075Y15654393D01*
X-4847058Y15654833D01*
X-4905132Y15674096D01*
X-4940792Y15723815D01*
X-4944080Y15770255D01*
X-4940963Y15788781D01*
X-4940826Y15800000D01*
X-4959282Y15928875D01*
X-4964627Y15940632D01*
X-5010247Y16040966D01*
X-5010248Y16040967D01*
X-5013168Y16047390D01*
X-5089733Y16136249D01*
X-5093545Y16140673D01*
X-5093546Y16140674D01*
X-5098150Y16146017D01*
X-5104067Y16149852D01*
X-5104069Y16149854D01*
X-5201477Y16212990D01*
X-5201479Y16212991D01*
X-5207399Y16216828D01*
X-5332130Y16254130D01*
X-5405407Y16254578D01*
X-5455266Y16254883D01*
X-5455267Y16254883D01*
X-5462317Y16254926D01*
X-5469094Y16252989D01*
X-5469095Y16252989D01*
X-5580715Y16221088D01*
X-5580717Y16221087D01*
X-5587495Y16219150D01*
X-5697600Y16149679D01*
X-5702267Y16144395D01*
X-5702269Y16144393D01*
X-5779111Y16057385D01*
X-5783781Y16052097D01*
X-5839110Y15934249D01*
X-5859140Y15805610D01*
X-8655470Y15805610D01*
X-7163944Y17305610D01*
X24240860Y17305610D01*
X24257741Y17176519D01*
X24260579Y17170068D01*
X24260580Y17170066D01*
X24272147Y17143778D01*
X24310174Y17057355D01*
X24314711Y17051958D01*
X24314712Y17051956D01*
X24344422Y17016612D01*
X24393946Y16957697D01*
X24399817Y16953789D01*
X24399818Y16953788D01*
X24426430Y16936073D01*
X24502320Y16885556D01*
X24509047Y16883454D01*
X24509050Y16883453D01*
X24619855Y16848836D01*
X24619856Y16848836D01*
X24626587Y16846733D01*
X24693494Y16845507D01*
X24749702Y16844476D01*
X24749704Y16844476D01*
X24756755Y16844347D01*
X24763558Y16846202D01*
X24763560Y16846202D01*
X24831154Y16864631D01*
X24882360Y16878591D01*
X24993306Y16946712D01*
X25007436Y16962322D01*
X25075940Y17038005D01*
X25075940Y17038006D01*
X25080672Y17043233D01*
X25137437Y17160396D01*
X25139745Y17174111D01*
X25158403Y17285011D01*
X25158403Y17285015D01*
X25159037Y17288781D01*
X25159174Y17300000D01*
X25140718Y17428875D01*
X25136075Y17439088D01*
X25089753Y17540966D01*
X25089752Y17540967D01*
X25086832Y17547390D01*
X25012164Y17634047D01*
X25006455Y17640673D01*
X25006454Y17640674D01*
X25001850Y17646017D01*
X24995933Y17649852D01*
X24995931Y17649854D01*
X24898523Y17712990D01*
X24898521Y17712991D01*
X24892601Y17716828D01*
X24767870Y17754130D01*
X24694593Y17754578D01*
X24644734Y17754883D01*
X24644733Y17754883D01*
X24637683Y17754926D01*
X24630906Y17752989D01*
X24630905Y17752989D01*
X24519285Y17721088D01*
X24519283Y17721087D01*
X24512505Y17719150D01*
X24402400Y17649679D01*
X24397733Y17644395D01*
X24397731Y17644393D01*
X24356160Y17597322D01*
X24316219Y17552097D01*
X24260890Y17434249D01*
X24240860Y17305610D01*
X-7163944Y17305610D01*
X-3836969Y20651488D01*
X21686738Y20651488D01*
X21703619Y20522397D01*
X21706457Y20515946D01*
X21706458Y20515944D01*
X21707894Y20512681D01*
X21756052Y20403233D01*
X21760589Y20397836D01*
X21760590Y20397834D01*
X21779461Y20375385D01*
X21839824Y20303575D01*
X21845695Y20299667D01*
X21845696Y20299666D01*
X21872308Y20281951D01*
X21948198Y20231434D01*
X21954925Y20229332D01*
X21954928Y20229331D01*
X22065733Y20194714D01*
X22065734Y20194714D01*
X22072465Y20192611D01*
X22139372Y20191385D01*
X22195580Y20190354D01*
X22195582Y20190354D01*
X22202633Y20190225D01*
X22209436Y20192080D01*
X22209438Y20192080D01*
X22295025Y20215414D01*
X22328238Y20224469D01*
X22439184Y20292590D01*
X22526550Y20389111D01*
X22583315Y20506274D01*
X22604915Y20634659D01*
X22605052Y20645878D01*
X22586596Y20774753D01*
X22583486Y20781595D01*
X22535631Y20886844D01*
X22535630Y20886845D01*
X22532710Y20893268D01*
X22447728Y20991895D01*
X22441811Y20995730D01*
X22441809Y20995732D01*
X22344401Y21058868D01*
X22344399Y21058869D01*
X22338479Y21062706D01*
X22213748Y21100008D01*
X22140471Y21100456D01*
X22090612Y21100761D01*
X22090611Y21100761D01*
X22083561Y21100804D01*
X22076784Y21098867D01*
X22076783Y21098867D01*
X21965163Y21066966D01*
X21965161Y21066965D01*
X21958383Y21065028D01*
X21848278Y20995557D01*
X21843611Y20990273D01*
X21843609Y20990271D01*
X21840324Y20986551D01*
X21762097Y20897975D01*
X21706768Y20780127D01*
X21686738Y20651488D01*
X-3836969Y20651488D01*
X-9419Y24500785D01*
X1016576Y25532610D01*
X5509860Y25532610D01*
X5526741Y25403519D01*
X5529579Y25397068D01*
X5529580Y25397066D01*
X5533835Y25387396D01*
X5579174Y25284355D01*
X5583711Y25278958D01*
X5583712Y25278956D01*
X5631260Y25222391D01*
X5662946Y25184697D01*
X5668817Y25180789D01*
X5668818Y25180788D01*
X5695430Y25163073D01*
X5771320Y25112556D01*
X5778047Y25110454D01*
X5778050Y25110453D01*
X5888855Y25075836D01*
X5888856Y25075836D01*
X5895587Y25073733D01*
X5962494Y25072507D01*
X6018702Y25071476D01*
X6018704Y25071476D01*
X6025755Y25071347D01*
X6032558Y25073202D01*
X6032560Y25073202D01*
X6100154Y25091631D01*
X6151360Y25105591D01*
X6262306Y25173712D01*
X6349672Y25270233D01*
X6406437Y25387396D01*
X6418174Y25457153D01*
X6427403Y25512011D01*
X6427403Y25512015D01*
X6428037Y25515781D01*
X6428174Y25527000D01*
X6409718Y25655875D01*
X6404373Y25667632D01*
X6358753Y25767966D01*
X6358752Y25767967D01*
X6355832Y25774390D01*
X6270850Y25873017D01*
X6264933Y25876852D01*
X6264931Y25876854D01*
X6167523Y25939990D01*
X6167521Y25939991D01*
X6161601Y25943828D01*
X6036870Y25981130D01*
X5963593Y25981578D01*
X5913734Y25981883D01*
X5913733Y25981883D01*
X5906683Y25981926D01*
X5899906Y25979989D01*
X5899905Y25979989D01*
X5788285Y25948088D01*
X5788283Y25948087D01*
X5781505Y25946150D01*
X5671400Y25876679D01*
X5666733Y25871395D01*
X5666731Y25871393D01*
X5663446Y25867673D01*
X5585219Y25779097D01*
X5529890Y25661249D01*
X5509860Y25532610D01*
X1016576Y25532610D01*
X2279401Y26802610D01*
X5509860Y26802610D01*
X5526741Y26673519D01*
X5529579Y26667068D01*
X5529580Y26667066D01*
X5533835Y26657396D01*
X5579174Y26554355D01*
X5583711Y26548958D01*
X5583712Y26548956D01*
X5631260Y26492391D01*
X5662946Y26454697D01*
X5668817Y26450789D01*
X5668818Y26450788D01*
X5695430Y26433073D01*
X5771320Y26382556D01*
X5778047Y26380454D01*
X5778050Y26380453D01*
X5888855Y26345836D01*
X5888856Y26345836D01*
X5895587Y26343733D01*
X5962494Y26342507D01*
X6018702Y26341476D01*
X6018704Y26341476D01*
X6025755Y26341347D01*
X6032558Y26343202D01*
X6032560Y26343202D01*
X6100154Y26361631D01*
X6151360Y26375591D01*
X6262306Y26443712D01*
X6349672Y26540233D01*
X6406437Y26657396D01*
X6409684Y26676692D01*
X6427403Y26782011D01*
X6427403Y26782015D01*
X6428037Y26785781D01*
X6428174Y26797000D01*
X6409718Y26925875D01*
X6404373Y26937632D01*
X6358753Y27037966D01*
X6358752Y27037967D01*
X6355832Y27044390D01*
X6270850Y27143017D01*
X6264933Y27146852D01*
X6264931Y27146854D01*
X6167523Y27209990D01*
X6167521Y27209991D01*
X6161601Y27213828D01*
X6036870Y27251130D01*
X5963593Y27251578D01*
X5913734Y27251883D01*
X5913733Y27251883D01*
X5906683Y27251926D01*
X5899906Y27249989D01*
X5899905Y27249989D01*
X5788285Y27218088D01*
X5788283Y27218087D01*
X5781505Y27216150D01*
X5671400Y27146679D01*
X5666733Y27141395D01*
X5666731Y27141393D01*
X5593025Y27057936D01*
X5585219Y27049097D01*
X5529890Y26931249D01*
X5509860Y26802610D01*
X2279401Y26802610D01*
X2567564Y27092410D01*
X2567571Y27092418D01*
X2568217Y27093067D01*
X2569680Y27094656D01*
X2581131Y27107096D01*
X2581142Y27107109D01*
X2581762Y27107782D01*
X2591651Y27119393D01*
X2640893Y27207464D01*
X2643716Y27216150D01*
X2658597Y27261952D01*
X2658597Y27261954D01*
X2659800Y27265655D01*
X2660410Y27269504D01*
X2671891Y27341995D01*
X2671891Y27342000D01*
X2672500Y27345843D01*
X2672500Y27349735D01*
X2672805Y27353612D01*
X2674467Y27353481D01*
X2691407Y27405617D01*
X2740907Y27441581D01*
X2753593Y27444405D01*
X2756755Y27444347D01*
X2882360Y27478591D01*
X2993306Y27546712D01*
X3025501Y27582280D01*
X3075940Y27638005D01*
X3075940Y27638006D01*
X3080672Y27643233D01*
X3110782Y27705380D01*
X3153170Y27749504D01*
X3213397Y27760286D01*
X3268461Y27733608D01*
X3290492Y27702086D01*
X3306836Y27664942D01*
X3310174Y27657355D01*
X3314711Y27651958D01*
X3314712Y27651956D01*
X3362260Y27595391D01*
X3393946Y27557697D01*
X3399817Y27553789D01*
X3399818Y27553788D01*
X3425824Y27536477D01*
X3502320Y27485556D01*
X3509047Y27483454D01*
X3509050Y27483453D01*
X3619855Y27448836D01*
X3619856Y27448836D01*
X3626587Y27446733D01*
X3693494Y27445507D01*
X3749702Y27444476D01*
X3749704Y27444476D01*
X3756755Y27444347D01*
X3763558Y27446202D01*
X3763560Y27446202D01*
X3831154Y27464631D01*
X3882360Y27478591D01*
X3993306Y27546712D01*
X4025501Y27582280D01*
X4075940Y27638005D01*
X4075940Y27638006D01*
X4080672Y27643233D01*
X4137437Y27760396D01*
X4138816Y27768588D01*
X4158403Y27885011D01*
X4158403Y27885015D01*
X4159037Y27888781D01*
X4159174Y27900000D01*
X4153319Y27940888D01*
X4141718Y28021892D01*
X4140718Y28028875D01*
X4135951Y28039361D01*
X4089753Y28140966D01*
X4089752Y28140967D01*
X4086832Y28147390D01*
X4054448Y28184974D01*
X4030788Y28241397D01*
X4044812Y28300953D01*
X4056050Y28316031D01*
X4075940Y28338005D01*
X4080672Y28343233D01*
X4132160Y28449504D01*
X4134361Y28454047D01*
X4137437Y28460396D01*
X4159037Y28588781D01*
X4159174Y28600000D01*
X4140718Y28728875D01*
X4135951Y28739361D01*
X4089753Y28840966D01*
X4089752Y28840967D01*
X4086832Y28847390D01*
X4001850Y28946017D01*
X3995933Y28949852D01*
X3995931Y28949854D01*
X3898523Y29012990D01*
X3898521Y29012991D01*
X3892601Y29016828D01*
X3767870Y29054130D01*
X3694593Y29054578D01*
X3644734Y29054883D01*
X3644733Y29054883D01*
X3637683Y29054926D01*
X3630906Y29052989D01*
X3630905Y29052989D01*
X3519285Y29021088D01*
X3519283Y29021087D01*
X3512505Y29019150D01*
X3402400Y28949679D01*
X3397733Y28944395D01*
X3397731Y28944393D01*
X3394446Y28940673D01*
X3316219Y28852097D01*
X3313222Y28845713D01*
X3289655Y28795517D01*
X3247810Y28750878D01*
X3187718Y28739361D01*
X3132333Y28765364D01*
X3109918Y28796615D01*
X3108906Y28798842D01*
X3086832Y28847390D01*
X3001850Y28946017D01*
X2995933Y28949852D01*
X2995931Y28949854D01*
X2898523Y29012990D01*
X2898521Y29012991D01*
X2892601Y29016828D01*
X2846869Y29030505D01*
X2774626Y29052110D01*
X2774623Y29052110D01*
X2767870Y29054130D01*
X2760820Y29054173D01*
X2756866Y29054764D01*
X2702109Y29082065D01*
X2673858Y29136337D01*
X2672500Y29152676D01*
X2672500Y30635000D01*
X2669306Y30675591D01*
X2664461Y30706184D01*
X2660485Y30726173D01*
X2636320Y30778591D01*
X2620134Y30813702D01*
X2620132Y30813705D01*
X2618095Y30818124D01*
X2593524Y30851943D01*
X2583838Y30865275D01*
X2583835Y30865279D01*
X2582131Y30867624D01*
X2580161Y30869755D01*
X2580157Y30869760D01*
X2563304Y30887991D01*
X2540722Y30912419D01*
X2498195Y30936235D01*
X2456626Y30959515D01*
X2456623Y30959516D01*
X2452379Y30961893D01*
X2394188Y30980800D01*
X2390344Y30981409D01*
X2390339Y30981410D01*
X2317848Y30992891D01*
X2317843Y30992891D01*
X2314000Y30993500D01*
X1496000Y30993500D01*
X1469497Y30991415D01*
X1457340Y30990458D01*
X1457339Y30990458D01*
X1455409Y30990306D01*
X1424816Y30985461D01*
X1404827Y30981485D01*
X1399524Y30979040D01*
X1399523Y30979040D01*
X1317298Y30941134D01*
X1317295Y30941132D01*
X1312876Y30939095D01*
X1308940Y30936235D01*
X1268286Y30906698D01*
X1263376Y30903131D01*
X1261245Y30901161D01*
X1261240Y30901157D01*
X1243009Y30884304D01*
X1218581Y30861722D01*
X1214774Y30854924D01*
X1172026Y30778591D01*
X1169107Y30773379D01*
X1160277Y30746202D01*
X1155493Y30731477D01*
X1150200Y30715188D01*
X1149591Y30711344D01*
X1149590Y30711339D01*
X1143623Y30673660D01*
X1137500Y30635000D01*
X1137500Y28343691D01*
X1118593Y28285500D01*
X1108106Y28273292D01*
X-21193647Y6223535D01*
X-21220703Y6192128D01*
X-21239308Y6166673D01*
X-21251064Y6149133D01*
X-21286108Y6054139D01*
X-21286869Y6049334D01*
X-21286870Y6049330D01*
X-21292537Y6013547D01*
X-21295679Y5993707D01*
X-21298074Y5932757D01*
X-33401000Y5932757D01*
X-33401000Y8054612D01*
X-31608142Y8054612D01*
X-31591261Y7925521D01*
X-31588423Y7919070D01*
X-31588422Y7919068D01*
X-31584167Y7909398D01*
X-31538828Y7806357D01*
X-31534291Y7800960D01*
X-31534290Y7800958D01*
X-31491891Y7750519D01*
X-31455056Y7706699D01*
X-31449185Y7702791D01*
X-31449184Y7702790D01*
X-31422572Y7685075D01*
X-31346682Y7634558D01*
X-31339955Y7632456D01*
X-31339952Y7632455D01*
X-31229147Y7597838D01*
X-31229146Y7597838D01*
X-31222415Y7595735D01*
X-31155508Y7594509D01*
X-31099300Y7593478D01*
X-31099298Y7593478D01*
X-31092247Y7593349D01*
X-31085444Y7595204D01*
X-31085442Y7595204D01*
X-30981369Y7623578D01*
X-30966642Y7627593D01*
X-30855696Y7695714D01*
X-30768330Y7792235D01*
X-30711565Y7909398D01*
X-30696106Y8001279D01*
X-30690599Y8034013D01*
X-30690599Y8034017D01*
X-30689965Y8037783D01*
X-30689828Y8049002D01*
X-30690867Y8056257D01*
X-30680400Y8116541D01*
X-30636499Y8159159D01*
X-30591054Y8169275D01*
X-30574800Y8168977D01*
X-30574798Y8168977D01*
X-30567746Y8168848D01*
X-30560943Y8170703D01*
X-30560941Y8170703D01*
X-30491504Y8189634D01*
X-30442141Y8203092D01*
X-30331195Y8271213D01*
X-30309584Y8295088D01*
X-30248561Y8362506D01*
X-30248561Y8362507D01*
X-30243829Y8367734D01*
X-30187064Y8484897D01*
X-30183893Y8503740D01*
X-30166098Y8609512D01*
X-30166098Y8609516D01*
X-30165464Y8613282D01*
X-30165327Y8624501D01*
X-30166366Y8631756D01*
X-30155899Y8692040D01*
X-30111998Y8734658D01*
X-30066553Y8744774D01*
X-30050299Y8744476D01*
X-30050297Y8744476D01*
X-30043245Y8744347D01*
X-30036442Y8746202D01*
X-30036440Y8746202D01*
X-29967003Y8765133D01*
X-29917640Y8778591D01*
X-29806694Y8846712D01*
X-29719328Y8943233D01*
X-29662563Y9060396D01*
X-29659392Y9079239D01*
X-29641597Y9185011D01*
X-29641597Y9185015D01*
X-29640963Y9188781D01*
X-29640826Y9200000D01*
X-29659282Y9328875D01*
X-29663378Y9337885D01*
X-29710247Y9440966D01*
X-29710248Y9440967D01*
X-29713168Y9447390D01*
X-29798150Y9546017D01*
X-29804067Y9549852D01*
X-29804069Y9549854D01*
X-29901477Y9612990D01*
X-29901479Y9612991D01*
X-29907399Y9616828D01*
X-30032130Y9654130D01*
X-30105407Y9654578D01*
X-30155266Y9654883D01*
X-30155267Y9654883D01*
X-30162317Y9654926D01*
X-30169094Y9652989D01*
X-30169095Y9652989D01*
X-30280715Y9621088D01*
X-30280717Y9621087D01*
X-30287495Y9619150D01*
X-30397600Y9549679D01*
X-30402267Y9544395D01*
X-30402269Y9544393D01*
X-30479111Y9457385D01*
X-30483781Y9452097D01*
X-30539110Y9334249D01*
X-30559140Y9205610D01*
X-30558225Y9198613D01*
X-30557239Y9191075D01*
X-30568441Y9130924D01*
X-30612859Y9088844D01*
X-30656007Y9079239D01*
X-30679766Y9079384D01*
X-30679767Y9079384D01*
X-30686818Y9079427D01*
X-30693595Y9077490D01*
X-30693596Y9077490D01*
X-30805216Y9045589D01*
X-30805218Y9045588D01*
X-30811996Y9043651D01*
X-30922101Y8974180D01*
X-30926768Y8968896D01*
X-30926770Y8968894D01*
X-31003612Y8881886D01*
X-31008282Y8876598D01*
X-31063611Y8758750D01*
X-31083641Y8630111D01*
X-31082726Y8623114D01*
X-31081740Y8615576D01*
X-31092942Y8555425D01*
X-31137360Y8513345D01*
X-31180508Y8503740D01*
X-31204267Y8503885D01*
X-31204268Y8503885D01*
X-31211319Y8503928D01*
X-31218096Y8501991D01*
X-31218097Y8501991D01*
X-31329717Y8470090D01*
X-31329719Y8470089D01*
X-31336497Y8468152D01*
X-31446602Y8398681D01*
X-31451269Y8393397D01*
X-31451271Y8393395D01*
X-31508207Y8328926D01*
X-31532783Y8301099D01*
X-31588112Y8183251D01*
X-31608142Y8054612D01*
X-33401000Y8054612D01*
X-33401000Y13138333D01*
X-33400788Y13144808D01*
X-33396033Y13217354D01*
X-33384314Y13396155D01*
X-33382625Y13408987D01*
X-33380486Y13419737D01*
X-33334117Y13652853D01*
X-33330766Y13665357D01*
X-33324666Y13683325D01*
X-33250844Y13900799D01*
X-33245888Y13912761D01*
X-33135922Y14135751D01*
X-33129448Y14146966D01*
X-33110936Y14174671D01*
X-32991307Y14353708D01*
X-32983431Y14363972D01*
X-32817359Y14553340D01*
X-32812932Y14558068D01*
X-30347390Y17023610D01*
X-19255140Y17023610D01*
X-19254225Y17016613D01*
X-19254225Y17016612D01*
X-19249832Y16983017D01*
X-19238259Y16894519D01*
X-19235421Y16888068D01*
X-19235420Y16888066D01*
X-19233802Y16884390D01*
X-19185826Y16775355D01*
X-19181289Y16769958D01*
X-19181288Y16769956D01*
X-19133740Y16713391D01*
X-19102054Y16675697D01*
X-18993680Y16603556D01*
X-18986953Y16601454D01*
X-18986950Y16601453D01*
X-18876145Y16566836D01*
X-18876144Y16566836D01*
X-18869413Y16564733D01*
X-18802506Y16563507D01*
X-18746298Y16562476D01*
X-18746296Y16562476D01*
X-18739245Y16562347D01*
X-18732441Y16564202D01*
X-18725833Y16565025D01*
X-18665752Y16553454D01*
X-18623946Y16508778D01*
X-18615434Y16479621D01*
X-18609577Y16434837D01*
X-18603259Y16386519D01*
X-18600421Y16380068D01*
X-18600420Y16380066D01*
X-18593371Y16364047D01*
X-18550826Y16267355D01*
X-18546289Y16261958D01*
X-18546288Y16261956D01*
X-18507142Y16215387D01*
X-18467054Y16167697D01*
X-18461183Y16163789D01*
X-18461182Y16163788D01*
X-18440249Y16149854D01*
X-18358680Y16095556D01*
X-18351953Y16093454D01*
X-18351950Y16093453D01*
X-18241145Y16058836D01*
X-18241144Y16058836D01*
X-18234413Y16056733D01*
X-18167506Y16055507D01*
X-18111298Y16054476D01*
X-18111296Y16054476D01*
X-18104245Y16054347D01*
X-18097442Y16056202D01*
X-18097440Y16056202D01*
X-18000930Y16082514D01*
X-17978640Y16088591D01*
X-17867694Y16156712D01*
X-17845395Y16181347D01*
X-17785060Y16248005D01*
X-17785060Y16248006D01*
X-17780328Y16253233D01*
X-17736995Y16342673D01*
X-17726639Y16364047D01*
X-17723563Y16370396D01*
X-17715414Y16418828D01*
X-17702597Y16495011D01*
X-17702597Y16495015D01*
X-17701963Y16498781D01*
X-17701826Y16510000D01*
X-17711962Y16580778D01*
X-17701495Y16641061D01*
X-17657593Y16683679D01*
X-17600748Y16692150D01*
X-17599413Y16691733D01*
X-17538355Y16690614D01*
X-17476298Y16689476D01*
X-17476296Y16689476D01*
X-17469245Y16689347D01*
X-17462441Y16691202D01*
X-17455833Y16692025D01*
X-17395752Y16680454D01*
X-17353946Y16635778D01*
X-17345434Y16606621D01*
X-17333259Y16513519D01*
X-17330421Y16507068D01*
X-17330420Y16507066D01*
X-17318344Y16479621D01*
X-17280826Y16394355D01*
X-17276289Y16388958D01*
X-17276288Y16388956D01*
X-17255349Y16364047D01*
X-17197054Y16294697D01*
X-17088680Y16222556D01*
X-17081953Y16220454D01*
X-17081950Y16220453D01*
X-16971145Y16185836D01*
X-16971144Y16185836D01*
X-16964413Y16183733D01*
X-16897506Y16182507D01*
X-16841298Y16181476D01*
X-16841296Y16181476D01*
X-16834245Y16181347D01*
X-16827441Y16183202D01*
X-16820440Y16184074D01*
X-16820227Y16182367D01*
X-16767848Y16179847D01*
X-16720133Y16141546D01*
X-16704043Y16082514D01*
X-16705108Y16072040D01*
X-16715140Y16007610D01*
X-16698259Y15878519D01*
X-16695421Y15872068D01*
X-16695420Y15872066D01*
X-16691165Y15862396D01*
X-16645826Y15759355D01*
X-16641289Y15753958D01*
X-16641288Y15753956D01*
X-16615951Y15723815D01*
X-16562054Y15659697D01*
X-16556183Y15655789D01*
X-16556182Y15655788D01*
X-16529570Y15638073D01*
X-16453680Y15587556D01*
X-16446953Y15585454D01*
X-16446950Y15585453D01*
X-16336145Y15550836D01*
X-16336144Y15550836D01*
X-16329413Y15548733D01*
X-16262506Y15547507D01*
X-16206298Y15546476D01*
X-16206296Y15546476D01*
X-16199245Y15546347D01*
X-16192442Y15548202D01*
X-16192440Y15548202D01*
X-16124846Y15566631D01*
X-16073640Y15580591D01*
X-15962694Y15648712D01*
X-15957153Y15654833D01*
X-15880060Y15740005D01*
X-15880060Y15740006D01*
X-15875328Y15745233D01*
X-15818563Y15862396D01*
X-15796963Y15990781D01*
X-15796826Y16002000D01*
X-15815282Y16130875D01*
X-15819736Y16140673D01*
X-15866247Y16242966D01*
X-15866248Y16242967D01*
X-15869168Y16249390D01*
X-15954150Y16348017D01*
X-15960067Y16351852D01*
X-15960069Y16351854D01*
X-16057477Y16414990D01*
X-16057479Y16414991D01*
X-16063399Y16418828D01*
X-16188130Y16456130D01*
X-16259886Y16456569D01*
X-16311265Y16456883D01*
X-16311266Y16456883D01*
X-16318317Y16456926D01*
X-16325097Y16454988D01*
X-16330494Y16454249D01*
X-16390712Y16465084D01*
X-16433061Y16509246D01*
X-16441557Y16568759D01*
X-16439534Y16580778D01*
X-16431963Y16625781D01*
X-16431826Y16637000D01*
X-16450282Y16765875D01*
X-16457527Y16781811D01*
X-16501247Y16877966D01*
X-16501248Y16877967D01*
X-16504168Y16884390D01*
X-16578659Y16970842D01*
X-16584545Y16977673D01*
X-16584546Y16977674D01*
X-16589150Y16983017D01*
X-16595067Y16986852D01*
X-16595069Y16986854D01*
X-16692477Y17049990D01*
X-16692479Y17049991D01*
X-16698399Y17053828D01*
X-16823130Y17091130D01*
X-16896407Y17091578D01*
X-16946266Y17091883D01*
X-16946267Y17091883D01*
X-16953317Y17091926D01*
X-16959732Y17090093D01*
X-17019779Y17100898D01*
X-17062127Y17145060D01*
X-17070995Y17174111D01*
X-17076962Y17215777D01*
X-17066495Y17276061D01*
X-17022593Y17318679D01*
X-16965748Y17327150D01*
X-16964413Y17326733D01*
X-16903355Y17325614D01*
X-16841298Y17324476D01*
X-16841296Y17324476D01*
X-16834245Y17324347D01*
X-16827442Y17326202D01*
X-16827440Y17326202D01*
X-16759846Y17344631D01*
X-16708640Y17358591D01*
X-16597694Y17426712D01*
X-16510328Y17523233D01*
X-16453563Y17640396D01*
X-16451971Y17649854D01*
X-16432597Y17765011D01*
X-16432597Y17765015D01*
X-16431963Y17768781D01*
X-16431826Y17780000D01*
X-16450282Y17908875D01*
X-16504168Y18027390D01*
X-16573562Y18107926D01*
X-16584545Y18120673D01*
X-16584546Y18120674D01*
X-16589150Y18126017D01*
X-16595067Y18129852D01*
X-16595069Y18129854D01*
X-16692477Y18192990D01*
X-16692479Y18192991D01*
X-16698399Y18196828D01*
X-16823130Y18234130D01*
X-16896407Y18234578D01*
X-16946266Y18234883D01*
X-16946267Y18234883D01*
X-16953317Y18234926D01*
X-16959732Y18233093D01*
X-17019779Y18243898D01*
X-17062127Y18288060D01*
X-17070995Y18317111D01*
X-17084282Y18409893D01*
X-17084282Y18409894D01*
X-17085282Y18416875D01*
X-17090627Y18428632D01*
X-17136247Y18528966D01*
X-17136248Y18528967D01*
X-17139168Y18535390D01*
X-17224150Y18634017D01*
X-17230067Y18637852D01*
X-17230069Y18637854D01*
X-17327477Y18700990D01*
X-17327479Y18700991D01*
X-17333399Y18704828D01*
X-17458130Y18742130D01*
X-17531407Y18742578D01*
X-17581266Y18742883D01*
X-17581267Y18742883D01*
X-17588317Y18742926D01*
X-17595094Y18740989D01*
X-17595095Y18740989D01*
X-17706715Y18709088D01*
X-17706717Y18709087D01*
X-17713495Y18707150D01*
X-17823600Y18637679D01*
X-17828267Y18632395D01*
X-17828269Y18632393D01*
X-17831554Y18628673D01*
X-17909781Y18540097D01*
X-17965110Y18422249D01*
X-17985140Y18293610D01*
X-17977367Y18234173D01*
X-17975000Y18216071D01*
X-17986202Y18155920D01*
X-18030621Y18113841D01*
X-18087322Y18105393D01*
X-18093130Y18107130D01*
X-18162625Y18107555D01*
X-18216266Y18107883D01*
X-18216267Y18107883D01*
X-18223317Y18107926D01*
X-18230094Y18105989D01*
X-18230095Y18105989D01*
X-18341715Y18074088D01*
X-18341717Y18074087D01*
X-18348495Y18072150D01*
X-18458600Y18002679D01*
X-18463267Y17997395D01*
X-18463269Y17997393D01*
X-18534908Y17916276D01*
X-18544781Y17905097D01*
X-18600110Y17787249D01*
X-18620140Y17658610D01*
X-18612367Y17599173D01*
X-18610000Y17581071D01*
X-18621202Y17520920D01*
X-18665621Y17478841D01*
X-18722322Y17470393D01*
X-18728130Y17472130D01*
X-18797625Y17472555D01*
X-18851266Y17472883D01*
X-18851267Y17472883D01*
X-18858317Y17472926D01*
X-18865094Y17470989D01*
X-18865095Y17470989D01*
X-18976715Y17439088D01*
X-18976717Y17439087D01*
X-18983495Y17437150D01*
X-19093600Y17367679D01*
X-19098267Y17362395D01*
X-19098269Y17362393D01*
X-19169908Y17281276D01*
X-19179781Y17270097D01*
X-19235110Y17152249D01*
X-19255140Y17023610D01*
X-30347390Y17023610D01*
X-26995615Y20375385D01*
X-26941098Y20403162D01*
X-26895842Y20399799D01*
X-26816260Y20374707D01*
X-26814148Y20374239D01*
X-26814145Y20374238D01*
X-26721692Y20353742D01*
X-26368304Y20275398D01*
X-26366178Y20275118D01*
X-26366166Y20275116D01*
X-26091873Y20239005D01*
X-25913396Y20215508D01*
X-25455000Y20195494D01*
X-24996604Y20215508D01*
X-24818127Y20239005D01*
X-24543834Y20275116D01*
X-24543822Y20275118D01*
X-24541696Y20275398D01*
X-24188308Y20353742D01*
X-24095855Y20374238D01*
X-24095852Y20374239D01*
X-24093740Y20374707D01*
X-23656143Y20512681D01*
X-23232237Y20688269D01*
X-22971285Y20824111D01*
X-22827156Y20899140D01*
X-22827152Y20899142D01*
X-22825247Y20900134D01*
X-22820335Y20903263D01*
X-22440090Y21145506D01*
X-22440087Y21145508D01*
X-22438271Y21146665D01*
X-22074255Y21425985D01*
X-21735968Y21735968D01*
X-21425985Y22074255D01*
X-21146665Y22438271D01*
X-20900134Y22825247D01*
X-20854851Y22912234D01*
X-20747028Y23119362D01*
X-20688269Y23232237D01*
X-20512681Y23656143D01*
X-20374707Y24093740D01*
X-20275398Y24541696D01*
X-20275118Y24543822D01*
X-20275116Y24543834D01*
X-20215790Y24994464D01*
X-20215508Y24996604D01*
X-20195494Y25455000D01*
X-20215508Y25913396D01*
X-20239567Y26096139D01*
X-20275116Y26366166D01*
X-20275118Y26366178D01*
X-20275398Y26368304D01*
X-20374707Y26816260D01*
X-20399799Y26895842D01*
X-20399265Y26957024D01*
X-20375385Y26995615D01*
X-19854187Y27516813D01*
X-16483641Y27516813D01*
X-16466760Y27387722D01*
X-16414327Y27268558D01*
X-16409790Y27263161D01*
X-16409789Y27263159D01*
X-16365095Y27209990D01*
X-16330555Y27168900D01*
X-16324684Y27164992D01*
X-16324683Y27164991D01*
X-16302826Y27150442D01*
X-16222181Y27096759D01*
X-16215454Y27094657D01*
X-16215451Y27094656D01*
X-16104646Y27060039D01*
X-16104645Y27060039D01*
X-16097914Y27057936D01*
X-16031007Y27056710D01*
X-15974799Y27055679D01*
X-15974797Y27055679D01*
X-15967746Y27055550D01*
X-15960943Y27057405D01*
X-15960941Y27057405D01*
X-15877445Y27080169D01*
X-15842141Y27089794D01*
X-15812845Y27107782D01*
X-15737204Y27154225D01*
X-15737202Y27154227D01*
X-15731195Y27157915D01*
X-15729095Y27160235D01*
X-15673915Y27182191D01*
X-15612673Y27165808D01*
X-15603302Y27159570D01*
X-15530423Y27111057D01*
X-15523696Y27108955D01*
X-15523693Y27108954D01*
X-15412888Y27074337D01*
X-15412887Y27074337D01*
X-15406156Y27072234D01*
X-15339249Y27071008D01*
X-15283041Y27069977D01*
X-15283039Y27069977D01*
X-15275988Y27069848D01*
X-15238131Y27080169D01*
X-15177018Y27077234D01*
X-15136309Y27048357D01*
X-15076009Y26976622D01*
X-15070138Y26972714D01*
X-15070137Y26972713D01*
X-15046568Y26957024D01*
X-14967635Y26904481D01*
X-14960908Y26902379D01*
X-14960905Y26902378D01*
X-14850100Y26867761D01*
X-14850099Y26867761D01*
X-14843368Y26865658D01*
X-14776461Y26864432D01*
X-14720253Y26863401D01*
X-14720251Y26863401D01*
X-14713200Y26863272D01*
X-14706397Y26865127D01*
X-14706395Y26865127D01*
X-14638801Y26883556D01*
X-14587595Y26897516D01*
X-14476649Y26965637D01*
X-14389283Y27062158D01*
X-14332518Y27179321D01*
X-14326321Y27216150D01*
X-14311552Y27303936D01*
X-14311552Y27303940D01*
X-14310918Y27307706D01*
X-14310781Y27318925D01*
X-14329237Y27447800D01*
X-14345447Y27483453D01*
X-14380202Y27559891D01*
X-14380203Y27559892D01*
X-14383123Y27566315D01*
X-14452397Y27646712D01*
X-14463500Y27659598D01*
X-14463501Y27659599D01*
X-14468105Y27664942D01*
X-14474022Y27668777D01*
X-14474024Y27668779D01*
X-14571432Y27731915D01*
X-14571434Y27731916D01*
X-14577354Y27735753D01*
X-14702085Y27773055D01*
X-14775362Y27773503D01*
X-14825221Y27773808D01*
X-14825222Y27773808D01*
X-14832272Y27773851D01*
X-14863245Y27764999D01*
X-14924390Y27767188D01*
X-14965448Y27795565D01*
X-15026288Y27866174D01*
X-15026289Y27866175D01*
X-15030893Y27871518D01*
X-15036810Y27875353D01*
X-15036812Y27875355D01*
X-15134220Y27938491D01*
X-15134222Y27938492D01*
X-15140142Y27942329D01*
X-15264873Y27979631D01*
X-15338150Y27980079D01*
X-15388009Y27980384D01*
X-15388010Y27980384D01*
X-15395060Y27980427D01*
X-15401837Y27978490D01*
X-15401838Y27978490D01*
X-15513458Y27946589D01*
X-15513460Y27946588D01*
X-15520238Y27944651D01*
X-15630343Y27875180D01*
X-15630814Y27875926D01*
X-15681780Y27854920D01*
X-15743220Y27870552D01*
X-15825978Y27924193D01*
X-15825980Y27924194D01*
X-15831900Y27928031D01*
X-15956631Y27965333D01*
X-16029908Y27965781D01*
X-16079767Y27966086D01*
X-16079768Y27966086D01*
X-16086818Y27966129D01*
X-16093595Y27964192D01*
X-16093596Y27964192D01*
X-16205216Y27932291D01*
X-16205218Y27932290D01*
X-16211996Y27930353D01*
X-16322101Y27860882D01*
X-16326768Y27855598D01*
X-16326770Y27855596D01*
X-16402243Y27770138D01*
X-16408282Y27763300D01*
X-16463611Y27645452D01*
X-16483641Y27516813D01*
X-19854187Y27516813D01*
X-19365390Y28005610D01*
X-3559140Y28005610D01*
X-3558225Y27998613D01*
X-3558225Y27998612D01*
X-3543369Y27885011D01*
X-3542259Y27876519D01*
X-3539421Y27870068D01*
X-3539420Y27870066D01*
X-3532371Y27854047D01*
X-3489826Y27757355D01*
X-3485289Y27751958D01*
X-3485288Y27751956D01*
X-3446136Y27705380D01*
X-3406054Y27657697D01*
X-3400183Y27653789D01*
X-3400182Y27653788D01*
X-3377188Y27638482D01*
X-3297680Y27585556D01*
X-3290953Y27583454D01*
X-3290950Y27583453D01*
X-3180145Y27548836D01*
X-3180144Y27548836D01*
X-3173413Y27546733D01*
X-3106506Y27545507D01*
X-3050298Y27544476D01*
X-3050296Y27544476D01*
X-3043245Y27544347D01*
X-3036442Y27546202D01*
X-3036440Y27546202D01*
X-2943059Y27571661D01*
X-2917640Y27578591D01*
X-2806694Y27646712D01*
X-2726098Y27735753D01*
X-2724060Y27738005D01*
X-2724060Y27738006D01*
X-2719328Y27743233D01*
X-2662563Y27860396D01*
X-2660691Y27871518D01*
X-2641597Y27985011D01*
X-2641597Y27985015D01*
X-2640963Y27988781D01*
X-2640826Y28000000D01*
X-2659282Y28128875D01*
X-2662544Y28136051D01*
X-2710247Y28240966D01*
X-2710248Y28240967D01*
X-2713168Y28247390D01*
X-2770547Y28313982D01*
X-2793545Y28340673D01*
X-2793546Y28340674D01*
X-2798150Y28346017D01*
X-2804067Y28349852D01*
X-2804069Y28349854D01*
X-2901477Y28412990D01*
X-2901479Y28412991D01*
X-2907399Y28416828D01*
X-3032130Y28454130D01*
X-3105407Y28454578D01*
X-3155266Y28454883D01*
X-3155267Y28454883D01*
X-3162317Y28454926D01*
X-3169094Y28452989D01*
X-3169095Y28452989D01*
X-3280715Y28421088D01*
X-3280717Y28421087D01*
X-3287495Y28419150D01*
X-3397600Y28349679D01*
X-3402267Y28344395D01*
X-3402269Y28344393D01*
X-3439396Y28302354D01*
X-3483781Y28252097D01*
X-3539110Y28134249D01*
X-3559140Y28005610D01*
X-19365390Y28005610D01*
X-15116388Y32254612D01*
X8191858Y32254612D01*
X8208739Y32125521D01*
X8261172Y32006357D01*
X8344944Y31906699D01*
X8453318Y31834558D01*
X8460045Y31832456D01*
X8460048Y31832455D01*
X8570853Y31797838D01*
X8570854Y31797838D01*
X8577585Y31795735D01*
X8609786Y31795145D01*
X8622802Y31794906D01*
X8680636Y31774936D01*
X8715687Y31724785D01*
X8719151Y31708760D01*
X8733240Y31601020D01*
X8785673Y31481856D01*
X8869445Y31382198D01*
X8875316Y31378290D01*
X8875317Y31378289D01*
X8901929Y31360574D01*
X8977819Y31310057D01*
X8984546Y31307955D01*
X8984549Y31307954D01*
X9095354Y31273337D01*
X9095355Y31273337D01*
X9102086Y31271234D01*
X9168993Y31270008D01*
X9225201Y31268977D01*
X9225203Y31268977D01*
X9232254Y31268848D01*
X9239057Y31270703D01*
X9239059Y31270703D01*
X9306653Y31289132D01*
X9357859Y31303092D01*
X9468805Y31371213D01*
X9485599Y31389767D01*
X9538667Y31420221D01*
X9599500Y31413667D01*
X9644862Y31372607D01*
X9656818Y31308100D01*
X9644804Y31230937D01*
X9640860Y31205610D01*
X9657741Y31076519D01*
X9660579Y31070068D01*
X9660580Y31070066D01*
X9664835Y31060396D01*
X9710174Y30957355D01*
X9714711Y30951958D01*
X9714712Y30951956D01*
X9755754Y30903131D01*
X9793946Y30857697D01*
X9799817Y30853789D01*
X9799818Y30853788D01*
X9826430Y30836073D01*
X9902320Y30785556D01*
X9909047Y30783454D01*
X9909050Y30783453D01*
X10019855Y30748836D01*
X10019856Y30748836D01*
X10026587Y30746733D01*
X10093494Y30745507D01*
X10149702Y30744476D01*
X10149704Y30744476D01*
X10156755Y30744347D01*
X10163558Y30746202D01*
X10163560Y30746202D01*
X10246271Y30768752D01*
X10282360Y30778591D01*
X10393306Y30846712D01*
X10480672Y30943233D01*
X10537437Y31060396D01*
X10559037Y31188781D01*
X10559174Y31200000D01*
X10540718Y31328875D01*
X10519090Y31376444D01*
X10489753Y31440966D01*
X10489752Y31440967D01*
X10486832Y31447390D01*
X10432258Y31510727D01*
X10406455Y31540673D01*
X10406454Y31540674D01*
X10401850Y31546017D01*
X10395933Y31549852D01*
X10395931Y31549854D01*
X10298523Y31612990D01*
X10298521Y31612991D01*
X10292601Y31616828D01*
X10167870Y31654130D01*
X10094593Y31654578D01*
X10044734Y31654883D01*
X10044733Y31654883D01*
X10037683Y31654926D01*
X10030906Y31652989D01*
X10030905Y31652989D01*
X9919285Y31621088D01*
X9919283Y31621087D01*
X9912505Y31619150D01*
X9802400Y31549679D01*
X9797733Y31544394D01*
X9797730Y31544392D01*
X9790332Y31536015D01*
X9737640Y31504915D01*
X9676731Y31510727D01*
X9630871Y31551230D01*
X9617577Y31610954D01*
X9618501Y31617975D01*
X9633902Y31709512D01*
X9633902Y31709516D01*
X9634536Y31713282D01*
X9634673Y31724501D01*
X9616217Y31853376D01*
X9591973Y31906699D01*
X9565252Y31965467D01*
X9565251Y31965468D01*
X9562331Y31971891D01*
X9477349Y32070518D01*
X9471432Y32074353D01*
X9471430Y32074355D01*
X9374022Y32137491D01*
X9374020Y32137492D01*
X9368100Y32141329D01*
X9243369Y32178631D01*
X9218562Y32178783D01*
X9205443Y32178863D01*
X9147369Y32198126D01*
X9111709Y32247845D01*
X9108049Y32263826D01*
X9092716Y32370895D01*
X9092716Y32370896D01*
X9091716Y32377877D01*
X9086371Y32389634D01*
X9040751Y32489968D01*
X9040750Y32489969D01*
X9037830Y32496392D01*
X8952848Y32595019D01*
X8946931Y32598854D01*
X8946929Y32598856D01*
X8849521Y32661992D01*
X8849519Y32661993D01*
X8843599Y32665830D01*
X8718868Y32703132D01*
X8645591Y32703580D01*
X8595732Y32703885D01*
X8595731Y32703885D01*
X8588681Y32703928D01*
X8581904Y32701991D01*
X8581903Y32701991D01*
X8470283Y32670090D01*
X8470281Y32670089D01*
X8463503Y32668152D01*
X8353398Y32598681D01*
X8348731Y32593397D01*
X8348729Y32593395D01*
X8345444Y32589675D01*
X8267217Y32501099D01*
X8211888Y32383251D01*
X8191858Y32254612D01*
X-15116388Y32254612D01*
X-14431068Y32939932D01*
X-14426339Y32944360D01*
X-14236972Y33110431D01*
X-14226708Y33118307D01*
X-14019961Y33256451D01*
X-14008751Y33262922D01*
X-13785761Y33372888D01*
X-13773798Y33377844D01*
X-13538353Y33457767D01*
X-13525853Y33461117D01*
X-13281980Y33509626D01*
X-13269155Y33511314D01*
X-13017807Y33527788D01*
X-13011333Y33528000D01*
X13138333Y33528000D01*
X13144807Y33527788D01*
G37*
G04 #@! TD.AperFunction*
M02*
