G04 #@! TF.GenerationSoftware,KiCad,Pcbnew,(6.0.11-0)*
G04 #@! TF.CreationDate,2023-01-30T23:46:06+00:00*
G04 #@! TF.ProjectId,maxbox,6d617862-6f78-42e6-9b69-6361645f7063,rev?*
G04 #@! TF.SameCoordinates,Original*
G04 #@! TF.FileFunction,Copper,L2,Inr*
G04 #@! TF.FilePolarity,Positive*
%FSLAX46Y46*%
G04 Gerber Fmt 4.6, Leading zero omitted, Abs format (unit mm)*
G04 Created by KiCad (PCBNEW (6.0.11-0)) date 2023-01-30 23:46:06*
%MOMM*%
%LPD*%
G01*
G04 APERTURE LIST*
G04 #@! TA.AperFunction,ComponentPad*
%ADD10C,0.600000*%
G04 #@! TD*
G04 #@! TA.AperFunction,ViaPad*
%ADD11C,0.400000*%
G04 #@! TD*
G04 APERTURE END LIST*
D10*
X-1319500Y-30928000D03*
X-2769500Y-30928000D03*
X-2769500Y-29478000D03*
X-2769500Y-28028000D03*
X-1319500Y-28028000D03*
X130500Y-30928000D03*
X130500Y-29478000D03*
X-1319500Y-29478000D03*
X130500Y-28028000D03*
D11*
X-7200000Y7900000D03*
X-1524000Y-33655000D03*
X-10200000Y5200000D03*
X1016000Y-34417000D03*
X-6000000Y9100000D03*
X-17780000Y10922000D03*
X-8400000Y6800000D03*
X-6600000Y8500000D03*
X-9000000Y6300000D03*
X15748000Y30861000D03*
X-15748000Y-30734000D03*
X-6350000Y-28194000D03*
X11303000Y-254000D03*
X-9600000Y5700000D03*
X-3810000Y-34417000D03*
X-10200000Y3800000D03*
X-1600000Y13500000D03*
X12827000Y0D03*
X-4500000Y27700000D03*
X11430000Y-33909000D03*
X12827000Y508000D03*
X-7800000Y7400000D03*
X-23700000Y1600000D03*
X-3048000Y-26035000D03*
X-6100000Y-22200000D03*
X-10660000Y32790000D03*
X31300000Y-15300000D03*
X-6350000Y-30734000D03*
X32893000Y10668000D03*
X-32893000Y-10922000D03*
X-30734000Y15494000D03*
X-8255000Y-18288000D03*
X-5400000Y9600000D03*
X13843000Y0D03*
X-16891000Y16637000D03*
X-17526000Y17145000D03*
X-16891000Y17780000D03*
X-18161000Y16510000D03*
X-18796000Y17018000D03*
X-18161000Y17653000D03*
X-17526000Y18288000D03*
X-14732000Y5588000D03*
X-14200000Y6100000D03*
X-13589000Y6604000D03*
X-4800000Y15200000D03*
X-5400000Y15800000D03*
X-8255000Y13208000D03*
X-25000000Y1600000D03*
X0Y-34417000D03*
X19685000Y10922000D03*
X2413000Y-33655000D03*
X22606000Y7874000D03*
X4445000Y-13335000D03*
X6477000Y-26670000D03*
X8600000Y-29400000D03*
X5715000Y-13335000D03*
X6096000Y-35941000D03*
X10000000Y0D03*
X-10500000Y13100000D03*
X-5207000Y-7747000D03*
X-6350000Y-31750000D03*
X2540000Y-31369000D03*
X5969000Y26797000D03*
X6985000Y-14605000D03*
X2700000Y27900000D03*
X3700000Y28600000D03*
X4445000Y-12065000D03*
X-9144000Y-18288000D03*
X-4826000Y-27432000D03*
X6985000Y-12065000D03*
X8255000Y-12065000D03*
X5969000Y25527000D03*
X6985000Y-13335000D03*
X6985000Y-10795000D03*
X6477000Y-28956000D03*
X3700000Y27900000D03*
X4445000Y-10795000D03*
X16637000Y13843000D03*
X-3100000Y28000000D03*
X5715000Y-14605000D03*
X-6350000Y-29210000D03*
X-12446000Y-5080000D03*
X-4064000Y1778000D03*
X4445000Y-14605000D03*
X-9017000Y-4064000D03*
X6858000Y-41783000D03*
X8255000Y-13335000D03*
X-7366000Y-34544000D03*
X13843000Y508000D03*
X8255000Y-10795000D03*
X5715000Y-12065000D03*
X8255000Y-14605000D03*
X2700000Y28600000D03*
X-16256000Y16002000D03*
X2159000Y1905000D03*
X-5715000Y-5080000D03*
X-8636000Y-41656000D03*
X-2794000Y-34417000D03*
X13970000Y-23622000D03*
X7747000Y-36830000D03*
X5715000Y-10795000D03*
X-4699000Y1143000D03*
X-13600000Y10100000D03*
X9525000Y-2794000D03*
X1795000Y-1905000D03*
X745000Y-1905000D03*
X4064000Y-2159000D03*
X8001000Y-1777998D03*
X7978892Y1292108D03*
X-19558000Y6858000D03*
X-8001000Y18542000D03*
X-7366000Y19050000D03*
X-19685000Y5842000D03*
X-6858000Y18415000D03*
X-20193000Y6223000D03*
X-7366000Y17907000D03*
X1900000Y28100000D03*
X-19050000Y6477000D03*
X1900000Y28600000D03*
X1905000Y27559000D03*
X-444500Y6159500D03*
X-444500Y9080500D03*
X-7117589Y-10643355D03*
X-23700000Y-1600000D03*
X-1905000Y-10668000D03*
X-26300000Y1600000D03*
X-14769955Y27318925D03*
X17653217Y-30677367D03*
X24700000Y17300000D03*
X28650000Y13350000D03*
X-26750000Y-14350000D03*
X-30100000Y9200000D03*
X-9300000Y-31600000D03*
X10100000Y31200000D03*
X29100000Y-10000000D03*
X-8948531Y-32457653D03*
X-30624501Y8624501D03*
X28570879Y14170879D03*
X22145878Y20645878D03*
X29624501Y-9175499D03*
X-26720879Y-15120879D03*
X-15332743Y27525501D03*
X17606756Y-31372662D03*
X9175499Y31724501D03*
X28400000Y15100000D03*
X-26741758Y-15841758D03*
X-16024501Y27511203D03*
X8650998Y32249002D03*
X-31149002Y8049002D03*
X30149002Y-8350998D03*
X17735144Y-31975722D03*
X-8689810Y-33330140D03*
X-1500000Y-48500000D03*
X600000Y-45500000D03*
X-25075500Y-1646837D03*
X-6973359Y-11240882D03*
X-180739Y-14150739D03*
X-2037443Y-12587080D03*
X-24529122Y-2929122D03*
X-6350000Y-11920990D03*
X-11429998Y-10033000D03*
X0Y-15367000D03*
X2413000Y-32512000D03*
X6477000Y-32512000D03*
G04 #@! TA.AperFunction,Conductor*
G36*
X13144807Y33527788D02*
G01*
X13396155Y33511314D01*
X13408980Y33509626D01*
X13652853Y33461117D01*
X13665353Y33457767D01*
X13900798Y33377844D01*
X13912761Y33372888D01*
X14135751Y33262922D01*
X14146961Y33256451D01*
X14353708Y33118307D01*
X14363972Y33110431D01*
X14435862Y33047385D01*
X14553339Y32944360D01*
X14558068Y32939932D01*
X16071957Y31426043D01*
X16099734Y31371526D01*
X16090163Y31311094D01*
X16046898Y31267829D01*
X15986466Y31258258D01*
X15952955Y31271104D01*
X15952922Y31271033D01*
X15951853Y31271527D01*
X15948107Y31272963D01*
X15946523Y31273990D01*
X15946521Y31273991D01*
X15940601Y31277828D01*
X15815870Y31315130D01*
X15742593Y31315578D01*
X15692734Y31315883D01*
X15692733Y31315883D01*
X15685683Y31315926D01*
X15678906Y31313989D01*
X15678905Y31313989D01*
X15567285Y31282088D01*
X15567283Y31282087D01*
X15560505Y31280150D01*
X15450400Y31210679D01*
X15445733Y31205395D01*
X15445731Y31205393D01*
X15387313Y31139246D01*
X15364219Y31113097D01*
X15308890Y30995249D01*
X15288860Y30866610D01*
X15289775Y30859613D01*
X15289775Y30859612D01*
X15290094Y30857173D01*
X15305741Y30737519D01*
X15308579Y30731068D01*
X15308580Y30731066D01*
X15312835Y30721396D01*
X15358174Y30618355D01*
X15362711Y30612958D01*
X15362712Y30612956D01*
X15383074Y30588733D01*
X15441946Y30518697D01*
X15447817Y30514789D01*
X15447818Y30514788D01*
X15474430Y30497073D01*
X15550320Y30446556D01*
X15557047Y30444454D01*
X15557050Y30444453D01*
X15667855Y30409836D01*
X15667856Y30409836D01*
X15674587Y30407733D01*
X15741494Y30406507D01*
X15797702Y30405476D01*
X15797704Y30405476D01*
X15804755Y30405347D01*
X15811558Y30407202D01*
X15811560Y30407202D01*
X15879154Y30425631D01*
X15930360Y30439591D01*
X16041306Y30507712D01*
X16128672Y30604233D01*
X16185437Y30721396D01*
X16189299Y30744347D01*
X16206403Y30846011D01*
X16206403Y30846015D01*
X16207037Y30849781D01*
X16207174Y30861000D01*
X16188718Y30989875D01*
X16183373Y31001632D01*
X16148446Y31078448D01*
X16141573Y31139246D01*
X16171748Y31192473D01*
X16227446Y31217797D01*
X16287393Y31205547D01*
X16308572Y31189428D01*
X33066932Y14431068D01*
X33071359Y14426340D01*
X33237431Y14236972D01*
X33245307Y14226708D01*
X33383448Y14019966D01*
X33389922Y14008751D01*
X33499888Y13785761D01*
X33504844Y13773799D01*
X33566908Y13590966D01*
X33584766Y13538357D01*
X33588117Y13525853D01*
X33626078Y13335011D01*
X33636625Y13281987D01*
X33638314Y13269155D01*
X33650562Y13082280D01*
X33654788Y13017808D01*
X33655000Y13011333D01*
X33655000Y4763174D01*
X33636093Y4704983D01*
X33601713Y4675360D01*
X33372156Y4555860D01*
X33370247Y4554866D01*
X32983271Y4308335D01*
X32619255Y4029015D01*
X32280968Y3719032D01*
X31970985Y3380745D01*
X31691665Y3016729D01*
X31445134Y2629753D01*
X31233269Y2222763D01*
X31057681Y1798857D01*
X30919707Y1361260D01*
X30919239Y1359148D01*
X30919238Y1359145D01*
X30913456Y1333065D01*
X30820398Y913304D01*
X30820118Y911178D01*
X30820116Y911166D01*
X30790680Y687575D01*
X30760508Y458396D01*
X30740494Y0D01*
X30747725Y-165616D01*
X30760508Y-458396D01*
X30768091Y-515995D01*
X30820116Y-911166D01*
X30820118Y-911178D01*
X30820398Y-913304D01*
X30894278Y-1246558D01*
X30919214Y-1359034D01*
X30919707Y-1361260D01*
X31057681Y-1798857D01*
X31233269Y-2222763D01*
X31350511Y-2447983D01*
X31436099Y-2612396D01*
X31445134Y-2629753D01*
X31446286Y-2631561D01*
X31446287Y-2631563D01*
X31638709Y-2933604D01*
X31691665Y-3016729D01*
X31970985Y-3380745D01*
X32280968Y-3719032D01*
X32619255Y-4029015D01*
X32983271Y-4308335D01*
X33370247Y-4554866D01*
X33372152Y-4555858D01*
X33372156Y-4555860D01*
X33601713Y-4675360D01*
X33644599Y-4719001D01*
X33655000Y-4763174D01*
X33655000Y-13011333D01*
X33654788Y-13017807D01*
X33646889Y-13138333D01*
X33638315Y-13269148D01*
X33636626Y-13281980D01*
X33611363Y-13408987D01*
X33588118Y-13525848D01*
X33584766Y-13538357D01*
X33504844Y-13773798D01*
X33499888Y-13785761D01*
X33389922Y-14008751D01*
X33383451Y-14019961D01*
X33245307Y-14226708D01*
X33237431Y-14236972D01*
X33131820Y-14357398D01*
X33071360Y-14426339D01*
X33066932Y-14431068D01*
X31850773Y-15647227D01*
X31796256Y-15675004D01*
X31735824Y-15665433D01*
X31692559Y-15622168D01*
X31682988Y-15561736D01*
X31691675Y-15534057D01*
X31734361Y-15445953D01*
X31737437Y-15439604D01*
X31746982Y-15382874D01*
X31758403Y-15314989D01*
X31758403Y-15314985D01*
X31759037Y-15311219D01*
X31759174Y-15300000D01*
X31740718Y-15171125D01*
X31735373Y-15159368D01*
X31689753Y-15059034D01*
X31689752Y-15059033D01*
X31686832Y-15052610D01*
X31629078Y-14985583D01*
X31606455Y-14959327D01*
X31606454Y-14959326D01*
X31601850Y-14953983D01*
X31595933Y-14950148D01*
X31595931Y-14950146D01*
X31498523Y-14887010D01*
X31498521Y-14887009D01*
X31492601Y-14883172D01*
X31367870Y-14845870D01*
X31294593Y-14845422D01*
X31244734Y-14845117D01*
X31244733Y-14845117D01*
X31237683Y-14845074D01*
X31230906Y-14847011D01*
X31230905Y-14847011D01*
X31119285Y-14878912D01*
X31119283Y-14878913D01*
X31112505Y-14880850D01*
X31002400Y-14950321D01*
X30997733Y-14955605D01*
X30997731Y-14955607D01*
X30935274Y-15026327D01*
X30916219Y-15047903D01*
X30860890Y-15165751D01*
X30840860Y-15294390D01*
X30857741Y-15423481D01*
X30860579Y-15429932D01*
X30860580Y-15429934D01*
X30864835Y-15439604D01*
X30910174Y-15542645D01*
X30993946Y-15642303D01*
X31102320Y-15714444D01*
X31109047Y-15716546D01*
X31109050Y-15716547D01*
X31219855Y-15751164D01*
X31219856Y-15751164D01*
X31226587Y-15753267D01*
X31293494Y-15754493D01*
X31349702Y-15755524D01*
X31349704Y-15755524D01*
X31356755Y-15755653D01*
X31363558Y-15753798D01*
X31363560Y-15753798D01*
X31431154Y-15735369D01*
X31482360Y-15721409D01*
X31529137Y-15692688D01*
X31588620Y-15678352D01*
X31645168Y-15701718D01*
X31677182Y-15753859D01*
X31672435Y-15814860D01*
X31650942Y-15847058D01*
X26966004Y-20531996D01*
X26911487Y-20559773D01*
X26851055Y-20550202D01*
X26807790Y-20506937D01*
X26797000Y-20461992D01*
X26797000Y-9994390D01*
X28640860Y-9994390D01*
X28657741Y-10123481D01*
X28660579Y-10129932D01*
X28660580Y-10129934D01*
X28664835Y-10139604D01*
X28710174Y-10242645D01*
X28714711Y-10248042D01*
X28714712Y-10248044D01*
X28749907Y-10289913D01*
X28793946Y-10342303D01*
X28799817Y-10346211D01*
X28799818Y-10346212D01*
X28826430Y-10363927D01*
X28902320Y-10414444D01*
X28909047Y-10416546D01*
X28909050Y-10416547D01*
X29019855Y-10451164D01*
X29019856Y-10451164D01*
X29026587Y-10453267D01*
X29093494Y-10454493D01*
X29149702Y-10455524D01*
X29149704Y-10455524D01*
X29156755Y-10455653D01*
X29163558Y-10453798D01*
X29163560Y-10453798D01*
X29231154Y-10435369D01*
X29282360Y-10421409D01*
X29393306Y-10353288D01*
X29424957Y-10318321D01*
X29475940Y-10261995D01*
X29475940Y-10261994D01*
X29480672Y-10256767D01*
X29537437Y-10139604D01*
X29555373Y-10033000D01*
X29558403Y-10014989D01*
X29558403Y-10014985D01*
X29559037Y-10011219D01*
X29559174Y-10000000D01*
X29540718Y-9871125D01*
X29494453Y-9769371D01*
X29487580Y-9708574D01*
X29517755Y-9655348D01*
X29573453Y-9630023D01*
X29586388Y-9629413D01*
X29604397Y-9629743D01*
X29674203Y-9631023D01*
X29674205Y-9631023D01*
X29681256Y-9631152D01*
X29688059Y-9629297D01*
X29688061Y-9629297D01*
X29755655Y-9610868D01*
X29806861Y-9596908D01*
X29917807Y-9528787D01*
X30005173Y-9432266D01*
X30061938Y-9315103D01*
X30063565Y-9305436D01*
X30082904Y-9190488D01*
X30082904Y-9190484D01*
X30083538Y-9186718D01*
X30083675Y-9175499D01*
X30065219Y-9046624D01*
X30018954Y-8944870D01*
X30012081Y-8884073D01*
X30042256Y-8830847D01*
X30097954Y-8805522D01*
X30110889Y-8804912D01*
X30128898Y-8805242D01*
X30198704Y-8806522D01*
X30198706Y-8806522D01*
X30205757Y-8806651D01*
X30212560Y-8804796D01*
X30212562Y-8804796D01*
X30280156Y-8786367D01*
X30331362Y-8772407D01*
X30442308Y-8704286D01*
X30529674Y-8607765D01*
X30586439Y-8490602D01*
X30588066Y-8480935D01*
X30607405Y-8365987D01*
X30607405Y-8365983D01*
X30608039Y-8362217D01*
X30608176Y-8350998D01*
X30589720Y-8222123D01*
X30584375Y-8210366D01*
X30538755Y-8110032D01*
X30538754Y-8110031D01*
X30535834Y-8103608D01*
X30450852Y-8004981D01*
X30444935Y-8001146D01*
X30444933Y-8001144D01*
X30347525Y-7938008D01*
X30347523Y-7938007D01*
X30341603Y-7934170D01*
X30216872Y-7896868D01*
X30143595Y-7896420D01*
X30093736Y-7896115D01*
X30093735Y-7896115D01*
X30086685Y-7896072D01*
X30079908Y-7898009D01*
X30079907Y-7898009D01*
X29968287Y-7929910D01*
X29968285Y-7929911D01*
X29961507Y-7931848D01*
X29851402Y-8001319D01*
X29846735Y-8006603D01*
X29846733Y-8006605D01*
X29843448Y-8010325D01*
X29765221Y-8098901D01*
X29709892Y-8216749D01*
X29689862Y-8345388D01*
X29706743Y-8474479D01*
X29709582Y-8480931D01*
X29709583Y-8480935D01*
X29754193Y-8582320D01*
X29760323Y-8643197D01*
X29729499Y-8696051D01*
X29673495Y-8720693D01*
X29662972Y-8721189D01*
X29569235Y-8720616D01*
X29569234Y-8720616D01*
X29562184Y-8720573D01*
X29555407Y-8722510D01*
X29555406Y-8722510D01*
X29443786Y-8754411D01*
X29443784Y-8754412D01*
X29437006Y-8756349D01*
X29326901Y-8825820D01*
X29322234Y-8831104D01*
X29322232Y-8831106D01*
X29275454Y-8884073D01*
X29240720Y-8923402D01*
X29185391Y-9041250D01*
X29165361Y-9169889D01*
X29182242Y-9298980D01*
X29185081Y-9305432D01*
X29185082Y-9305436D01*
X29229692Y-9406821D01*
X29235822Y-9467698D01*
X29204998Y-9520552D01*
X29148994Y-9545194D01*
X29138471Y-9545690D01*
X29044734Y-9545117D01*
X29044733Y-9545117D01*
X29037683Y-9545074D01*
X29030906Y-9547011D01*
X29030905Y-9547011D01*
X28919285Y-9578912D01*
X28919283Y-9578913D01*
X28912505Y-9580850D01*
X28802400Y-9650321D01*
X28797733Y-9655605D01*
X28797731Y-9655607D01*
X28750953Y-9708574D01*
X28716219Y-9747903D01*
X28660890Y-9865751D01*
X28640860Y-9994390D01*
X26797000Y-9994390D01*
X26797000Y762000D01*
X15240000Y762000D01*
X15240000Y-27813000D01*
X19445992Y-27813000D01*
X19504183Y-27831907D01*
X19540147Y-27881407D01*
X19540147Y-27942593D01*
X19515996Y-27982004D01*
X13970000Y-33528000D01*
X10535231Y-39176287D01*
X8841179Y-41962061D01*
X8837192Y-41968108D01*
X8673698Y-42197347D01*
X8664461Y-42208477D01*
X8576768Y-42299661D01*
X8471812Y-42408795D01*
X8461044Y-42418466D01*
X8241232Y-42588559D01*
X8229185Y-42596544D01*
X7988838Y-42731685D01*
X7986930Y-42732758D01*
X7973827Y-42738912D01*
X7714292Y-42838344D01*
X7700432Y-42842520D01*
X7429187Y-42903039D01*
X7414867Y-42905150D01*
X7134066Y-42925735D01*
X7126828Y-42926000D01*
X-8571795Y-42926000D01*
X-8579053Y-42925734D01*
X-8860648Y-42905033D01*
X-8875008Y-42902910D01*
X-9146982Y-42842051D01*
X-9160878Y-42837851D01*
X-9421032Y-42737872D01*
X-9434163Y-42731685D01*
X-9676897Y-42594741D01*
X-9688984Y-42586700D01*
X-9909090Y-42415724D01*
X-9919870Y-42406003D01*
X-10007637Y-42314327D01*
X-10112606Y-42204681D01*
X-10121839Y-42193499D01*
X-10213423Y-42064355D01*
X-10283066Y-41966151D01*
X-10290572Y-41953727D01*
X-10418471Y-41701995D01*
X-10421514Y-41695418D01*
X-13280477Y-34870798D01*
X-13472932Y-34411390D01*
X-4269140Y-34411390D01*
X-4252259Y-34540481D01*
X-4249421Y-34546932D01*
X-4249420Y-34546934D01*
X-4233161Y-34583885D01*
X-4199826Y-34659645D01*
X-4195289Y-34665042D01*
X-4195288Y-34665044D01*
X-4165850Y-34700064D01*
X-4116054Y-34759303D01*
X-4110183Y-34763211D01*
X-4110182Y-34763212D01*
X-4083570Y-34780927D01*
X-4007680Y-34831444D01*
X-4000953Y-34833546D01*
X-4000950Y-34833547D01*
X-3890145Y-34868164D01*
X-3890144Y-34868164D01*
X-3883413Y-34870267D01*
X-3816506Y-34871493D01*
X-3760298Y-34872524D01*
X-3760296Y-34872524D01*
X-3753245Y-34872653D01*
X-3746442Y-34870798D01*
X-3746440Y-34870798D01*
X-3678846Y-34852369D01*
X-3627640Y-34838409D01*
X-3516694Y-34770288D01*
X-3429328Y-34673767D01*
X-3372563Y-34556604D01*
X-3350963Y-34428219D01*
X-3350826Y-34417000D01*
X-3351629Y-34411390D01*
X556860Y-34411390D01*
X573741Y-34540481D01*
X576579Y-34546932D01*
X576580Y-34546934D01*
X592839Y-34583885D01*
X626174Y-34659645D01*
X630711Y-34665042D01*
X630712Y-34665044D01*
X660150Y-34700064D01*
X709946Y-34759303D01*
X715817Y-34763211D01*
X715818Y-34763212D01*
X742430Y-34780927D01*
X818320Y-34831444D01*
X825047Y-34833546D01*
X825050Y-34833547D01*
X935855Y-34868164D01*
X935856Y-34868164D01*
X942587Y-34870267D01*
X1009494Y-34871493D01*
X1065702Y-34872524D01*
X1065704Y-34872524D01*
X1072755Y-34872653D01*
X1079558Y-34870798D01*
X1079560Y-34870798D01*
X1147154Y-34852369D01*
X1198360Y-34838409D01*
X1309306Y-34770288D01*
X1396672Y-34673767D01*
X1453437Y-34556604D01*
X1475037Y-34428219D01*
X1475174Y-34417000D01*
X1456718Y-34288125D01*
X1451373Y-34276368D01*
X1405753Y-34176034D01*
X1405752Y-34176033D01*
X1402832Y-34169610D01*
X1324123Y-34078263D01*
X1322455Y-34076327D01*
X1322454Y-34076326D01*
X1317850Y-34070983D01*
X1311933Y-34067148D01*
X1311931Y-34067146D01*
X1214523Y-34004010D01*
X1214521Y-34004009D01*
X1208601Y-34000172D01*
X1083870Y-33962870D01*
X1010593Y-33962422D01*
X960734Y-33962117D01*
X960733Y-33962117D01*
X953683Y-33962074D01*
X946906Y-33964011D01*
X946905Y-33964011D01*
X835285Y-33995912D01*
X835283Y-33995913D01*
X828505Y-33997850D01*
X718400Y-34067321D01*
X713733Y-34072605D01*
X713731Y-34072607D01*
X636889Y-34159615D01*
X632219Y-34164903D01*
X576890Y-34282751D01*
X556860Y-34411390D01*
X-3351629Y-34411390D01*
X-3369282Y-34288125D01*
X-3374627Y-34276368D01*
X-3420247Y-34176034D01*
X-3420248Y-34176033D01*
X-3423168Y-34169610D01*
X-3501877Y-34078263D01*
X-3503545Y-34076327D01*
X-3503546Y-34076326D01*
X-3508150Y-34070983D01*
X-3514067Y-34067148D01*
X-3514069Y-34067146D01*
X-3611477Y-34004010D01*
X-3611479Y-34004009D01*
X-3617399Y-34000172D01*
X-3742130Y-33962870D01*
X-3815407Y-33962422D01*
X-3865266Y-33962117D01*
X-3865267Y-33962117D01*
X-3872317Y-33962074D01*
X-3879094Y-33964011D01*
X-3879095Y-33964011D01*
X-3990715Y-33995912D01*
X-3990717Y-33995913D01*
X-3997495Y-33997850D01*
X-4107600Y-34067321D01*
X-4112267Y-34072605D01*
X-4112269Y-34072607D01*
X-4189111Y-34159615D01*
X-4193781Y-34164903D01*
X-4249110Y-34282751D01*
X-4269140Y-34411390D01*
X-13472932Y-34411390D01*
X-13843000Y-33528000D01*
X-15776610Y-31594390D01*
X-9759140Y-31594390D01*
X-9742259Y-31723481D01*
X-9739421Y-31729932D01*
X-9739420Y-31729934D01*
X-9735165Y-31739604D01*
X-9689826Y-31842645D01*
X-9685289Y-31848042D01*
X-9685288Y-31848044D01*
X-9637740Y-31904609D01*
X-9606054Y-31942303D01*
X-9497680Y-32014444D01*
X-9490953Y-32016546D01*
X-9490950Y-32016547D01*
X-9380603Y-32051021D01*
X-9330698Y-32086421D01*
X-9311131Y-32144393D01*
X-9327383Y-32199874D01*
X-9327642Y-32200268D01*
X-9332312Y-32205556D01*
X-9387641Y-32323404D01*
X-9407671Y-32452043D01*
X-9390790Y-32581134D01*
X-9387952Y-32587585D01*
X-9387951Y-32587587D01*
X-9383696Y-32597257D01*
X-9338357Y-32700298D01*
X-9333820Y-32705695D01*
X-9333819Y-32705697D01*
X-9306677Y-32737986D01*
X-9254585Y-32799956D01*
X-9146211Y-32872097D01*
X-9092532Y-32888867D01*
X-9042627Y-32924267D01*
X-9023060Y-32982239D01*
X-9041306Y-33040641D01*
X-9047840Y-33048885D01*
X-9073591Y-33078043D01*
X-9128920Y-33195891D01*
X-9148950Y-33324530D01*
X-9132069Y-33453621D01*
X-9129231Y-33460072D01*
X-9129230Y-33460074D01*
X-9124975Y-33469744D01*
X-9079636Y-33572785D01*
X-9075099Y-33578182D01*
X-9075098Y-33578184D01*
X-9027550Y-33634749D01*
X-8995864Y-33672443D01*
X-8989993Y-33676351D01*
X-8989992Y-33676352D01*
X-8963380Y-33694067D01*
X-8887490Y-33744584D01*
X-8880763Y-33746686D01*
X-8880760Y-33746687D01*
X-8769955Y-33781304D01*
X-8769954Y-33781304D01*
X-8763223Y-33783407D01*
X-8696316Y-33784633D01*
X-8640108Y-33785664D01*
X-8640106Y-33785664D01*
X-8633055Y-33785793D01*
X-8626252Y-33783938D01*
X-8626250Y-33783938D01*
X-8558656Y-33765509D01*
X-8507450Y-33751549D01*
X-8396504Y-33683428D01*
X-8371916Y-33656264D01*
X-8365694Y-33649390D01*
X-1983140Y-33649390D01*
X-1966259Y-33778481D01*
X-1963421Y-33784932D01*
X-1963420Y-33784934D01*
X-1959165Y-33794604D01*
X-1913826Y-33897645D01*
X-1909289Y-33903042D01*
X-1909288Y-33903044D01*
X-1861740Y-33959609D01*
X-1830054Y-33997303D01*
X-1824183Y-34001211D01*
X-1824182Y-34001212D01*
X-1797570Y-34018927D01*
X-1721680Y-34069444D01*
X-1714953Y-34071546D01*
X-1714950Y-34071547D01*
X-1604145Y-34106164D01*
X-1604144Y-34106164D01*
X-1597413Y-34108267D01*
X-1530506Y-34109493D01*
X-1474298Y-34110524D01*
X-1474296Y-34110524D01*
X-1467245Y-34110653D01*
X-1460442Y-34108798D01*
X-1460440Y-34108798D01*
X-1392846Y-34090369D01*
X-1341640Y-34076409D01*
X-1230694Y-34008288D01*
X-1221517Y-33998150D01*
X-1148060Y-33916995D01*
X-1148060Y-33916994D01*
X-1143328Y-33911767D01*
X-1139269Y-33903390D01*
X10970860Y-33903390D01*
X10987741Y-34032481D01*
X10990579Y-34038932D01*
X10990580Y-34038934D01*
X11001415Y-34063558D01*
X11040174Y-34151645D01*
X11044711Y-34157042D01*
X11044712Y-34157044D01*
X11056685Y-34171287D01*
X11123946Y-34251303D01*
X11129817Y-34255211D01*
X11129818Y-34255212D01*
X11156430Y-34272927D01*
X11232320Y-34323444D01*
X11239047Y-34325546D01*
X11239050Y-34325547D01*
X11349855Y-34360164D01*
X11349856Y-34360164D01*
X11356587Y-34362267D01*
X11423494Y-34363493D01*
X11479702Y-34364524D01*
X11479704Y-34364524D01*
X11486755Y-34364653D01*
X11493558Y-34362798D01*
X11493560Y-34362798D01*
X11561154Y-34344369D01*
X11612360Y-34330409D01*
X11723306Y-34262288D01*
X11810672Y-34165767D01*
X11856321Y-34071547D01*
X11864361Y-34054953D01*
X11867437Y-34048604D01*
X11875411Y-34001212D01*
X11888403Y-33923989D01*
X11888403Y-33923985D01*
X11889037Y-33920219D01*
X11889174Y-33909000D01*
X11870718Y-33780125D01*
X11865373Y-33768368D01*
X11819753Y-33668034D01*
X11819752Y-33668033D01*
X11816832Y-33661610D01*
X11731850Y-33562983D01*
X11725933Y-33559148D01*
X11725931Y-33559146D01*
X11628523Y-33496010D01*
X11628521Y-33496009D01*
X11622601Y-33492172D01*
X11497870Y-33454870D01*
X11424593Y-33454422D01*
X11374734Y-33454117D01*
X11374733Y-33454117D01*
X11367683Y-33454074D01*
X11360906Y-33456011D01*
X11360905Y-33456011D01*
X11249285Y-33487912D01*
X11249283Y-33487913D01*
X11242505Y-33489850D01*
X11132400Y-33559321D01*
X11127733Y-33564605D01*
X11127731Y-33564607D01*
X11050889Y-33651615D01*
X11046219Y-33656903D01*
X10990890Y-33774751D01*
X10970860Y-33903390D01*
X-1139269Y-33903390D01*
X-1086563Y-33794604D01*
X-1085301Y-33787108D01*
X-1065597Y-33669989D01*
X-1065597Y-33669985D01*
X-1064963Y-33666219D01*
X-1064826Y-33655000D01*
X-1083282Y-33526125D01*
X-1088627Y-33514368D01*
X-1134247Y-33414034D01*
X-1134248Y-33414033D01*
X-1137168Y-33407610D01*
X-1194253Y-33341359D01*
X-1217545Y-33314327D01*
X-1217546Y-33314326D01*
X-1222150Y-33308983D01*
X-1228067Y-33305148D01*
X-1228069Y-33305146D01*
X-1325477Y-33242010D01*
X-1325479Y-33242009D01*
X-1331399Y-33238172D01*
X-1456130Y-33200870D01*
X-1529407Y-33200422D01*
X-1579266Y-33200117D01*
X-1579267Y-33200117D01*
X-1586317Y-33200074D01*
X-1593094Y-33202011D01*
X-1593095Y-33202011D01*
X-1704715Y-33233912D01*
X-1704717Y-33233913D01*
X-1711495Y-33235850D01*
X-1821600Y-33305321D01*
X-1826267Y-33310605D01*
X-1826269Y-33310607D01*
X-1856757Y-33345129D01*
X-1907781Y-33402903D01*
X-1963110Y-33520751D01*
X-1983140Y-33649390D01*
X-8365694Y-33649390D01*
X-8313870Y-33592135D01*
X-8313870Y-33592134D01*
X-8309138Y-33586907D01*
X-8252373Y-33469744D01*
X-8250210Y-33456892D01*
X-8231407Y-33345129D01*
X-8231407Y-33345125D01*
X-8230773Y-33341359D01*
X-8230636Y-33330140D01*
X-8249092Y-33201265D01*
X-8254437Y-33189508D01*
X-8300057Y-33089174D01*
X-8300058Y-33089173D01*
X-8302978Y-33082750D01*
X-8387960Y-32984123D01*
X-8393877Y-32980288D01*
X-8393879Y-32980286D01*
X-8491287Y-32917150D01*
X-8491289Y-32917149D01*
X-8497209Y-32913312D01*
X-8517942Y-32907112D01*
X-8544158Y-32899271D01*
X-8594492Y-32864483D01*
X-8614765Y-32806754D01*
X-8597233Y-32748134D01*
X-8589190Y-32737986D01*
X-8572591Y-32719648D01*
X-8572591Y-32719647D01*
X-8567859Y-32714420D01*
X-8511094Y-32597257D01*
X-8498637Y-32523219D01*
X-8495806Y-32506390D01*
X1953860Y-32506390D01*
X1970741Y-32635481D01*
X1973579Y-32641932D01*
X1973580Y-32641934D01*
X1977835Y-32651604D01*
X2023174Y-32754645D01*
X2027711Y-32760042D01*
X2027712Y-32760044D01*
X2070496Y-32810941D01*
X2106946Y-32854303D01*
X2112817Y-32858211D01*
X2112818Y-32858212D01*
X2133677Y-32872097D01*
X2215320Y-32926444D01*
X2222047Y-32928546D01*
X2222050Y-32928547D01*
X2332855Y-32963164D01*
X2332856Y-32963164D01*
X2339587Y-32965267D01*
X2406494Y-32966493D01*
X2462702Y-32967524D01*
X2462704Y-32967524D01*
X2469755Y-32967653D01*
X2476558Y-32965798D01*
X2476560Y-32965798D01*
X2544154Y-32947369D01*
X2595360Y-32933409D01*
X2706306Y-32865288D01*
X2793672Y-32768767D01*
X2850437Y-32651604D01*
X2858513Y-32603606D01*
X2871403Y-32526989D01*
X2871403Y-32526985D01*
X2872037Y-32523219D01*
X2872174Y-32512000D01*
X2871371Y-32506390D01*
X6017860Y-32506390D01*
X6034741Y-32635481D01*
X6037579Y-32641932D01*
X6037580Y-32641934D01*
X6041835Y-32651604D01*
X6087174Y-32754645D01*
X6091711Y-32760042D01*
X6091712Y-32760044D01*
X6134496Y-32810941D01*
X6170946Y-32854303D01*
X6176817Y-32858211D01*
X6176818Y-32858212D01*
X6197677Y-32872097D01*
X6279320Y-32926444D01*
X6286047Y-32928546D01*
X6286050Y-32928547D01*
X6396855Y-32963164D01*
X6396856Y-32963164D01*
X6403587Y-32965267D01*
X6470494Y-32966493D01*
X6526702Y-32967524D01*
X6526704Y-32967524D01*
X6533755Y-32967653D01*
X6540558Y-32965798D01*
X6540560Y-32965798D01*
X6608154Y-32947369D01*
X6659360Y-32933409D01*
X6770306Y-32865288D01*
X6857672Y-32768767D01*
X6914437Y-32651604D01*
X6922513Y-32603606D01*
X6935403Y-32526989D01*
X6935403Y-32526985D01*
X6936037Y-32523219D01*
X6936174Y-32512000D01*
X6917718Y-32383125D01*
X6912373Y-32371368D01*
X6866753Y-32271034D01*
X6866752Y-32271033D01*
X6863832Y-32264610D01*
X6778850Y-32165983D01*
X6772933Y-32162148D01*
X6772931Y-32162146D01*
X6675523Y-32099010D01*
X6675521Y-32099009D01*
X6669601Y-32095172D01*
X6544870Y-32057870D01*
X6471593Y-32057422D01*
X6421734Y-32057117D01*
X6421733Y-32057117D01*
X6414683Y-32057074D01*
X6407906Y-32059011D01*
X6407905Y-32059011D01*
X6296285Y-32090912D01*
X6296283Y-32090913D01*
X6289505Y-32092850D01*
X6179400Y-32162321D01*
X6174733Y-32167605D01*
X6174731Y-32167607D01*
X6129902Y-32218367D01*
X6093219Y-32259903D01*
X6037890Y-32377751D01*
X6017860Y-32506390D01*
X2871371Y-32506390D01*
X2853718Y-32383125D01*
X2848373Y-32371368D01*
X2802753Y-32271034D01*
X2802752Y-32271033D01*
X2799832Y-32264610D01*
X2714850Y-32165983D01*
X2708933Y-32162148D01*
X2708931Y-32162146D01*
X2611523Y-32099010D01*
X2611521Y-32099009D01*
X2605601Y-32095172D01*
X2480870Y-32057870D01*
X2407593Y-32057422D01*
X2357734Y-32057117D01*
X2357733Y-32057117D01*
X2350683Y-32057074D01*
X2343906Y-32059011D01*
X2343905Y-32059011D01*
X2232285Y-32090912D01*
X2232283Y-32090913D01*
X2225505Y-32092850D01*
X2115400Y-32162321D01*
X2110733Y-32167605D01*
X2110731Y-32167607D01*
X2065902Y-32218367D01*
X2029219Y-32259903D01*
X1973890Y-32377751D01*
X1953860Y-32506390D01*
X-8495806Y-32506390D01*
X-8490128Y-32472642D01*
X-8490128Y-32472638D01*
X-8489494Y-32468872D01*
X-8489357Y-32457653D01*
X-8507813Y-32328778D01*
X-8513158Y-32317021D01*
X-8558778Y-32216687D01*
X-8558779Y-32216686D01*
X-8561699Y-32210263D01*
X-8646681Y-32111636D01*
X-8652598Y-32107801D01*
X-8652600Y-32107799D01*
X-8750008Y-32044663D01*
X-8750010Y-32044662D01*
X-8755930Y-32040825D01*
X-8867209Y-32007546D01*
X-8917542Y-31972759D01*
X-8937816Y-31915030D01*
X-8921432Y-31859092D01*
X-8919328Y-31856767D01*
X-8915101Y-31848044D01*
X-8865639Y-31745953D01*
X-8862563Y-31739604D01*
X-8860666Y-31728332D01*
X-8841597Y-31614989D01*
X-8841597Y-31614985D01*
X-8840963Y-31611219D01*
X-8840826Y-31600000D01*
X-8859282Y-31471125D01*
X-8864627Y-31459368D01*
X-8910247Y-31359034D01*
X-8910248Y-31359033D01*
X-8913168Y-31352610D01*
X-8998150Y-31253983D01*
X-9004067Y-31250148D01*
X-9004069Y-31250146D01*
X-9101477Y-31187010D01*
X-9101479Y-31187009D01*
X-9107399Y-31183172D01*
X-9232130Y-31145870D01*
X-9305407Y-31145422D01*
X-9355266Y-31145117D01*
X-9355267Y-31145117D01*
X-9362317Y-31145074D01*
X-9369094Y-31147011D01*
X-9369095Y-31147011D01*
X-9480715Y-31178912D01*
X-9480717Y-31178913D01*
X-9487495Y-31180850D01*
X-9597600Y-31250321D01*
X-9602267Y-31255605D01*
X-9602269Y-31255607D01*
X-9605554Y-31259327D01*
X-9683781Y-31347903D01*
X-9739110Y-31465751D01*
X-9759140Y-31594390D01*
X-15776610Y-31594390D01*
X-16069775Y-31301225D01*
X-16097552Y-31246708D01*
X-16087981Y-31186276D01*
X-16044716Y-31143011D01*
X-15984284Y-31133440D01*
X-15957150Y-31141865D01*
X-15951553Y-31144534D01*
X-15945680Y-31148444D01*
X-15858150Y-31175790D01*
X-15828145Y-31185164D01*
X-15828144Y-31185164D01*
X-15821413Y-31187267D01*
X-15754506Y-31188493D01*
X-15698298Y-31189524D01*
X-15698296Y-31189524D01*
X-15691245Y-31189653D01*
X-15684442Y-31187798D01*
X-15684440Y-31187798D01*
X-15616846Y-31169369D01*
X-15565640Y-31155409D01*
X-15454694Y-31087288D01*
X-15441538Y-31072754D01*
X-15372060Y-30995995D01*
X-15372060Y-30995994D01*
X-15367328Y-30990767D01*
X-15310563Y-30873604D01*
X-15296443Y-30789682D01*
X-15289597Y-30748989D01*
X-15289597Y-30748985D01*
X-15288963Y-30745219D01*
X-15288826Y-30734000D01*
X-15289629Y-30728390D01*
X-6809140Y-30728390D01*
X-6792259Y-30857481D01*
X-6789421Y-30863932D01*
X-6789420Y-30863934D01*
X-6785165Y-30873604D01*
X-6739826Y-30976645D01*
X-6735289Y-30982042D01*
X-6735288Y-30982044D01*
X-6687740Y-31038609D01*
X-6656054Y-31076303D01*
X-6650183Y-31080211D01*
X-6650182Y-31080212D01*
X-6623570Y-31097927D01*
X-6547680Y-31148444D01*
X-6540953Y-31150546D01*
X-6540950Y-31150547D01*
X-6430145Y-31185164D01*
X-6430144Y-31185164D01*
X-6423413Y-31187267D01*
X-6356506Y-31188493D01*
X-6300298Y-31189524D01*
X-6300296Y-31189524D01*
X-6293245Y-31189653D01*
X-6286442Y-31187798D01*
X-6286440Y-31187798D01*
X-6218846Y-31169369D01*
X-6167640Y-31155409D01*
X-6056694Y-31087288D01*
X-6043538Y-31072754D01*
X-5974060Y-30995995D01*
X-5974060Y-30995994D01*
X-5969328Y-30990767D01*
X-5938918Y-30928000D01*
X-3328785Y-30928000D01*
X-3309728Y-31072754D01*
X-3307244Y-31078751D01*
X-3296400Y-31104930D01*
X-3253855Y-31207642D01*
X-3164974Y-31323474D01*
X-3159829Y-31327422D01*
X-3159828Y-31327423D01*
X-3054289Y-31408407D01*
X-3054285Y-31408409D01*
X-3049143Y-31412355D01*
X-2914254Y-31468228D01*
X-2769500Y-31487285D01*
X-2624746Y-31468228D01*
X-2489857Y-31412355D01*
X-2484715Y-31408409D01*
X-2484711Y-31408407D01*
X-2379172Y-31327423D01*
X-2379171Y-31327422D01*
X-2374026Y-31323474D01*
X-2285145Y-31207642D01*
X-2242600Y-31104930D01*
X-2231756Y-31078751D01*
X-2229272Y-31072754D01*
X-2210215Y-30928000D01*
X-1878785Y-30928000D01*
X-1859728Y-31072754D01*
X-1857244Y-31078751D01*
X-1846400Y-31104930D01*
X-1803855Y-31207642D01*
X-1714974Y-31323474D01*
X-1709829Y-31327422D01*
X-1709828Y-31327423D01*
X-1604289Y-31408407D01*
X-1604285Y-31408409D01*
X-1599143Y-31412355D01*
X-1464254Y-31468228D01*
X-1319500Y-31487285D01*
X-1174746Y-31468228D01*
X-1039857Y-31412355D01*
X-1034715Y-31408409D01*
X-1034711Y-31408407D01*
X-929172Y-31327423D01*
X-929171Y-31327422D01*
X-924026Y-31323474D01*
X-835145Y-31207642D01*
X-792600Y-31104930D01*
X-781756Y-31078751D01*
X-779272Y-31072754D01*
X-760215Y-30928000D01*
X-428785Y-30928000D01*
X-409728Y-31072754D01*
X-407244Y-31078751D01*
X-396400Y-31104930D01*
X-353855Y-31207642D01*
X-264974Y-31323474D01*
X-259829Y-31327422D01*
X-259828Y-31327423D01*
X-154289Y-31408407D01*
X-154285Y-31408409D01*
X-149143Y-31412355D01*
X-14254Y-31468228D01*
X130500Y-31487285D01*
X275254Y-31468228D01*
X410143Y-31412355D01*
X415285Y-31408409D01*
X415289Y-31408407D01*
X520828Y-31327423D01*
X520829Y-31327422D01*
X525974Y-31323474D01*
X614855Y-31207642D01*
X657400Y-31104930D01*
X668244Y-31078751D01*
X670728Y-31072754D01*
X689785Y-30928000D01*
X670728Y-30783246D01*
X614855Y-30648358D01*
X525974Y-30532526D01*
X520821Y-30528572D01*
X415289Y-30447593D01*
X415285Y-30447591D01*
X410143Y-30443645D01*
X275254Y-30387772D01*
X130500Y-30368715D01*
X-14254Y-30387772D01*
X-149142Y-30443645D01*
X-264974Y-30532526D01*
X-353855Y-30648358D01*
X-409728Y-30783246D01*
X-428785Y-30928000D01*
X-760215Y-30928000D01*
X-779272Y-30783246D01*
X-835145Y-30648358D01*
X-924026Y-30532526D01*
X-929179Y-30528572D01*
X-1034711Y-30447593D01*
X-1034715Y-30447591D01*
X-1039857Y-30443645D01*
X-1174746Y-30387772D01*
X-1319500Y-30368715D01*
X-1464254Y-30387772D01*
X-1599142Y-30443645D01*
X-1714974Y-30532526D01*
X-1803855Y-30648358D01*
X-1859728Y-30783246D01*
X-1878785Y-30928000D01*
X-2210215Y-30928000D01*
X-2229272Y-30783246D01*
X-2285145Y-30648358D01*
X-2374026Y-30532526D01*
X-2379179Y-30528572D01*
X-2484711Y-30447593D01*
X-2484715Y-30447591D01*
X-2489857Y-30443645D01*
X-2624746Y-30387772D01*
X-2769500Y-30368715D01*
X-2914254Y-30387772D01*
X-3049142Y-30443645D01*
X-3164974Y-30532526D01*
X-3253855Y-30648358D01*
X-3309728Y-30783246D01*
X-3328785Y-30928000D01*
X-5938918Y-30928000D01*
X-5912563Y-30873604D01*
X-5898443Y-30789682D01*
X-5891597Y-30748989D01*
X-5891597Y-30748985D01*
X-5890963Y-30745219D01*
X-5890826Y-30734000D01*
X-5909282Y-30605125D01*
X-5914627Y-30593368D01*
X-5960247Y-30493034D01*
X-5960248Y-30493033D01*
X-5963168Y-30486610D01*
X-6016619Y-30424577D01*
X-6043545Y-30393327D01*
X-6043546Y-30393326D01*
X-6048150Y-30387983D01*
X-6054067Y-30384148D01*
X-6054069Y-30384146D01*
X-6151477Y-30321010D01*
X-6151479Y-30321009D01*
X-6157399Y-30317172D01*
X-6282130Y-30279870D01*
X-6355407Y-30279422D01*
X-6405266Y-30279117D01*
X-6405267Y-30279117D01*
X-6412317Y-30279074D01*
X-6419094Y-30281011D01*
X-6419095Y-30281011D01*
X-6530715Y-30312912D01*
X-6530717Y-30312913D01*
X-6537495Y-30314850D01*
X-6647600Y-30384321D01*
X-6652267Y-30389605D01*
X-6652269Y-30389607D01*
X-6729111Y-30476615D01*
X-6733781Y-30481903D01*
X-6789110Y-30599751D01*
X-6809140Y-30728390D01*
X-15289629Y-30728390D01*
X-15307282Y-30605125D01*
X-15312627Y-30593368D01*
X-15358247Y-30493034D01*
X-15358248Y-30493033D01*
X-15361168Y-30486610D01*
X-15414619Y-30424577D01*
X-15441545Y-30393327D01*
X-15441546Y-30393326D01*
X-15446150Y-30387983D01*
X-15452067Y-30384148D01*
X-15452069Y-30384146D01*
X-15549477Y-30321010D01*
X-15549479Y-30321009D01*
X-15555399Y-30317172D01*
X-15680130Y-30279870D01*
X-15753407Y-30279422D01*
X-15803266Y-30279117D01*
X-15803267Y-30279117D01*
X-15810317Y-30279074D01*
X-15817094Y-30281011D01*
X-15817095Y-30281011D01*
X-15928715Y-30312912D01*
X-15928717Y-30312913D01*
X-15935495Y-30314850D01*
X-16045600Y-30384321D01*
X-16050267Y-30389605D01*
X-16050269Y-30389607D01*
X-16127111Y-30476615D01*
X-16131781Y-30481903D01*
X-16187110Y-30599751D01*
X-16207140Y-30728390D01*
X-16190259Y-30857481D01*
X-16187421Y-30863932D01*
X-16187420Y-30863934D01*
X-16148800Y-30951704D01*
X-16142670Y-31012582D01*
X-16173494Y-31065436D01*
X-16229497Y-31090078D01*
X-16289290Y-31077096D01*
X-16309420Y-31061580D01*
X-17893000Y-29478000D01*
X-3328785Y-29478000D01*
X-3309728Y-29622754D01*
X-3253855Y-29757642D01*
X-3164974Y-29873474D01*
X-3159829Y-29877422D01*
X-3159828Y-29877423D01*
X-3054289Y-29958407D01*
X-3054285Y-29958409D01*
X-3049143Y-29962355D01*
X-2914254Y-30018228D01*
X-2769500Y-30037285D01*
X-2624746Y-30018228D01*
X-2489857Y-29962355D01*
X-2484715Y-29958409D01*
X-2484711Y-29958407D01*
X-2379172Y-29877423D01*
X-2379171Y-29877422D01*
X-2374026Y-29873474D01*
X-2285145Y-29757642D01*
X-2229272Y-29622754D01*
X-2210215Y-29478000D01*
X-1878785Y-29478000D01*
X-1859728Y-29622754D01*
X-1803855Y-29757642D01*
X-1714974Y-29873474D01*
X-1709829Y-29877422D01*
X-1709828Y-29877423D01*
X-1604289Y-29958407D01*
X-1604285Y-29958409D01*
X-1599143Y-29962355D01*
X-1464254Y-30018228D01*
X-1319500Y-30037285D01*
X-1174746Y-30018228D01*
X-1039857Y-29962355D01*
X-1034715Y-29958409D01*
X-1034711Y-29958407D01*
X-929172Y-29877423D01*
X-929171Y-29877422D01*
X-924026Y-29873474D01*
X-835145Y-29757642D01*
X-779272Y-29622754D01*
X-760215Y-29478000D01*
X-428785Y-29478000D01*
X-409728Y-29622754D01*
X-353855Y-29757642D01*
X-264974Y-29873474D01*
X-259829Y-29877422D01*
X-259828Y-29877423D01*
X-154289Y-29958407D01*
X-154285Y-29958409D01*
X-149143Y-29962355D01*
X-14254Y-30018228D01*
X130500Y-30037285D01*
X275254Y-30018228D01*
X410143Y-29962355D01*
X415285Y-29958409D01*
X415289Y-29958407D01*
X520828Y-29877423D01*
X520829Y-29877422D01*
X525974Y-29873474D01*
X614855Y-29757642D01*
X670728Y-29622754D01*
X689785Y-29478000D01*
X670728Y-29333246D01*
X614855Y-29198358D01*
X525974Y-29082526D01*
X451768Y-29025585D01*
X415289Y-28997593D01*
X415285Y-28997591D01*
X410143Y-28993645D01*
X275254Y-28937772D01*
X130500Y-28918715D01*
X-14254Y-28937772D01*
X-149142Y-28993645D01*
X-264974Y-29082526D01*
X-353855Y-29198358D01*
X-409728Y-29333246D01*
X-428785Y-29478000D01*
X-760215Y-29478000D01*
X-779272Y-29333246D01*
X-835145Y-29198358D01*
X-924026Y-29082526D01*
X-998232Y-29025585D01*
X-1034711Y-28997593D01*
X-1034715Y-28997591D01*
X-1039857Y-28993645D01*
X-1174746Y-28937772D01*
X-1319500Y-28918715D01*
X-1464254Y-28937772D01*
X-1599142Y-28993645D01*
X-1714974Y-29082526D01*
X-1803855Y-29198358D01*
X-1859728Y-29333246D01*
X-1878785Y-29478000D01*
X-2210215Y-29478000D01*
X-2229272Y-29333246D01*
X-2285145Y-29198358D01*
X-2374026Y-29082526D01*
X-2448232Y-29025585D01*
X-2484711Y-28997593D01*
X-2484715Y-28997591D01*
X-2489857Y-28993645D01*
X-2624746Y-28937772D01*
X-2769500Y-28918715D01*
X-2914254Y-28937772D01*
X-3049142Y-28993645D01*
X-3164974Y-29082526D01*
X-3253855Y-29198358D01*
X-3309728Y-29333246D01*
X-3328785Y-29478000D01*
X-17893000Y-29478000D01*
X-19182610Y-28188390D01*
X-6809140Y-28188390D01*
X-6792259Y-28317481D01*
X-6789421Y-28323932D01*
X-6789420Y-28323934D01*
X-6785165Y-28333604D01*
X-6739826Y-28436645D01*
X-6735289Y-28442042D01*
X-6735288Y-28442044D01*
X-6710335Y-28471729D01*
X-6656054Y-28536303D01*
X-6650183Y-28540211D01*
X-6650182Y-28540212D01*
X-6623570Y-28557927D01*
X-6547680Y-28608444D01*
X-6540953Y-28610546D01*
X-6540950Y-28610547D01*
X-6430145Y-28645164D01*
X-6430144Y-28645164D01*
X-6423413Y-28647267D01*
X-6356506Y-28648493D01*
X-6300298Y-28649524D01*
X-6300296Y-28649524D01*
X-6293245Y-28649653D01*
X-6286442Y-28647798D01*
X-6286440Y-28647798D01*
X-6218846Y-28629369D01*
X-6167640Y-28615409D01*
X-6056694Y-28547288D01*
X-5969328Y-28450767D01*
X-5912563Y-28333604D01*
X-5890963Y-28205219D01*
X-5890826Y-28194000D01*
X-5909282Y-28065125D01*
X-5914627Y-28053368D01*
X-5926161Y-28028000D01*
X-3328785Y-28028000D01*
X-3309728Y-28172754D01*
X-3253855Y-28307642D01*
X-3164974Y-28423474D01*
X-3159829Y-28427422D01*
X-3159828Y-28427423D01*
X-3054289Y-28508407D01*
X-3054285Y-28508409D01*
X-3049143Y-28512355D01*
X-2914254Y-28568228D01*
X-2769500Y-28587285D01*
X-2624746Y-28568228D01*
X-2489857Y-28512355D01*
X-2484715Y-28508409D01*
X-2484711Y-28508407D01*
X-2379172Y-28427423D01*
X-2379171Y-28427422D01*
X-2374026Y-28423474D01*
X-2285145Y-28307642D01*
X-2229272Y-28172754D01*
X-2210215Y-28028000D01*
X-1878785Y-28028000D01*
X-1859728Y-28172754D01*
X-1803855Y-28307642D01*
X-1714974Y-28423474D01*
X-1709829Y-28427422D01*
X-1709828Y-28427423D01*
X-1604289Y-28508407D01*
X-1604285Y-28508409D01*
X-1599143Y-28512355D01*
X-1464254Y-28568228D01*
X-1319500Y-28587285D01*
X-1174746Y-28568228D01*
X-1039857Y-28512355D01*
X-1034715Y-28508409D01*
X-1034711Y-28508407D01*
X-929172Y-28427423D01*
X-929171Y-28427422D01*
X-924026Y-28423474D01*
X-835145Y-28307642D01*
X-779272Y-28172754D01*
X-760215Y-28028000D01*
X-428785Y-28028000D01*
X-409728Y-28172754D01*
X-353855Y-28307642D01*
X-264974Y-28423474D01*
X-259829Y-28427422D01*
X-259828Y-28427423D01*
X-154289Y-28508407D01*
X-154285Y-28508409D01*
X-149143Y-28512355D01*
X-14254Y-28568228D01*
X130500Y-28587285D01*
X275254Y-28568228D01*
X410143Y-28512355D01*
X415285Y-28508409D01*
X415289Y-28508407D01*
X520828Y-28427423D01*
X520829Y-28427422D01*
X525974Y-28423474D01*
X614855Y-28307642D01*
X670728Y-28172754D01*
X689785Y-28028000D01*
X670728Y-27883246D01*
X614855Y-27748358D01*
X525974Y-27632526D01*
X515069Y-27624158D01*
X415289Y-27547593D01*
X415285Y-27547591D01*
X410143Y-27543645D01*
X275254Y-27487772D01*
X130500Y-27468715D01*
X-14254Y-27487772D01*
X-149142Y-27543645D01*
X-264974Y-27632526D01*
X-353855Y-27748358D01*
X-409728Y-27883246D01*
X-428785Y-28028000D01*
X-760215Y-28028000D01*
X-779272Y-27883246D01*
X-835145Y-27748358D01*
X-924026Y-27632526D01*
X-934931Y-27624158D01*
X-1034711Y-27547593D01*
X-1034715Y-27547591D01*
X-1039857Y-27543645D01*
X-1174746Y-27487772D01*
X-1319500Y-27468715D01*
X-1464254Y-27487772D01*
X-1599142Y-27543645D01*
X-1714974Y-27632526D01*
X-1803855Y-27748358D01*
X-1859728Y-27883246D01*
X-1878785Y-28028000D01*
X-2210215Y-28028000D01*
X-2229272Y-27883246D01*
X-2285145Y-27748358D01*
X-2374026Y-27632526D01*
X-2384931Y-27624158D01*
X-2484711Y-27547593D01*
X-2484715Y-27547591D01*
X-2489857Y-27543645D01*
X-2624746Y-27487772D01*
X-2769500Y-27468715D01*
X-2914254Y-27487772D01*
X-3049142Y-27543645D01*
X-3164974Y-27632526D01*
X-3253855Y-27748358D01*
X-3309728Y-27883246D01*
X-3328785Y-28028000D01*
X-5926161Y-28028000D01*
X-5960247Y-27953034D01*
X-5960248Y-27953033D01*
X-5963168Y-27946610D01*
X-6048150Y-27847983D01*
X-6054067Y-27844148D01*
X-6054069Y-27844146D01*
X-6151477Y-27781010D01*
X-6151479Y-27781009D01*
X-6157399Y-27777172D01*
X-6282130Y-27739870D01*
X-6355407Y-27739422D01*
X-6405266Y-27739117D01*
X-6405267Y-27739117D01*
X-6412317Y-27739074D01*
X-6419094Y-27741011D01*
X-6419095Y-27741011D01*
X-6530715Y-27772912D01*
X-6530717Y-27772913D01*
X-6537495Y-27774850D01*
X-6647600Y-27844321D01*
X-6652267Y-27849605D01*
X-6652269Y-27849607D01*
X-6729111Y-27936615D01*
X-6733781Y-27941903D01*
X-6789110Y-28059751D01*
X-6809140Y-28188390D01*
X-19182610Y-28188390D01*
X-20375385Y-26995615D01*
X-20403162Y-26941098D01*
X-20399799Y-26895841D01*
X-20397924Y-26889896D01*
X-20374707Y-26816260D01*
X-20275398Y-26368304D01*
X-20275118Y-26366178D01*
X-20275116Y-26366166D01*
X-20232995Y-26046219D01*
X-20230779Y-26029390D01*
X-3507140Y-26029390D01*
X-3490259Y-26158481D01*
X-3487421Y-26164932D01*
X-3487420Y-26164934D01*
X-3483165Y-26174604D01*
X-3437826Y-26277645D01*
X-3433289Y-26283042D01*
X-3433288Y-26283044D01*
X-3385740Y-26339609D01*
X-3354054Y-26377303D01*
X-3348183Y-26381211D01*
X-3348182Y-26381212D01*
X-3321570Y-26398927D01*
X-3245680Y-26449444D01*
X-3238953Y-26451546D01*
X-3238950Y-26451547D01*
X-3128145Y-26486164D01*
X-3128144Y-26486164D01*
X-3121413Y-26488267D01*
X-3054506Y-26489493D01*
X-2998298Y-26490524D01*
X-2998296Y-26490524D01*
X-2991245Y-26490653D01*
X-2984442Y-26488798D01*
X-2984440Y-26488798D01*
X-2916846Y-26470369D01*
X-2865640Y-26456409D01*
X-2754694Y-26388288D01*
X-2667328Y-26291767D01*
X-2610563Y-26174604D01*
X-2597361Y-26096139D01*
X-2589597Y-26049989D01*
X-2589597Y-26049985D01*
X-2588963Y-26046219D01*
X-2588826Y-26035000D01*
X-2607282Y-25906125D01*
X-2612627Y-25894368D01*
X-2658247Y-25794034D01*
X-2658248Y-25794033D01*
X-2661168Y-25787610D01*
X-2746150Y-25688983D01*
X-2752067Y-25685148D01*
X-2752069Y-25685146D01*
X-2849477Y-25622010D01*
X-2849479Y-25622009D01*
X-2855399Y-25618172D01*
X-2980130Y-25580870D01*
X-3053407Y-25580422D01*
X-3103266Y-25580117D01*
X-3103267Y-25580117D01*
X-3110317Y-25580074D01*
X-3117094Y-25582011D01*
X-3117095Y-25582011D01*
X-3228715Y-25613912D01*
X-3228717Y-25613913D01*
X-3235495Y-25615850D01*
X-3345600Y-25685321D01*
X-3350267Y-25690605D01*
X-3350269Y-25690607D01*
X-3353554Y-25694327D01*
X-3431781Y-25782903D01*
X-3487110Y-25900751D01*
X-3507140Y-26029390D01*
X-20230779Y-26029390D01*
X-20215508Y-25913396D01*
X-20195494Y-25455000D01*
X-20215508Y-24996604D01*
X-20235547Y-24844390D01*
X-20275116Y-24543834D01*
X-20275118Y-24543822D01*
X-20275398Y-24541696D01*
X-20374707Y-24093740D01*
X-20512681Y-23656143D01*
X-20688269Y-23232237D01*
X-20900134Y-22825247D01*
X-21008177Y-22655653D01*
X-21145506Y-22440090D01*
X-21145508Y-22440087D01*
X-21146665Y-22438271D01*
X-21333802Y-22194390D01*
X-6559140Y-22194390D01*
X-6542259Y-22323481D01*
X-6539421Y-22329932D01*
X-6539420Y-22329934D01*
X-6535165Y-22339604D01*
X-6489826Y-22442645D01*
X-6485289Y-22448042D01*
X-6485288Y-22448044D01*
X-6437740Y-22504609D01*
X-6406054Y-22542303D01*
X-6400183Y-22546211D01*
X-6400182Y-22546212D01*
X-6373570Y-22563927D01*
X-6297680Y-22614444D01*
X-6290953Y-22616546D01*
X-6290950Y-22616547D01*
X-6180145Y-22651164D01*
X-6180144Y-22651164D01*
X-6173413Y-22653267D01*
X-6106506Y-22654493D01*
X-6050298Y-22655524D01*
X-6050296Y-22655524D01*
X-6043245Y-22655653D01*
X-6036442Y-22653798D01*
X-6036440Y-22653798D01*
X-5968846Y-22635369D01*
X-5917640Y-22621409D01*
X-5806694Y-22553288D01*
X-5719328Y-22456767D01*
X-5662563Y-22339604D01*
X-5656629Y-22304338D01*
X-5641597Y-22214989D01*
X-5641597Y-22214985D01*
X-5640963Y-22211219D01*
X-5640826Y-22200000D01*
X-5659282Y-22071125D01*
X-5664627Y-22059368D01*
X-5710247Y-21959034D01*
X-5710248Y-21959033D01*
X-5713168Y-21952610D01*
X-5798150Y-21853983D01*
X-5804067Y-21850148D01*
X-5804069Y-21850146D01*
X-5901477Y-21787010D01*
X-5901479Y-21787009D01*
X-5907399Y-21783172D01*
X-6032130Y-21745870D01*
X-6105407Y-21745422D01*
X-6155266Y-21745117D01*
X-6155267Y-21745117D01*
X-6162317Y-21745074D01*
X-6169094Y-21747011D01*
X-6169095Y-21747011D01*
X-6280715Y-21778912D01*
X-6280717Y-21778913D01*
X-6287495Y-21780850D01*
X-6397600Y-21850321D01*
X-6402267Y-21855605D01*
X-6402269Y-21855607D01*
X-6479111Y-21942615D01*
X-6483781Y-21947903D01*
X-6539110Y-22065751D01*
X-6559140Y-22194390D01*
X-21333802Y-22194390D01*
X-21425985Y-22074255D01*
X-21735968Y-21735968D01*
X-22074255Y-21425985D01*
X-22438271Y-21146665D01*
X-22825247Y-20900134D01*
X-22879833Y-20871718D01*
X-22992244Y-20813201D01*
X-23232237Y-20688269D01*
X-23656143Y-20512681D01*
X-24093740Y-20374707D01*
X-24095852Y-20374239D01*
X-24095855Y-20374238D01*
X-24188308Y-20353742D01*
X-24541696Y-20275398D01*
X-24543822Y-20275118D01*
X-24543834Y-20275116D01*
X-24844390Y-20235547D01*
X-24996604Y-20215508D01*
X-25455000Y-20195494D01*
X-25913396Y-20215508D01*
X-26065610Y-20235547D01*
X-26366166Y-20275116D01*
X-26366178Y-20275118D01*
X-26368304Y-20275398D01*
X-26721692Y-20353742D01*
X-26814145Y-20374238D01*
X-26814148Y-20374239D01*
X-26816260Y-20374707D01*
X-26895842Y-20399799D01*
X-26957024Y-20399265D01*
X-26995615Y-20375385D01*
X-29088610Y-18282390D01*
X-8714140Y-18282390D01*
X-8697259Y-18411481D01*
X-8694421Y-18417932D01*
X-8694420Y-18417934D01*
X-8690165Y-18427604D01*
X-8644826Y-18530645D01*
X-8640289Y-18536042D01*
X-8640288Y-18536044D01*
X-8592740Y-18592609D01*
X-8561054Y-18630303D01*
X-8555183Y-18634211D01*
X-8555182Y-18634212D01*
X-8528570Y-18651927D01*
X-8452680Y-18702444D01*
X-8445953Y-18704546D01*
X-8445950Y-18704547D01*
X-8335145Y-18739164D01*
X-8335144Y-18739164D01*
X-8328413Y-18741267D01*
X-8261506Y-18742493D01*
X-8205298Y-18743524D01*
X-8205296Y-18743524D01*
X-8198245Y-18743653D01*
X-8191442Y-18741798D01*
X-8191440Y-18741798D01*
X-8123846Y-18723369D01*
X-8072640Y-18709409D01*
X-7961694Y-18641288D01*
X-7874328Y-18544767D01*
X-7817563Y-18427604D01*
X-7795963Y-18299219D01*
X-7795826Y-18288000D01*
X-7814282Y-18159125D01*
X-7819627Y-18147368D01*
X-7865247Y-18047034D01*
X-7865248Y-18047033D01*
X-7868168Y-18040610D01*
X-7953150Y-17941983D01*
X-7959067Y-17938148D01*
X-7959069Y-17938146D01*
X-8056477Y-17875010D01*
X-8056479Y-17875009D01*
X-8062399Y-17871172D01*
X-8187130Y-17833870D01*
X-8260407Y-17833422D01*
X-8310266Y-17833117D01*
X-8310267Y-17833117D01*
X-8317317Y-17833074D01*
X-8324094Y-17835011D01*
X-8324095Y-17835011D01*
X-8435715Y-17866912D01*
X-8435717Y-17866913D01*
X-8442495Y-17868850D01*
X-8552600Y-17938321D01*
X-8557267Y-17943605D01*
X-8557269Y-17943607D01*
X-8560554Y-17947327D01*
X-8638781Y-18035903D01*
X-8694110Y-18153751D01*
X-8714140Y-18282390D01*
X-29088610Y-18282390D01*
X-32812932Y-14558068D01*
X-32817360Y-14553339D01*
X-32924589Y-14431068D01*
X-32983431Y-14363972D01*
X-32991307Y-14353708D01*
X-32997533Y-14344390D01*
X-27209140Y-14344390D01*
X-27192259Y-14473481D01*
X-27189421Y-14479932D01*
X-27189420Y-14479934D01*
X-27186028Y-14487642D01*
X-27139826Y-14592645D01*
X-27135288Y-14598044D01*
X-27135287Y-14598045D01*
X-27058641Y-14689225D01*
X-27035670Y-14745935D01*
X-27050420Y-14805316D01*
X-27060213Y-14818456D01*
X-27104660Y-14868782D01*
X-27159989Y-14986630D01*
X-27180019Y-15115269D01*
X-27163138Y-15244360D01*
X-27160300Y-15250811D01*
X-27160299Y-15250813D01*
X-27156044Y-15260483D01*
X-27110705Y-15363524D01*
X-27106167Y-15368923D01*
X-27106166Y-15368924D01*
X-27075437Y-15405480D01*
X-27052466Y-15462190D01*
X-27067216Y-15521571D01*
X-27077015Y-15534717D01*
X-27097495Y-15557907D01*
X-27125539Y-15589661D01*
X-27180868Y-15707509D01*
X-27200898Y-15836148D01*
X-27184017Y-15965239D01*
X-27181179Y-15971690D01*
X-27181178Y-15971692D01*
X-27176923Y-15981362D01*
X-27131584Y-16084403D01*
X-27127047Y-16089800D01*
X-27127046Y-16089802D01*
X-27079498Y-16146367D01*
X-27047812Y-16184061D01*
X-27041941Y-16187969D01*
X-27041940Y-16187970D01*
X-27015328Y-16205685D01*
X-26939438Y-16256202D01*
X-26932711Y-16258304D01*
X-26932708Y-16258305D01*
X-26821903Y-16292922D01*
X-26821902Y-16292922D01*
X-26815171Y-16295025D01*
X-26748264Y-16296251D01*
X-26692056Y-16297282D01*
X-26692054Y-16297282D01*
X-26685003Y-16297411D01*
X-26678200Y-16295556D01*
X-26678198Y-16295556D01*
X-26610604Y-16277127D01*
X-26559398Y-16263167D01*
X-26448452Y-16195046D01*
X-26361086Y-16098525D01*
X-26304321Y-15981362D01*
X-26282721Y-15852977D01*
X-26282584Y-15841758D01*
X-26301040Y-15712883D01*
X-26306385Y-15701126D01*
X-26352005Y-15600792D01*
X-26352006Y-15600791D01*
X-26354926Y-15594368D01*
X-26386343Y-15557906D01*
X-26410004Y-15501482D01*
X-26395980Y-15441926D01*
X-26384742Y-15426848D01*
X-26344939Y-15382874D01*
X-26344939Y-15382873D01*
X-26340207Y-15377646D01*
X-26332331Y-15361390D01*
X-459140Y-15361390D01*
X-442259Y-15490481D01*
X-439421Y-15496932D01*
X-439420Y-15496934D01*
X-435165Y-15506604D01*
X-389826Y-15609645D01*
X-385289Y-15615042D01*
X-385288Y-15615044D01*
X-366913Y-15636903D01*
X-306054Y-15709303D01*
X-300183Y-15713211D01*
X-300182Y-15713212D01*
X-273570Y-15730927D01*
X-197680Y-15781444D01*
X-190953Y-15783546D01*
X-190950Y-15783547D01*
X-80145Y-15818164D01*
X-80144Y-15818164D01*
X-73413Y-15820267D01*
X-6506Y-15821493D01*
X49702Y-15822524D01*
X49704Y-15822524D01*
X56755Y-15822653D01*
X63558Y-15820798D01*
X63560Y-15820798D01*
X131154Y-15802369D01*
X182360Y-15788409D01*
X293306Y-15720288D01*
X310651Y-15701126D01*
X375940Y-15628995D01*
X375940Y-15628994D01*
X380672Y-15623767D01*
X437437Y-15506604D01*
X440475Y-15488551D01*
X458403Y-15381989D01*
X458403Y-15381985D01*
X459037Y-15378219D01*
X459174Y-15367000D01*
X440718Y-15238125D01*
X435373Y-15226368D01*
X389753Y-15126034D01*
X389752Y-15126033D01*
X386832Y-15119610D01*
X301850Y-15020983D01*
X295933Y-15017148D01*
X295931Y-15017146D01*
X198523Y-14954010D01*
X198521Y-14954009D01*
X192601Y-14950172D01*
X67870Y-14912870D01*
X-5407Y-14912422D01*
X-55266Y-14912117D01*
X-55267Y-14912117D01*
X-62317Y-14912074D01*
X-69094Y-14914011D01*
X-69095Y-14914011D01*
X-180715Y-14945912D01*
X-180717Y-14945913D01*
X-187495Y-14947850D01*
X-297600Y-15017321D01*
X-302267Y-15022605D01*
X-302269Y-15022607D01*
X-377945Y-15108295D01*
X-383781Y-15114903D01*
X-439110Y-15232751D01*
X-459140Y-15361390D01*
X-26332331Y-15361390D01*
X-26283442Y-15260483D01*
X-26268676Y-15172721D01*
X-26262476Y-15135868D01*
X-26262476Y-15135864D01*
X-26261842Y-15132098D01*
X-26261705Y-15120879D01*
X-26280161Y-14992004D01*
X-26285506Y-14980247D01*
X-26331126Y-14879913D01*
X-26331127Y-14879912D01*
X-26334047Y-14873489D01*
X-26411920Y-14783112D01*
X-26435581Y-14726687D01*
X-26421557Y-14667130D01*
X-26410319Y-14652053D01*
X-26374060Y-14611995D01*
X-26374060Y-14611994D01*
X-26369328Y-14606767D01*
X-26312563Y-14489604D01*
X-26302714Y-14431068D01*
X-26291597Y-14364989D01*
X-26291597Y-14364985D01*
X-26290963Y-14361219D01*
X-26290826Y-14350000D01*
X-26309282Y-14221125D01*
X-26314627Y-14209368D01*
X-26343835Y-14145129D01*
X-639879Y-14145129D01*
X-622998Y-14274220D01*
X-620160Y-14280671D01*
X-620159Y-14280673D01*
X-615904Y-14290343D01*
X-570565Y-14393384D01*
X-566028Y-14398781D01*
X-566027Y-14398783D01*
X-542863Y-14426339D01*
X-486793Y-14493042D01*
X-480922Y-14496950D01*
X-480921Y-14496951D01*
X-454309Y-14514666D01*
X-378419Y-14565183D01*
X-371692Y-14567285D01*
X-371689Y-14567286D01*
X-260884Y-14601903D01*
X-260883Y-14601903D01*
X-254152Y-14604006D01*
X-187245Y-14605232D01*
X-131037Y-14606263D01*
X-131035Y-14606263D01*
X-123984Y-14606392D01*
X-117181Y-14604537D01*
X-117179Y-14604537D01*
X-49585Y-14586108D01*
X1621Y-14572148D01*
X112567Y-14504027D01*
X199933Y-14407506D01*
X256698Y-14290343D01*
X265678Y-14236972D01*
X277664Y-14165728D01*
X277664Y-14165724D01*
X278298Y-14161958D01*
X278435Y-14150739D01*
X272463Y-14109034D01*
X260979Y-14028847D01*
X259979Y-14021864D01*
X254634Y-14010107D01*
X209014Y-13909773D01*
X209013Y-13909772D01*
X206093Y-13903349D01*
X121111Y-13804722D01*
X115194Y-13800887D01*
X115192Y-13800885D01*
X17784Y-13737749D01*
X17782Y-13737748D01*
X11862Y-13733911D01*
X-112869Y-13696609D01*
X-186146Y-13696161D01*
X-236005Y-13695856D01*
X-236006Y-13695856D01*
X-243056Y-13695813D01*
X-249833Y-13697750D01*
X-249834Y-13697750D01*
X-361454Y-13729651D01*
X-361456Y-13729652D01*
X-368234Y-13731589D01*
X-478339Y-13801060D01*
X-483006Y-13806344D01*
X-483008Y-13806346D01*
X-486293Y-13810066D01*
X-564520Y-13898642D01*
X-619849Y-14016490D01*
X-639879Y-14145129D01*
X-26343835Y-14145129D01*
X-26360247Y-14109034D01*
X-26360248Y-14109033D01*
X-26363168Y-14102610D01*
X-26426726Y-14028847D01*
X-26443545Y-14009327D01*
X-26443546Y-14009326D01*
X-26448150Y-14003983D01*
X-26454067Y-14000148D01*
X-26454069Y-14000146D01*
X-26551477Y-13937010D01*
X-26551479Y-13937009D01*
X-26557399Y-13933172D01*
X-26682130Y-13895870D01*
X-26755407Y-13895422D01*
X-26805266Y-13895117D01*
X-26805267Y-13895117D01*
X-26812317Y-13895074D01*
X-26819094Y-13897011D01*
X-26819095Y-13897011D01*
X-26930715Y-13928912D01*
X-26930717Y-13928913D01*
X-26937495Y-13930850D01*
X-27047600Y-14000321D01*
X-27052267Y-14005605D01*
X-27052269Y-14005607D01*
X-27129111Y-14092615D01*
X-27133781Y-14097903D01*
X-27189110Y-14215751D01*
X-27209140Y-14344390D01*
X-32997533Y-14344390D01*
X-33129451Y-14146961D01*
X-33135922Y-14135751D01*
X-33245888Y-13912761D01*
X-33250844Y-13900798D01*
X-33251830Y-13897892D01*
X-33330767Y-13665353D01*
X-33334118Y-13652848D01*
X-33382626Y-13408980D01*
X-33384315Y-13396148D01*
X-33392638Y-13269148D01*
X-33400788Y-13144807D01*
X-33401000Y-13138333D01*
X-33401000Y-12581470D01*
X-2496583Y-12581470D01*
X-2479702Y-12710561D01*
X-2476864Y-12717012D01*
X-2476863Y-12717014D01*
X-2472608Y-12726684D01*
X-2427269Y-12829725D01*
X-2422732Y-12835122D01*
X-2422731Y-12835124D01*
X-2375183Y-12891689D01*
X-2343497Y-12929383D01*
X-2337626Y-12933291D01*
X-2337625Y-12933292D01*
X-2311013Y-12951007D01*
X-2235123Y-13001524D01*
X-2228396Y-13003626D01*
X-2228393Y-13003627D01*
X-2117588Y-13038244D01*
X-2117587Y-13038244D01*
X-2110856Y-13040347D01*
X-2043949Y-13041573D01*
X-1987741Y-13042604D01*
X-1987739Y-13042604D01*
X-1980688Y-13042733D01*
X-1973885Y-13040878D01*
X-1973883Y-13040878D01*
X-1865515Y-13011333D01*
X-1855083Y-13008489D01*
X-1744137Y-12940368D01*
X-1656771Y-12843847D01*
X-1600006Y-12726684D01*
X-1578406Y-12598299D01*
X-1578269Y-12587080D01*
X-1596725Y-12458205D01*
X-1602070Y-12446448D01*
X-1647690Y-12346114D01*
X-1647691Y-12346113D01*
X-1650611Y-12339690D01*
X-1706973Y-12274278D01*
X-1730988Y-12246407D01*
X-1730989Y-12246406D01*
X-1735593Y-12241063D01*
X-1741510Y-12237228D01*
X-1741512Y-12237226D01*
X-1838920Y-12174090D01*
X-1838922Y-12174089D01*
X-1844842Y-12170252D01*
X-1969573Y-12132950D01*
X-2042850Y-12132502D01*
X-2092709Y-12132197D01*
X-2092710Y-12132197D01*
X-2099760Y-12132154D01*
X-2106537Y-12134091D01*
X-2106538Y-12134091D01*
X-2218158Y-12165992D01*
X-2218160Y-12165993D01*
X-2224938Y-12167930D01*
X-2335043Y-12237401D01*
X-2339710Y-12242685D01*
X-2339712Y-12242687D01*
X-2416554Y-12329695D01*
X-2421224Y-12334983D01*
X-2476553Y-12452831D01*
X-2496583Y-12581470D01*
X-33401000Y-12581470D01*
X-33401000Y-11295691D01*
X-33382093Y-11237500D01*
X-33332593Y-11201536D01*
X-33271407Y-11201536D01*
X-33226217Y-11231989D01*
X-33199054Y-11264303D01*
X-33193183Y-11268211D01*
X-33193182Y-11268212D01*
X-33166570Y-11285927D01*
X-33090680Y-11336444D01*
X-33083953Y-11338546D01*
X-33083950Y-11338547D01*
X-32973145Y-11373164D01*
X-32973144Y-11373164D01*
X-32966413Y-11375267D01*
X-32899506Y-11376493D01*
X-32843298Y-11377524D01*
X-32843296Y-11377524D01*
X-32836245Y-11377653D01*
X-32829442Y-11375798D01*
X-32829440Y-11375798D01*
X-32748255Y-11353664D01*
X-32710640Y-11343409D01*
X-32599694Y-11275288D01*
X-32563473Y-11235272D01*
X-32517060Y-11183995D01*
X-32517060Y-11183994D01*
X-32512328Y-11178767D01*
X-32455563Y-11061604D01*
X-32450457Y-11031259D01*
X-32434597Y-10936989D01*
X-32434597Y-10936985D01*
X-32433963Y-10933219D01*
X-32433826Y-10922000D01*
X-32438981Y-10886000D01*
X-32449299Y-10813953D01*
X-32452282Y-10793125D01*
X-32467413Y-10759845D01*
X-32503247Y-10681034D01*
X-32503248Y-10681033D01*
X-32506168Y-10674610D01*
X-32537933Y-10637745D01*
X-7576729Y-10637745D01*
X-7575814Y-10644742D01*
X-7575814Y-10644743D01*
X-7572773Y-10668000D01*
X-7559848Y-10766836D01*
X-7507415Y-10886000D01*
X-7502878Y-10891397D01*
X-7502877Y-10891399D01*
X-7423643Y-10985658D01*
X-7425258Y-10987015D01*
X-7399508Y-11031259D01*
X-7406656Y-11094251D01*
X-7412469Y-11106633D01*
X-7413554Y-11113604D01*
X-7413555Y-11113606D01*
X-7415099Y-11123524D01*
X-7432499Y-11235272D01*
X-7431584Y-11242269D01*
X-7431584Y-11242270D01*
X-7427950Y-11270057D01*
X-7415618Y-11364363D01*
X-7412780Y-11370814D01*
X-7412779Y-11370816D01*
X-7408524Y-11380486D01*
X-7363185Y-11483527D01*
X-7358648Y-11488924D01*
X-7358647Y-11488926D01*
X-7342613Y-11508000D01*
X-7279413Y-11583185D01*
X-7171039Y-11655326D01*
X-7164312Y-11657428D01*
X-7164309Y-11657429D01*
X-7053504Y-11692046D01*
X-7053503Y-11692046D01*
X-7046772Y-11694149D01*
X-6979865Y-11695375D01*
X-6923657Y-11696406D01*
X-6923655Y-11696406D01*
X-6916604Y-11696535D01*
X-6909800Y-11694680D01*
X-6902799Y-11693808D01*
X-6902392Y-11697080D01*
X-6855078Y-11699330D01*
X-6807343Y-11737606D01*
X-6791222Y-11796629D01*
X-6792289Y-11807156D01*
X-6809140Y-11915380D01*
X-6792259Y-12044471D01*
X-6789421Y-12050922D01*
X-6789420Y-12050924D01*
X-6785165Y-12060594D01*
X-6739826Y-12163635D01*
X-6735289Y-12169032D01*
X-6735288Y-12169034D01*
X-6687740Y-12225599D01*
X-6656054Y-12263293D01*
X-6650183Y-12267201D01*
X-6650182Y-12267202D01*
X-6623570Y-12284917D01*
X-6547680Y-12335434D01*
X-6540953Y-12337536D01*
X-6540950Y-12337537D01*
X-6430145Y-12372154D01*
X-6430144Y-12372154D01*
X-6423413Y-12374257D01*
X-6356506Y-12375483D01*
X-6300298Y-12376514D01*
X-6300296Y-12376514D01*
X-6293245Y-12376643D01*
X-6286442Y-12374788D01*
X-6286440Y-12374788D01*
X-6218846Y-12356359D01*
X-6167640Y-12342399D01*
X-6056694Y-12274278D01*
X-6031466Y-12246407D01*
X-5974060Y-12182985D01*
X-5974060Y-12182984D01*
X-5969328Y-12177757D01*
X-5912563Y-12060594D01*
X-5890963Y-11932209D01*
X-5890826Y-11920990D01*
X-5909282Y-11792115D01*
X-5952798Y-11696406D01*
X-5960247Y-11680024D01*
X-5960248Y-11680023D01*
X-5963168Y-11673600D01*
X-6048150Y-11574973D01*
X-6054067Y-11571138D01*
X-6054069Y-11571136D01*
X-6151477Y-11508000D01*
X-6151479Y-11507999D01*
X-6157399Y-11504162D01*
X-6282130Y-11466860D01*
X-6351046Y-11466439D01*
X-6405263Y-11466107D01*
X-6405264Y-11466107D01*
X-6412317Y-11466064D01*
X-6419099Y-11468002D01*
X-6420345Y-11468173D01*
X-6480564Y-11457338D01*
X-6522913Y-11413177D01*
X-6531409Y-11353664D01*
X-6514956Y-11255871D01*
X-6514956Y-11255867D01*
X-6514322Y-11252101D01*
X-6514185Y-11240882D01*
X-6532641Y-11112007D01*
X-6540713Y-11094252D01*
X-6583606Y-10999916D01*
X-6583607Y-10999915D01*
X-6586527Y-10993492D01*
X-6669296Y-10897433D01*
X-6692957Y-10841008D01*
X-6684625Y-10796262D01*
X-6685371Y-10796024D01*
X-6683473Y-10790076D01*
X-6683393Y-10789648D01*
X-6683226Y-10789304D01*
X-6683226Y-10789303D01*
X-6680152Y-10782959D01*
X-6676263Y-10759845D01*
X-6659867Y-10662390D01*
X-2364140Y-10662390D01*
X-2347259Y-10791481D01*
X-2344421Y-10797932D01*
X-2344420Y-10797934D01*
X-2340165Y-10807604D01*
X-2294826Y-10910645D01*
X-2290289Y-10916042D01*
X-2290288Y-10916044D01*
X-2242740Y-10972609D01*
X-2211054Y-11010303D01*
X-2205183Y-11014211D01*
X-2205182Y-11014212D01*
X-2179573Y-11031259D01*
X-2102680Y-11082444D01*
X-2095953Y-11084546D01*
X-2095950Y-11084547D01*
X-1985145Y-11119164D01*
X-1985144Y-11119164D01*
X-1978413Y-11121267D01*
X-1911506Y-11122493D01*
X-1855298Y-11123524D01*
X-1855296Y-11123524D01*
X-1848245Y-11123653D01*
X-1841442Y-11121798D01*
X-1841440Y-11121798D01*
X-1773846Y-11103369D01*
X-1722640Y-11089409D01*
X-1611694Y-11021288D01*
X-1581695Y-10988146D01*
X-1529060Y-10929995D01*
X-1529060Y-10929994D01*
X-1524328Y-10924767D01*
X-1467563Y-10807604D01*
X-1466301Y-10800108D01*
X-1446597Y-10682989D01*
X-1446597Y-10682985D01*
X-1445963Y-10679219D01*
X-1445826Y-10668000D01*
X-1451157Y-10630771D01*
X-1463282Y-10546108D01*
X-1464282Y-10539125D01*
X-1469627Y-10527368D01*
X-1515247Y-10427034D01*
X-1515248Y-10427033D01*
X-1518168Y-10420610D01*
X-1603150Y-10321983D01*
X-1609067Y-10318148D01*
X-1609069Y-10318146D01*
X-1706477Y-10255010D01*
X-1706479Y-10255009D01*
X-1712399Y-10251172D01*
X-1837130Y-10213870D01*
X-1910407Y-10213422D01*
X-1960266Y-10213117D01*
X-1960267Y-10213117D01*
X-1967317Y-10213074D01*
X-1974094Y-10215011D01*
X-1974095Y-10215011D01*
X-2085715Y-10246912D01*
X-2085717Y-10246913D01*
X-2092495Y-10248850D01*
X-2202600Y-10318321D01*
X-2207267Y-10323605D01*
X-2207269Y-10323607D01*
X-2272654Y-10397642D01*
X-2288781Y-10415903D01*
X-2344110Y-10533751D01*
X-2364140Y-10662390D01*
X-6659867Y-10662390D01*
X-6659186Y-10658344D01*
X-6659186Y-10658340D01*
X-6658552Y-10654574D01*
X-6658415Y-10643355D01*
X-6676871Y-10514480D01*
X-6680447Y-10506613D01*
X-6727836Y-10402389D01*
X-6727837Y-10402388D01*
X-6730757Y-10395965D01*
X-6793104Y-10323607D01*
X-6811134Y-10302682D01*
X-6811135Y-10302681D01*
X-6815739Y-10297338D01*
X-6821656Y-10293503D01*
X-6821658Y-10293501D01*
X-6919066Y-10230365D01*
X-6919068Y-10230364D01*
X-6924988Y-10226527D01*
X-7049719Y-10189225D01*
X-7122996Y-10188777D01*
X-7172855Y-10188472D01*
X-7172856Y-10188472D01*
X-7179906Y-10188429D01*
X-7186683Y-10190366D01*
X-7186684Y-10190366D01*
X-7298304Y-10222267D01*
X-7298306Y-10222268D01*
X-7305084Y-10224205D01*
X-7415189Y-10293676D01*
X-7419856Y-10298960D01*
X-7419858Y-10298962D01*
X-7492361Y-10381057D01*
X-7501370Y-10391258D01*
X-7556699Y-10509106D01*
X-7576729Y-10637745D01*
X-32537933Y-10637745D01*
X-32559619Y-10612577D01*
X-32586545Y-10581327D01*
X-32586546Y-10581326D01*
X-32591150Y-10575983D01*
X-32597067Y-10572148D01*
X-32597069Y-10572146D01*
X-32694477Y-10509010D01*
X-32694479Y-10509009D01*
X-32700399Y-10505172D01*
X-32825130Y-10467870D01*
X-32898407Y-10467422D01*
X-32948266Y-10467117D01*
X-32948267Y-10467117D01*
X-32955317Y-10467074D01*
X-32962094Y-10469011D01*
X-32962095Y-10469011D01*
X-33073715Y-10500912D01*
X-33073717Y-10500913D01*
X-33080495Y-10502850D01*
X-33190600Y-10572321D01*
X-33195267Y-10577605D01*
X-33195269Y-10577607D01*
X-33227796Y-10614438D01*
X-33280487Y-10645538D01*
X-33341396Y-10639728D01*
X-33387257Y-10599225D01*
X-33401000Y-10548904D01*
X-33401000Y-10027390D01*
X-11889138Y-10027390D01*
X-11872257Y-10156481D01*
X-11869419Y-10162932D01*
X-11869418Y-10162934D01*
X-11857347Y-10190366D01*
X-11819824Y-10275645D01*
X-11815287Y-10281042D01*
X-11815286Y-10281044D01*
X-11801589Y-10297338D01*
X-11736052Y-10375303D01*
X-11730181Y-10379211D01*
X-11730180Y-10379212D01*
X-11713044Y-10390619D01*
X-11627678Y-10447444D01*
X-11620951Y-10449546D01*
X-11620948Y-10449547D01*
X-11510143Y-10484164D01*
X-11510142Y-10484164D01*
X-11503411Y-10486267D01*
X-11436504Y-10487493D01*
X-11380296Y-10488524D01*
X-11380294Y-10488524D01*
X-11373243Y-10488653D01*
X-11366440Y-10486798D01*
X-11366438Y-10486798D01*
X-11294250Y-10467117D01*
X-11247638Y-10454409D01*
X-11136692Y-10386288D01*
X-11071765Y-10314558D01*
X-11054058Y-10294995D01*
X-11054058Y-10294994D01*
X-11049326Y-10289767D01*
X-10992561Y-10172604D01*
X-10970961Y-10044219D01*
X-10970824Y-10033000D01*
X-10989280Y-9904125D01*
X-10994625Y-9892368D01*
X-11040245Y-9792034D01*
X-11040246Y-9792033D01*
X-11043166Y-9785610D01*
X-11128148Y-9686983D01*
X-11134065Y-9683148D01*
X-11134067Y-9683146D01*
X-11231475Y-9620010D01*
X-11231477Y-9620009D01*
X-11237397Y-9616172D01*
X-11362128Y-9578870D01*
X-11435405Y-9578422D01*
X-11485264Y-9578117D01*
X-11485265Y-9578117D01*
X-11492315Y-9578074D01*
X-11499092Y-9580011D01*
X-11499093Y-9580011D01*
X-11610713Y-9611912D01*
X-11610715Y-9611913D01*
X-11617493Y-9613850D01*
X-11727598Y-9683321D01*
X-11732265Y-9688605D01*
X-11732267Y-9688607D01*
X-11784635Y-9747903D01*
X-11813779Y-9780903D01*
X-11869108Y-9898751D01*
X-11889138Y-10027390D01*
X-33401000Y-10027390D01*
X-33401000Y-2923512D01*
X-24988262Y-2923512D01*
X-24971381Y-3052603D01*
X-24968543Y-3059054D01*
X-24968542Y-3059056D01*
X-24964287Y-3068726D01*
X-24918948Y-3171767D01*
X-24914411Y-3177164D01*
X-24914410Y-3177166D01*
X-24891403Y-3204536D01*
X-24835176Y-3271425D01*
X-24829305Y-3275333D01*
X-24829304Y-3275334D01*
X-24802692Y-3293049D01*
X-24726802Y-3343566D01*
X-24720075Y-3345668D01*
X-24720072Y-3345669D01*
X-24609267Y-3380286D01*
X-24609266Y-3380286D01*
X-24602535Y-3382389D01*
X-24535628Y-3383615D01*
X-24479420Y-3384646D01*
X-24479418Y-3384646D01*
X-24472367Y-3384775D01*
X-24465564Y-3382920D01*
X-24465562Y-3382920D01*
X-24397968Y-3364491D01*
X-24346762Y-3350531D01*
X-24235816Y-3282410D01*
X-24148450Y-3185889D01*
X-24091685Y-3068726D01*
X-24088663Y-3050767D01*
X-24070719Y-2944111D01*
X-24070719Y-2944107D01*
X-24070085Y-2940341D01*
X-24069948Y-2929122D01*
X-24088404Y-2800247D01*
X-24093749Y-2788490D01*
X-24093794Y-2788390D01*
X9065860Y-2788390D01*
X9066775Y-2795387D01*
X9066775Y-2795388D01*
X9067561Y-2801398D01*
X9082741Y-2917481D01*
X9085579Y-2923932D01*
X9085580Y-2923934D01*
X9094458Y-2944111D01*
X9135174Y-3036645D01*
X9139711Y-3042042D01*
X9139712Y-3042044D01*
X9156292Y-3061768D01*
X9218946Y-3136303D01*
X9224817Y-3140211D01*
X9224818Y-3140212D01*
X9251430Y-3157927D01*
X9327320Y-3208444D01*
X9334047Y-3210546D01*
X9334050Y-3210547D01*
X9444855Y-3245164D01*
X9444856Y-3245164D01*
X9451587Y-3247267D01*
X9518494Y-3248493D01*
X9574702Y-3249524D01*
X9574704Y-3249524D01*
X9581755Y-3249653D01*
X9588558Y-3247798D01*
X9588560Y-3247798D01*
X9656154Y-3229369D01*
X9707360Y-3215409D01*
X9818306Y-3147288D01*
X9889417Y-3068726D01*
X9900940Y-3055995D01*
X9900940Y-3055994D01*
X9905672Y-3050767D01*
X9962437Y-2933604D01*
X9965309Y-2916538D01*
X9983403Y-2808989D01*
X9983403Y-2808985D01*
X9984037Y-2805219D01*
X9984174Y-2794000D01*
X9965718Y-2665125D01*
X9960373Y-2653368D01*
X9914753Y-2553034D01*
X9914752Y-2553033D01*
X9911832Y-2546610D01*
X9851865Y-2477014D01*
X9831455Y-2453327D01*
X9831454Y-2453326D01*
X9826850Y-2447983D01*
X9820933Y-2444148D01*
X9820931Y-2444146D01*
X9723523Y-2381010D01*
X9723521Y-2381009D01*
X9717601Y-2377172D01*
X9592870Y-2339870D01*
X9519593Y-2339422D01*
X9469734Y-2339117D01*
X9469733Y-2339117D01*
X9462683Y-2339074D01*
X9455906Y-2341011D01*
X9455905Y-2341011D01*
X9344285Y-2372912D01*
X9344283Y-2372913D01*
X9337505Y-2374850D01*
X9227400Y-2444321D01*
X9222733Y-2449605D01*
X9222731Y-2449607D01*
X9166096Y-2513735D01*
X9141219Y-2541903D01*
X9085890Y-2659751D01*
X9065860Y-2788390D01*
X-24093794Y-2788390D01*
X-24139369Y-2688156D01*
X-24139370Y-2688155D01*
X-24142290Y-2681732D01*
X-24202033Y-2612396D01*
X-24222667Y-2588449D01*
X-24222668Y-2588448D01*
X-24227272Y-2583105D01*
X-24233189Y-2579270D01*
X-24233191Y-2579268D01*
X-24330599Y-2516132D01*
X-24330601Y-2516131D01*
X-24336521Y-2512294D01*
X-24461252Y-2474992D01*
X-24534529Y-2474544D01*
X-24584388Y-2474239D01*
X-24584389Y-2474239D01*
X-24591439Y-2474196D01*
X-24598216Y-2476133D01*
X-24598217Y-2476133D01*
X-24709837Y-2508034D01*
X-24709839Y-2508035D01*
X-24716617Y-2509972D01*
X-24826722Y-2579443D01*
X-24831389Y-2584727D01*
X-24831391Y-2584729D01*
X-24903803Y-2666721D01*
X-24912903Y-2677025D01*
X-24968232Y-2794873D01*
X-24988262Y-2923512D01*
X-33401000Y-2923512D01*
X-33401000Y-1056824D01*
X-28293799Y-1056824D01*
X-28264190Y-1229141D01*
X-28261938Y-1234432D01*
X-28261938Y-1234434D01*
X-28197984Y-1384734D01*
X-28195733Y-1390024D01*
X-28150987Y-1450827D01*
X-28096442Y-1524945D01*
X-28092102Y-1530843D01*
X-28087720Y-1534565D01*
X-28087718Y-1534568D01*
X-27970380Y-1634253D01*
X-27958854Y-1644045D01*
X-27924032Y-1661826D01*
X-27808262Y-1720942D01*
X-27808259Y-1720943D01*
X-27803138Y-1723558D01*
X-27797553Y-1724925D01*
X-27797552Y-1724925D01*
X-27637587Y-1764068D01*
X-27637584Y-1764068D01*
X-27633307Y-1765115D01*
X-27628909Y-1765388D01*
X-27628908Y-1765388D01*
X-27623782Y-1765706D01*
X-27623780Y-1765706D01*
X-27622266Y-1765800D01*
X-27496221Y-1765800D01*
X-27490345Y-1765115D01*
X-27477222Y-1763585D01*
X-27366335Y-1750657D01*
X-27360929Y-1748695D01*
X-27360926Y-1748694D01*
X-27207393Y-1692964D01*
X-27201985Y-1691001D01*
X-27197176Y-1687848D01*
X-27197172Y-1687846D01*
X-27126067Y-1641227D01*
X-25534640Y-1641227D01*
X-25533725Y-1648224D01*
X-25533725Y-1648225D01*
X-25533406Y-1650664D01*
X-25517759Y-1770318D01*
X-25514921Y-1776769D01*
X-25514920Y-1776771D01*
X-25507454Y-1793738D01*
X-25465326Y-1889482D01*
X-25460789Y-1894879D01*
X-25460788Y-1894881D01*
X-25439682Y-1919989D01*
X-25381554Y-1989140D01*
X-25375683Y-1993048D01*
X-25375682Y-1993049D01*
X-25349412Y-2010536D01*
X-25273180Y-2061281D01*
X-25266453Y-2063383D01*
X-25266450Y-2063384D01*
X-25155645Y-2098001D01*
X-25155644Y-2098001D01*
X-25148913Y-2100104D01*
X-25082006Y-2101330D01*
X-25025798Y-2102361D01*
X-25025796Y-2102361D01*
X-25018745Y-2102490D01*
X-25011942Y-2100635D01*
X-25011940Y-2100635D01*
X-24944346Y-2082206D01*
X-24893140Y-2068246D01*
X-24782194Y-2000125D01*
X-24773600Y-1990631D01*
X-24699560Y-1908832D01*
X-24699560Y-1908831D01*
X-24694828Y-1903604D01*
X-24645049Y-1800860D01*
X-24641139Y-1792790D01*
X-24638063Y-1786441D01*
X-24636642Y-1777998D01*
X-24617097Y-1661826D01*
X-24617097Y-1661822D01*
X-24616463Y-1658056D01*
X-24616326Y-1646837D01*
X-24623576Y-1596208D01*
X-24623836Y-1594390D01*
X-24159140Y-1594390D01*
X-24142259Y-1723481D01*
X-24139421Y-1729932D01*
X-24139420Y-1729934D01*
X-24124613Y-1763585D01*
X-24089826Y-1842645D01*
X-24085289Y-1848042D01*
X-24085288Y-1848044D01*
X-24055882Y-1883026D01*
X-24006054Y-1942303D01*
X-24000183Y-1946211D01*
X-24000182Y-1946212D01*
X-23973570Y-1963927D01*
X-23897680Y-2014444D01*
X-23890953Y-2016546D01*
X-23890950Y-2016547D01*
X-23780145Y-2051164D01*
X-23780144Y-2051164D01*
X-23773413Y-2053267D01*
X-23706506Y-2054493D01*
X-23650298Y-2055524D01*
X-23650296Y-2055524D01*
X-23643245Y-2055653D01*
X-23636442Y-2053798D01*
X-23636440Y-2053798D01*
X-23534634Y-2026042D01*
X-23517640Y-2021409D01*
X-23406694Y-1953288D01*
X-23380139Y-1923951D01*
X-23357908Y-1899390D01*
X285860Y-1899390D01*
X286775Y-1906387D01*
X286775Y-1906388D01*
X291472Y-1942303D01*
X302741Y-2028481D01*
X305579Y-2034932D01*
X305580Y-2034934D01*
X318615Y-2064557D01*
X355174Y-2147645D01*
X359711Y-2153042D01*
X359712Y-2153044D01*
X389545Y-2188534D01*
X438946Y-2247303D01*
X444817Y-2251211D01*
X444818Y-2251212D01*
X471430Y-2268927D01*
X547320Y-2319444D01*
X554047Y-2321546D01*
X554050Y-2321547D01*
X664855Y-2356164D01*
X664856Y-2356164D01*
X671587Y-2358267D01*
X738494Y-2359493D01*
X794702Y-2360524D01*
X794704Y-2360524D01*
X801755Y-2360653D01*
X808558Y-2358798D01*
X808560Y-2358798D01*
X880748Y-2339117D01*
X927360Y-2326409D01*
X1038306Y-2258288D01*
X1064670Y-2229162D01*
X1120940Y-2166995D01*
X1120940Y-2166994D01*
X1125672Y-2161767D01*
X1181985Y-2045537D01*
X1224373Y-2001413D01*
X1284600Y-1990631D01*
X1339664Y-2017309D01*
X1361695Y-2048831D01*
X1385249Y-2102361D01*
X1405174Y-2147645D01*
X1409711Y-2153042D01*
X1409712Y-2153044D01*
X1439545Y-2188534D01*
X1488946Y-2247303D01*
X1494817Y-2251211D01*
X1494818Y-2251212D01*
X1521430Y-2268927D01*
X1597320Y-2319444D01*
X1604047Y-2321546D01*
X1604050Y-2321547D01*
X1714855Y-2356164D01*
X1714856Y-2356164D01*
X1721587Y-2358267D01*
X1788494Y-2359493D01*
X1844702Y-2360524D01*
X1844704Y-2360524D01*
X1851755Y-2360653D01*
X1858558Y-2358798D01*
X1858560Y-2358798D01*
X1930748Y-2339117D01*
X1977360Y-2326409D01*
X2088306Y-2258288D01*
X2114670Y-2229162D01*
X2170940Y-2166995D01*
X2170940Y-2166994D01*
X2175672Y-2161767D01*
X2179731Y-2153390D01*
X3604860Y-2153390D01*
X3621741Y-2282481D01*
X3624579Y-2288932D01*
X3624580Y-2288934D01*
X3628835Y-2298604D01*
X3674174Y-2401645D01*
X3678711Y-2407042D01*
X3678712Y-2407044D01*
X3706884Y-2440558D01*
X3757946Y-2501303D01*
X3763817Y-2505211D01*
X3763818Y-2505212D01*
X3780223Y-2516132D01*
X3866320Y-2573444D01*
X3873047Y-2575546D01*
X3873050Y-2575547D01*
X3983855Y-2610164D01*
X3983856Y-2610164D01*
X3990587Y-2612267D01*
X4057494Y-2613493D01*
X4113702Y-2614524D01*
X4113704Y-2614524D01*
X4120755Y-2614653D01*
X4127558Y-2612798D01*
X4127560Y-2612798D01*
X4195154Y-2594369D01*
X4246360Y-2580409D01*
X4357306Y-2512288D01*
X4391065Y-2474992D01*
X4439940Y-2420995D01*
X4439940Y-2420994D01*
X4444672Y-2415767D01*
X4501437Y-2298604D01*
X4509411Y-2251212D01*
X4522403Y-2173989D01*
X4522403Y-2173985D01*
X4523037Y-2170219D01*
X4523174Y-2159000D01*
X4504718Y-2030125D01*
X4500756Y-2021409D01*
X4453753Y-1918034D01*
X4453752Y-1918033D01*
X4450832Y-1911610D01*
X4388229Y-1838955D01*
X4370455Y-1818327D01*
X4370454Y-1818326D01*
X4365850Y-1812983D01*
X4359933Y-1809148D01*
X4359931Y-1809146D01*
X4303220Y-1772388D01*
X7541860Y-1772388D01*
X7558741Y-1901479D01*
X7561579Y-1907930D01*
X7561580Y-1907932D01*
X7568629Y-1923951D01*
X7611174Y-2020643D01*
X7615711Y-2026040D01*
X7615712Y-2026042D01*
X7647102Y-2063384D01*
X7694946Y-2120301D01*
X7700817Y-2124209D01*
X7700818Y-2124210D01*
X7726325Y-2141189D01*
X7803320Y-2192442D01*
X7810047Y-2194544D01*
X7810050Y-2194545D01*
X7920855Y-2229162D01*
X7920856Y-2229162D01*
X7927587Y-2231265D01*
X7994494Y-2232491D01*
X8050702Y-2233522D01*
X8050704Y-2233522D01*
X8057755Y-2233651D01*
X8064558Y-2231796D01*
X8064560Y-2231796D01*
X8132154Y-2213367D01*
X8183360Y-2199407D01*
X8294306Y-2131286D01*
X8320488Y-2102361D01*
X8376940Y-2039993D01*
X8376940Y-2039992D01*
X8381672Y-2034765D01*
X8438437Y-1917602D01*
X8439913Y-1908832D01*
X8459403Y-1792987D01*
X8459403Y-1792983D01*
X8460037Y-1789217D01*
X8460174Y-1777998D01*
X8452574Y-1724925D01*
X8442718Y-1656106D01*
X8441718Y-1649123D01*
X8436373Y-1637366D01*
X8390753Y-1537032D01*
X8390752Y-1537031D01*
X8387832Y-1530608D01*
X8302850Y-1431981D01*
X8296933Y-1428146D01*
X8296931Y-1428144D01*
X8199523Y-1365008D01*
X8199521Y-1365007D01*
X8193601Y-1361170D01*
X8068870Y-1323868D01*
X7995593Y-1323420D01*
X7945734Y-1323115D01*
X7945733Y-1323115D01*
X7938683Y-1323072D01*
X7931906Y-1325009D01*
X7931905Y-1325009D01*
X7820285Y-1356910D01*
X7820283Y-1356911D01*
X7813505Y-1358848D01*
X7703400Y-1428319D01*
X7698733Y-1433603D01*
X7698731Y-1433605D01*
X7624230Y-1517962D01*
X7617219Y-1525901D01*
X7561890Y-1643749D01*
X7541860Y-1772388D01*
X4303220Y-1772388D01*
X4262523Y-1746010D01*
X4262521Y-1746009D01*
X4256601Y-1742172D01*
X4131870Y-1704870D01*
X4058593Y-1704422D01*
X4008734Y-1704117D01*
X4008733Y-1704117D01*
X4001683Y-1704074D01*
X3994906Y-1706011D01*
X3994905Y-1706011D01*
X3883285Y-1737912D01*
X3883283Y-1737913D01*
X3876505Y-1739850D01*
X3766400Y-1809321D01*
X3761733Y-1814605D01*
X3761731Y-1814607D01*
X3685009Y-1901479D01*
X3680219Y-1906903D01*
X3624890Y-2024751D01*
X3604860Y-2153390D01*
X2179731Y-2153390D01*
X2224357Y-2061281D01*
X2229361Y-2050953D01*
X2232437Y-2044604D01*
X2233699Y-2037108D01*
X2253403Y-1919989D01*
X2253403Y-1919985D01*
X2254037Y-1916219D01*
X2254174Y-1905000D01*
X2235718Y-1776125D01*
X2231024Y-1765800D01*
X2184753Y-1664034D01*
X2184752Y-1664033D01*
X2181832Y-1657610D01*
X2096850Y-1558983D01*
X2090933Y-1555148D01*
X2090931Y-1555146D01*
X1993523Y-1492010D01*
X1993521Y-1492009D01*
X1987601Y-1488172D01*
X1862870Y-1450870D01*
X1789593Y-1450422D01*
X1739734Y-1450117D01*
X1739733Y-1450117D01*
X1732683Y-1450074D01*
X1725906Y-1452011D01*
X1725905Y-1452011D01*
X1614285Y-1483912D01*
X1614283Y-1483913D01*
X1607505Y-1485850D01*
X1497400Y-1555321D01*
X1492733Y-1560605D01*
X1492731Y-1560607D01*
X1444703Y-1614989D01*
X1411219Y-1652903D01*
X1393332Y-1691001D01*
X1359254Y-1763585D01*
X1317408Y-1808224D01*
X1257317Y-1819741D01*
X1201932Y-1793738D01*
X1179517Y-1762487D01*
X1170936Y-1743613D01*
X1153320Y-1704870D01*
X1134753Y-1664034D01*
X1134752Y-1664033D01*
X1131832Y-1657610D01*
X1046850Y-1558983D01*
X1040933Y-1555148D01*
X1040931Y-1555146D01*
X943523Y-1492010D01*
X943521Y-1492009D01*
X937601Y-1488172D01*
X812870Y-1450870D01*
X739593Y-1450422D01*
X689734Y-1450117D01*
X689733Y-1450117D01*
X682683Y-1450074D01*
X675906Y-1452011D01*
X675905Y-1452011D01*
X564285Y-1483912D01*
X564283Y-1483913D01*
X557505Y-1485850D01*
X447400Y-1555321D01*
X442733Y-1560605D01*
X442731Y-1560607D01*
X394703Y-1614989D01*
X361219Y-1652903D01*
X305890Y-1770751D01*
X285860Y-1899390D01*
X-23357908Y-1899390D01*
X-23324060Y-1861995D01*
X-23324060Y-1861994D01*
X-23319328Y-1856767D01*
X-23262563Y-1739604D01*
X-23256592Y-1704117D01*
X-23241597Y-1614989D01*
X-23241597Y-1614985D01*
X-23240963Y-1611219D01*
X-23240826Y-1600000D01*
X-23259282Y-1471125D01*
X-23262868Y-1463236D01*
X-23310247Y-1359034D01*
X-23310248Y-1359033D01*
X-23313168Y-1352610D01*
X-23398150Y-1253983D01*
X-23404067Y-1250148D01*
X-23404069Y-1250146D01*
X-23501477Y-1187010D01*
X-23501479Y-1187009D01*
X-23507399Y-1183172D01*
X-23632130Y-1145870D01*
X-23705407Y-1145422D01*
X-23755266Y-1145117D01*
X-23755267Y-1145117D01*
X-23762317Y-1145074D01*
X-23769094Y-1147011D01*
X-23769095Y-1147011D01*
X-23880715Y-1178912D01*
X-23880717Y-1178913D01*
X-23887495Y-1180850D01*
X-23997600Y-1250321D01*
X-24002267Y-1255605D01*
X-24002269Y-1255607D01*
X-24061851Y-1323072D01*
X-24083781Y-1347903D01*
X-24139110Y-1465751D01*
X-24159140Y-1594390D01*
X-24623836Y-1594390D01*
X-24633782Y-1524945D01*
X-24634782Y-1517962D01*
X-24640127Y-1506205D01*
X-24685747Y-1405871D01*
X-24685748Y-1405870D01*
X-24688668Y-1399447D01*
X-24752048Y-1325890D01*
X-24769045Y-1306164D01*
X-24769046Y-1306163D01*
X-24773650Y-1300820D01*
X-24779567Y-1296985D01*
X-24779569Y-1296983D01*
X-24876977Y-1233847D01*
X-24876979Y-1233846D01*
X-24882899Y-1230009D01*
X-25007630Y-1192707D01*
X-25080907Y-1192259D01*
X-25130766Y-1191954D01*
X-25130767Y-1191954D01*
X-25137817Y-1191911D01*
X-25144594Y-1193848D01*
X-25144595Y-1193848D01*
X-25256215Y-1225749D01*
X-25256217Y-1225750D01*
X-25262995Y-1227687D01*
X-25373100Y-1297158D01*
X-25377767Y-1302442D01*
X-25377769Y-1302444D01*
X-25429633Y-1361170D01*
X-25459281Y-1394740D01*
X-25514610Y-1512588D01*
X-25534640Y-1641227D01*
X-27126067Y-1641227D01*
X-27074470Y-1607398D01*
X-27055767Y-1595136D01*
X-26935525Y-1468205D01*
X-26875583Y-1365008D01*
X-26850597Y-1321991D01*
X-26850597Y-1321990D01*
X-26847708Y-1317017D01*
X-26820652Y-1227687D01*
X-26798694Y-1155187D01*
X-26798694Y-1155185D01*
X-26797027Y-1149682D01*
X-26786201Y-975176D01*
X-26815810Y-802859D01*
X-26838678Y-749115D01*
X-26882016Y-647266D01*
X-26884267Y-641976D01*
X-26950893Y-551441D01*
X-26984489Y-505789D01*
X-26984490Y-505788D01*
X-26987898Y-501157D01*
X-26992280Y-497435D01*
X-26992282Y-497432D01*
X-27116760Y-391681D01*
X-27116761Y-391680D01*
X-27121146Y-387955D01*
X-27206925Y-344154D01*
X-27271738Y-311058D01*
X-27271741Y-311057D01*
X-27276862Y-308442D01*
X-27282447Y-307075D01*
X-27282448Y-307075D01*
X-27442413Y-267932D01*
X-27442416Y-267932D01*
X-27446693Y-266885D01*
X-27451091Y-266612D01*
X-27451092Y-266612D01*
X-27456218Y-266294D01*
X-27456220Y-266294D01*
X-27457734Y-266200D01*
X-27583779Y-266200D01*
X-27586626Y-266532D01*
X-27586627Y-266532D01*
X-27597242Y-267770D01*
X-27713665Y-281343D01*
X-27719071Y-283305D01*
X-27719074Y-283306D01*
X-27784556Y-307075D01*
X-27878015Y-340999D01*
X-27882824Y-344152D01*
X-27882828Y-344154D01*
X-27933659Y-377481D01*
X-28024233Y-436864D01*
X-28144475Y-563795D01*
X-28162466Y-594769D01*
X-28210382Y-677263D01*
X-28232292Y-714983D01*
X-28282973Y-882318D01*
X-28293799Y-1056824D01*
X-33401000Y-1056824D01*
X-33401000Y-40824D01*
X-23213799Y-40824D01*
X-23184190Y-213141D01*
X-23181938Y-218432D01*
X-23181938Y-218434D01*
X-23146798Y-301017D01*
X-23115733Y-374024D01*
X-23012102Y-514843D01*
X-23007720Y-518565D01*
X-23007718Y-518568D01*
X-22922573Y-590903D01*
X-22878854Y-628045D01*
X-22841212Y-647266D01*
X-22728262Y-704942D01*
X-22728259Y-704943D01*
X-22723138Y-707558D01*
X-22717553Y-708925D01*
X-22717552Y-708925D01*
X-22557587Y-748068D01*
X-22557584Y-748068D01*
X-22553307Y-749115D01*
X-22548909Y-749388D01*
X-22548908Y-749388D01*
X-22543782Y-749706D01*
X-22543780Y-749706D01*
X-22542266Y-749800D01*
X-22416221Y-749800D01*
X-22410345Y-749115D01*
X-22401365Y-748068D01*
X-22286335Y-734657D01*
X-22280929Y-732695D01*
X-22280926Y-732694D01*
X-22127393Y-676964D01*
X-22121985Y-675001D01*
X-22117176Y-671848D01*
X-22117172Y-671846D01*
X-22018706Y-607288D01*
X-21975767Y-579136D01*
X-21855525Y-452205D01*
X-21767708Y-301017D01*
X-21751769Y-248390D01*
X10843860Y-248390D01*
X10844775Y-255387D01*
X10844775Y-255388D01*
X10846415Y-267932D01*
X10860741Y-377481D01*
X10863579Y-383932D01*
X10863580Y-383934D01*
X10866989Y-391681D01*
X10913174Y-496645D01*
X10917711Y-502042D01*
X10917712Y-502044D01*
X10931602Y-518568D01*
X10996946Y-596303D01*
X11002817Y-600211D01*
X11002818Y-600212D01*
X11029430Y-617927D01*
X11105320Y-668444D01*
X11112047Y-670546D01*
X11112050Y-670547D01*
X11222855Y-705164D01*
X11222856Y-705164D01*
X11229587Y-707267D01*
X11296494Y-708493D01*
X11352702Y-709524D01*
X11352704Y-709524D01*
X11359755Y-709653D01*
X11366558Y-707798D01*
X11366560Y-707798D01*
X11440736Y-687575D01*
X11485360Y-675409D01*
X11596306Y-607288D01*
X11683672Y-510767D01*
X11740437Y-393604D01*
X11742953Y-378653D01*
X11761403Y-268989D01*
X11761403Y-268985D01*
X11762037Y-265219D01*
X11762174Y-254000D01*
X11743718Y-125125D01*
X11738373Y-113368D01*
X11692753Y-13034D01*
X11692752Y-13033D01*
X11689832Y-6610D01*
X11679303Y5610D01*
X12367860Y5610D01*
X12384741Y-123481D01*
X12387579Y-129932D01*
X12387580Y-129934D01*
X12391835Y-139604D01*
X12437174Y-242645D01*
X12441711Y-248042D01*
X12441712Y-248044D01*
X12469703Y-281343D01*
X12520946Y-342303D01*
X12526817Y-346211D01*
X12526818Y-346212D01*
X12553430Y-363927D01*
X12629320Y-414444D01*
X12636047Y-416546D01*
X12636050Y-416547D01*
X12746855Y-451164D01*
X12746856Y-451164D01*
X12753587Y-453267D01*
X12820494Y-454493D01*
X12876702Y-455524D01*
X12876704Y-455524D01*
X12883755Y-455653D01*
X12890558Y-453798D01*
X12890560Y-453798D01*
X12964244Y-433709D01*
X13009360Y-421409D01*
X13120306Y-353288D01*
X13131430Y-340999D01*
X13202940Y-261995D01*
X13202940Y-261994D01*
X13207672Y-256767D01*
X13264437Y-139604D01*
X13265699Y-132108D01*
X13285403Y-14989D01*
X13285403Y-14985D01*
X13286037Y-11219D01*
X13286174Y0D01*
X13267718Y128875D01*
X13263030Y139187D01*
X13229187Y213619D01*
X13222314Y274417D01*
X13230215Y297760D01*
X13261360Y362044D01*
X13261361Y362047D01*
X13264437Y368396D01*
X13266064Y378063D01*
X13285403Y493011D01*
X13285403Y493015D01*
X13286037Y496781D01*
X13286091Y501157D01*
X13286127Y504173D01*
X13286174Y508000D01*
X13267718Y636875D01*
X13262994Y647266D01*
X13216753Y748966D01*
X13216752Y748967D01*
X13213832Y755390D01*
X13160381Y817423D01*
X13133455Y848673D01*
X13133454Y848674D01*
X13128850Y854017D01*
X13122933Y857852D01*
X13122931Y857854D01*
X13025523Y920990D01*
X13025521Y920991D01*
X13019601Y924828D01*
X12894870Y962130D01*
X12821593Y962578D01*
X12771734Y962883D01*
X12771733Y962883D01*
X12764683Y962926D01*
X12757906Y960989D01*
X12757905Y960989D01*
X12646285Y929088D01*
X12646283Y929087D01*
X12639505Y927150D01*
X12529400Y857679D01*
X12524733Y852395D01*
X12524731Y852393D01*
X12485992Y808529D01*
X12443219Y760097D01*
X12387890Y642249D01*
X12367860Y513610D01*
X12368775Y506613D01*
X12368775Y506612D01*
X12370061Y496781D01*
X12384741Y384519D01*
X12387580Y378067D01*
X12387581Y378063D01*
X12424981Y293064D01*
X12431111Y232187D01*
X12423980Y211119D01*
X12387890Y134249D01*
X12367860Y5610D01*
X11679303Y5610D01*
X11604850Y92017D01*
X11598933Y95852D01*
X11598931Y95854D01*
X11501523Y158990D01*
X11501521Y158991D01*
X11495601Y162828D01*
X11370870Y200130D01*
X11297593Y200578D01*
X11247734Y200883D01*
X11247733Y200883D01*
X11240683Y200926D01*
X11233906Y198989D01*
X11233905Y198989D01*
X11122285Y167088D01*
X11122283Y167087D01*
X11115505Y165150D01*
X11005400Y95679D01*
X11000733Y90395D01*
X11000731Y90393D01*
X10923889Y3385D01*
X10919219Y-1903D01*
X10863890Y-119751D01*
X10843860Y-248390D01*
X-21751769Y-248390D01*
X-21726699Y-165616D01*
X-21718694Y-139187D01*
X-21718694Y-139185D01*
X-21717027Y-133682D01*
X-21706201Y40824D01*
X-21735810Y213141D01*
X-21758678Y266885D01*
X-21802016Y368734D01*
X-21804267Y374024D01*
X-21901235Y505789D01*
X-21904489Y510211D01*
X-21904490Y510212D01*
X-21907898Y514843D01*
X-21912280Y518565D01*
X-21912282Y518568D01*
X-22036760Y624319D01*
X-22036761Y624320D01*
X-22041146Y628045D01*
X-22133103Y675001D01*
X-22191738Y704942D01*
X-22191741Y704943D01*
X-22196862Y707558D01*
X-22202447Y708925D01*
X-22202448Y708925D01*
X-22362413Y748068D01*
X-22362416Y748068D01*
X-22366693Y749115D01*
X-22371091Y749388D01*
X-22371092Y749388D01*
X-22376218Y749706D01*
X-22376220Y749706D01*
X-22377734Y749800D01*
X-22503779Y749800D01*
X-22506626Y749468D01*
X-22506627Y749468D01*
X-22517242Y748230D01*
X-22633665Y734657D01*
X-22639071Y732695D01*
X-22639074Y732694D01*
X-22704556Y708925D01*
X-22798015Y675001D01*
X-22802824Y671848D01*
X-22802828Y671846D01*
X-22869635Y628045D01*
X-22944233Y579136D01*
X-23064475Y452205D01*
X-23152292Y301017D01*
X-23202973Y133682D01*
X-23205889Y86673D01*
X-23211780Y-8287D01*
X-23213799Y-40824D01*
X-33401000Y-40824D01*
X-33401000Y975176D01*
X-28293799Y975176D01*
X-28264190Y802859D01*
X-28261938Y797568D01*
X-28261938Y797566D01*
X-28226798Y714983D01*
X-28195733Y641976D01*
X-28186840Y629892D01*
X-28096116Y506612D01*
X-28092102Y501157D01*
X-28087720Y497435D01*
X-28087718Y497432D01*
X-28008459Y430097D01*
X-27958854Y387955D01*
X-27879351Y347358D01*
X-27808262Y311058D01*
X-27808259Y311057D01*
X-27803138Y308442D01*
X-27797553Y307075D01*
X-27797552Y307075D01*
X-27637587Y267932D01*
X-27637584Y267932D01*
X-27633307Y266885D01*
X-27628909Y266612D01*
X-27628908Y266612D01*
X-27623782Y266294D01*
X-27623780Y266294D01*
X-27622266Y266200D01*
X-27496221Y266200D01*
X-27490345Y266885D01*
X-27481365Y267932D01*
X-27366335Y281343D01*
X-27360929Y283305D01*
X-27360926Y283306D01*
X-27207393Y339036D01*
X-27201985Y340999D01*
X-27197176Y344152D01*
X-27197172Y344154D01*
X-27124682Y391681D01*
X-27055767Y436864D01*
X-26935525Y563795D01*
X-26847708Y714983D01*
X-26819376Y808529D01*
X-26798694Y876813D01*
X-26798694Y876815D01*
X-26797027Y882318D01*
X-26786201Y1056824D01*
X-26813952Y1218326D01*
X-26805172Y1278877D01*
X-26762478Y1322704D01*
X-26702176Y1333065D01*
X-26647301Y1306004D01*
X-26640600Y1298793D01*
X-26623858Y1278877D01*
X-26606054Y1257697D01*
X-26600183Y1253789D01*
X-26600182Y1253788D01*
X-26573570Y1236073D01*
X-26497680Y1185556D01*
X-26490953Y1183454D01*
X-26490950Y1183453D01*
X-26380145Y1148836D01*
X-26380144Y1148836D01*
X-26373413Y1146733D01*
X-26306506Y1145507D01*
X-26250298Y1144476D01*
X-26250296Y1144476D01*
X-26243245Y1144347D01*
X-26236442Y1146202D01*
X-26236440Y1146202D01*
X-26168846Y1164631D01*
X-26117640Y1178591D01*
X-26006694Y1246712D01*
X-25928531Y1333065D01*
X-25924060Y1338005D01*
X-25924060Y1338006D01*
X-25919328Y1343233D01*
X-25862563Y1460396D01*
X-25850710Y1530843D01*
X-25841597Y1585011D01*
X-25841597Y1585015D01*
X-25840963Y1588781D01*
X-25840826Y1600000D01*
X-25841629Y1605610D01*
X-24159140Y1605610D01*
X-24142259Y1476519D01*
X-24139421Y1470068D01*
X-24139420Y1470066D01*
X-24135165Y1460396D01*
X-24089826Y1357355D01*
X-24085289Y1351958D01*
X-24085288Y1351956D01*
X-24069408Y1333065D01*
X-24006054Y1257697D01*
X-24000183Y1253789D01*
X-24000182Y1253788D01*
X-23973570Y1236073D01*
X-23897680Y1185556D01*
X-23890953Y1183454D01*
X-23890950Y1183453D01*
X-23780145Y1148836D01*
X-23780144Y1148836D01*
X-23773413Y1146733D01*
X-23706506Y1145507D01*
X-23650298Y1144476D01*
X-23650296Y1144476D01*
X-23643245Y1144347D01*
X-23636442Y1146202D01*
X-23636440Y1146202D01*
X-23568846Y1164631D01*
X-23517640Y1178591D01*
X-23406694Y1246712D01*
X-23360526Y1297718D01*
X7519752Y1297718D01*
X7536633Y1168627D01*
X7539471Y1162176D01*
X7539472Y1162174D01*
X7547316Y1144347D01*
X7589066Y1049463D01*
X7593603Y1044066D01*
X7593604Y1044064D01*
X7641152Y987499D01*
X7672838Y949805D01*
X7678709Y945897D01*
X7678710Y945896D01*
X7703960Y929088D01*
X7781212Y877664D01*
X7787939Y875562D01*
X7787942Y875561D01*
X7898747Y840944D01*
X7898748Y840944D01*
X7905479Y838841D01*
X7972386Y837615D01*
X8028594Y836584D01*
X8028596Y836584D01*
X8035647Y836455D01*
X8042450Y838310D01*
X8042452Y838310D01*
X8127298Y861442D01*
X8161252Y870699D01*
X8272198Y938820D01*
X8359564Y1035341D01*
X8412377Y1144347D01*
X8413253Y1146155D01*
X8416329Y1152504D01*
X8422548Y1189464D01*
X8437295Y1277119D01*
X8437295Y1277123D01*
X8437929Y1280889D01*
X8438066Y1292108D01*
X8433787Y1321991D01*
X8420610Y1414000D01*
X8419610Y1420983D01*
X8414265Y1432740D01*
X8368645Y1533074D01*
X8368644Y1533075D01*
X8365724Y1539498D01*
X8308759Y1605610D01*
X8285347Y1632781D01*
X8285346Y1632782D01*
X8280742Y1638125D01*
X8274825Y1641960D01*
X8274823Y1641962D01*
X8177415Y1705098D01*
X8177413Y1705099D01*
X8171493Y1708936D01*
X8046762Y1746238D01*
X7973485Y1746686D01*
X7923626Y1746991D01*
X7923625Y1746991D01*
X7916575Y1747034D01*
X7909798Y1745097D01*
X7909797Y1745097D01*
X7798177Y1713196D01*
X7798175Y1713195D01*
X7791397Y1711258D01*
X7681292Y1641787D01*
X7676625Y1636503D01*
X7676623Y1636501D01*
X7636402Y1590959D01*
X7595111Y1544205D01*
X7539782Y1426357D01*
X7519752Y1297718D01*
X-23360526Y1297718D01*
X-23328531Y1333065D01*
X-23324060Y1338005D01*
X-23324060Y1338006D01*
X-23319328Y1343233D01*
X-23262563Y1460396D01*
X-23250710Y1530843D01*
X-23241597Y1585011D01*
X-23241597Y1585015D01*
X-23240963Y1588781D01*
X-23240826Y1600000D01*
X-23245520Y1632781D01*
X-23258282Y1721892D01*
X-23259282Y1728875D01*
X-23264627Y1740632D01*
X-23310247Y1840966D01*
X-23310248Y1840967D01*
X-23313168Y1847390D01*
X-23366619Y1909423D01*
X-23393545Y1940673D01*
X-23393546Y1940674D01*
X-23398150Y1946017D01*
X-23404067Y1949852D01*
X-23404069Y1949854D01*
X-23501477Y2012990D01*
X-23501479Y2012991D01*
X-23507399Y2016828D01*
X-23632130Y2054130D01*
X-23705407Y2054578D01*
X-23755266Y2054883D01*
X-23755267Y2054883D01*
X-23762317Y2054926D01*
X-23769094Y2052989D01*
X-23769095Y2052989D01*
X-23880715Y2021088D01*
X-23880717Y2021087D01*
X-23887495Y2019150D01*
X-23997600Y1949679D01*
X-24002267Y1944395D01*
X-24002269Y1944393D01*
X-24005554Y1940673D01*
X-24083781Y1852097D01*
X-24139110Y1734249D01*
X-24159140Y1605610D01*
X-25841629Y1605610D01*
X-25845520Y1632781D01*
X-25858282Y1721892D01*
X-25859282Y1728875D01*
X-25864627Y1740632D01*
X-25910247Y1840966D01*
X-25910248Y1840967D01*
X-25913168Y1847390D01*
X-25966619Y1909423D01*
X-25993545Y1940673D01*
X-25993546Y1940674D01*
X-25998150Y1946017D01*
X-26004067Y1949852D01*
X-26004069Y1949854D01*
X-26101477Y2012990D01*
X-26101479Y2012991D01*
X-26107399Y2016828D01*
X-26232130Y2054130D01*
X-26305407Y2054578D01*
X-26355266Y2054883D01*
X-26355267Y2054883D01*
X-26362317Y2054926D01*
X-26369094Y2052989D01*
X-26369095Y2052989D01*
X-26480715Y2021088D01*
X-26480717Y2021087D01*
X-26487495Y2019150D01*
X-26597600Y1949679D01*
X-26602267Y1944395D01*
X-26602269Y1944393D01*
X-26605554Y1940673D01*
X-26683781Y1852097D01*
X-26739110Y1734249D01*
X-26759140Y1605610D01*
X-26758225Y1598613D01*
X-26758225Y1598612D01*
X-26747633Y1517614D01*
X-26758835Y1457463D01*
X-26803254Y1415384D01*
X-26863923Y1407451D01*
X-26917668Y1436692D01*
X-26925533Y1446098D01*
X-26933896Y1457463D01*
X-26954551Y1485530D01*
X-26984489Y1526211D01*
X-26984490Y1526212D01*
X-26987898Y1530843D01*
X-26992280Y1534565D01*
X-26992282Y1534568D01*
X-27116760Y1640319D01*
X-27116761Y1640320D01*
X-27121146Y1644045D01*
X-27213103Y1691001D01*
X-27271738Y1720942D01*
X-27271741Y1720943D01*
X-27276862Y1723558D01*
X-27282447Y1724925D01*
X-27282448Y1724925D01*
X-27442413Y1764068D01*
X-27442416Y1764068D01*
X-27446693Y1765115D01*
X-27451091Y1765388D01*
X-27451092Y1765388D01*
X-27456218Y1765706D01*
X-27456220Y1765706D01*
X-27457734Y1765800D01*
X-27583779Y1765800D01*
X-27586626Y1765468D01*
X-27586627Y1765468D01*
X-27597242Y1764230D01*
X-27713665Y1750657D01*
X-27719071Y1748695D01*
X-27719074Y1748694D01*
X-27871098Y1693512D01*
X-27878015Y1691001D01*
X-27882824Y1687848D01*
X-27882828Y1687846D01*
X-27945643Y1646662D01*
X-28024233Y1595136D01*
X-28028189Y1590959D01*
X-28028190Y1590959D01*
X-28042712Y1575630D01*
X-28144475Y1468205D01*
X-28157316Y1446098D01*
X-28205396Y1363321D01*
X-28232292Y1317017D01*
X-28248623Y1263097D01*
X-28274217Y1178591D01*
X-28282973Y1149682D01*
X-28293799Y975176D01*
X-33401000Y975176D01*
X-33401000Y3805610D01*
X-10659140Y3805610D01*
X-10642259Y3676519D01*
X-10639421Y3670068D01*
X-10639420Y3670066D01*
X-10635165Y3660396D01*
X-10589826Y3557355D01*
X-10585289Y3551958D01*
X-10585288Y3551956D01*
X-10537740Y3495391D01*
X-10506054Y3457697D01*
X-10500183Y3453789D01*
X-10500182Y3453788D01*
X-10473570Y3436073D01*
X-10397680Y3385556D01*
X-10390953Y3383454D01*
X-10390950Y3383453D01*
X-10280145Y3348836D01*
X-10280144Y3348836D01*
X-10273413Y3346733D01*
X-10206506Y3345507D01*
X-10150298Y3344476D01*
X-10150296Y3344476D01*
X-10143245Y3344347D01*
X-10136442Y3346202D01*
X-10136440Y3346202D01*
X-10068846Y3364631D01*
X-10017640Y3378591D01*
X-9906694Y3446712D01*
X-9819328Y3543233D01*
X-9762563Y3660396D01*
X-9740963Y3788781D01*
X-9740826Y3800000D01*
X-9759282Y3928875D01*
X-9764627Y3940632D01*
X-9810247Y4040966D01*
X-9810248Y4040967D01*
X-9813168Y4047390D01*
X-9898150Y4146017D01*
X-9904067Y4149852D01*
X-9904069Y4149854D01*
X-10001477Y4212990D01*
X-10001479Y4212991D01*
X-10007399Y4216828D01*
X-10132130Y4254130D01*
X-10205407Y4254578D01*
X-10255266Y4254883D01*
X-10255267Y4254883D01*
X-10262317Y4254926D01*
X-10269094Y4252989D01*
X-10269095Y4252989D01*
X-10380715Y4221088D01*
X-10380717Y4221087D01*
X-10387495Y4219150D01*
X-10497600Y4149679D01*
X-10502267Y4144395D01*
X-10502269Y4144393D01*
X-10523143Y4120757D01*
X-10583781Y4052097D01*
X-10639110Y3934249D01*
X-10659140Y3805610D01*
X-33401000Y3805610D01*
X-33401000Y5205610D01*
X-10659140Y5205610D01*
X-10642259Y5076519D01*
X-10639421Y5070068D01*
X-10639420Y5070066D01*
X-10635165Y5060396D01*
X-10589826Y4957355D01*
X-10585289Y4951958D01*
X-10585288Y4951956D01*
X-10537740Y4895391D01*
X-10506054Y4857697D01*
X-10500183Y4853789D01*
X-10500182Y4853788D01*
X-10473570Y4836073D01*
X-10397680Y4785556D01*
X-10390953Y4783454D01*
X-10390950Y4783453D01*
X-10280145Y4748836D01*
X-10280144Y4748836D01*
X-10273413Y4746733D01*
X-10206506Y4745507D01*
X-10150298Y4744476D01*
X-10150296Y4744476D01*
X-10143245Y4744347D01*
X-10136442Y4746202D01*
X-10136440Y4746202D01*
X-10061142Y4766731D01*
X-10017640Y4778591D01*
X-9906694Y4846712D01*
X-9819328Y4943233D01*
X-9762563Y5060396D01*
X-9745188Y5163668D01*
X-9716888Y5217916D01*
X-9662107Y5245168D01*
X-9645747Y5246226D01*
X-9611405Y5245596D01*
X-9550298Y5244476D01*
X-9550296Y5244476D01*
X-9543245Y5244347D01*
X-9536442Y5246202D01*
X-9536440Y5246202D01*
X-9445597Y5270969D01*
X-9417640Y5278591D01*
X-9306694Y5346712D01*
X-9270701Y5386476D01*
X-9224060Y5438005D01*
X-9224060Y5438006D01*
X-9219328Y5443233D01*
X-9162563Y5560396D01*
X-9157316Y5591578D01*
X-9141597Y5685011D01*
X-9141597Y5685015D01*
X-9140963Y5688781D01*
X-9140826Y5700000D01*
X-9145582Y5733209D01*
X-9135115Y5793491D01*
X-9091214Y5836110D01*
X-9045768Y5846226D01*
X-8950298Y5844476D01*
X-8950296Y5844476D01*
X-8943245Y5844347D01*
X-8936442Y5846202D01*
X-8936440Y5846202D01*
X-8868846Y5864631D01*
X-8817640Y5878591D01*
X-8706694Y5946712D01*
X-8644268Y6015679D01*
X-8624060Y6038005D01*
X-8624060Y6038006D01*
X-8619328Y6043233D01*
X-8562563Y6160396D01*
X-8561770Y6165110D01*
X-903640Y6165110D01*
X-886759Y6036019D01*
X-883921Y6029568D01*
X-883920Y6029566D01*
X-879665Y6019896D01*
X-834326Y5916855D01*
X-829789Y5911458D01*
X-829788Y5911456D01*
X-800646Y5876788D01*
X-750554Y5817197D01*
X-744683Y5813289D01*
X-744682Y5813288D01*
X-718070Y5795573D01*
X-642180Y5745056D01*
X-635453Y5742954D01*
X-635450Y5742953D01*
X-524645Y5708336D01*
X-524644Y5708336D01*
X-517913Y5706233D01*
X-451006Y5705007D01*
X-394798Y5703976D01*
X-394796Y5703976D01*
X-387745Y5703847D01*
X-380942Y5705702D01*
X-380940Y5705702D01*
X-280051Y5733208D01*
X-262140Y5738091D01*
X-151194Y5806212D01*
X-130680Y5828875D01*
X-68560Y5897505D01*
X-68560Y5897506D01*
X-63828Y5902733D01*
X-7063Y6019896D01*
X-3136Y6043233D01*
X13903Y6144511D01*
X13903Y6144515D01*
X14537Y6148281D01*
X14595Y6152989D01*
X14610Y6154256D01*
X14674Y6159500D01*
X14050Y6163861D01*
X-2782Y6281392D01*
X-3782Y6288375D01*
X-7661Y6296908D01*
X-54747Y6400466D01*
X-54748Y6400467D01*
X-57668Y6406890D01*
X-142650Y6505517D01*
X-148567Y6509352D01*
X-148569Y6509354D01*
X-245977Y6572490D01*
X-245979Y6572491D01*
X-251899Y6576328D01*
X-376630Y6613630D01*
X-449907Y6614078D01*
X-499766Y6614383D01*
X-499767Y6614383D01*
X-506817Y6614426D01*
X-513594Y6612489D01*
X-513595Y6612489D01*
X-625215Y6580588D01*
X-625217Y6580587D01*
X-631995Y6578650D01*
X-742100Y6509179D01*
X-746767Y6503895D01*
X-746769Y6503893D01*
X-808276Y6434249D01*
X-828281Y6411597D01*
X-883610Y6293749D01*
X-903640Y6165110D01*
X-8561770Y6165110D01*
X-8560596Y6172084D01*
X-8545188Y6263668D01*
X-8516888Y6317916D01*
X-8462107Y6345168D01*
X-8445747Y6346226D01*
X-8411405Y6345596D01*
X-8350298Y6344476D01*
X-8350296Y6344476D01*
X-8343245Y6344347D01*
X-8336442Y6346202D01*
X-8336440Y6346202D01*
X-8245597Y6370969D01*
X-8217640Y6378591D01*
X-8106694Y6446712D01*
X-8070882Y6486276D01*
X-8024060Y6538005D01*
X-8024060Y6538006D01*
X-8019328Y6543233D01*
X-7962563Y6660396D01*
X-7960051Y6675322D01*
X-7941597Y6785011D01*
X-7941597Y6785015D01*
X-7940963Y6788781D01*
X-7940826Y6800000D01*
X-7945582Y6833209D01*
X-7935115Y6893491D01*
X-7891214Y6936110D01*
X-7845768Y6946226D01*
X-7750298Y6944476D01*
X-7750296Y6944476D01*
X-7743245Y6944347D01*
X-7736442Y6946202D01*
X-7736440Y6946202D01*
X-7668846Y6964631D01*
X-7617640Y6978591D01*
X-7506694Y7046712D01*
X-7455099Y7103713D01*
X-7424060Y7138005D01*
X-7424060Y7138006D01*
X-7419328Y7143233D01*
X-7362563Y7260396D01*
X-7360780Y7270990D01*
X-7345188Y7363668D01*
X-7316888Y7417916D01*
X-7262107Y7445168D01*
X-7245747Y7446226D01*
X-7211405Y7445596D01*
X-7150298Y7444476D01*
X-7150296Y7444476D01*
X-7143245Y7444347D01*
X-7136442Y7446202D01*
X-7136440Y7446202D01*
X-7045597Y7470969D01*
X-7017640Y7478591D01*
X-6906694Y7546712D01*
X-6864480Y7593349D01*
X-6824060Y7638005D01*
X-6824060Y7638006D01*
X-6819328Y7643233D01*
X-6762563Y7760396D01*
X-6756138Y7798580D01*
X-6741597Y7885011D01*
X-6741597Y7885015D01*
X-6740963Y7888781D01*
X-6740826Y7900000D01*
X-6745582Y7933209D01*
X-6735115Y7993491D01*
X-6691214Y8036110D01*
X-6645768Y8046226D01*
X-6550298Y8044476D01*
X-6550296Y8044476D01*
X-6543245Y8044347D01*
X-6536442Y8046202D01*
X-6536440Y8046202D01*
X-6468846Y8064631D01*
X-6417640Y8078591D01*
X-6306694Y8146712D01*
X-6295427Y8159159D01*
X-6224060Y8238005D01*
X-6224060Y8238006D01*
X-6219328Y8243233D01*
X-6162563Y8360396D01*
X-6156121Y8398681D01*
X-6141597Y8485011D01*
X-6141597Y8485015D01*
X-6140963Y8488781D01*
X-6140826Y8500000D01*
X-6145582Y8533209D01*
X-6135115Y8593491D01*
X-6091214Y8636110D01*
X-6045768Y8646226D01*
X-5950298Y8644476D01*
X-5950296Y8644476D01*
X-5943245Y8644347D01*
X-5936442Y8646202D01*
X-5936440Y8646202D01*
X-5863618Y8666056D01*
X-5817640Y8678591D01*
X-5706694Y8746712D01*
X-5674499Y8782280D01*
X-5624060Y8838005D01*
X-5624060Y8838006D01*
X-5619328Y8843233D01*
X-5570878Y8943233D01*
X-5565639Y8954047D01*
X-5562563Y8960396D01*
X-5559610Y8977943D01*
X-5545188Y9063668D01*
X-5533480Y9086110D01*
X-903640Y9086110D01*
X-886759Y8957019D01*
X-883921Y8950568D01*
X-883920Y8950566D01*
X-880693Y8943233D01*
X-834326Y8837855D01*
X-829789Y8832458D01*
X-829788Y8832456D01*
X-787610Y8782280D01*
X-750554Y8738197D01*
X-744683Y8734289D01*
X-744682Y8734288D01*
X-718070Y8716573D01*
X-642180Y8666056D01*
X-635453Y8663954D01*
X-635450Y8663953D01*
X-524645Y8629336D01*
X-524644Y8629336D01*
X-517913Y8627233D01*
X-451006Y8626007D01*
X-394798Y8624976D01*
X-394796Y8624976D01*
X-387745Y8624847D01*
X-380942Y8626702D01*
X-380940Y8626702D01*
X-309328Y8646226D01*
X-262140Y8659091D01*
X-151194Y8727212D01*
X-133543Y8746712D01*
X-68560Y8818505D01*
X-68560Y8818506D01*
X-63828Y8823733D01*
X-7063Y8940896D01*
X-4709Y8954883D01*
X13903Y9065511D01*
X13903Y9065515D01*
X14537Y9069281D01*
X14674Y9080500D01*
X-3782Y9209375D01*
X-9127Y9221132D01*
X-54747Y9321466D01*
X-54748Y9321467D01*
X-57668Y9327890D01*
X-142650Y9426517D01*
X-148567Y9430352D01*
X-148569Y9430354D01*
X-245977Y9493490D01*
X-245979Y9493491D01*
X-251899Y9497328D01*
X-376630Y9534630D01*
X-449907Y9535078D01*
X-499766Y9535383D01*
X-499767Y9535383D01*
X-506817Y9535426D01*
X-513594Y9533489D01*
X-513595Y9533489D01*
X-625215Y9501588D01*
X-625217Y9501587D01*
X-631995Y9499650D01*
X-742100Y9430179D01*
X-746767Y9424895D01*
X-746769Y9424893D01*
X-818888Y9343233D01*
X-828281Y9332597D01*
X-883610Y9214749D01*
X-903640Y9086110D01*
X-5533480Y9086110D01*
X-5516888Y9117916D01*
X-5462107Y9145168D01*
X-5445747Y9146226D01*
X-5411405Y9145596D01*
X-5350298Y9144476D01*
X-5350296Y9144476D01*
X-5343245Y9144347D01*
X-5336442Y9146202D01*
X-5336440Y9146202D01*
X-5245597Y9170969D01*
X-5217640Y9178591D01*
X-5106694Y9246712D01*
X-5019328Y9343233D01*
X-4962563Y9460396D01*
X-4955958Y9499650D01*
X-4941597Y9585011D01*
X-4941597Y9585015D01*
X-4940963Y9588781D01*
X-4940826Y9600000D01*
X-4959282Y9728875D01*
X-4964627Y9740632D01*
X-5010247Y9840966D01*
X-5010248Y9840967D01*
X-5013168Y9847390D01*
X-5098150Y9946017D01*
X-5104067Y9949852D01*
X-5104069Y9949854D01*
X-5201477Y10012990D01*
X-5201479Y10012991D01*
X-5207399Y10016828D01*
X-5332130Y10054130D01*
X-5405407Y10054578D01*
X-5455266Y10054883D01*
X-5455267Y10054883D01*
X-5462317Y10054926D01*
X-5469094Y10052989D01*
X-5469095Y10052989D01*
X-5580715Y10021088D01*
X-5580717Y10021087D01*
X-5587495Y10019150D01*
X-5697600Y9949679D01*
X-5702267Y9944395D01*
X-5702269Y9944393D01*
X-5705554Y9940673D01*
X-5783781Y9852097D01*
X-5839110Y9734249D01*
X-5840195Y9727279D01*
X-5854093Y9638022D01*
X-5881728Y9583433D01*
X-5936171Y9555513D01*
X-5952519Y9554255D01*
X-6055266Y9554883D01*
X-6055267Y9554883D01*
X-6062317Y9554926D01*
X-6069094Y9552989D01*
X-6069095Y9552989D01*
X-6180715Y9521088D01*
X-6180717Y9521087D01*
X-6187495Y9519150D01*
X-6297600Y9449679D01*
X-6302267Y9444395D01*
X-6302269Y9444393D01*
X-6379111Y9357385D01*
X-6383781Y9352097D01*
X-6439110Y9234249D01*
X-6459140Y9105610D01*
X-6455691Y9079239D01*
X-6453972Y9066091D01*
X-6465174Y9005940D01*
X-6509593Y8963861D01*
X-6552741Y8954256D01*
X-6569252Y8954357D01*
X-6655266Y8954883D01*
X-6655267Y8954883D01*
X-6662317Y8954926D01*
X-6669094Y8952989D01*
X-6669095Y8952989D01*
X-6780715Y8921088D01*
X-6780717Y8921087D01*
X-6787495Y8919150D01*
X-6897600Y8849679D01*
X-6902267Y8844395D01*
X-6902269Y8844393D01*
X-6962020Y8776737D01*
X-6983781Y8752097D01*
X-7039110Y8634249D01*
X-7059140Y8505610D01*
X-7058225Y8498613D01*
X-7058225Y8498612D01*
X-7053972Y8466091D01*
X-7065174Y8405940D01*
X-7109593Y8363861D01*
X-7152741Y8354256D01*
X-7169252Y8354357D01*
X-7255266Y8354883D01*
X-7255267Y8354883D01*
X-7262317Y8354926D01*
X-7269094Y8352989D01*
X-7269095Y8352989D01*
X-7380715Y8321088D01*
X-7380717Y8321087D01*
X-7387495Y8319150D01*
X-7497600Y8249679D01*
X-7502267Y8244395D01*
X-7502269Y8244393D01*
X-7550630Y8189634D01*
X-7583781Y8152097D01*
X-7639110Y8034249D01*
X-7640195Y8027279D01*
X-7654093Y7938022D01*
X-7681728Y7883433D01*
X-7736171Y7855513D01*
X-7752519Y7854255D01*
X-7855266Y7854883D01*
X-7855267Y7854883D01*
X-7862317Y7854926D01*
X-7869094Y7852989D01*
X-7869095Y7852989D01*
X-7980715Y7821088D01*
X-7980717Y7821087D01*
X-7987495Y7819150D01*
X-8097600Y7749679D01*
X-8102267Y7744395D01*
X-8102269Y7744393D01*
X-8145260Y7695714D01*
X-8183781Y7652097D01*
X-8239110Y7534249D01*
X-8259140Y7405610D01*
X-8258225Y7398613D01*
X-8258225Y7398612D01*
X-8253972Y7366091D01*
X-8265174Y7305940D01*
X-8309593Y7263861D01*
X-8352741Y7254256D01*
X-8369252Y7254357D01*
X-8455266Y7254883D01*
X-8455267Y7254883D01*
X-8462317Y7254926D01*
X-8469094Y7252989D01*
X-8469095Y7252989D01*
X-8580715Y7221088D01*
X-8580717Y7221087D01*
X-8587495Y7219150D01*
X-8697600Y7149679D01*
X-8702267Y7144395D01*
X-8702269Y7144393D01*
X-8779111Y7057385D01*
X-8783781Y7052097D01*
X-8839110Y6934249D01*
X-8851660Y6853649D01*
X-8854093Y6838022D01*
X-8881728Y6783433D01*
X-8936171Y6755513D01*
X-8952519Y6754255D01*
X-9055266Y6754883D01*
X-9055267Y6754883D01*
X-9062317Y6754926D01*
X-9069094Y6752989D01*
X-9069095Y6752989D01*
X-9180715Y6721088D01*
X-9180717Y6721087D01*
X-9187495Y6719150D01*
X-9297600Y6649679D01*
X-9302267Y6644395D01*
X-9302269Y6644393D01*
X-9362381Y6576328D01*
X-9383781Y6552097D01*
X-9439110Y6434249D01*
X-9459140Y6305610D01*
X-9458225Y6298613D01*
X-9458225Y6298612D01*
X-9453972Y6266091D01*
X-9465174Y6205940D01*
X-9509593Y6163861D01*
X-9552741Y6154256D01*
X-9569252Y6154357D01*
X-9655266Y6154883D01*
X-9655267Y6154883D01*
X-9662317Y6154926D01*
X-9669094Y6152989D01*
X-9669095Y6152989D01*
X-9780715Y6121088D01*
X-9780717Y6121087D01*
X-9787495Y6119150D01*
X-9897600Y6049679D01*
X-9902267Y6044395D01*
X-9902269Y6044393D01*
X-9967197Y5970875D01*
X-9983781Y5952097D01*
X-10039110Y5834249D01*
X-10049420Y5768032D01*
X-10054093Y5738022D01*
X-10081728Y5683433D01*
X-10136171Y5655513D01*
X-10152519Y5654255D01*
X-10255266Y5654883D01*
X-10255267Y5654883D01*
X-10262317Y5654926D01*
X-10269094Y5652989D01*
X-10269095Y5652989D01*
X-10380715Y5621088D01*
X-10380717Y5621087D01*
X-10387495Y5619150D01*
X-10497600Y5549679D01*
X-10502267Y5544395D01*
X-10502269Y5544393D01*
X-10545195Y5495788D01*
X-10583781Y5452097D01*
X-10639110Y5334249D01*
X-10659140Y5205610D01*
X-33401000Y5205610D01*
X-33401000Y6228610D01*
X-20652140Y6228610D01*
X-20651225Y6221613D01*
X-20651225Y6221612D01*
X-20645711Y6179444D01*
X-20635259Y6099519D01*
X-20582826Y5980355D01*
X-20578289Y5974958D01*
X-20578288Y5974956D01*
X-20534875Y5923311D01*
X-20499054Y5880697D01*
X-20390680Y5808556D01*
X-20383953Y5806454D01*
X-20383950Y5806453D01*
X-20273145Y5771836D01*
X-20273144Y5771836D01*
X-20266413Y5769733D01*
X-20235556Y5769167D01*
X-20212148Y5768738D01*
X-20154314Y5748767D01*
X-20123347Y5709627D01*
X-20077667Y5605811D01*
X-20074826Y5599355D01*
X-20070289Y5593958D01*
X-20070288Y5593956D01*
X-20047926Y5567354D01*
X-19991054Y5499697D01*
X-19985183Y5495789D01*
X-19985182Y5495788D01*
X-19958570Y5478073D01*
X-19882680Y5427556D01*
X-19875953Y5425454D01*
X-19875950Y5425453D01*
X-19765145Y5390836D01*
X-19765144Y5390836D01*
X-19758413Y5388733D01*
X-19691506Y5387507D01*
X-19635298Y5386476D01*
X-19635296Y5386476D01*
X-19628245Y5386347D01*
X-19621442Y5388202D01*
X-19621440Y5388202D01*
X-19553846Y5406631D01*
X-19502640Y5420591D01*
X-19391694Y5488712D01*
X-19333103Y5553442D01*
X-19309060Y5580005D01*
X-19309060Y5580006D01*
X-19304328Y5585233D01*
X-19247563Y5702396D01*
X-19241557Y5738091D01*
X-19226597Y5827011D01*
X-19226597Y5827015D01*
X-19225963Y5830781D01*
X-19225826Y5842000D01*
X-19235962Y5912778D01*
X-19225495Y5973061D01*
X-19181593Y6015679D01*
X-19124748Y6024150D01*
X-19123413Y6023733D01*
X-19062355Y6022614D01*
X-19000298Y6021476D01*
X-19000296Y6021476D01*
X-18993245Y6021347D01*
X-18986442Y6023202D01*
X-18986440Y6023202D01*
X-18913786Y6043010D01*
X-18867640Y6055591D01*
X-18756694Y6123712D01*
X-18728479Y6154883D01*
X-18674060Y6215005D01*
X-18674060Y6215006D01*
X-18669328Y6220233D01*
X-18612563Y6337396D01*
X-18611371Y6344476D01*
X-18591597Y6462011D01*
X-18591597Y6462015D01*
X-18590963Y6465781D01*
X-18590826Y6477000D01*
X-18609282Y6605875D01*
X-18612827Y6613673D01*
X-18660247Y6717966D01*
X-18660248Y6717967D01*
X-18663168Y6724390D01*
X-18748150Y6823017D01*
X-18754067Y6826852D01*
X-18754069Y6826854D01*
X-18851477Y6889990D01*
X-18851479Y6889991D01*
X-18857399Y6893828D01*
X-18982130Y6931130D01*
X-19028930Y6931416D01*
X-19087004Y6950678D01*
X-19118447Y6989437D01*
X-19171168Y7105390D01*
X-19256150Y7204017D01*
X-19262067Y7207852D01*
X-19262069Y7207854D01*
X-19359477Y7270990D01*
X-19359479Y7270991D01*
X-19365399Y7274828D01*
X-19490130Y7312130D01*
X-19563407Y7312578D01*
X-19613266Y7312883D01*
X-19613267Y7312883D01*
X-19620317Y7312926D01*
X-19627094Y7310989D01*
X-19627095Y7310989D01*
X-19738715Y7279088D01*
X-19738717Y7279087D01*
X-19745495Y7277150D01*
X-19855600Y7207679D01*
X-19860267Y7202395D01*
X-19860269Y7202393D01*
X-19917134Y7138005D01*
X-19941781Y7110097D01*
X-19997110Y6992249D01*
X-20017140Y6863610D01*
X-20016225Y6856613D01*
X-20016225Y6856612D01*
X-20013992Y6839536D01*
X-20007354Y6788781D01*
X-20007000Y6786071D01*
X-20018202Y6725920D01*
X-20062621Y6683841D01*
X-20119322Y6675393D01*
X-20125130Y6677130D01*
X-20194625Y6677555D01*
X-20248266Y6677883D01*
X-20248267Y6677883D01*
X-20255317Y6677926D01*
X-20262094Y6675989D01*
X-20262095Y6675989D01*
X-20373715Y6644088D01*
X-20373717Y6644087D01*
X-20380495Y6642150D01*
X-20490600Y6572679D01*
X-20495267Y6567395D01*
X-20495269Y6567393D01*
X-20572111Y6480385D01*
X-20576781Y6475097D01*
X-20632110Y6357249D01*
X-20652140Y6228610D01*
X-33401000Y6228610D01*
X-33401000Y8054612D01*
X-31608142Y8054612D01*
X-31591261Y7925521D01*
X-31588423Y7919070D01*
X-31588422Y7919068D01*
X-31575095Y7888781D01*
X-31538828Y7806357D01*
X-31534291Y7800960D01*
X-31534290Y7800958D01*
X-31494348Y7753442D01*
X-31455056Y7706699D01*
X-31449185Y7702791D01*
X-31449184Y7702790D01*
X-31422572Y7685075D01*
X-31346682Y7634558D01*
X-31339955Y7632456D01*
X-31339952Y7632455D01*
X-31229147Y7597838D01*
X-31229146Y7597838D01*
X-31222415Y7595735D01*
X-31155508Y7594509D01*
X-31099300Y7593478D01*
X-31099298Y7593478D01*
X-31092247Y7593349D01*
X-31085444Y7595204D01*
X-31085442Y7595204D01*
X-31017848Y7613633D01*
X-30966642Y7627593D01*
X-30855696Y7695714D01*
X-30806849Y7749679D01*
X-30773062Y7787007D01*
X-30773062Y7787008D01*
X-30768330Y7792235D01*
X-30711565Y7909398D01*
X-30691463Y8028875D01*
X-30690599Y8034013D01*
X-30690599Y8034017D01*
X-30689965Y8037783D01*
X-30689828Y8049002D01*
X-30690867Y8056257D01*
X-30680400Y8116541D01*
X-30636499Y8159159D01*
X-30591054Y8169275D01*
X-30574800Y8168977D01*
X-30574798Y8168977D01*
X-30567746Y8168848D01*
X-30560943Y8170703D01*
X-30560941Y8170703D01*
X-30491504Y8189634D01*
X-30442141Y8203092D01*
X-30331195Y8271213D01*
X-30286050Y8321088D01*
X-30248561Y8362506D01*
X-30248561Y8362507D01*
X-30243829Y8367734D01*
X-30187064Y8484897D01*
X-30185767Y8492602D01*
X-30166098Y8609512D01*
X-30166098Y8609516D01*
X-30165464Y8613282D01*
X-30165327Y8624501D01*
X-30166366Y8631756D01*
X-30155899Y8692040D01*
X-30111998Y8734658D01*
X-30066553Y8744774D01*
X-30050299Y8744476D01*
X-30050297Y8744476D01*
X-30043245Y8744347D01*
X-30036442Y8746202D01*
X-30036440Y8746202D01*
X-29967003Y8765133D01*
X-29917640Y8778591D01*
X-29806694Y8846712D01*
X-29739372Y8921088D01*
X-29724060Y8938005D01*
X-29724060Y8938006D01*
X-29719328Y8943233D01*
X-29662563Y9060396D01*
X-29659392Y9079239D01*
X-29641597Y9185011D01*
X-29641597Y9185015D01*
X-29640963Y9188781D01*
X-29640826Y9200000D01*
X-29659282Y9328875D01*
X-29663378Y9337885D01*
X-29710247Y9440966D01*
X-29710248Y9440967D01*
X-29713168Y9447390D01*
X-29798150Y9546017D01*
X-29804067Y9549852D01*
X-29804069Y9549854D01*
X-29901477Y9612990D01*
X-29901479Y9612991D01*
X-29907399Y9616828D01*
X-30032130Y9654130D01*
X-30105407Y9654578D01*
X-30155266Y9654883D01*
X-30155267Y9654883D01*
X-30162317Y9654926D01*
X-30169094Y9652989D01*
X-30169095Y9652989D01*
X-30280715Y9621088D01*
X-30280717Y9621087D01*
X-30287495Y9619150D01*
X-30397600Y9549679D01*
X-30402267Y9544395D01*
X-30402269Y9544393D01*
X-30470307Y9467354D01*
X-30483781Y9452097D01*
X-30539110Y9334249D01*
X-30559140Y9205610D01*
X-30558225Y9198613D01*
X-30557239Y9191075D01*
X-30568441Y9130924D01*
X-30612859Y9088844D01*
X-30656007Y9079239D01*
X-30679766Y9079384D01*
X-30679767Y9079384D01*
X-30686818Y9079427D01*
X-30693595Y9077490D01*
X-30693596Y9077490D01*
X-30805216Y9045589D01*
X-30805218Y9045588D01*
X-30811996Y9043651D01*
X-30922101Y8974180D01*
X-30926768Y8968896D01*
X-30926770Y8968894D01*
X-31003612Y8881886D01*
X-31008282Y8876598D01*
X-31063611Y8758750D01*
X-31083641Y8630111D01*
X-31082726Y8623114D01*
X-31081740Y8615576D01*
X-31092942Y8555425D01*
X-31137360Y8513345D01*
X-31180508Y8503740D01*
X-31204267Y8503885D01*
X-31204268Y8503885D01*
X-31211319Y8503928D01*
X-31218096Y8501991D01*
X-31218097Y8501991D01*
X-31329717Y8470090D01*
X-31329719Y8470089D01*
X-31336497Y8468152D01*
X-31446602Y8398681D01*
X-31451269Y8393397D01*
X-31451271Y8393395D01*
X-31528113Y8306387D01*
X-31532783Y8301099D01*
X-31588112Y8183251D01*
X-31608142Y8054612D01*
X-33401000Y8054612D01*
X-33401000Y10927610D01*
X-18239140Y10927610D01*
X-18222259Y10798519D01*
X-18219421Y10792068D01*
X-18219420Y10792066D01*
X-18215165Y10782396D01*
X-18169826Y10679355D01*
X-18165289Y10673958D01*
X-18165288Y10673956D01*
X-18117740Y10617391D01*
X-18086054Y10579697D01*
X-18080183Y10575789D01*
X-18080182Y10575788D01*
X-18053570Y10558073D01*
X-17977680Y10507556D01*
X-17970953Y10505454D01*
X-17970950Y10505453D01*
X-17860145Y10470836D01*
X-17860144Y10470836D01*
X-17853413Y10468733D01*
X-17786506Y10467507D01*
X-17730298Y10466476D01*
X-17730296Y10466476D01*
X-17723245Y10466347D01*
X-17716442Y10468202D01*
X-17716440Y10468202D01*
X-17648846Y10486631D01*
X-17597640Y10500591D01*
X-17486694Y10568712D01*
X-17399328Y10665233D01*
X-17395269Y10673610D01*
X32433860Y10673610D01*
X32450741Y10544519D01*
X32453579Y10538068D01*
X32453580Y10538066D01*
X32457835Y10528396D01*
X32503174Y10425355D01*
X32507711Y10419958D01*
X32507712Y10419956D01*
X32555260Y10363391D01*
X32586946Y10325697D01*
X32592817Y10321789D01*
X32592818Y10321788D01*
X32619430Y10304073D01*
X32695320Y10253556D01*
X32702047Y10251454D01*
X32702050Y10251453D01*
X32812855Y10216836D01*
X32812856Y10216836D01*
X32819587Y10214733D01*
X32886494Y10213507D01*
X32942702Y10212476D01*
X32942704Y10212476D01*
X32949755Y10212347D01*
X32956558Y10214202D01*
X32956560Y10214202D01*
X33046471Y10238715D01*
X33075360Y10246591D01*
X33186306Y10314712D01*
X33214245Y10345578D01*
X33268940Y10406005D01*
X33268940Y10406006D01*
X33273672Y10411233D01*
X33330437Y10528396D01*
X33338411Y10575788D01*
X33351403Y10653011D01*
X33351403Y10653015D01*
X33352037Y10656781D01*
X33352174Y10668000D01*
X33333718Y10796875D01*
X33328373Y10808632D01*
X33282753Y10908966D01*
X33282752Y10908967D01*
X33279832Y10915390D01*
X33194850Y11014017D01*
X33188933Y11017852D01*
X33188931Y11017854D01*
X33091523Y11080990D01*
X33091521Y11080991D01*
X33085601Y11084828D01*
X32960870Y11122130D01*
X32887593Y11122578D01*
X32837734Y11122883D01*
X32837733Y11122883D01*
X32830683Y11122926D01*
X32823906Y11120989D01*
X32823905Y11120989D01*
X32712285Y11089088D01*
X32712283Y11089087D01*
X32705505Y11087150D01*
X32595400Y11017679D01*
X32590733Y11012395D01*
X32590731Y11012393D01*
X32513889Y10925385D01*
X32509219Y10920097D01*
X32453890Y10802249D01*
X32433860Y10673610D01*
X-17395269Y10673610D01*
X-17342563Y10782396D01*
X-17341301Y10789892D01*
X-17321597Y10907011D01*
X-17321597Y10907015D01*
X-17320963Y10910781D01*
X-17320826Y10922000D01*
X-17339282Y11050875D01*
X-17344627Y11062632D01*
X-17390247Y11162966D01*
X-17390248Y11162967D01*
X-17393168Y11169390D01*
X-17478150Y11268017D01*
X-17484067Y11271852D01*
X-17484069Y11271854D01*
X-17581477Y11334990D01*
X-17581479Y11334991D01*
X-17587399Y11338828D01*
X-17712130Y11376130D01*
X-17785407Y11376578D01*
X-17835266Y11376883D01*
X-17835267Y11376883D01*
X-17842317Y11376926D01*
X-17849094Y11374989D01*
X-17849095Y11374989D01*
X-17960715Y11343088D01*
X-17960717Y11343087D01*
X-17967495Y11341150D01*
X-18077600Y11271679D01*
X-18082267Y11266395D01*
X-18082269Y11266393D01*
X-18085554Y11262673D01*
X-18163781Y11174097D01*
X-18219110Y11056249D01*
X-18239140Y10927610D01*
X-33401000Y10927610D01*
X-33401000Y13138333D01*
X-33400788Y13144808D01*
X-33396033Y13217354D01*
X-33384314Y13396155D01*
X-33382625Y13408987D01*
X-33369040Y13477279D01*
X-33363405Y13505610D01*
X-2059140Y13505610D01*
X-2042259Y13376519D01*
X-2039421Y13370068D01*
X-2039420Y13370066D01*
X-2029980Y13348612D01*
X-1989826Y13257355D01*
X-1985289Y13251958D01*
X-1985288Y13251956D01*
X-1950353Y13210396D01*
X-1906054Y13157697D01*
X-1900183Y13153789D01*
X-1900182Y13153788D01*
X-1876964Y13138333D01*
X-1797680Y13085556D01*
X-1790953Y13083454D01*
X-1790950Y13083453D01*
X-1680145Y13048836D01*
X-1680144Y13048836D01*
X-1673413Y13046733D01*
X-1606506Y13045507D01*
X-1550298Y13044476D01*
X-1550296Y13044476D01*
X-1543245Y13044347D01*
X-1536442Y13046202D01*
X-1536440Y13046202D01*
X-1468846Y13064631D01*
X-1417640Y13078591D01*
X-1306694Y13146712D01*
X-1240297Y13220066D01*
X-1224060Y13238005D01*
X-1224060Y13238006D01*
X-1219328Y13243233D01*
X-1162563Y13360396D01*
X-1156546Y13396155D01*
X-1141597Y13485011D01*
X-1141597Y13485015D01*
X-1140963Y13488781D01*
X-1140826Y13500000D01*
X-1159282Y13628875D01*
X-1164627Y13640632D01*
X-1210247Y13740966D01*
X-1210248Y13740967D01*
X-1213168Y13747390D01*
X-1298150Y13846017D01*
X-1304067Y13849852D01*
X-1304069Y13849854D01*
X-1401477Y13912990D01*
X-1401479Y13912991D01*
X-1407399Y13916828D01*
X-1532130Y13954130D01*
X-1605407Y13954578D01*
X-1655266Y13954883D01*
X-1655267Y13954883D01*
X-1662317Y13954926D01*
X-1669094Y13952989D01*
X-1669095Y13952989D01*
X-1780715Y13921088D01*
X-1780717Y13921087D01*
X-1787495Y13919150D01*
X-1897600Y13849679D01*
X-1902267Y13844395D01*
X-1902269Y13844393D01*
X-1977647Y13759043D01*
X-1983781Y13752097D01*
X-2039110Y13634249D01*
X-2059140Y13505610D01*
X-33363405Y13505610D01*
X-33334117Y13652853D01*
X-33330766Y13665357D01*
X-33303488Y13745713D01*
X-33250844Y13900799D01*
X-33245888Y13912761D01*
X-33135922Y14135751D01*
X-33129448Y14146966D01*
X-33110936Y14174671D01*
X-32991307Y14353708D01*
X-32983431Y14363972D01*
X-32817359Y14553340D01*
X-32812932Y14558068D01*
X-31871390Y15499610D01*
X-31193140Y15499610D01*
X-31176259Y15370519D01*
X-31173421Y15364068D01*
X-31173420Y15364066D01*
X-31157161Y15327115D01*
X-31123826Y15251355D01*
X-31119289Y15245958D01*
X-31119288Y15245956D01*
X-31103588Y15227279D01*
X-31040054Y15151697D01*
X-31034183Y15147789D01*
X-31034182Y15147788D01*
X-31007570Y15130073D01*
X-30931680Y15079556D01*
X-30924953Y15077454D01*
X-30924950Y15077453D01*
X-30814145Y15042836D01*
X-30814144Y15042836D01*
X-30807413Y15040733D01*
X-30740506Y15039507D01*
X-30684298Y15038476D01*
X-30684296Y15038476D01*
X-30677245Y15038347D01*
X-30670442Y15040202D01*
X-30670440Y15040202D01*
X-30602846Y15058631D01*
X-30551640Y15072591D01*
X-30497863Y15105610D01*
X27940860Y15105610D01*
X27957741Y14976519D01*
X27960579Y14970068D01*
X27960580Y14970066D01*
X27964835Y14960396D01*
X28010174Y14857355D01*
X28014711Y14851958D01*
X28014712Y14851956D01*
X28062260Y14795391D01*
X28093946Y14757697D01*
X28202320Y14685556D01*
X28209050Y14683453D01*
X28209051Y14683453D01*
X28226352Y14678048D01*
X28276257Y14642649D01*
X28295825Y14584677D01*
X28277580Y14526275D01*
X28271035Y14518018D01*
X28191768Y14428264D01*
X28187098Y14422976D01*
X28131769Y14305128D01*
X28111739Y14176489D01*
X28128620Y14047398D01*
X28131458Y14040947D01*
X28131459Y14040945D01*
X28135714Y14031275D01*
X28181053Y13928234D01*
X28185590Y13922837D01*
X28185591Y13922835D01*
X28233139Y13866270D01*
X28264825Y13828576D01*
X28270696Y13824668D01*
X28270697Y13824667D01*
X28297199Y13807026D01*
X28335162Y13759043D01*
X28337671Y13697909D01*
X28316545Y13659081D01*
X28289868Y13628875D01*
X28266219Y13602097D01*
X28210890Y13484249D01*
X28190860Y13355610D01*
X28207741Y13226519D01*
X28210579Y13220068D01*
X28210580Y13220066D01*
X28214835Y13210396D01*
X28260174Y13107355D01*
X28264711Y13101958D01*
X28264712Y13101956D01*
X28278498Y13085556D01*
X28343946Y13007697D01*
X28349817Y13003789D01*
X28349818Y13003788D01*
X28376430Y12986073D01*
X28452320Y12935556D01*
X28459047Y12933454D01*
X28459050Y12933453D01*
X28569855Y12898836D01*
X28569856Y12898836D01*
X28576587Y12896733D01*
X28643494Y12895507D01*
X28699702Y12894476D01*
X28699704Y12894476D01*
X28706755Y12894347D01*
X28713558Y12896202D01*
X28713560Y12896202D01*
X28781154Y12914631D01*
X28832360Y12928591D01*
X28943306Y12996712D01*
X29030672Y13093233D01*
X29087437Y13210396D01*
X29094430Y13251956D01*
X29108403Y13335011D01*
X29108403Y13335015D01*
X29109037Y13338781D01*
X29109174Y13350000D01*
X29090718Y13478875D01*
X29085373Y13490632D01*
X29039753Y13590966D01*
X29039752Y13590967D01*
X29036832Y13597390D01*
X28951850Y13696017D01*
X28945929Y13699855D01*
X28924859Y13713512D01*
X28886313Y13761028D01*
X28883057Y13822127D01*
X28905308Y13863023D01*
X28946819Y13908884D01*
X28946819Y13908885D01*
X28951551Y13914112D01*
X29008316Y14031275D01*
X29025894Y14135751D01*
X29029282Y14155890D01*
X29029282Y14155894D01*
X29029916Y14159660D01*
X29030053Y14170879D01*
X29011597Y14299754D01*
X29006252Y14311511D01*
X28960632Y14411845D01*
X28960631Y14411846D01*
X28957711Y14418269D01*
X28872729Y14516896D01*
X28866812Y14520731D01*
X28866810Y14520733D01*
X28769402Y14583869D01*
X28769400Y14583870D01*
X28763480Y14587707D01*
X28745316Y14593139D01*
X28694983Y14627928D01*
X28674711Y14685658D01*
X28692244Y14744277D01*
X28700282Y14754419D01*
X28780672Y14843233D01*
X28837437Y14960396D01*
X28850574Y15038476D01*
X28858403Y15085011D01*
X28858403Y15085015D01*
X28859037Y15088781D01*
X28859174Y15100000D01*
X28840718Y15228875D01*
X28835373Y15240632D01*
X28789753Y15340966D01*
X28789752Y15340967D01*
X28786832Y15347390D01*
X28701850Y15446017D01*
X28695933Y15449852D01*
X28695931Y15449854D01*
X28598523Y15512990D01*
X28598521Y15512991D01*
X28592601Y15516828D01*
X28467870Y15554130D01*
X28394593Y15554578D01*
X28344734Y15554883D01*
X28344733Y15554883D01*
X28337683Y15554926D01*
X28330906Y15552989D01*
X28330905Y15552989D01*
X28219285Y15521088D01*
X28219283Y15521087D01*
X28212505Y15519150D01*
X28102400Y15449679D01*
X28097733Y15444395D01*
X28097731Y15444393D01*
X28024394Y15361354D01*
X28016219Y15352097D01*
X27960890Y15234249D01*
X27940860Y15105610D01*
X-30497863Y15105610D01*
X-30440694Y15140712D01*
X-30353328Y15237233D01*
X-30296563Y15354396D01*
X-30281421Y15444393D01*
X-30275597Y15479011D01*
X-30275597Y15479015D01*
X-30274963Y15482781D01*
X-30274826Y15494000D01*
X-30277545Y15512990D01*
X-30292282Y15615892D01*
X-30293282Y15622875D01*
X-30298627Y15634632D01*
X-30344247Y15734966D01*
X-30344248Y15734967D01*
X-30347168Y15741390D01*
X-30432150Y15840017D01*
X-30438067Y15843852D01*
X-30438069Y15843854D01*
X-30535477Y15906990D01*
X-30535479Y15906991D01*
X-30541399Y15910828D01*
X-30666130Y15948130D01*
X-30739407Y15948578D01*
X-30789266Y15948883D01*
X-30789267Y15948883D01*
X-30796317Y15948926D01*
X-30803094Y15946989D01*
X-30803095Y15946989D01*
X-30914715Y15915088D01*
X-30914717Y15915087D01*
X-30921495Y15913150D01*
X-31031600Y15843679D01*
X-31036267Y15838395D01*
X-31036269Y15838393D01*
X-31039554Y15834673D01*
X-31117781Y15746097D01*
X-31173110Y15628249D01*
X-31193140Y15499610D01*
X-31871390Y15499610D01*
X-30065390Y17305610D01*
X24240860Y17305610D01*
X24257741Y17176519D01*
X24260579Y17170068D01*
X24260580Y17170066D01*
X24264835Y17160396D01*
X24310174Y17057355D01*
X24314711Y17051958D01*
X24314712Y17051956D01*
X24342629Y17018745D01*
X24393946Y16957697D01*
X24399817Y16953789D01*
X24399818Y16953788D01*
X24426430Y16936073D01*
X24502320Y16885556D01*
X24509047Y16883454D01*
X24509050Y16883453D01*
X24619855Y16848836D01*
X24619856Y16848836D01*
X24626587Y16846733D01*
X24693494Y16845507D01*
X24749702Y16844476D01*
X24749704Y16844476D01*
X24756755Y16844347D01*
X24763558Y16846202D01*
X24763560Y16846202D01*
X24831154Y16864631D01*
X24882360Y16878591D01*
X24993306Y16946712D01*
X25080672Y17043233D01*
X25137437Y17160396D01*
X25159037Y17288781D01*
X25159174Y17300000D01*
X25140718Y17428875D01*
X25135373Y17440632D01*
X25089753Y17540966D01*
X25089752Y17540967D01*
X25086832Y17547390D01*
X25001850Y17646017D01*
X24995933Y17649852D01*
X24995931Y17649854D01*
X24898523Y17712990D01*
X24898521Y17712991D01*
X24892601Y17716828D01*
X24767870Y17754130D01*
X24694593Y17754578D01*
X24644734Y17754883D01*
X24644733Y17754883D01*
X24637683Y17754926D01*
X24630906Y17752989D01*
X24630905Y17752989D01*
X24519285Y17721088D01*
X24519283Y17721087D01*
X24512505Y17719150D01*
X24402400Y17649679D01*
X24397733Y17644395D01*
X24397731Y17644393D01*
X24322265Y17558943D01*
X24316219Y17552097D01*
X24260890Y17434249D01*
X24240860Y17305610D01*
X-30065390Y17305610D01*
X-28823390Y18547610D01*
X-8460140Y18547610D01*
X-8459225Y18540613D01*
X-8459225Y18540612D01*
X-8457939Y18530781D01*
X-8443259Y18418519D01*
X-8440421Y18412068D01*
X-8440420Y18412066D01*
X-8424161Y18375115D01*
X-8390826Y18299355D01*
X-8386289Y18293958D01*
X-8386288Y18293956D01*
X-8370686Y18275396D01*
X-8307054Y18199697D01*
X-8198680Y18127556D01*
X-8191953Y18125454D01*
X-8191950Y18125453D01*
X-8081145Y18090836D01*
X-8081144Y18090836D01*
X-8074413Y18088733D01*
X-8007506Y18087507D01*
X-7951298Y18086476D01*
X-7951296Y18086476D01*
X-7944245Y18086347D01*
X-7937441Y18088202D01*
X-7930440Y18089074D01*
X-7930227Y18087367D01*
X-7877848Y18084847D01*
X-7830133Y18046546D01*
X-7814043Y17987514D01*
X-7815108Y17977040D01*
X-7825140Y17912610D01*
X-7808259Y17783519D01*
X-7805421Y17777068D01*
X-7805420Y17777066D01*
X-7801165Y17767396D01*
X-7755826Y17664355D01*
X-7751289Y17658958D01*
X-7751288Y17658956D01*
X-7739046Y17644393D01*
X-7672054Y17564697D01*
X-7666183Y17560789D01*
X-7666182Y17560788D01*
X-7646055Y17547390D01*
X-7563680Y17492556D01*
X-7556953Y17490454D01*
X-7556950Y17490453D01*
X-7446145Y17455836D01*
X-7446144Y17455836D01*
X-7439413Y17453733D01*
X-7372506Y17452507D01*
X-7316298Y17451476D01*
X-7316296Y17451476D01*
X-7309245Y17451347D01*
X-7302442Y17453202D01*
X-7302440Y17453202D01*
X-7234846Y17471631D01*
X-7183640Y17485591D01*
X-7072694Y17553712D01*
X-6985328Y17650233D01*
X-6928563Y17767396D01*
X-6910129Y17876962D01*
X-6881829Y17931210D01*
X-6827048Y17958462D01*
X-6810687Y17959520D01*
X-6808298Y17959476D01*
X-6808296Y17959476D01*
X-6801245Y17959347D01*
X-6794442Y17961202D01*
X-6794440Y17961202D01*
X-6697930Y17987514D01*
X-6675640Y17993591D01*
X-6564694Y18061712D01*
X-6542395Y18086347D01*
X-6482060Y18153005D01*
X-6482060Y18153006D01*
X-6477328Y18158233D01*
X-6420563Y18275396D01*
X-6413447Y18317687D01*
X-6399597Y18400011D01*
X-6399597Y18400015D01*
X-6398963Y18403781D01*
X-6398826Y18415000D01*
X-6417282Y18543875D01*
X-6457709Y18632790D01*
X-6468247Y18655966D01*
X-6468248Y18655967D01*
X-6471168Y18662390D01*
X-6556150Y18761017D01*
X-6562067Y18764852D01*
X-6562069Y18764854D01*
X-6659477Y18827990D01*
X-6659479Y18827991D01*
X-6665399Y18831828D01*
X-6790130Y18869130D01*
X-6805001Y18869221D01*
X-6819035Y18869307D01*
X-6877109Y18888570D01*
X-6912769Y18938289D01*
X-6916057Y18984731D01*
X-6907597Y19035013D01*
X-6906963Y19038781D01*
X-6906826Y19050000D01*
X-6925282Y19178875D01*
X-6930627Y19190632D01*
X-6976247Y19290966D01*
X-6976248Y19290967D01*
X-6979168Y19297390D01*
X-7064150Y19396017D01*
X-7070067Y19399852D01*
X-7070069Y19399854D01*
X-7167477Y19462990D01*
X-7167479Y19462991D01*
X-7173399Y19466828D01*
X-7298130Y19504130D01*
X-7371407Y19504578D01*
X-7421266Y19504883D01*
X-7421267Y19504883D01*
X-7428317Y19504926D01*
X-7435094Y19502989D01*
X-7435095Y19502989D01*
X-7546715Y19471088D01*
X-7546717Y19471087D01*
X-7553495Y19469150D01*
X-7663600Y19399679D01*
X-7668267Y19394395D01*
X-7668269Y19394393D01*
X-7671554Y19390673D01*
X-7749781Y19302097D01*
X-7805110Y19184249D01*
X-7806195Y19177280D01*
X-7821662Y19077947D01*
X-7849297Y19023358D01*
X-7903741Y18995439D01*
X-7930313Y18995288D01*
X-7933130Y18996130D01*
X-8003948Y18996563D01*
X-8056266Y18996883D01*
X-8056267Y18996883D01*
X-8063317Y18996926D01*
X-8070094Y18994989D01*
X-8070095Y18994989D01*
X-8181715Y18963088D01*
X-8181717Y18963087D01*
X-8188495Y18961150D01*
X-8298600Y18891679D01*
X-8303267Y18886395D01*
X-8303269Y18886393D01*
X-8354848Y18827990D01*
X-8384781Y18794097D01*
X-8440110Y18676249D01*
X-8460140Y18547610D01*
X-28823390Y18547610D01*
X-26995615Y20375385D01*
X-26941098Y20403162D01*
X-26895842Y20399799D01*
X-26816260Y20374707D01*
X-26814148Y20374239D01*
X-26814145Y20374238D01*
X-26721692Y20353742D01*
X-26368304Y20275398D01*
X-26366178Y20275118D01*
X-26366166Y20275116D01*
X-26091873Y20239005D01*
X-25913396Y20215508D01*
X-25455000Y20195494D01*
X-24996604Y20215508D01*
X-24818127Y20239005D01*
X-24543834Y20275116D01*
X-24543822Y20275118D01*
X-24541696Y20275398D01*
X-24188308Y20353742D01*
X-24095855Y20374238D01*
X-24095852Y20374239D01*
X-24093740Y20374707D01*
X-23656143Y20512681D01*
X-23321034Y20651488D01*
X21686738Y20651488D01*
X21703619Y20522397D01*
X21706457Y20515946D01*
X21706458Y20515944D01*
X21707894Y20512681D01*
X21756052Y20403233D01*
X21760589Y20397836D01*
X21760590Y20397834D01*
X21779461Y20375385D01*
X21839824Y20303575D01*
X21845695Y20299667D01*
X21845696Y20299666D01*
X21872308Y20281951D01*
X21948198Y20231434D01*
X21954925Y20229332D01*
X21954928Y20229331D01*
X22065733Y20194714D01*
X22065734Y20194714D01*
X22072465Y20192611D01*
X22139372Y20191385D01*
X22195580Y20190354D01*
X22195582Y20190354D01*
X22202633Y20190225D01*
X22209436Y20192080D01*
X22209438Y20192080D01*
X22295025Y20215414D01*
X22328238Y20224469D01*
X22439184Y20292590D01*
X22526550Y20389111D01*
X22583315Y20506274D01*
X22604915Y20634659D01*
X22605052Y20645878D01*
X22586596Y20774753D01*
X22583486Y20781595D01*
X22535631Y20886844D01*
X22535630Y20886845D01*
X22532710Y20893268D01*
X22447728Y20991895D01*
X22441811Y20995730D01*
X22441809Y20995732D01*
X22344401Y21058868D01*
X22344399Y21058869D01*
X22338479Y21062706D01*
X22213748Y21100008D01*
X22140471Y21100456D01*
X22090612Y21100761D01*
X22090611Y21100761D01*
X22083561Y21100804D01*
X22076784Y21098867D01*
X22076783Y21098867D01*
X21965163Y21066966D01*
X21965161Y21066965D01*
X21958383Y21065028D01*
X21848278Y20995557D01*
X21843611Y20990273D01*
X21843609Y20990271D01*
X21840324Y20986551D01*
X21762097Y20897975D01*
X21706768Y20780127D01*
X21686738Y20651488D01*
X-23321034Y20651488D01*
X-23232237Y20688269D01*
X-22971285Y20824111D01*
X-22827156Y20899140D01*
X-22827152Y20899142D01*
X-22825247Y20900134D01*
X-22820335Y20903263D01*
X-22440090Y21145506D01*
X-22440087Y21145508D01*
X-22438271Y21146665D01*
X-22074255Y21425985D01*
X-21735968Y21735968D01*
X-21425985Y22074255D01*
X-21146665Y22438271D01*
X-20900134Y22825247D01*
X-20854851Y22912234D01*
X-20747028Y23119362D01*
X-20688269Y23232237D01*
X-20512681Y23656143D01*
X-20374707Y24093740D01*
X-20275398Y24541696D01*
X-20275118Y24543822D01*
X-20275116Y24543834D01*
X-20215790Y24994464D01*
X-20215508Y24996604D01*
X-20195494Y25455000D01*
X-20215508Y25913396D01*
X-20239567Y26096139D01*
X-20275116Y26366166D01*
X-20275118Y26366178D01*
X-20275398Y26368304D01*
X-20374707Y26816260D01*
X-20399799Y26895842D01*
X-20399265Y26957024D01*
X-20375385Y26995615D01*
X-19854187Y27516813D01*
X-16483641Y27516813D01*
X-16466760Y27387722D01*
X-16414327Y27268558D01*
X-16409790Y27263161D01*
X-16409789Y27263159D01*
X-16375272Y27222097D01*
X-16330555Y27168900D01*
X-16324684Y27164992D01*
X-16324683Y27164991D01*
X-16299855Y27148464D01*
X-16222181Y27096759D01*
X-16215454Y27094657D01*
X-16215451Y27094656D01*
X-16104646Y27060039D01*
X-16104645Y27060039D01*
X-16097914Y27057936D01*
X-16031007Y27056710D01*
X-15974799Y27055679D01*
X-15974797Y27055679D01*
X-15967746Y27055550D01*
X-15960943Y27057405D01*
X-15960941Y27057405D01*
X-15877445Y27080169D01*
X-15842141Y27089794D01*
X-15767315Y27135737D01*
X-15737204Y27154225D01*
X-15737202Y27154227D01*
X-15731195Y27157915D01*
X-15729095Y27160235D01*
X-15673915Y27182191D01*
X-15612673Y27165808D01*
X-15603302Y27159570D01*
X-15530423Y27111057D01*
X-15523696Y27108955D01*
X-15523693Y27108954D01*
X-15412888Y27074337D01*
X-15412887Y27074337D01*
X-15406156Y27072234D01*
X-15339249Y27071008D01*
X-15283041Y27069977D01*
X-15283039Y27069977D01*
X-15275988Y27069848D01*
X-15238131Y27080169D01*
X-15177018Y27077234D01*
X-15136309Y27048357D01*
X-15076009Y26976622D01*
X-15070138Y26972714D01*
X-15070137Y26972713D01*
X-15046568Y26957024D01*
X-14967635Y26904481D01*
X-14960908Y26902379D01*
X-14960905Y26902378D01*
X-14850100Y26867761D01*
X-14850099Y26867761D01*
X-14843368Y26865658D01*
X-14776461Y26864432D01*
X-14720253Y26863401D01*
X-14720251Y26863401D01*
X-14713200Y26863272D01*
X-14706397Y26865127D01*
X-14706395Y26865127D01*
X-14638801Y26883556D01*
X-14587595Y26897516D01*
X-14476649Y26965637D01*
X-14389283Y27062158D01*
X-14350380Y27142453D01*
X-14335594Y27172972D01*
X-14332518Y27179321D01*
X-14327197Y27210943D01*
X-14311552Y27303936D01*
X-14311552Y27303940D01*
X-14310918Y27307706D01*
X-14310781Y27318925D01*
X-14311337Y27322811D01*
X-14328237Y27440817D01*
X-14329237Y27447800D01*
X-14336516Y27463811D01*
X-14380202Y27559891D01*
X-14380203Y27559892D01*
X-14383123Y27566315D01*
X-14468105Y27664942D01*
X-14474022Y27668777D01*
X-14474024Y27668779D01*
X-14530848Y27705610D01*
X-4959140Y27705610D01*
X-4958225Y27698613D01*
X-4958225Y27698612D01*
X-4954324Y27668779D01*
X-4942259Y27576519D01*
X-4939421Y27570068D01*
X-4939420Y27570066D01*
X-4929614Y27547781D01*
X-4889826Y27457355D01*
X-4885289Y27451958D01*
X-4885288Y27451956D01*
X-4863767Y27426354D01*
X-4806054Y27357697D01*
X-4800183Y27353789D01*
X-4800182Y27353788D01*
X-4773570Y27336073D01*
X-4697680Y27285556D01*
X-4690953Y27283454D01*
X-4690950Y27283453D01*
X-4580145Y27248836D01*
X-4580144Y27248836D01*
X-4573413Y27246733D01*
X-4506506Y27245507D01*
X-4450298Y27244476D01*
X-4450296Y27244476D01*
X-4443245Y27244347D01*
X-4436442Y27246202D01*
X-4436440Y27246202D01*
X-4368846Y27264631D01*
X-4317640Y27278591D01*
X-4206694Y27346712D01*
X-4171884Y27385169D01*
X-4124060Y27438005D01*
X-4124060Y27438006D01*
X-4119328Y27443233D01*
X-4062563Y27560396D01*
X-4060680Y27571584D01*
X-4041597Y27685011D01*
X-4041597Y27685015D01*
X-4040963Y27688781D01*
X-4040826Y27700000D01*
X-4045396Y27731915D01*
X-4058282Y27821892D01*
X-4059282Y27828875D01*
X-4064627Y27840632D01*
X-4110247Y27940966D01*
X-4110248Y27940967D01*
X-4113168Y27947390D01*
X-4198150Y28046017D01*
X-4204067Y28049852D01*
X-4204069Y28049854D01*
X-4290091Y28105610D01*
X1440860Y28105610D01*
X1457741Y27976519D01*
X1460579Y27970068D01*
X1460580Y27970066D01*
X1477202Y27932291D01*
X1506967Y27864645D01*
X1507896Y27862533D01*
X1514026Y27801655D01*
X1506896Y27780589D01*
X1465890Y27693249D01*
X1445860Y27564610D01*
X1462741Y27435519D01*
X1465579Y27429068D01*
X1465580Y27429066D01*
X1469835Y27419396D01*
X1515174Y27316355D01*
X1519711Y27310958D01*
X1519712Y27310956D01*
X1537778Y27289464D01*
X1598946Y27216697D01*
X1604817Y27212789D01*
X1604818Y27212788D01*
X1631430Y27195073D01*
X1707320Y27144556D01*
X1714047Y27142454D01*
X1714050Y27142453D01*
X1824855Y27107836D01*
X1824856Y27107836D01*
X1831587Y27105733D01*
X1898494Y27104507D01*
X1954702Y27103476D01*
X1954704Y27103476D01*
X1961755Y27103347D01*
X1968558Y27105202D01*
X1968560Y27105202D01*
X2036154Y27123631D01*
X2087360Y27137591D01*
X2198306Y27205712D01*
X2233277Y27244347D01*
X2280940Y27297005D01*
X2280940Y27297006D01*
X2285672Y27302233D01*
X2342437Y27419396D01*
X2346448Y27443233D01*
X2363403Y27544011D01*
X2363403Y27544015D01*
X2364037Y27547781D01*
X2364174Y27559000D01*
X2345718Y27687875D01*
X2341946Y27696173D01*
X2297026Y27794967D01*
X2290153Y27855765D01*
X2298054Y27879108D01*
X2334360Y27954044D01*
X2334361Y27954047D01*
X2337437Y27960396D01*
X2340482Y27978490D01*
X2358403Y28085011D01*
X2358403Y28085015D01*
X2359037Y28088781D01*
X2359174Y28100000D01*
X2340718Y28228875D01*
X2304063Y28309493D01*
X2297190Y28370289D01*
X2305091Y28393634D01*
X2334361Y28454047D01*
X2337437Y28460396D01*
X2359037Y28588781D01*
X2359174Y28600000D01*
X2340718Y28728875D01*
X2335373Y28740632D01*
X2289753Y28840966D01*
X2289752Y28840967D01*
X2286832Y28847390D01*
X2201850Y28946017D01*
X2195933Y28949852D01*
X2195931Y28949854D01*
X2098523Y29012990D01*
X2098521Y29012991D01*
X2092601Y29016828D01*
X1967870Y29054130D01*
X1894593Y29054578D01*
X1844734Y29054883D01*
X1844733Y29054883D01*
X1837683Y29054926D01*
X1830906Y29052989D01*
X1830905Y29052989D01*
X1719285Y29021088D01*
X1719283Y29021087D01*
X1712505Y29019150D01*
X1602400Y28949679D01*
X1597733Y28944395D01*
X1597731Y28944393D01*
X1594446Y28940673D01*
X1516219Y28852097D01*
X1460890Y28734249D01*
X1440860Y28605610D01*
X1457741Y28476519D01*
X1460579Y28470068D01*
X1460580Y28470066D01*
X1496164Y28389195D01*
X1502294Y28328317D01*
X1495163Y28307249D01*
X1460890Y28234249D01*
X1440860Y28105610D01*
X-4290091Y28105610D01*
X-4301477Y28112990D01*
X-4301479Y28112991D01*
X-4307399Y28116828D01*
X-4432130Y28154130D01*
X-4505407Y28154578D01*
X-4555266Y28154883D01*
X-4555267Y28154883D01*
X-4562317Y28154926D01*
X-4569094Y28152989D01*
X-4569095Y28152989D01*
X-4680715Y28121088D01*
X-4680717Y28121087D01*
X-4687495Y28119150D01*
X-4797600Y28049679D01*
X-4802267Y28044395D01*
X-4802269Y28044393D01*
X-4873099Y27964192D01*
X-4883781Y27952097D01*
X-4939110Y27834249D01*
X-4959140Y27705610D01*
X-14530848Y27705610D01*
X-14571432Y27731915D01*
X-14571434Y27731916D01*
X-14577354Y27735753D01*
X-14702085Y27773055D01*
X-14775362Y27773503D01*
X-14825221Y27773808D01*
X-14825222Y27773808D01*
X-14832272Y27773851D01*
X-14863245Y27764999D01*
X-14924390Y27767188D01*
X-14965448Y27795565D01*
X-15026288Y27866174D01*
X-15026289Y27866175D01*
X-15030893Y27871518D01*
X-15036810Y27875353D01*
X-15036812Y27875355D01*
X-15134220Y27938491D01*
X-15134222Y27938492D01*
X-15140142Y27942329D01*
X-15264873Y27979631D01*
X-15338150Y27980079D01*
X-15388009Y27980384D01*
X-15388010Y27980384D01*
X-15395060Y27980427D01*
X-15401837Y27978490D01*
X-15401838Y27978490D01*
X-15513458Y27946589D01*
X-15513460Y27946588D01*
X-15520238Y27944651D01*
X-15630343Y27875180D01*
X-15630814Y27875926D01*
X-15681780Y27854920D01*
X-15743220Y27870552D01*
X-15825978Y27924193D01*
X-15825980Y27924194D01*
X-15831900Y27928031D01*
X-15956631Y27965333D01*
X-16029908Y27965781D01*
X-16079767Y27966086D01*
X-16079768Y27966086D01*
X-16086818Y27966129D01*
X-16093595Y27964192D01*
X-16093596Y27964192D01*
X-16205216Y27932291D01*
X-16205218Y27932290D01*
X-16211996Y27930353D01*
X-16322101Y27860882D01*
X-16326768Y27855598D01*
X-16326770Y27855596D01*
X-16402243Y27770138D01*
X-16408282Y27763300D01*
X-16463611Y27645452D01*
X-16483641Y27516813D01*
X-19854187Y27516813D01*
X-15116388Y32254612D01*
X8191858Y32254612D01*
X8208739Y32125521D01*
X8261172Y32006357D01*
X8344944Y31906699D01*
X8453318Y31834558D01*
X8460045Y31832456D01*
X8460048Y31832455D01*
X8570853Y31797838D01*
X8570854Y31797838D01*
X8577585Y31795735D01*
X8609786Y31795145D01*
X8622802Y31794906D01*
X8680636Y31774936D01*
X8715687Y31724785D01*
X8719151Y31708760D01*
X8733240Y31601020D01*
X8785673Y31481856D01*
X8869445Y31382198D01*
X8875316Y31378290D01*
X8875317Y31378289D01*
X8901929Y31360574D01*
X8977819Y31310057D01*
X8984546Y31307955D01*
X8984549Y31307954D01*
X9095354Y31273337D01*
X9095355Y31273337D01*
X9102086Y31271234D01*
X9168993Y31270008D01*
X9225201Y31268977D01*
X9225203Y31268977D01*
X9232254Y31268848D01*
X9239057Y31270703D01*
X9239059Y31270703D01*
X9306653Y31289132D01*
X9357859Y31303092D01*
X9468805Y31371213D01*
X9485599Y31389767D01*
X9538667Y31420221D01*
X9599500Y31413667D01*
X9644862Y31372607D01*
X9656818Y31308100D01*
X9650548Y31267829D01*
X9640860Y31205610D01*
X9657741Y31076519D01*
X9660579Y31070068D01*
X9660580Y31070066D01*
X9664835Y31060396D01*
X9710174Y30957355D01*
X9714711Y30951958D01*
X9714712Y30951956D01*
X9751668Y30907992D01*
X9793946Y30857697D01*
X9799817Y30853789D01*
X9799818Y30853788D01*
X9826430Y30836073D01*
X9902320Y30785556D01*
X9909047Y30783454D01*
X9909050Y30783453D01*
X10019855Y30748836D01*
X10019856Y30748836D01*
X10026587Y30746733D01*
X10093494Y30745507D01*
X10149702Y30744476D01*
X10149704Y30744476D01*
X10156755Y30744347D01*
X10163558Y30746202D01*
X10163560Y30746202D01*
X10231154Y30764631D01*
X10282360Y30778591D01*
X10393306Y30846712D01*
X10399543Y30853602D01*
X10475940Y30938005D01*
X10475940Y30938006D01*
X10480672Y30943233D01*
X10537437Y31060396D01*
X10547194Y31118385D01*
X10558403Y31185011D01*
X10558403Y31185015D01*
X10559037Y31188781D01*
X10559174Y31200000D01*
X10540718Y31328875D01*
X10519090Y31376444D01*
X10489753Y31440966D01*
X10489752Y31440967D01*
X10486832Y31447390D01*
X10432258Y31510727D01*
X10406455Y31540673D01*
X10406454Y31540674D01*
X10401850Y31546017D01*
X10395933Y31549852D01*
X10395931Y31549854D01*
X10298523Y31612990D01*
X10298521Y31612991D01*
X10292601Y31616828D01*
X10167870Y31654130D01*
X10094593Y31654578D01*
X10044734Y31654883D01*
X10044733Y31654883D01*
X10037683Y31654926D01*
X10030906Y31652989D01*
X10030905Y31652989D01*
X9919285Y31621088D01*
X9919283Y31621087D01*
X9912505Y31619150D01*
X9802400Y31549679D01*
X9797733Y31544394D01*
X9797730Y31544392D01*
X9790332Y31536015D01*
X9737640Y31504915D01*
X9676731Y31510727D01*
X9630871Y31551230D01*
X9617577Y31610954D01*
X9618501Y31617975D01*
X9633902Y31709512D01*
X9633902Y31709516D01*
X9634536Y31713282D01*
X9634673Y31724501D01*
X9616217Y31853376D01*
X9591973Y31906699D01*
X9565252Y31965467D01*
X9565251Y31965468D01*
X9562331Y31971891D01*
X9477349Y32070518D01*
X9471432Y32074353D01*
X9471430Y32074355D01*
X9374022Y32137491D01*
X9374020Y32137492D01*
X9368100Y32141329D01*
X9243369Y32178631D01*
X9218562Y32178783D01*
X9205443Y32178863D01*
X9147369Y32198126D01*
X9111709Y32247845D01*
X9108049Y32263826D01*
X9092716Y32370895D01*
X9092716Y32370896D01*
X9091716Y32377877D01*
X9086371Y32389634D01*
X9040751Y32489968D01*
X9040750Y32489969D01*
X9037830Y32496392D01*
X8952848Y32595019D01*
X8946931Y32598854D01*
X8946929Y32598856D01*
X8849521Y32661992D01*
X8849519Y32661993D01*
X8843599Y32665830D01*
X8718868Y32703132D01*
X8645591Y32703580D01*
X8595732Y32703885D01*
X8595731Y32703885D01*
X8588681Y32703928D01*
X8581904Y32701991D01*
X8581903Y32701991D01*
X8470283Y32670090D01*
X8470281Y32670089D01*
X8463503Y32668152D01*
X8353398Y32598681D01*
X8348731Y32593397D01*
X8348729Y32593395D01*
X8290979Y32528005D01*
X8267217Y32501099D01*
X8211888Y32383251D01*
X8191858Y32254612D01*
X-15116388Y32254612D01*
X-14575390Y32795610D01*
X-11119140Y32795610D01*
X-11102259Y32666519D01*
X-11099421Y32660068D01*
X-11099420Y32660066D01*
X-11095165Y32650396D01*
X-11049826Y32547355D01*
X-11045289Y32541958D01*
X-11045288Y32541956D01*
X-11006987Y32496392D01*
X-10966054Y32447697D01*
X-10960183Y32443789D01*
X-10960182Y32443788D01*
X-10933570Y32426073D01*
X-10857680Y32375556D01*
X-10850953Y32373454D01*
X-10850950Y32373453D01*
X-10740145Y32338836D01*
X-10740144Y32338836D01*
X-10733413Y32336733D01*
X-10666506Y32335507D01*
X-10610298Y32334476D01*
X-10610296Y32334476D01*
X-10603245Y32334347D01*
X-10596442Y32336202D01*
X-10596440Y32336202D01*
X-10528846Y32354631D01*
X-10477640Y32368591D01*
X-10366694Y32436712D01*
X-10314192Y32494715D01*
X-10284060Y32528005D01*
X-10284060Y32528006D01*
X-10279328Y32533233D01*
X-10222563Y32650396D01*
X-10220208Y32664389D01*
X-10201597Y32775011D01*
X-10201597Y32775015D01*
X-10200963Y32778781D01*
X-10200826Y32790000D01*
X-10219282Y32918875D01*
X-10224627Y32930632D01*
X-10270247Y33030966D01*
X-10270248Y33030967D01*
X-10273168Y33037390D01*
X-10358150Y33136017D01*
X-10364067Y33139852D01*
X-10364069Y33139854D01*
X-10461477Y33202990D01*
X-10461479Y33202991D01*
X-10467399Y33206828D01*
X-10592130Y33244130D01*
X-10665407Y33244578D01*
X-10715266Y33244883D01*
X-10715267Y33244883D01*
X-10722317Y33244926D01*
X-10729094Y33242989D01*
X-10729095Y33242989D01*
X-10840715Y33211088D01*
X-10840717Y33211087D01*
X-10847495Y33209150D01*
X-10957600Y33139679D01*
X-10962267Y33134395D01*
X-10962269Y33134393D01*
X-10983431Y33110431D01*
X-11043781Y33042097D01*
X-11099110Y32924249D01*
X-11119140Y32795610D01*
X-14575390Y32795610D01*
X-14431068Y32939932D01*
X-14426339Y32944360D01*
X-14308862Y33047385D01*
X-14236972Y33110431D01*
X-14226708Y33118307D01*
X-14019961Y33256451D01*
X-14008751Y33262922D01*
X-13785761Y33372888D01*
X-13773798Y33377844D01*
X-13538353Y33457767D01*
X-13525853Y33461117D01*
X-13281980Y33509626D01*
X-13269155Y33511314D01*
X-13017807Y33527788D01*
X-13011333Y33528000D01*
X13138333Y33528000D01*
X13144807Y33527788D01*
G37*
G04 #@! TD.AperFunction*
M02*
