G04 #@! TF.GenerationSoftware,KiCad,Pcbnew,(6.0.11-0)*
G04 #@! TF.CreationDate,2023-01-30T23:46:06+00:00*
G04 #@! TF.ProjectId,maxbox,6d617862-6f78-42e6-9b69-6361645f7063,rev?*
G04 #@! TF.SameCoordinates,Original*
G04 #@! TF.FileFunction,Copper,L4,Bot*
G04 #@! TF.FilePolarity,Positive*
%FSLAX46Y46*%
G04 Gerber Fmt 4.6, Leading zero omitted, Abs format (unit mm)*
G04 Created by KiCad (PCBNEW (6.0.11-0)) date 2023-01-30 23:46:06*
%MOMM*%
%LPD*%
G01*
G04 APERTURE LIST*
G04 #@! TA.AperFunction,ComponentPad*
%ADD10C,0.600000*%
G04 #@! TD*
G04 #@! TA.AperFunction,SMDPad,CuDef*
%ADD11R,3.500000X3.500000*%
G04 #@! TD*
G04 #@! TA.AperFunction,ConnectorPad*
%ADD12C,0.787400*%
G04 #@! TD*
G04 #@! TA.AperFunction,ViaPad*
%ADD13C,0.400000*%
G04 #@! TD*
G04 #@! TA.AperFunction,Conductor*
%ADD14C,0.250000*%
G04 #@! TD*
G04 APERTURE END LIST*
D10*
X-1319500Y-30928000D03*
D11*
X-1319500Y-29478000D03*
D10*
X-2769500Y-30928000D03*
X-2769500Y-29478000D03*
X-2769500Y-28028000D03*
X-1319500Y-28028000D03*
X130500Y-30928000D03*
X130500Y-29478000D03*
X-1319500Y-29478000D03*
X130500Y-28028000D03*
D12*
X-23730000Y-635000D03*
X-23730000Y635000D03*
X-25000000Y-635000D03*
X-25000000Y635000D03*
X-26270000Y-635000D03*
X-26270000Y635000D03*
D13*
X-7200000Y7900000D03*
X-1524000Y-33655000D03*
X-10200000Y5200000D03*
X1016000Y-34417000D03*
X-6000000Y9100000D03*
X-17780000Y10922000D03*
X-8400000Y6800000D03*
X-6600000Y8500000D03*
X-9000000Y6300000D03*
X15748000Y30861000D03*
X-15748000Y-30734000D03*
X-6350000Y-28194000D03*
X11303000Y-254000D03*
X-9600000Y5700000D03*
X-3810000Y-34417000D03*
X-10200000Y3800000D03*
X-1600000Y13500000D03*
X12827000Y0D03*
X-4500000Y27700000D03*
X11430000Y-33909000D03*
X12827000Y508000D03*
X-7800000Y7400000D03*
X-23700000Y1600000D03*
X-3048000Y-26035000D03*
X-6100000Y-22200000D03*
X-10660000Y32790000D03*
X31300000Y-15300000D03*
X-6350000Y-30734000D03*
X32893000Y10668000D03*
X-32893000Y-10922000D03*
X-30734000Y15494000D03*
X-8255000Y-18288000D03*
X-5400000Y9600000D03*
X13843000Y0D03*
X-16891000Y16637000D03*
X-17526000Y17145000D03*
X-16891000Y17780000D03*
X-18161000Y16510000D03*
X-18796000Y17018000D03*
X-18161000Y17653000D03*
X-17526000Y18288000D03*
X-14732000Y5588000D03*
X-14200000Y6100000D03*
X-13589000Y6604000D03*
X-4800000Y15200000D03*
X-5400000Y15800000D03*
X-8255000Y13208000D03*
X-25000000Y1600000D03*
X0Y-34417000D03*
X19685000Y10922000D03*
X2413000Y-33655000D03*
X22606000Y7874000D03*
X4445000Y-13335000D03*
X6477000Y-26670000D03*
X8600000Y-29400000D03*
X5715000Y-13335000D03*
X6096000Y-35941000D03*
X10000000Y0D03*
X-10500000Y13100000D03*
X-5207000Y-7747000D03*
X-6350000Y-31750000D03*
X2540000Y-31369000D03*
X5969000Y26797000D03*
X6985000Y-14605000D03*
X2700000Y27900000D03*
X3700000Y28600000D03*
X4445000Y-12065000D03*
X-9144000Y-18288000D03*
X-4826000Y-27432000D03*
X6985000Y-12065000D03*
X8255000Y-12065000D03*
X5969000Y25527000D03*
X6985000Y-13335000D03*
X6985000Y-10795000D03*
X6477000Y-28956000D03*
X3700000Y27900000D03*
X4445000Y-10795000D03*
X16637000Y13843000D03*
X-3100000Y28000000D03*
X5715000Y-14605000D03*
X-6350000Y-29210000D03*
X-12446000Y-5080000D03*
X-4064000Y1778000D03*
X4445000Y-14605000D03*
X-9017000Y-4064000D03*
X6858000Y-41783000D03*
X8255000Y-13335000D03*
X-7366000Y-34544000D03*
X13843000Y508000D03*
X8255000Y-10795000D03*
X5715000Y-12065000D03*
X8255000Y-14605000D03*
X2700000Y28600000D03*
X-16256000Y16002000D03*
X2159000Y1905000D03*
X-5715000Y-5080000D03*
X-8636000Y-41656000D03*
X-2794000Y-34417000D03*
X13970000Y-23622000D03*
X7747000Y-36830000D03*
X5715000Y-10795000D03*
X-4699000Y1143000D03*
X-13600000Y10100000D03*
X9525000Y-2794000D03*
X1795000Y-1905000D03*
X745000Y-1905000D03*
X4064000Y-2159000D03*
X8001000Y-1777998D03*
X7978892Y1292108D03*
X-19558000Y6858000D03*
X-8001000Y18542000D03*
X-7366000Y19050000D03*
X-19685000Y5842000D03*
X-6858000Y18415000D03*
X-20193000Y6223000D03*
X-7366000Y17907000D03*
X1900000Y28100000D03*
X-19050000Y6477000D03*
X1900000Y28600000D03*
X1905000Y27559000D03*
X-444500Y6159500D03*
X-444500Y9080500D03*
X-7117589Y-10643355D03*
X-23700000Y-1600000D03*
X-1905000Y-10668000D03*
X-26300000Y1600000D03*
X-14769955Y27318925D03*
X17653217Y-30677367D03*
X24700000Y17300000D03*
X28650000Y13350000D03*
X-26750000Y-14350000D03*
X-30100000Y9200000D03*
X-9300000Y-31600000D03*
X10100000Y31200000D03*
X29100000Y-10000000D03*
X-8948531Y-32457653D03*
X-30624501Y8624501D03*
X28570879Y14170879D03*
X22145878Y20645878D03*
X29624501Y-9175499D03*
X-26720879Y-15120879D03*
X-15332743Y27525501D03*
X17606756Y-31372662D03*
X9175499Y31724501D03*
X28400000Y15100000D03*
X-26741758Y-15841758D03*
X-16024501Y27511203D03*
X8650998Y32249002D03*
X-31149002Y8049002D03*
X30149002Y-8350998D03*
X17735144Y-31975722D03*
X-8689810Y-33330140D03*
X-1500000Y-48500000D03*
X600000Y-45500000D03*
X-25075500Y-1646837D03*
X-6973359Y-11240882D03*
X-180739Y-14150739D03*
X-2037443Y-12587080D03*
X-24529122Y-2929122D03*
X-6350000Y-11920990D03*
X-11429998Y-10033000D03*
X0Y-15367000D03*
X2413000Y-32512000D03*
X6477000Y-32512000D03*
D14*
X-23730000Y1570000D02*
X-23700000Y1600000D01*
X-23730000Y635000D02*
X-23730000Y1570000D01*
X-25000000Y1600000D02*
X-25000000Y635000D01*
X9525000Y-2794000D02*
X4699000Y-2794000D01*
X1795000Y-1905000D02*
X745000Y-1905000D01*
X4699000Y-2794000D02*
X4064000Y-2159000D01*
X7978892Y1292108D02*
X7978892Y-1755890D01*
X7978892Y-1755890D02*
X8001000Y-1777998D01*
X-444500Y9080500D02*
X-444500Y8797658D01*
X-444500Y8797658D02*
X-444500Y6159500D01*
X-23700000Y-1600000D02*
X-23700000Y-665000D01*
X-1905000Y-10668000D02*
X-7092944Y-10668000D01*
X-7092944Y-10668000D02*
X-7117589Y-10643355D01*
X-26300000Y1600000D02*
X-26300000Y665000D01*
X29100000Y-10000000D02*
X29100000Y-26500000D01*
X24700000Y-30900000D02*
X17875850Y-30900000D01*
X-30100000Y12016486D02*
X-14797561Y27318925D01*
X-14769955Y27430045D02*
X-14769955Y27318925D01*
X10100000Y31200000D02*
X-11000000Y31200000D01*
X-14797561Y27318925D02*
X-14769955Y27318925D01*
X24700000Y17350000D02*
X10850000Y31200000D01*
X10850000Y31200000D02*
X10100000Y31200000D01*
X-11000000Y31200000D02*
X-14769955Y27430045D01*
X29100000Y-10000000D02*
X29100000Y12900000D01*
X29100000Y-26500000D02*
X24700000Y-30900000D01*
X29100000Y12900000D02*
X28650000Y13350000D01*
X-26750000Y-14350000D02*
X-30100000Y-11000000D01*
X-9500000Y-31600000D02*
X-26750000Y-14350000D01*
X24700000Y17300000D02*
X24700000Y17350000D01*
X-30100000Y-11000000D02*
X-30100000Y9200000D01*
X-30100000Y9200000D02*
X-30100000Y12016486D01*
X-9300000Y-31600000D02*
X-9500000Y-31600000D01*
X17875850Y-30900000D02*
X17653217Y-30677367D01*
X28650000Y13350000D02*
X24700000Y17300000D01*
X-30624501Y8624501D02*
X-30624501Y12169445D01*
X29624501Y-9175499D02*
X29624501Y13117257D01*
X17687301Y-31387861D02*
X17621955Y-31387861D01*
X9175499Y31724501D02*
X-11217257Y31724501D01*
X9175499Y31724501D02*
X11067255Y31724501D01*
X28570879Y14170879D02*
X22145878Y20595880D01*
X29624501Y13117257D02*
X28570879Y14170879D01*
X29624501Y-9175499D02*
X29624501Y-26611203D01*
X-30624501Y-11217257D02*
X-30624501Y8624501D01*
X24885215Y-31350489D02*
X17724672Y-31350490D01*
X22145878Y20595880D02*
X22145878Y20645878D01*
X-9384105Y-32457653D02*
X-26720879Y-15120879D01*
X29624501Y-26611203D02*
X24885215Y-31350489D01*
X-11217257Y31724501D02*
X-15332743Y27609015D01*
X17724672Y-31350490D02*
X17687301Y-31387861D01*
X17621955Y-31387861D02*
X17606756Y-31372662D01*
X-8948531Y-32457653D02*
X-9384105Y-32457653D01*
X-15332743Y27461203D02*
X-15332743Y27525501D01*
X-15332743Y27609015D02*
X-15332743Y27525501D01*
X-30624501Y12169445D02*
X-15332743Y27461203D01*
X-26720879Y-15120879D02*
X-30624501Y-11217257D01*
X11067255Y31724501D02*
X22145878Y20645878D01*
X28400000Y15100000D02*
X30149002Y13350998D01*
X17910866Y-31800000D02*
X17735144Y-31975722D01*
X30149002Y-26722406D02*
X25071408Y-31800000D01*
X-11350998Y32249002D02*
X-16024501Y27575499D01*
X11284512Y32249002D02*
X8650998Y32249002D01*
X30149002Y-8350998D02*
X30149002Y-26722406D01*
X28400000Y15100000D02*
X28400000Y15133514D01*
X30149002Y13350998D02*
X30149002Y-8350998D01*
X-26741758Y-15841758D02*
X-9253376Y-33330140D01*
X-16024501Y27511203D02*
X-31149002Y12386702D01*
X8650998Y32249002D02*
X-11350998Y32249002D01*
X-16024501Y27575499D02*
X-16024501Y27511203D01*
X-31149002Y12386702D02*
X-31149002Y8049002D01*
X25071408Y-31800000D02*
X17910866Y-31800000D01*
X-31149002Y-11434514D02*
X-26741758Y-15841758D01*
X-31149002Y8049002D02*
X-31149002Y-11434514D01*
X28400000Y15133514D02*
X11284512Y32249002D01*
X-9253376Y-33330140D02*
X-8689810Y-33330140D01*
X600000Y-46400000D02*
X-1500000Y-48500000D01*
X600000Y-45500000D02*
X600000Y-46400000D01*
X-180739Y-13666782D02*
X-2544521Y-11303000D01*
X-25258163Y-1646837D02*
X-25075500Y-1646837D01*
X-6911241Y-11303000D02*
X-6973359Y-11240882D01*
X-180739Y-14150739D02*
X-180739Y-13666782D01*
X-26270000Y-635000D02*
X-25258163Y-1646837D01*
X-2544521Y-11303000D02*
X-6911241Y-11303000D01*
X-2037443Y-12587080D02*
X-2703533Y-11920990D01*
X-2703533Y-11920990D02*
X-6350000Y-11920990D01*
X-24529122Y-1105878D02*
X-24529122Y-2929122D01*
X-25000000Y-635000D02*
X-24529122Y-1105878D01*
X-9016998Y-12446000D02*
X-11429998Y-10033000D01*
X-2921000Y-12446000D02*
X-9016998Y-12446000D01*
X0Y-15367000D02*
X-2921000Y-12446000D01*
X6477000Y-32512000D02*
X2413000Y-32512000D01*
M02*
