G04 #@! TF.GenerationSoftware,KiCad,Pcbnew,(6.0.11-0)*
G04 #@! TF.CreationDate,2023-01-30T23:46:06+00:00*
G04 #@! TF.ProjectId,maxbox,6d617862-6f78-42e6-9b69-6361645f7063,rev?*
G04 #@! TF.SameCoordinates,Original*
G04 #@! TF.FileFunction,Legend,Bot*
G04 #@! TF.FilePolarity,Positive*
%FSLAX46Y46*%
G04 Gerber Fmt 4.6, Leading zero omitted, Abs format (unit mm)*
G04 Created by KiCad (PCBNEW (6.0.11-0)) date 2023-01-30 23:46:06*
%MOMM*%
%LPD*%
G01*
G04 APERTURE LIST*
%ADD10C,0.120000*%
%ADD11C,0.010000*%
%ADD12C,1.090600*%
%ADD13C,0.887400*%
G04 APERTURE END LIST*
D10*
X-23730000Y-1270000D02*
X-23095000Y-1270000D01*
X-23095000Y-1270000D02*
X-23095000Y-635000D01*
G36*
X304503Y-27425751D02*
G01*
X624417Y-27604777D01*
X629304Y-28532763D01*
X634191Y-29460750D01*
X311804Y-29645482D01*
X220887Y-29697526D01*
X127965Y-29750594D01*
X53940Y-29792731D01*
X4751Y-29820556D01*
X-13662Y-29830690D01*
X-28244Y-29822981D01*
X-74181Y-29797309D01*
X-145686Y-29756861D01*
X-236845Y-29704983D01*
X-341746Y-29645022D01*
X-666750Y-29458877D01*
X-672262Y-28536374D01*
X-677774Y-27613870D01*
X-346592Y-27430298D01*
X-15411Y-27246726D01*
X304503Y-27425751D01*
G37*
D11*
X304503Y-27425751D02*
X624417Y-27604777D01*
X629304Y-28532763D01*
X634191Y-29460750D01*
X311804Y-29645482D01*
X220887Y-29697526D01*
X127965Y-29750594D01*
X53940Y-29792731D01*
X4751Y-29820556D01*
X-13662Y-29830690D01*
X-28244Y-29822981D01*
X-74181Y-29797309D01*
X-145686Y-29756861D01*
X-236845Y-29704983D01*
X-341746Y-29645022D01*
X-666750Y-29458877D01*
X-672262Y-28536374D01*
X-677774Y-27613870D01*
X-346592Y-27430298D01*
X-15411Y-27246726D01*
X304503Y-27425751D01*
G36*
X317841Y-22395431D02*
G01*
X340019Y-22408331D01*
X427277Y-22458957D01*
X545719Y-22527544D01*
X691262Y-22611733D01*
X859824Y-22709165D01*
X1047321Y-22817481D01*
X1249670Y-22934323D01*
X1462788Y-23057330D01*
X1682593Y-23184145D01*
X1905000Y-23312408D01*
X2029544Y-23384218D01*
X2237455Y-23504095D01*
X2433869Y-23617344D01*
X2615639Y-23722151D01*
X2779617Y-23816700D01*
X2922657Y-23899177D01*
X3041612Y-23967767D01*
X3133334Y-24020656D01*
X3194676Y-24056029D01*
X3222492Y-24072071D01*
X3280566Y-24105583D01*
X3280022Y-26000000D01*
X3279478Y-27894416D01*
X2671614Y-28257438D01*
X2063750Y-28620459D01*
X2057881Y-26722854D01*
X2052012Y-24825250D01*
X1372135Y-24423083D01*
X1359636Y-24415690D01*
X1206189Y-24325028D01*
X1064379Y-24241419D01*
X938333Y-24167284D01*
X832185Y-24105046D01*
X750062Y-24057126D01*
X696096Y-24025946D01*
X674417Y-24013929D01*
X674115Y-24013956D01*
X670456Y-24036351D01*
X666834Y-24096705D01*
X663342Y-24190979D01*
X660072Y-24315132D01*
X657119Y-24465125D01*
X654574Y-24636919D01*
X652530Y-24826474D01*
X651080Y-25029750D01*
X645584Y-26052560D01*
X328084Y-26236948D01*
X242164Y-26286438D01*
X146658Y-26340395D01*
X68505Y-26383359D01*
X14082Y-26411837D01*
X-10234Y-26422334D01*
X-28688Y-26415333D01*
X-79005Y-26390196D01*
X-154192Y-26350016D01*
X-247910Y-26298193D01*
X-353821Y-26238125D01*
X-676588Y-26052916D01*
X-687916Y-24034726D01*
X-1390660Y-24440571D01*
X-2093403Y-24846416D01*
X-2099743Y-26734276D01*
X-2106083Y-28622137D01*
X-2709333Y-28255731D01*
X-3312583Y-27889326D01*
X-3317372Y-26008038D01*
X-3322162Y-24126750D01*
X-3137456Y-24021990D01*
X-3100443Y-24000785D01*
X-3024487Y-23956886D01*
X-2918154Y-23895194D01*
X-2784841Y-23817687D01*
X-2627947Y-23726346D01*
X-2450868Y-23623148D01*
X-2257003Y-23510074D01*
X-2049750Y-23389103D01*
X-1832505Y-23262214D01*
X-1608666Y-23131387D01*
X-1417129Y-23019441D01*
X-1201824Y-22893701D01*
X-997274Y-22774343D01*
X-806700Y-22663242D01*
X-633327Y-22562275D01*
X-480375Y-22473316D01*
X-351069Y-22398242D01*
X-248629Y-22338926D01*
X-176280Y-22297245D01*
X-137242Y-22275073D01*
X-9901Y-22204605D01*
X317841Y-22395431D01*
G37*
X317841Y-22395431D02*
X340019Y-22408331D01*
X427277Y-22458957D01*
X545719Y-22527544D01*
X691262Y-22611733D01*
X859824Y-22709165D01*
X1047321Y-22817481D01*
X1249670Y-22934323D01*
X1462788Y-23057330D01*
X1682593Y-23184145D01*
X1905000Y-23312408D01*
X2029544Y-23384218D01*
X2237455Y-23504095D01*
X2433869Y-23617344D01*
X2615639Y-23722151D01*
X2779617Y-23816700D01*
X2922657Y-23899177D01*
X3041612Y-23967767D01*
X3133334Y-24020656D01*
X3194676Y-24056029D01*
X3222492Y-24072071D01*
X3280566Y-24105583D01*
X3280022Y-26000000D01*
X3279478Y-27894416D01*
X2671614Y-28257438D01*
X2063750Y-28620459D01*
X2057881Y-26722854D01*
X2052012Y-24825250D01*
X1372135Y-24423083D01*
X1359636Y-24415690D01*
X1206189Y-24325028D01*
X1064379Y-24241419D01*
X938333Y-24167284D01*
X832185Y-24105046D01*
X750062Y-24057126D01*
X696096Y-24025946D01*
X674417Y-24013929D01*
X674115Y-24013956D01*
X670456Y-24036351D01*
X666834Y-24096705D01*
X663342Y-24190979D01*
X660072Y-24315132D01*
X657119Y-24465125D01*
X654574Y-24636919D01*
X652530Y-24826474D01*
X651080Y-25029750D01*
X645584Y-26052560D01*
X328084Y-26236948D01*
X242164Y-26286438D01*
X146658Y-26340395D01*
X68505Y-26383359D01*
X14082Y-26411837D01*
X-10234Y-26422334D01*
X-28688Y-26415333D01*
X-79005Y-26390196D01*
X-154192Y-26350016D01*
X-247910Y-26298193D01*
X-353821Y-26238125D01*
X-676588Y-26052916D01*
X-687916Y-24034726D01*
X-1390660Y-24440571D01*
X-2093403Y-24846416D01*
X-2099743Y-26734276D01*
X-2106083Y-28622137D01*
X-2709333Y-28255731D01*
X-3312583Y-27889326D01*
X-3317372Y-26008038D01*
X-3322162Y-24126750D01*
X-3137456Y-24021990D01*
X-3100443Y-24000785D01*
X-3024487Y-23956886D01*
X-2918154Y-23895194D01*
X-2784841Y-23817687D01*
X-2627947Y-23726346D01*
X-2450868Y-23623148D01*
X-2257003Y-23510074D01*
X-2049750Y-23389103D01*
X-1832505Y-23262214D01*
X-1608666Y-23131387D01*
X-1417129Y-23019441D01*
X-1201824Y-22893701D01*
X-997274Y-22774343D01*
X-806700Y-22663242D01*
X-633327Y-22562275D01*
X-480375Y-22473316D01*
X-351069Y-22398242D01*
X-248629Y-22338926D01*
X-176280Y-22297245D01*
X-137242Y-22275073D01*
X-9901Y-22204605D01*
X317841Y-22395431D01*
G36*
X1175578Y3033772D02*
G01*
X1111019Y2673915D01*
X976059Y2359906D01*
X772754Y2094253D01*
X503154Y1879471D01*
X169313Y1718070D01*
X-226716Y1612563D01*
X-420158Y1592192D01*
X-680482Y1589007D01*
X-964471Y1603775D01*
X-1241756Y1634850D01*
X-1481970Y1680586D01*
X-1676941Y1737594D01*
X-2036359Y1890780D01*
X-2344772Y2088448D01*
X-2400316Y2130682D01*
X-2480902Y2185052D01*
X-2517796Y2199519D01*
X-2524729Y2179697D01*
X-2544401Y2095702D01*
X-2568845Y1971786D01*
X-2607842Y1759766D01*
X-3360513Y1748186D01*
X-3578558Y1745698D01*
X-3792251Y1745207D01*
X-3961567Y1746982D01*
X-4073035Y1750870D01*
X-4113184Y1756719D01*
X-4105844Y1791985D01*
X-4080914Y1889157D01*
X-4044432Y2022722D01*
X-4037485Y2049252D01*
X-4021629Y2127710D01*
X-4008239Y2227821D01*
X-3996998Y2357479D01*
X-3987588Y2524578D01*
X-3979691Y2737012D01*
X-3972989Y3002677D01*
X-3967164Y3329466D01*
X-3961900Y3725274D01*
X-3958834Y4013802D01*
X-2459428Y4013802D01*
X-2442764Y3665675D01*
X-2383901Y3346618D01*
X-2279695Y3088947D01*
X-2127176Y2885546D01*
X-1923375Y2729298D01*
X-1868970Y2698524D01*
X-1766685Y2651552D01*
X-1657767Y2623127D01*
X-1516165Y2607692D01*
X-1315827Y2599689D01*
X-1161492Y2597292D01*
X-964889Y2603572D01*
X-816758Y2626030D01*
X-694926Y2668755D01*
X-577218Y2735833D01*
X-499542Y2798929D01*
X-387930Y2961462D01*
X-332477Y3157395D01*
X-332010Y3367730D01*
X-385356Y3573466D01*
X-491341Y3755606D01*
X-648794Y3895152D01*
X-753184Y3950656D01*
X-883285Y3999841D01*
X-1050080Y4043827D01*
X-1269502Y4086781D01*
X-1557484Y4132871D01*
X-1752587Y4164360D01*
X-1989416Y4213000D01*
X-2190541Y4270789D01*
X-2385221Y4345235D01*
X-2408523Y4352837D01*
X-2435760Y4343502D01*
X-2451116Y4293743D01*
X-2457902Y4188772D01*
X-2459428Y4013802D01*
X-3958834Y4013802D01*
X-3956877Y4197996D01*
X-3954171Y4473616D01*
X-3949288Y4919052D01*
X-3943594Y5291788D01*
X-3935995Y5599662D01*
X-3925399Y5850515D01*
X-3910711Y6052184D01*
X-3890837Y6212508D01*
X-3864683Y6339328D01*
X-3831156Y6440482D01*
X-3789161Y6523808D01*
X-3737605Y6597147D01*
X-3675394Y6668337D01*
X-3601434Y6745216D01*
X-3517131Y6825645D01*
X-3290092Y6991253D01*
X-3013998Y7125738D01*
X-2671448Y7238326D01*
X-2646671Y7244690D01*
X-2451722Y7277922D01*
X-2196468Y7301507D01*
X-1901495Y7315432D01*
X-1587385Y7319683D01*
X-1274722Y7314247D01*
X-984089Y7299112D01*
X-736070Y7274263D01*
X-551247Y7239689D01*
X-189554Y7118533D01*
X185104Y6927736D01*
X493472Y6689397D01*
X733204Y6405831D01*
X901954Y6079351D01*
X997375Y5712273D01*
X1027330Y5512521D01*
X-497677Y5512521D01*
X-520640Y5683724D01*
X-530999Y5739256D01*
X-618637Y5942237D01*
X-770466Y6117560D01*
X-970186Y6244879D01*
X-1155620Y6300677D01*
X-1399638Y6330493D01*
X-1658852Y6329184D01*
X-1901788Y6297045D01*
X-2096968Y6234369D01*
X-2221389Y6151657D01*
X-2357507Y5986512D01*
X-2439796Y5785332D01*
X-2460058Y5570857D01*
X-2410093Y5365830D01*
X-2369855Y5299963D01*
X-2278926Y5217105D01*
X-2141653Y5145144D01*
X-1950343Y5081680D01*
X-1697307Y5024315D01*
X-1374852Y4970649D01*
X-975287Y4918284D01*
X-847365Y4902139D01*
X-356985Y4819357D01*
X56894Y4710477D01*
X398614Y4572297D01*
X672514Y4401612D01*
X882935Y4195219D01*
X1034216Y3949914D01*
X1130697Y3662493D01*
X1171467Y3367730D01*
X1176720Y3329753D01*
X1175578Y3033772D01*
G37*
G36*
X-7631714Y6507515D02*
G01*
X-7604831Y6467413D01*
X-7462475Y6259012D01*
X-7336177Y6080504D01*
X-7233520Y5942164D01*
X-7162090Y5854268D01*
X-7129469Y5827089D01*
X-7128294Y5827983D01*
X-7091218Y5873868D01*
X-7015468Y5978001D01*
X-6908918Y6129219D01*
X-6779443Y6316358D01*
X-6634917Y6528255D01*
X-6173923Y7208681D01*
X-4442350Y7208681D01*
X-4545176Y7070868D01*
X-4575217Y7029935D01*
X-4663062Y6907058D01*
X-4781905Y6738204D01*
X-4925127Y6533006D01*
X-5086108Y6301097D01*
X-5258231Y6052109D01*
X-5434876Y5795677D01*
X-5609423Y5541433D01*
X-5775254Y5299009D01*
X-5925751Y5078040D01*
X-6054292Y4888159D01*
X-6154261Y4738997D01*
X-6219037Y4640190D01*
X-6242002Y4601368D01*
X-6239876Y4596531D01*
X-6203317Y4537521D01*
X-6125350Y4418514D01*
X-6011102Y4247141D01*
X-5865700Y4031030D01*
X-5694273Y3777811D01*
X-5501946Y3495113D01*
X-5293849Y3190565D01*
X-5232262Y3100593D01*
X-5027515Y2801060D01*
X-4839470Y2525327D01*
X-4673342Y2281081D01*
X-4534344Y2076011D01*
X-4427690Y1917805D01*
X-4358595Y1814149D01*
X-4332271Y1772733D01*
X-4332869Y1770744D01*
X-4382960Y1760596D01*
X-4503096Y1751902D01*
X-4680815Y1745162D01*
X-4903653Y1740876D01*
X-5159149Y1739544D01*
X-6000162Y1740524D01*
X-6547132Y2566422D01*
X-6642917Y2710365D01*
X-6790713Y2929610D01*
X-6919583Y3117275D01*
X-7022649Y3263513D01*
X-7093037Y3358477D01*
X-7123868Y3392320D01*
X-7137431Y3379676D01*
X-7193034Y3307649D01*
X-7284030Y3180463D01*
X-7403541Y3007965D01*
X-7544691Y2800002D01*
X-7700605Y2566422D01*
X-8247575Y1740524D01*
X-9969011Y1738564D01*
X-9831461Y1939983D01*
X-9789002Y2001763D01*
X-9698157Y2133302D01*
X-9570953Y2317107D01*
X-9414031Y2543592D01*
X-9234035Y2803172D01*
X-9037606Y3086261D01*
X-8831387Y3383272D01*
X-8720647Y3543309D01*
X-8507281Y3855567D01*
X-8326664Y4125511D01*
X-8182190Y4347864D01*
X-8077253Y4517348D01*
X-8015248Y4628684D01*
X-7999570Y4676595D01*
X-8019055Y4705777D01*
X-8083199Y4798955D01*
X-8185746Y4946712D01*
X-8320838Y5140639D01*
X-8482615Y5372328D01*
X-8665218Y5633371D01*
X-8862787Y5915359D01*
X-9014607Y6132021D01*
X-9201356Y6398935D01*
X-9368693Y6638556D01*
X-9510753Y6842463D01*
X-9621669Y7002234D01*
X-9695576Y7109445D01*
X-9726609Y7155676D01*
X-9724374Y7171729D01*
X-9683102Y7186562D01*
X-9591578Y7197100D01*
X-9441169Y7203916D01*
X-9223241Y7207585D01*
X-8929161Y7208681D01*
X-8100400Y7208681D01*
X-7631714Y6507515D01*
G37*
G36*
X-1932170Y-8777688D02*
G01*
X-1803661Y-8781314D01*
X-1733336Y-8796913D01*
X-1700010Y-8833208D01*
X-1682498Y-8898921D01*
X-1659885Y-8976264D01*
X-1551187Y-9150807D01*
X-1376600Y-9298140D01*
X-1148654Y-9409268D01*
X-879878Y-9475195D01*
X-678459Y-9503694D01*
X-678459Y-10007346D01*
X-1568944Y-10007346D01*
X-1568944Y-12254758D01*
X-2247408Y-12254758D01*
X-2247408Y-8777630D01*
X-1977082Y-8777630D01*
X-1932170Y-8777688D01*
G37*
G36*
X1911688Y-9711108D02*
G01*
X2061579Y-9718135D01*
X2165888Y-9731423D01*
X2205013Y-9748858D01*
X2204155Y-9753120D01*
X2184846Y-9816537D01*
X2143151Y-9945280D01*
X2083087Y-10127421D01*
X2008670Y-10351034D01*
X1923919Y-10604192D01*
X1832850Y-10874970D01*
X1739482Y-11151440D01*
X1647831Y-11421676D01*
X1561916Y-11673752D01*
X1485753Y-11895742D01*
X1423360Y-12075717D01*
X1378754Y-12201753D01*
X1372135Y-12211575D01*
X1308723Y-12236193D01*
X1175620Y-12250274D01*
X965488Y-12254758D01*
X571381Y-12254758D01*
X158481Y-11013659D01*
X112857Y-10876331D01*
X14180Y-10577951D01*
X-73846Y-10309915D01*
X-147970Y-10082239D01*
X-204941Y-9904940D01*
X-241508Y-9788035D01*
X-254419Y-9741539D01*
X-251014Y-9737152D01*
X-191356Y-9723579D01*
X-72726Y-9714089D01*
X84813Y-9710518D01*
X132747Y-9710696D01*
X281199Y-9713813D01*
X384988Y-9720012D01*
X424045Y-9728245D01*
X432961Y-9765019D01*
X463438Y-9869838D01*
X511079Y-10027149D01*
X571210Y-10222112D01*
X639155Y-10439889D01*
X710238Y-10665638D01*
X779783Y-10884521D01*
X843115Y-11081698D01*
X895558Y-11242328D01*
X932437Y-11351572D01*
X949075Y-11394591D01*
X952910Y-11395446D01*
X963866Y-11380941D01*
X981908Y-11338995D01*
X1009551Y-11261939D01*
X1049312Y-11142103D01*
X1103708Y-10971817D01*
X1175255Y-10743410D01*
X1266470Y-10449212D01*
X1379870Y-10081553D01*
X1494140Y-9710518D01*
X1849577Y-9710518D01*
X1911688Y-9711108D01*
G37*
G36*
X-6721030Y-1273983D02*
G01*
X-6259004Y-1972718D01*
X-6236103Y-2007303D01*
X-6095282Y-2217730D01*
X-5970924Y-2399863D01*
X-5870502Y-2543020D01*
X-5801489Y-2636519D01*
X-5771358Y-2669682D01*
X-5769514Y-2668739D01*
X-5732552Y-2624520D01*
X-5657511Y-2521944D01*
X-5551928Y-2371714D01*
X-5423343Y-2184532D01*
X-5279294Y-1971101D01*
X-4812850Y-1274292D01*
X-3952062Y-1273206D01*
X-3879229Y-1273155D01*
X-3599772Y-1274148D01*
X-3393976Y-1277591D01*
X-3252730Y-1284087D01*
X-3166923Y-1294239D01*
X-3127445Y-1308650D01*
X-3125184Y-1327922D01*
X-3150823Y-1366266D01*
X-3220411Y-1467915D01*
X-3327609Y-1623509D01*
X-3466681Y-1824750D01*
X-3631889Y-2063340D01*
X-3817499Y-2330978D01*
X-4017775Y-2619366D01*
X-4199380Y-2881252D01*
X-4383502Y-3147999D01*
X-4546398Y-3385289D01*
X-4682604Y-3585106D01*
X-4786658Y-3739431D01*
X-4853096Y-3840248D01*
X-4876456Y-3879540D01*
X-4873978Y-3884930D01*
X-4836383Y-3945097D01*
X-4757502Y-4065122D01*
X-4642436Y-4237423D01*
X-4496287Y-4454415D01*
X-4324158Y-4708515D01*
X-4131150Y-4992140D01*
X-3922366Y-5297706D01*
X-3853581Y-5398246D01*
X-3649320Y-5697611D01*
X-3462485Y-5972625D01*
X-3298177Y-6215698D01*
X-3161499Y-6419240D01*
X-3057555Y-6575663D01*
X-2991446Y-6677375D01*
X-2968276Y-6716789D01*
X-2968986Y-6717847D01*
X-3019317Y-6725572D01*
X-3139926Y-6732269D01*
X-3317955Y-6737543D01*
X-3540546Y-6740998D01*
X-3794841Y-6742237D01*
X-4621406Y-6742237D01*
X-5187516Y-5893697D01*
X-5753625Y-5045158D01*
X-6317887Y-5893697D01*
X-6882148Y-6742237D01*
X-8612294Y-6742237D01*
X-8424802Y-6477212D01*
X-8372320Y-6402892D01*
X-8223102Y-6190507D01*
X-8053809Y-5948317D01*
X-7870673Y-5685354D01*
X-7679932Y-5410652D01*
X-7487819Y-5133245D01*
X-7300570Y-4862166D01*
X-7124420Y-4606450D01*
X-6965604Y-4375130D01*
X-6830357Y-4177240D01*
X-6724915Y-4021813D01*
X-6655512Y-3917883D01*
X-6628384Y-3874484D01*
X-6637019Y-3849591D01*
X-6687383Y-3761106D01*
X-6777466Y-3617873D01*
X-6901724Y-3428317D01*
X-7054607Y-3200864D01*
X-7230568Y-2943939D01*
X-7424061Y-2665969D01*
X-7552537Y-2482825D01*
X-7743375Y-2210780D01*
X-7917600Y-1962414D01*
X-8068794Y-1746876D01*
X-8190538Y-1573317D01*
X-8276415Y-1450885D01*
X-8320005Y-1388732D01*
X-8401764Y-1272121D01*
X-6721030Y-1273983D01*
G37*
G36*
X2860119Y-4141177D02*
G01*
X2847005Y-4478794D01*
X2811200Y-4765523D01*
X2747009Y-5026489D01*
X2648736Y-5286816D01*
X2510687Y-5571631D01*
X2412638Y-5739377D01*
X2150519Y-6069712D01*
X1825837Y-6354008D01*
X1448046Y-6585951D01*
X1026597Y-6759224D01*
X570944Y-6867513D01*
X484942Y-6879287D01*
X103383Y-6897975D01*
X-303404Y-6871829D01*
X-709170Y-6804859D01*
X-1087666Y-6701075D01*
X-1412640Y-6564488D01*
X-1574752Y-6466548D01*
X-1839007Y-6258796D01*
X-2091017Y-6007891D01*
X-2308239Y-5737206D01*
X-2468129Y-5470117D01*
X-2538845Y-5315698D01*
X-2649695Y-5020064D01*
X-2721529Y-4725412D01*
X-2760167Y-4404074D01*
X-2768347Y-4131209D01*
X-1265156Y-4131209D01*
X-1256444Y-4385494D01*
X-1231655Y-4590529D01*
X-1138466Y-4923998D01*
X-985813Y-5229990D01*
X-782765Y-5473953D01*
X-532938Y-5650399D01*
X-509208Y-5661763D01*
X-332570Y-5715401D01*
X-109912Y-5748025D01*
X127594Y-5758055D01*
X348778Y-5743905D01*
X522467Y-5703994D01*
X588746Y-5675829D01*
X833169Y-5516549D01*
X1040666Y-5289366D01*
X1203680Y-5004136D01*
X1314653Y-4670716D01*
X1337095Y-4541297D01*
X1357370Y-4299923D01*
X1362780Y-4024411D01*
X1353760Y-3744087D01*
X1330742Y-3488278D01*
X1294161Y-3286311D01*
X1209832Y-3045217D01*
X1045878Y-2765607D01*
X830979Y-2540856D01*
X574086Y-2379782D01*
X284148Y-2291203D01*
X5360Y-2271463D01*
X-312450Y-2318212D01*
X-596339Y-2438950D01*
X-839015Y-2629125D01*
X-1033183Y-2884187D01*
X-1171551Y-3199584D01*
X-1206790Y-3349391D01*
X-1239135Y-3585504D01*
X-1258988Y-3855328D01*
X-1265156Y-4131209D01*
X-2768347Y-4131209D01*
X-2771429Y-4028381D01*
X-2769521Y-3871507D01*
X-2746895Y-3510968D01*
X-2694567Y-3196553D01*
X-2607267Y-2902521D01*
X-2479727Y-2603132D01*
X-2372678Y-2403230D01*
X-2105343Y-2033494D01*
X-1777967Y-1721561D01*
X-1395572Y-1471785D01*
X-963181Y-1288520D01*
X-659088Y-1213766D01*
X-302001Y-1165883D01*
X74574Y-1147285D01*
X439909Y-1159476D01*
X763277Y-1203961D01*
X922688Y-1242813D01*
X1334309Y-1395266D01*
X1715693Y-1611128D01*
X2054173Y-1880905D01*
X2337082Y-2195107D01*
X2551755Y-2544241D01*
X2621178Y-2692253D01*
X2719781Y-2934874D01*
X2788030Y-3165844D01*
X2830908Y-3409115D01*
X2853399Y-3688643D01*
X2860402Y-4024411D01*
X2860485Y-4028381D01*
X2860119Y-4141177D01*
G37*
G36*
X7451697Y7318525D02*
G01*
X7769588Y7247834D01*
X8082904Y7110620D01*
X8393768Y6907080D01*
X8650669Y6663561D01*
X8819491Y6466611D01*
X8819764Y6837646D01*
X8820038Y7208681D01*
X10261774Y7208681D01*
X10261774Y1738564D01*
X8735230Y1738564D01*
X8735230Y3496740D01*
X8735190Y3725835D01*
X8734735Y4120935D01*
X8733465Y4444252D01*
X8731005Y4704446D01*
X8726978Y4910176D01*
X8721008Y5070103D01*
X8712719Y5192885D01*
X8701736Y5287184D01*
X8687681Y5361658D01*
X8670180Y5424967D01*
X8648856Y5485771D01*
X8576721Y5634648D01*
X8424848Y5837111D01*
X8237926Y6001643D01*
X8038725Y6105133D01*
X7944212Y6126095D01*
X7774830Y6142053D01*
X7592371Y6141494D01*
X7460138Y6127611D01*
X7233372Y6058957D01*
X7059654Y5931073D01*
X6928426Y5737535D01*
X6913748Y5705489D01*
X6897097Y5657261D01*
X6883354Y5595294D01*
X6872169Y5511690D01*
X6863191Y5398553D01*
X6856068Y5247987D01*
X6850451Y5052095D01*
X6845988Y4802982D01*
X6842328Y4492750D01*
X6839122Y4113503D01*
X6836017Y3657345D01*
X6823782Y1738564D01*
X5300505Y1738564D01*
X5299469Y3466527D01*
X5298389Y3847456D01*
X5295234Y4243430D01*
X5290203Y4594060D01*
X5283479Y4891455D01*
X5275246Y5127722D01*
X5265686Y5294971D01*
X5254982Y5385309D01*
X5204211Y5545112D01*
X5058234Y5798549D01*
X4849632Y6007337D01*
X4785067Y6053934D01*
X4709090Y6093888D01*
X4619417Y6115970D01*
X4492353Y6125396D01*
X4304205Y6127379D01*
X4204956Y6126901D01*
X4043791Y6120994D01*
X3931931Y6104568D01*
X3845251Y6072925D01*
X3759624Y6021369D01*
X3717974Y5989247D01*
X3600417Y5865181D01*
X3508307Y5724541D01*
X3499119Y5705868D01*
X3478130Y5659209D01*
X3460800Y5608469D01*
X3446717Y5545573D01*
X3435466Y5462450D01*
X3426635Y5351028D01*
X3419808Y5203233D01*
X3414574Y5010994D01*
X3410517Y4766238D01*
X3407224Y4460892D01*
X3404282Y4086885D01*
X3401277Y3636143D01*
X3389026Y1738564D01*
X1865781Y1738564D01*
X1866621Y3636143D01*
X1867112Y3895422D01*
X1869315Y4291757D01*
X1873091Y4665377D01*
X1878243Y5005934D01*
X1884573Y5303078D01*
X1891883Y5546461D01*
X1899973Y5725735D01*
X1908647Y5830551D01*
X1908911Y5832444D01*
X1984491Y6151671D01*
X2114087Y6457641D01*
X2285556Y6727118D01*
X2486758Y6936867D01*
X2682977Y7076313D01*
X2909785Y7187817D01*
X3166498Y7261508D01*
X3470321Y7302197D01*
X3838459Y7314691D01*
X3867799Y7314687D01*
X4087067Y7313614D01*
X4245032Y7308120D01*
X4362827Y7294590D01*
X4461588Y7269409D01*
X4562447Y7228964D01*
X4686539Y7169638D01*
X4953859Y7008574D01*
X5266350Y6741737D01*
X5550224Y6458888D01*
X5597804Y6573756D01*
X5610221Y6600439D01*
X5704154Y6739046D01*
X5841740Y6888998D01*
X5998201Y7025551D01*
X6148756Y7123960D01*
X6391175Y7222730D01*
X6734387Y7303825D01*
X7097262Y7336473D01*
X7451697Y7318525D01*
G37*
G36*
X17962663Y-2075915D02*
G01*
X17806542Y-3227724D01*
X17582206Y-4352801D01*
X17290310Y-5442410D01*
X16931508Y-6487813D01*
X16739092Y-6969970D01*
X16244765Y-8064236D01*
X15689147Y-9106450D01*
X15068850Y-10101446D01*
X14380487Y-11054058D01*
X13620670Y-11969119D01*
X12786012Y-12851464D01*
X11873127Y-13705926D01*
X11505365Y-14022150D01*
X10545167Y-14771060D01*
X9543056Y-15446671D01*
X8500826Y-16048231D01*
X7420269Y-16574986D01*
X6303178Y-17026184D01*
X5151348Y-17401070D01*
X3966570Y-17698893D01*
X2750639Y-17918898D01*
X1505347Y-18060334D01*
X1310291Y-18072882D01*
X1003721Y-18085251D01*
X647009Y-18093786D01*
X259422Y-18098469D01*
X-139777Y-18099279D01*
X-531321Y-18096196D01*
X-895946Y-18089200D01*
X-1214386Y-18078273D01*
X-1467377Y-18063393D01*
X-2153185Y-17997608D01*
X-3394835Y-17816397D01*
X-4601306Y-17558046D01*
X-5772277Y-17222718D01*
X-6907429Y-16810575D01*
X-8006443Y-16321780D01*
X-9068997Y-15756494D01*
X-10094773Y-15114880D01*
X-11083451Y-14397101D01*
X-12034710Y-13603319D01*
X-12948232Y-12733696D01*
X-13823695Y-11788395D01*
X-14248638Y-11280258D01*
X-14955789Y-10333368D01*
X-15598794Y-9335803D01*
X-16174498Y-8293990D01*
X-16679745Y-7214353D01*
X-17111381Y-6103315D01*
X-17466248Y-4967303D01*
X-17741192Y-3812739D01*
X-17934335Y-2666302D01*
X-18057604Y-1494936D01*
X-18110045Y-315354D01*
X-18104747Y36880D01*
X-16945422Y36880D01*
X-16921416Y-767612D01*
X-16899297Y-1066522D01*
X-16776476Y-2196693D01*
X-16592924Y-3279803D01*
X-16345264Y-4328746D01*
X-16030117Y-5356414D01*
X-15644106Y-6375701D01*
X-15183853Y-7399500D01*
X-14991239Y-7786058D01*
X-14406266Y-8837649D01*
X-13760836Y-9829767D01*
X-13054925Y-10762436D01*
X-12288507Y-11635682D01*
X-11461555Y-12449531D01*
X-10574045Y-13204009D01*
X-9625951Y-13899142D01*
X-8617247Y-14534956D01*
X-7547909Y-15111476D01*
X-6480674Y-15601416D01*
X-5401498Y-16013906D01*
X-4305008Y-16349684D01*
X-3182725Y-16611029D01*
X-2026172Y-16800223D01*
X-826873Y-16919544D01*
X-554626Y-16935012D01*
X312204Y-16942295D01*
X1220235Y-16890621D01*
X2156363Y-16781766D01*
X3107480Y-16617505D01*
X4060482Y-16399614D01*
X5002261Y-16129868D01*
X5354509Y-16014035D01*
X6432694Y-15605508D01*
X7483781Y-15125928D01*
X8500107Y-14579966D01*
X9474007Y-13972293D01*
X10397816Y-13307581D01*
X11263871Y-12590501D01*
X12064508Y-11825723D01*
X12738019Y-11087988D01*
X13461891Y-10180998D01*
X14125775Y-9219854D01*
X14726331Y-8210686D01*
X15260219Y-7159623D01*
X15724099Y-6072795D01*
X16114632Y-4956331D01*
X16428478Y-3816361D01*
X16548657Y-3281789D01*
X16663496Y-2679206D01*
X16754174Y-2075971D01*
X16824783Y-1444312D01*
X16879416Y-756455D01*
X16898312Y-352035D01*
X16893164Y484629D01*
X16833413Y1362420D01*
X16720994Y2267280D01*
X16557841Y3185148D01*
X16345886Y4101965D01*
X16087065Y5003672D01*
X15769023Y5917324D01*
X15315073Y7000840D01*
X14790053Y8051592D01*
X14198226Y9062397D01*
X13543852Y10026074D01*
X12831192Y10935442D01*
X12064508Y11783318D01*
X11813903Y12034899D01*
X10991331Y12784804D01*
X10105811Y13485505D01*
X9165010Y14132331D01*
X8176589Y14720611D01*
X7148215Y15245673D01*
X6087551Y15702848D01*
X5002261Y16087463D01*
X4501821Y16237536D01*
X3596151Y16468884D01*
X2682574Y16653047D01*
X1775251Y16788085D01*
X888340Y16872054D01*
X36001Y16903012D01*
X-767607Y16879016D01*
X-1035700Y16859326D01*
X-2199993Y16732873D01*
X-3318811Y16541362D01*
X-4402584Y16282010D01*
X-5461739Y15952033D01*
X-6506705Y15548648D01*
X-7547909Y15069071D01*
X-7933425Y14871742D01*
X-8981294Y14274233D01*
X-9968537Y13617422D01*
X-10895180Y12901281D01*
X-11761247Y12125787D01*
X-12566765Y11290912D01*
X-13311759Y10396631D01*
X-13996254Y9442919D01*
X-14620277Y8429748D01*
X-15183853Y7357095D01*
X-15396327Y6907674D01*
X-15608264Y6429380D01*
X-15793776Y5970839D01*
X-15963847Y5504715D01*
X-16129460Y5003672D01*
X-16278230Y4507778D01*
X-16510181Y3600813D01*
X-16694811Y2686139D01*
X-16830185Y1777858D01*
X-16914367Y890071D01*
X-16945422Y36880D01*
X-18104747Y36880D01*
X-18092312Y863707D01*
X-18005058Y2033510D01*
X-17848936Y3185319D01*
X-17624601Y4310396D01*
X-17332705Y5400005D01*
X-16973902Y6445409D01*
X-16781487Y6927566D01*
X-16287160Y8021831D01*
X-15731541Y9064045D01*
X-15111244Y10059041D01*
X-14422881Y11011653D01*
X-13663065Y11926715D01*
X-12828407Y12809059D01*
X-11915521Y13663521D01*
X-11317924Y14169120D01*
X-10346725Y14901979D01*
X-9336472Y15559956D01*
X-8288603Y16142517D01*
X-7204559Y16649132D01*
X-6085778Y17079267D01*
X-4933700Y17432389D01*
X-3749763Y17707967D01*
X-2535408Y17905467D01*
X-1292073Y18024358D01*
X-21197Y18064106D01*
X895734Y18043638D01*
X2151012Y17946777D01*
X3376325Y17770721D01*
X4570763Y17515886D01*
X5733417Y17182688D01*
X6863377Y16771543D01*
X7959735Y16282868D01*
X9021581Y15717078D01*
X10048005Y15074591D01*
X11038099Y14355823D01*
X11990952Y13561189D01*
X12905656Y12691106D01*
X13781301Y11745990D01*
X14206243Y11237854D01*
X14913394Y10290963D01*
X15556399Y9293399D01*
X16132103Y8251586D01*
X16637351Y7171948D01*
X17068986Y6060911D01*
X17423853Y4924898D01*
X17698797Y3770334D01*
X17891940Y2623897D01*
X18015209Y1452531D01*
X18067649Y272949D01*
X18058250Y-352035D01*
X18049917Y-906112D01*
X17962663Y-2075915D01*
G37*
G36*
X7508944Y-6742237D02*
G01*
X7496628Y-6399217D01*
X7484312Y-6056196D01*
X7346889Y-6251489D01*
X7156116Y-6460591D01*
X6881299Y-6644036D01*
X6538096Y-6780810D01*
X6128378Y-6869961D01*
X5807932Y-6898575D01*
X5371339Y-6872623D01*
X4966959Y-6769406D01*
X4598819Y-6591034D01*
X4270945Y-6339613D01*
X3987365Y-6017253D01*
X3752106Y-5626061D01*
X3694633Y-5505716D01*
X3583789Y-5235973D01*
X3505588Y-4971260D01*
X3455582Y-4689444D01*
X3429320Y-4368394D01*
X3423424Y-4044770D01*
X4919496Y-4044770D01*
X4925336Y-4233574D01*
X4978943Y-4632365D01*
X5086301Y-4980892D01*
X5244625Y-5273390D01*
X5451131Y-5504095D01*
X5703035Y-5667240D01*
X5834199Y-5717788D01*
X6123450Y-5768922D01*
X6417156Y-5748941D01*
X6689623Y-5658084D01*
X6768736Y-5615070D01*
X7017597Y-5419400D01*
X7211882Y-5159513D01*
X7351175Y-4836301D01*
X7435056Y-4450659D01*
X7463110Y-4003478D01*
X7462186Y-3919099D01*
X7424471Y-3496845D01*
X7330833Y-3136068D01*
X7180318Y-2834021D01*
X6971973Y-2587954D01*
X6873949Y-2503170D01*
X6668886Y-2370464D01*
X6451175Y-2299508D01*
X6190990Y-2278483D01*
X6111732Y-2280172D01*
X5843323Y-2320596D01*
X5613825Y-2422099D01*
X5399183Y-2594273D01*
X5372499Y-2621206D01*
X5175051Y-2887075D01*
X5033120Y-3214818D01*
X4947627Y-3601646D01*
X4919496Y-4044770D01*
X3423424Y-4044770D01*
X3422353Y-3985977D01*
X3423665Y-3822667D01*
X3431219Y-3575138D01*
X3447332Y-3376344D01*
X3474243Y-3203017D01*
X3514192Y-3031887D01*
X3548253Y-2911836D01*
X3719639Y-2463299D01*
X3942585Y-2074513D01*
X4213194Y-1748850D01*
X4527569Y-1489686D01*
X4881813Y-1300392D01*
X5272028Y-1184342D01*
X5694318Y-1144909D01*
X5827039Y-1148235D01*
X6237766Y-1202929D01*
X6614336Y-1321403D01*
X6945491Y-1499323D01*
X7219976Y-1732355D01*
X7420706Y-1946951D01*
X7420706Y805676D01*
X8947250Y805676D01*
X8947250Y-6742237D01*
X7508944Y-6742237D01*
G37*
G36*
X-24944050Y-4848732D02*
G01*
X-25011914Y-5040244D01*
X-25109509Y-5212343D01*
X-25234570Y-5361541D01*
X-25384833Y-5484346D01*
X-25558033Y-5577271D01*
X-25751906Y-5636826D01*
X-25849187Y-5650051D01*
X-25987553Y-5654684D01*
X-26131367Y-5647215D01*
X-26262168Y-5627964D01*
X-26347638Y-5605852D01*
X-26527039Y-5530452D01*
X-26685799Y-5422521D01*
X-26821354Y-5285541D01*
X-26931141Y-5122995D01*
X-27012597Y-4938365D01*
X-27063157Y-4735131D01*
X-27075083Y-4582866D01*
X-26580778Y-4582866D01*
X-26577652Y-4619143D01*
X-26545090Y-4792440D01*
X-26486449Y-4941832D01*
X-26403886Y-5063966D01*
X-26299558Y-5155488D01*
X-26175620Y-5213043D01*
X-26062664Y-5238404D01*
X-25945577Y-5241118D01*
X-25818104Y-5216931D01*
X-25796928Y-5210736D01*
X-25679438Y-5153862D01*
X-25581249Y-5062842D01*
X-25499793Y-4935405D01*
X-25432145Y-4760026D01*
X-25401528Y-4570299D01*
X-25410050Y-4369446D01*
X-25457655Y-4156428D01*
X-25470046Y-4121109D01*
X-25528204Y-4011046D01*
X-25607846Y-3912294D01*
X-25699951Y-3834689D01*
X-25795496Y-3788069D01*
X-25887818Y-3770559D01*
X-25999316Y-3764884D01*
X-26108419Y-3771834D01*
X-26196668Y-3791262D01*
X-26197473Y-3791551D01*
X-26316886Y-3855682D01*
X-26416947Y-3952807D01*
X-26495511Y-4078507D01*
X-26550434Y-4228363D01*
X-26579571Y-4397956D01*
X-26580778Y-4582866D01*
X-27075083Y-4582866D01*
X-27080259Y-4516777D01*
X-27077318Y-4424258D01*
X-27046671Y-4203684D01*
X-26984494Y-4001229D01*
X-26892973Y-3820017D01*
X-26774297Y-3663171D01*
X-26630653Y-3533815D01*
X-26464228Y-3435073D01*
X-26277210Y-3370067D01*
X-26195271Y-3355526D01*
X-26061143Y-3345206D01*
X-25917924Y-3346061D01*
X-25781938Y-3357820D01*
X-25669505Y-3380209D01*
X-25616430Y-3397013D01*
X-25431617Y-3481119D01*
X-25272396Y-3596768D01*
X-25139899Y-3742515D01*
X-25035255Y-3916913D01*
X-24959597Y-4118517D01*
X-24914055Y-4345881D01*
X-24906575Y-4421427D01*
X-24907663Y-4570299D01*
X-24908182Y-4641296D01*
X-24944050Y-4848732D01*
G37*
G36*
X-28127905Y-3354379D02*
G01*
X-27997323Y-3380018D01*
X-27988794Y-3382543D01*
X-27799410Y-3460093D01*
X-27632884Y-3571004D01*
X-27491544Y-3712958D01*
X-27377716Y-3883637D01*
X-27293730Y-4080722D01*
X-27273083Y-4148007D01*
X-27255832Y-4220537D01*
X-27245440Y-4295556D01*
X-27240229Y-4385955D01*
X-27238520Y-4504622D01*
X-27238470Y-4521057D01*
X-27239365Y-4631718D01*
X-27243697Y-4715016D01*
X-27253071Y-4783215D01*
X-27269095Y-4848581D01*
X-27293375Y-4923379D01*
X-27335159Y-5029791D01*
X-27438034Y-5216116D01*
X-27567745Y-5371470D01*
X-27723565Y-5495212D01*
X-27904768Y-5586698D01*
X-28110624Y-5645286D01*
X-28121335Y-5646806D01*
X-28176002Y-5649922D01*
X-28254258Y-5650712D01*
X-28342931Y-5648967D01*
X-28434049Y-5643975D01*
X-28510706Y-5633040D01*
X-28577800Y-5612822D01*
X-28651934Y-5579592D01*
X-28716774Y-5543531D01*
X-28794162Y-5491280D01*
X-28852230Y-5441965D01*
X-28924331Y-5367486D01*
X-28944931Y-5487108D01*
X-28965531Y-5606731D01*
X-29125182Y-5612748D01*
X-29284834Y-5618764D01*
X-29284834Y-4401622D01*
X-28357826Y-4401622D01*
X-28357826Y-4772425D01*
X-28629846Y-4772425D01*
X-28727220Y-4773599D01*
X-28790071Y-4779813D01*
X-28823583Y-4795289D01*
X-28832940Y-4824247D01*
X-28823328Y-4870908D01*
X-28799930Y-4939494D01*
X-28776921Y-4993038D01*
X-28702481Y-5096412D01*
X-28600971Y-5173840D01*
X-28477571Y-5222903D01*
X-28337455Y-5241184D01*
X-28185802Y-5226267D01*
X-28137754Y-5214213D01*
X-28013147Y-5157700D01*
X-27911244Y-5068064D01*
X-27829377Y-4943187D01*
X-27770846Y-4796910D01*
X-27735161Y-4628880D01*
X-27727284Y-4457804D01*
X-27746325Y-4291079D01*
X-27791393Y-4136103D01*
X-27861598Y-4000273D01*
X-27956048Y-3890987D01*
X-27983784Y-3867833D01*
X-28082692Y-3806736D01*
X-28193860Y-3773318D01*
X-28329316Y-3763469D01*
X-28341671Y-3763615D01*
X-28478438Y-3781966D01*
X-28590001Y-3832255D01*
X-28679279Y-3916376D01*
X-28749187Y-4036225D01*
X-28792358Y-4133820D01*
X-29249372Y-4133820D01*
X-29237363Y-4032425D01*
X-29221857Y-3951594D01*
X-29164007Y-3806913D01*
X-29072302Y-3673076D01*
X-28951440Y-3555164D01*
X-28806120Y-3458259D01*
X-28641040Y-3387441D01*
X-28575517Y-3370105D01*
X-28433608Y-3349614D01*
X-28278869Y-3344308D01*
X-28127905Y-3354379D01*
G37*
G36*
X-22837041Y-4591004D02*
G01*
X-22837521Y-4794579D01*
X-22838446Y-4983819D01*
X-22839771Y-5154886D01*
X-22841446Y-5303941D01*
X-22843426Y-5427148D01*
X-22845663Y-5520669D01*
X-22848108Y-5580664D01*
X-22850716Y-5603298D01*
X-22871029Y-5608193D01*
X-22925094Y-5612776D01*
X-23003673Y-5615885D01*
X-23097918Y-5617031D01*
X-23331387Y-5617031D01*
X-23331387Y-4751824D01*
X-23635239Y-4751856D01*
X-23650485Y-4751867D01*
X-23772950Y-4752967D01*
X-23862652Y-4756392D01*
X-23927192Y-4762871D01*
X-23974171Y-4773133D01*
X-24011192Y-4787907D01*
X-24034169Y-4800860D01*
X-24085483Y-4845542D01*
X-24126104Y-4910227D01*
X-24158122Y-5000198D01*
X-24183627Y-5120738D01*
X-24204708Y-5277129D01*
X-24206344Y-5291714D01*
X-24218653Y-5393966D01*
X-24230673Y-5482269D01*
X-24241101Y-5547611D01*
X-24248634Y-5580981D01*
X-24249723Y-5583560D01*
X-24261666Y-5598250D01*
X-24286328Y-5607952D01*
X-24330827Y-5613656D01*
X-24402278Y-5616352D01*
X-24507800Y-5617031D01*
X-24508505Y-5617031D01*
X-24603388Y-5616411D01*
X-24681062Y-5614737D01*
X-24733531Y-5612265D01*
X-24752798Y-5609247D01*
X-24752140Y-5606090D01*
X-24741291Y-5575700D01*
X-24721339Y-5526170D01*
X-24709438Y-5485674D01*
X-24694859Y-5409235D01*
X-24681596Y-5313260D01*
X-24671497Y-5209502D01*
X-24664042Y-5124345D01*
X-24652514Y-5020253D01*
X-24640101Y-4931286D01*
X-24628453Y-4870446D01*
X-24608665Y-4816615D01*
X-24565279Y-4739599D01*
X-24510378Y-4666192D01*
X-24452878Y-4607952D01*
X-24401692Y-4576436D01*
X-24388156Y-4570794D01*
X-24383514Y-4557809D01*
X-24405725Y-4535507D01*
X-24459076Y-4498030D01*
X-24489870Y-4475368D01*
X-24580109Y-4378026D01*
X-24644859Y-4256164D01*
X-24681787Y-4117530D01*
X-24682771Y-4096091D01*
X-24195474Y-4096091D01*
X-24179620Y-4191380D01*
X-24137594Y-4275722D01*
X-24069082Y-4339293D01*
X-24065607Y-4341387D01*
X-24035845Y-4356555D01*
X-24000981Y-4367298D01*
X-23953797Y-4374362D01*
X-23887075Y-4378494D01*
X-23793595Y-4380439D01*
X-23666139Y-4380944D01*
X-23331387Y-4381021D01*
X-23331387Y-3783617D01*
X-23655839Y-3783649D01*
X-23708821Y-3783751D01*
X-23825350Y-3785187D01*
X-23910695Y-3788838D01*
X-23972132Y-3795366D01*
X-24016938Y-3805433D01*
X-24052392Y-3819699D01*
X-24089166Y-3842808D01*
X-24149932Y-3911979D01*
X-24185473Y-3999682D01*
X-24195474Y-4096091D01*
X-24682771Y-4096091D01*
X-24688561Y-3969872D01*
X-24662850Y-3820938D01*
X-24630905Y-3740373D01*
X-24554496Y-3623822D01*
X-24453039Y-3523922D01*
X-24336251Y-3451662D01*
X-24310060Y-3440147D01*
X-24280674Y-3429103D01*
X-24248120Y-3420366D01*
X-24207646Y-3413610D01*
X-24154497Y-3408507D01*
X-24083920Y-3404730D01*
X-23991159Y-3401953D01*
X-23871461Y-3399848D01*
X-23720072Y-3398088D01*
X-23532238Y-3396346D01*
X-22836983Y-3390178D01*
X-22836983Y-4489871D01*
X-22837041Y-4591004D01*
G37*
G36*
X-20663683Y-207012D02*
G01*
X-20663825Y-470047D01*
X-20664167Y-696718D01*
X-20664781Y-890075D01*
X-20665737Y-1053164D01*
X-20667106Y-1189033D01*
X-20668959Y-1300730D01*
X-20671366Y-1391303D01*
X-20674398Y-1463799D01*
X-20678126Y-1521266D01*
X-20682620Y-1566752D01*
X-20687951Y-1603305D01*
X-20694190Y-1633971D01*
X-20701408Y-1661800D01*
X-20740730Y-1777469D01*
X-20808034Y-1911624D01*
X-20900873Y-2041863D01*
X-21025477Y-2178113D01*
X-21033549Y-2186140D01*
X-21182681Y-2316859D01*
X-21330900Y-2411029D01*
X-21485175Y-2472273D01*
X-21652474Y-2504216D01*
X-21668844Y-2505421D01*
X-21732016Y-2507806D01*
X-21832248Y-2510028D01*
X-21966746Y-2512089D01*
X-22132717Y-2513986D01*
X-22327365Y-2515720D01*
X-22547897Y-2517289D01*
X-22791519Y-2518693D01*
X-23055436Y-2519930D01*
X-23336853Y-2521000D01*
X-23632977Y-2521903D01*
X-23941014Y-2522637D01*
X-24258168Y-2523201D01*
X-24581647Y-2523595D01*
X-24908655Y-2523819D01*
X-25236398Y-2523870D01*
X-25562083Y-2523749D01*
X-25882914Y-2523455D01*
X-26196097Y-2522986D01*
X-26498839Y-2522343D01*
X-26788345Y-2521524D01*
X-27061821Y-2520528D01*
X-27316472Y-2519355D01*
X-27549504Y-2518004D01*
X-27758124Y-2516474D01*
X-27939536Y-2514764D01*
X-28090946Y-2512874D01*
X-28209561Y-2510802D01*
X-28292586Y-2508548D01*
X-28337226Y-2506112D01*
X-28419942Y-2495279D01*
X-28578161Y-2457331D01*
X-28720214Y-2395086D01*
X-28855927Y-2303646D01*
X-28995123Y-2178113D01*
X-29096696Y-2069304D01*
X-29195613Y-1938634D01*
X-29267701Y-1806107D01*
X-29319192Y-1661800D01*
X-29325580Y-1637439D01*
X-29331814Y-1607769D01*
X-29337167Y-1572612D01*
X-29341706Y-1528992D01*
X-29345497Y-1473933D01*
X-29348607Y-1404458D01*
X-29351101Y-1317593D01*
X-29353048Y-1210360D01*
X-29354512Y-1079784D01*
X-29355562Y-922888D01*
X-29356262Y-736697D01*
X-29356680Y-518234D01*
X-29356882Y-264522D01*
X-29356934Y27413D01*
X-29356934Y65347D01*
X-29356912Y304812D01*
X-28996169Y304812D01*
X-28996088Y19676D01*
X-28995888Y-215055D01*
X-28995518Y-449683D01*
X-28994909Y-649362D01*
X-28993970Y-817439D01*
X-28992608Y-957258D01*
X-28990732Y-1072167D01*
X-28988251Y-1165509D01*
X-28985072Y-1240632D01*
X-28981103Y-1300881D01*
X-28976254Y-1349602D01*
X-28970432Y-1390140D01*
X-28963545Y-1425842D01*
X-28955502Y-1460052D01*
X-28918564Y-1587987D01*
X-28870942Y-1701994D01*
X-28810078Y-1798380D01*
X-28729445Y-1889548D01*
X-28626557Y-1977073D01*
X-28464877Y-2068078D01*
X-28278126Y-2126535D01*
X-28264058Y-2128513D01*
X-28205389Y-2132467D01*
X-28109672Y-2136129D01*
X-27979704Y-2139497D01*
X-27818278Y-2142573D01*
X-27628189Y-2145357D01*
X-27412232Y-2147850D01*
X-27173201Y-2150051D01*
X-26913890Y-2151961D01*
X-26637095Y-2153581D01*
X-26345609Y-2154911D01*
X-26042226Y-2155951D01*
X-25729743Y-2156702D01*
X-25410952Y-2157164D01*
X-25088649Y-2157337D01*
X-24765627Y-2157223D01*
X-24444683Y-2156821D01*
X-24128609Y-2156131D01*
X-23820200Y-2155155D01*
X-23522252Y-2153892D01*
X-23237558Y-2152343D01*
X-22968912Y-2150509D01*
X-22719111Y-2148389D01*
X-22490947Y-2145985D01*
X-22287215Y-2143296D01*
X-22110711Y-2140323D01*
X-21964228Y-2137066D01*
X-21850560Y-2133526D01*
X-21772503Y-2129703D01*
X-21732851Y-2125598D01*
X-21637861Y-2100166D01*
X-21466464Y-2025010D01*
X-21321414Y-1918638D01*
X-21203931Y-1782318D01*
X-21115240Y-1617315D01*
X-21056563Y-1424898D01*
X-21054708Y-1414606D01*
X-21047999Y-1350105D01*
X-21042095Y-1250082D01*
X-21036994Y-1119048D01*
X-21032697Y-961514D01*
X-21029204Y-781992D01*
X-21026514Y-584991D01*
X-21024626Y-375022D01*
X-21023542Y-156598D01*
X-21023259Y65771D01*
X-21023778Y287575D01*
X-21025099Y504302D01*
X-21027222Y711442D01*
X-21030145Y904483D01*
X-21033869Y1078914D01*
X-21038393Y1230225D01*
X-21043717Y1353904D01*
X-21049841Y1445441D01*
X-21056765Y1500325D01*
X-21083691Y1607923D01*
X-21138696Y1747260D01*
X-21216631Y1867575D01*
X-21324401Y1981276D01*
X-21360410Y2013080D01*
X-21469099Y2092601D01*
X-21584408Y2149080D01*
X-21717524Y2187153D01*
X-21879630Y2211458D01*
X-21891433Y2212420D01*
X-21951676Y2215018D01*
X-22049188Y2217418D01*
X-22181063Y2219620D01*
X-22344394Y2221625D01*
X-22536275Y2223432D01*
X-22753800Y2225042D01*
X-22994062Y2226456D01*
X-23254156Y2227673D01*
X-23531175Y2228693D01*
X-23822212Y2229517D01*
X-24124362Y2230145D01*
X-24434719Y2230577D01*
X-24750375Y2230813D01*
X-25068426Y2230854D01*
X-25385964Y2230699D01*
X-25700083Y2230350D01*
X-26007878Y2229806D01*
X-26306441Y2229067D01*
X-26592867Y2228133D01*
X-26864249Y2227006D01*
X-27117681Y2225684D01*
X-27350257Y2224168D01*
X-27559071Y2222459D01*
X-27741216Y2220557D01*
X-27893786Y2218461D01*
X-28013875Y2216172D01*
X-28098577Y2213691D01*
X-28144985Y2211016D01*
X-28172211Y2207856D01*
X-28274856Y2191736D01*
X-28372279Y2170871D01*
X-28446532Y2148955D01*
X-28523445Y2111474D01*
X-28629496Y2038156D01*
X-28732355Y1946640D01*
X-28820278Y1847643D01*
X-28881522Y1751885D01*
X-28884061Y1746646D01*
X-28905756Y1700257D01*
X-28924482Y1655076D01*
X-28940453Y1607840D01*
X-28953886Y1555287D01*
X-28964997Y1494156D01*
X-28974002Y1421184D01*
X-28981115Y1333108D01*
X-28986553Y1226667D01*
X-28990532Y1098599D01*
X-28993268Y945642D01*
X-28994975Y764533D01*
X-28995870Y552010D01*
X-28996169Y304812D01*
X-29356912Y304812D01*
X-29356906Y368446D01*
X-29356657Y633618D01*
X-29355955Y863794D01*
X-29354565Y1061904D01*
X-29352254Y1230881D01*
X-29348787Y1373656D01*
X-29343930Y1493159D01*
X-29337450Y1592322D01*
X-29329113Y1674076D01*
X-29318684Y1741352D01*
X-29305931Y1797082D01*
X-29290618Y1844197D01*
X-29272512Y1885627D01*
X-29251378Y1924305D01*
X-29226984Y1963161D01*
X-29199095Y2005127D01*
X-29198768Y2005617D01*
X-29135650Y2088441D01*
X-29053162Y2180439D01*
X-28960161Y2273212D01*
X-28865502Y2358363D01*
X-28778039Y2427492D01*
X-28706629Y2472201D01*
X-28688376Y2481357D01*
X-28665210Y2493186D01*
X-28643038Y2503934D01*
X-28619941Y2513655D01*
X-28594002Y2522399D01*
X-28563302Y2530218D01*
X-28525924Y2537164D01*
X-28479950Y2543287D01*
X-28423463Y2548641D01*
X-28354543Y2553275D01*
X-28271273Y2557242D01*
X-28171736Y2560593D01*
X-28054014Y2563380D01*
X-27916187Y2565654D01*
X-27756340Y2567467D01*
X-27572553Y2568870D01*
X-27362909Y2569915D01*
X-27125491Y2570654D01*
X-26858379Y2571137D01*
X-26559656Y2571417D01*
X-26227405Y2571545D01*
X-25859707Y2571573D01*
X-25454645Y2571552D01*
X-25010300Y2571533D01*
X-24712449Y2571512D01*
X-24282902Y2571391D01*
X-23891778Y2571150D01*
X-23537390Y2570776D01*
X-23218049Y2570257D01*
X-22932067Y2569578D01*
X-22677755Y2568728D01*
X-22453425Y2567693D01*
X-22257389Y2566460D01*
X-22087957Y2565016D01*
X-21943442Y2563348D01*
X-21822156Y2561443D01*
X-21722408Y2559288D01*
X-21642513Y2556869D01*
X-21580779Y2554174D01*
X-21535521Y2551190D01*
X-21505048Y2547904D01*
X-21487672Y2544302D01*
X-21431877Y2524496D01*
X-21311541Y2468941D01*
X-21198991Y2395073D01*
X-21080055Y2294196D01*
X-21064406Y2279625D01*
X-20928896Y2141304D01*
X-20826817Y2009371D01*
X-20753729Y1875879D01*
X-20705190Y1732880D01*
X-20676759Y1572425D01*
X-20675006Y1543818D01*
X-20672936Y1474024D01*
X-20671001Y1369499D01*
X-20669230Y1233817D01*
X-20667651Y1070552D01*
X-20666294Y883280D01*
X-20665188Y675575D01*
X-20664362Y451012D01*
X-20663845Y213167D01*
X-20663738Y65771D01*
X-20663666Y-34387D01*
X-20663683Y-207012D01*
G37*
G36*
X-21353771Y-5617031D02*
G01*
X-21353771Y-4813625D01*
X-21691504Y-4813625D01*
X-21749703Y-4813504D01*
X-21872609Y-4811861D01*
X-21966614Y-4807684D01*
X-22040528Y-4800199D01*
X-22103159Y-4788632D01*
X-22163316Y-4772212D01*
X-22221779Y-4750827D01*
X-22358968Y-4671631D01*
X-22475102Y-4561414D01*
X-22562993Y-4426396D01*
X-22582787Y-4384264D01*
X-22602803Y-4330344D01*
X-22614195Y-4274114D01*
X-22619256Y-4202623D01*
X-22620280Y-4102919D01*
X-22144328Y-4102919D01*
X-22143588Y-4131280D01*
X-22121887Y-4241400D01*
X-22069562Y-4324593D01*
X-21985860Y-4382188D01*
X-21950085Y-4396281D01*
X-21899969Y-4408724D01*
X-21835278Y-4416468D01*
X-21747151Y-4420491D01*
X-21626723Y-4421769D01*
X-21353771Y-4422222D01*
X-21353771Y-3783617D01*
X-21626723Y-3784069D01*
X-21726478Y-3784913D01*
X-21820209Y-3788324D01*
X-21888774Y-3795266D01*
X-21941037Y-3806716D01*
X-21985860Y-3823651D01*
X-22007281Y-3834344D01*
X-22083921Y-3897531D01*
X-22129352Y-3986613D01*
X-22144328Y-4102919D01*
X-22620280Y-4102919D01*
X-22618290Y-3998597D01*
X-22611404Y-3919624D01*
X-22597827Y-3857693D01*
X-22575765Y-3800598D01*
X-22571403Y-3791290D01*
X-22486391Y-3658706D01*
X-22371061Y-3545964D01*
X-22234376Y-3461954D01*
X-22105677Y-3402514D01*
X-21482522Y-3396005D01*
X-20859367Y-3389495D01*
X-20859367Y-5617031D01*
X-21353771Y-5617031D01*
G37*
G36*
X-35987085Y-3060147D02*
G01*
X-36058005Y-3342101D01*
X-36172998Y-3600462D01*
X-36336176Y-3845296D01*
X-36551653Y-4086668D01*
X-36559127Y-4094121D01*
X-36773324Y-4287763D01*
X-36983685Y-4435053D01*
X-37204722Y-4544683D01*
X-37450949Y-4625347D01*
X-37624960Y-4659255D01*
X-37862601Y-4680963D01*
X-38113755Y-4682793D01*
X-38355963Y-4664718D01*
X-38566766Y-4626711D01*
X-38602130Y-4617399D01*
X-38843420Y-4536062D01*
X-39059779Y-4426411D01*
X-39266175Y-4279572D01*
X-39477577Y-4086668D01*
X-39559548Y-4001575D01*
X-39756170Y-3760134D01*
X-39901940Y-3511692D01*
X-40000970Y-3246183D01*
X-40057372Y-2953543D01*
X-40075259Y-2623706D01*
X-39764681Y-2623706D01*
X-39764600Y-2644296D01*
X-39751935Y-2855035D01*
X-39714089Y-3049208D01*
X-39645906Y-3246339D01*
X-39542228Y-3465955D01*
X-39454308Y-3614086D01*
X-39265652Y-3845028D01*
X-39034811Y-4042371D01*
X-38768452Y-4200819D01*
X-38473243Y-4315075D01*
X-38385915Y-4336004D01*
X-38236420Y-4359714D01*
X-38075457Y-4375170D01*
X-37925747Y-4380377D01*
X-37810012Y-4373339D01*
X-37674582Y-4345859D01*
X-37427237Y-4266530D01*
X-37172366Y-4151319D01*
X-37126615Y-4126602D01*
X-36881096Y-3956317D01*
X-36670589Y-3744319D01*
X-36499387Y-3497834D01*
X-36371784Y-3224087D01*
X-36292073Y-2930302D01*
X-36264549Y-2623706D01*
X-36264630Y-2603116D01*
X-36277295Y-2392376D01*
X-36315140Y-2198203D01*
X-36383324Y-2001072D01*
X-36487002Y-1781457D01*
X-36511718Y-1735706D01*
X-36682004Y-1490187D01*
X-36894002Y-1279680D01*
X-37140487Y-1108478D01*
X-37414234Y-980875D01*
X-37708018Y-901164D01*
X-38014615Y-873640D01*
X-38035205Y-873721D01*
X-38245944Y-886386D01*
X-38440117Y-924231D01*
X-38637248Y-992415D01*
X-38856864Y-1096093D01*
X-38902615Y-1120809D01*
X-39148133Y-1291095D01*
X-39358641Y-1503093D01*
X-39529843Y-1749578D01*
X-39657446Y-2023325D01*
X-39737156Y-2317109D01*
X-39764681Y-2623706D01*
X-40075259Y-2623706D01*
X-40073103Y-2502878D01*
X-40042145Y-2187265D01*
X-39971225Y-1905310D01*
X-39856232Y-1646949D01*
X-39693053Y-1402115D01*
X-39477577Y-1160744D01*
X-39392484Y-1078772D01*
X-39151043Y-882150D01*
X-38902601Y-736381D01*
X-38637092Y-637351D01*
X-38344452Y-580948D01*
X-38014615Y-563061D01*
X-37893787Y-565217D01*
X-37578174Y-596176D01*
X-37296219Y-667096D01*
X-37037858Y-782089D01*
X-36793024Y-945267D01*
X-36551653Y-1160744D01*
X-36469681Y-1245836D01*
X-36273059Y-1487278D01*
X-36127290Y-1735720D01*
X-36028260Y-2001228D01*
X-35971857Y-2293868D01*
X-35953970Y-2623706D01*
X-35956126Y-2744534D01*
X-35987085Y-3060147D01*
G37*
G36*
X-38261887Y1877560D02*
G01*
X-38138251Y2077282D01*
X-38054401Y2212698D01*
X-37973733Y2341364D01*
X-37913720Y2432299D01*
X-37868604Y2492041D01*
X-37832625Y2527128D01*
X-37800022Y2544097D01*
X-37765037Y2549484D01*
X-37721910Y2549827D01*
X-37605409Y2549827D01*
X-37597367Y2054007D01*
X-37595814Y1928619D01*
X-37595337Y1775631D01*
X-37596585Y1649641D01*
X-37599434Y1561129D01*
X-37603756Y1520578D01*
X-37605845Y1516607D01*
X-37648116Y1492706D01*
X-37720480Y1482969D01*
X-37822771Y1482969D01*
X-37839241Y2164119D01*
X-38046047Y1830851D01*
X-38075776Y1782971D01*
X-38151288Y1663033D01*
X-38206226Y1582176D01*
X-38248321Y1532351D01*
X-38285306Y1505511D01*
X-38324913Y1493609D01*
X-38374873Y1488595D01*
X-38496893Y1479607D01*
X-38496893Y2564442D01*
X-38263061Y2564442D01*
X-38261887Y1877560D01*
G37*
G36*
X-41419793Y1453740D02*
G01*
X-41653625Y1453740D01*
X-41653625Y2535213D01*
X-41419793Y2535213D01*
X-41419793Y1453740D01*
G37*
G36*
X-32709551Y-3193671D02*
G01*
X-33498734Y-3193671D01*
X-33498734Y-2989068D01*
X-32943383Y-2989068D01*
X-32943383Y-2726007D01*
X-33440276Y-2726007D01*
X-33440276Y-2550633D01*
X-32943383Y-2550633D01*
X-32943383Y-2348224D01*
X-33213752Y-2339820D01*
X-33484120Y-2331416D01*
X-33484120Y-2126813D01*
X-33096836Y-2118657D01*
X-32709551Y-2110502D01*
X-32709551Y-3193671D01*
G37*
G36*
X-31544277Y-3060147D02*
G01*
X-31615197Y-3342101D01*
X-31730190Y-3600462D01*
X-31893369Y-3845296D01*
X-32108845Y-4086668D01*
X-32116319Y-4094121D01*
X-32330516Y-4287763D01*
X-32540877Y-4435053D01*
X-32761914Y-4544683D01*
X-33008141Y-4625347D01*
X-33182152Y-4659255D01*
X-33419793Y-4680963D01*
X-33670947Y-4682793D01*
X-33913155Y-4664718D01*
X-34123958Y-4626711D01*
X-34159322Y-4617399D01*
X-34400613Y-4536062D01*
X-34616971Y-4426411D01*
X-34823367Y-4279572D01*
X-35034769Y-4086668D01*
X-35116741Y-4001575D01*
X-35313362Y-3760134D01*
X-35459132Y-3511692D01*
X-35558162Y-3246183D01*
X-35614564Y-2953543D01*
X-35632451Y-2623706D01*
X-35321873Y-2623706D01*
X-35321792Y-2644296D01*
X-35309127Y-2855035D01*
X-35271281Y-3049208D01*
X-35203098Y-3246339D01*
X-35099420Y-3465955D01*
X-35011501Y-3614086D01*
X-34822844Y-3845028D01*
X-34592003Y-4042371D01*
X-34325645Y-4200819D01*
X-34030436Y-4315075D01*
X-33943107Y-4336004D01*
X-33793613Y-4359714D01*
X-33632649Y-4375170D01*
X-33482939Y-4380377D01*
X-33367204Y-4373339D01*
X-33231774Y-4345859D01*
X-32984429Y-4266530D01*
X-32729558Y-4151319D01*
X-32683807Y-4126602D01*
X-32438288Y-3956317D01*
X-32227781Y-3744319D01*
X-32056579Y-3497834D01*
X-31928976Y-3224087D01*
X-31849265Y-2930302D01*
X-31821741Y-2623706D01*
X-31821822Y-2603116D01*
X-31834487Y-2392376D01*
X-31872333Y-2198203D01*
X-31940516Y-2001072D01*
X-32044194Y-1781457D01*
X-32068910Y-1735706D01*
X-32239196Y-1490187D01*
X-32451194Y-1279680D01*
X-32697679Y-1108478D01*
X-32971426Y-980875D01*
X-33265210Y-901164D01*
X-33571807Y-873640D01*
X-33592397Y-873721D01*
X-33803136Y-886386D01*
X-33997309Y-924231D01*
X-34194441Y-992415D01*
X-34414056Y-1096093D01*
X-34459807Y-1120809D01*
X-34705326Y-1291095D01*
X-34915833Y-1503093D01*
X-35087035Y-1749578D01*
X-35214638Y-2023325D01*
X-35294348Y-2317109D01*
X-35321873Y-2623706D01*
X-35632451Y-2623706D01*
X-35630296Y-2502878D01*
X-35599337Y-2187265D01*
X-35528417Y-1905310D01*
X-35413424Y-1646949D01*
X-35250245Y-1402115D01*
X-35034769Y-1160744D01*
X-34949676Y-1078772D01*
X-34708235Y-882150D01*
X-34459793Y-736381D01*
X-34194284Y-637351D01*
X-33901644Y-580948D01*
X-33571807Y-563061D01*
X-33450979Y-565217D01*
X-33135366Y-596176D01*
X-32853411Y-667096D01*
X-32595050Y-782089D01*
X-32350216Y-945267D01*
X-32108845Y-1160744D01*
X-32026873Y-1245836D01*
X-31830252Y-1487278D01*
X-31684482Y-1735720D01*
X-31585452Y-2001228D01*
X-31529049Y-2293868D01*
X-31511163Y-2623706D01*
X-31513318Y-2744534D01*
X-31544277Y-3060147D01*
G37*
G36*
X-31544277Y1587264D02*
G01*
X-31615197Y1305310D01*
X-31730190Y1046948D01*
X-31893369Y802115D01*
X-32108845Y560743D01*
X-32116319Y553290D01*
X-32330516Y359647D01*
X-32540877Y212358D01*
X-32761914Y102728D01*
X-33008141Y22064D01*
X-33182152Y-11844D01*
X-33419793Y-33552D01*
X-33670947Y-35383D01*
X-33913155Y-17308D01*
X-34123958Y20700D01*
X-34159322Y30012D01*
X-34400613Y111349D01*
X-34616971Y221000D01*
X-34823367Y367839D01*
X-35034769Y560743D01*
X-35116741Y645836D01*
X-35313362Y887277D01*
X-35459132Y1135719D01*
X-35558162Y1401228D01*
X-35614564Y1693868D01*
X-35632451Y2023705D01*
X-35321873Y2023705D01*
X-35321792Y2003115D01*
X-35309127Y1792376D01*
X-35271281Y1598203D01*
X-35203098Y1401071D01*
X-35099420Y1181456D01*
X-35011501Y1033325D01*
X-34822844Y802382D01*
X-34592003Y605039D01*
X-34325645Y446592D01*
X-34030436Y332336D01*
X-33943107Y311407D01*
X-33793613Y287697D01*
X-33632649Y272241D01*
X-33482939Y267034D01*
X-33367204Y274072D01*
X-33231774Y301552D01*
X-32984429Y380881D01*
X-32729558Y496092D01*
X-32683807Y520808D01*
X-32438288Y691094D01*
X-32227781Y903092D01*
X-32056579Y1149577D01*
X-31928976Y1423324D01*
X-31849265Y1717109D01*
X-31821741Y2023705D01*
X-31822584Y2077394D01*
X-31859452Y2382289D01*
X-31947762Y2673121D01*
X-32083221Y2942665D01*
X-32261536Y3183696D01*
X-32478413Y3388989D01*
X-32729558Y3551318D01*
X-32750900Y3562312D01*
X-32967673Y3662561D01*
X-33163732Y3727782D01*
X-33358601Y3763133D01*
X-33571807Y3773771D01*
X-33625495Y3772928D01*
X-33930391Y3736060D01*
X-34221223Y3647750D01*
X-34490767Y3512291D01*
X-34731798Y3333976D01*
X-34937091Y3117099D01*
X-35099420Y2865954D01*
X-35110414Y2844612D01*
X-35210663Y2627839D01*
X-35275884Y2431780D01*
X-35311235Y2236911D01*
X-35321873Y2023705D01*
X-35632451Y2023705D01*
X-35630296Y2144533D01*
X-35599337Y2460146D01*
X-35528417Y2742101D01*
X-35413424Y3000462D01*
X-35250245Y3245296D01*
X-35034769Y3486667D01*
X-34949676Y3568639D01*
X-34708235Y3765260D01*
X-34459793Y3911030D01*
X-34194284Y4010060D01*
X-33901644Y4066463D01*
X-33571807Y4084349D01*
X-33450979Y4082194D01*
X-33135366Y4051235D01*
X-32853411Y3980315D01*
X-32595050Y3865322D01*
X-32350216Y3702143D01*
X-32108845Y3486667D01*
X-32026873Y3401575D01*
X-31830252Y3160133D01*
X-31684482Y2911691D01*
X-31585452Y2646182D01*
X-31529049Y2353542D01*
X-31511163Y2023705D01*
X-31513318Y1902877D01*
X-31544277Y1587264D01*
G37*
G36*
X-34382912Y-2117741D02*
G01*
X-34273303Y-2126813D01*
X-34258688Y-2448332D01*
X-34244074Y-2769851D01*
X-34043138Y-2441024D01*
X-34018488Y-2400703D01*
X-33943450Y-2279478D01*
X-33889235Y-2198092D01*
X-33848259Y-2148608D01*
X-33812939Y-2123089D01*
X-33775689Y-2113598D01*
X-33728926Y-2112198D01*
X-33615650Y-2112198D01*
X-33615650Y-3197200D01*
X-33725259Y-3188128D01*
X-33834868Y-3179057D01*
X-33849482Y-2863904D01*
X-33864097Y-2548752D01*
X-34064351Y-2871212D01*
X-34084160Y-2903099D01*
X-34160792Y-3025069D01*
X-34216051Y-3107004D01*
X-34257697Y-3156867D01*
X-34293491Y-3182623D01*
X-34331192Y-3192237D01*
X-34378563Y-3193671D01*
X-34492520Y-3193671D01*
X-34492520Y-2108669D01*
X-34382912Y-2117741D01*
G37*
G36*
X-34424834Y1482969D02*
G01*
X-34603304Y1489304D01*
X-34756628Y1513642D01*
X-34870997Y1559991D01*
X-34955722Y1632282D01*
X-35020112Y1734450D01*
X-35036829Y1773666D01*
X-35071709Y1922586D01*
X-35073607Y2010083D01*
X-34827570Y2010083D01*
X-34826565Y1926353D01*
X-34817119Y1853467D01*
X-34792598Y1804004D01*
X-34746644Y1758173D01*
X-34710730Y1730808D01*
X-34630276Y1697005D01*
X-34520119Y1687572D01*
X-34375604Y1687572D01*
X-34375604Y2330610D01*
X-34520119Y2330610D01*
X-34576042Y2328766D01*
X-34669874Y2308985D01*
X-34745560Y2261000D01*
X-34780083Y2228322D01*
X-34810254Y2180956D01*
X-34823928Y2114803D01*
X-34827570Y2010083D01*
X-35073607Y2010083D01*
X-35075195Y2083329D01*
X-35048239Y2234947D01*
X-34991796Y2356492D01*
X-34937435Y2420559D01*
X-34859360Y2476081D01*
X-34757019Y2511314D01*
X-34619278Y2529834D01*
X-34435001Y2535213D01*
X-34141772Y2535213D01*
X-34141772Y1482969D01*
X-34424834Y1482969D01*
G37*
G36*
X-35987085Y1587264D02*
G01*
X-36058005Y1305310D01*
X-36172998Y1046948D01*
X-36336176Y802115D01*
X-36551653Y560743D01*
X-36559127Y553290D01*
X-36773324Y359647D01*
X-36983685Y212358D01*
X-37204722Y102728D01*
X-37450949Y22064D01*
X-37624960Y-11844D01*
X-37862601Y-33552D01*
X-38113755Y-35383D01*
X-38355963Y-17308D01*
X-38566766Y20700D01*
X-38602130Y30012D01*
X-38843420Y111349D01*
X-39059779Y221000D01*
X-39266175Y367839D01*
X-39477577Y560743D01*
X-39559548Y645836D01*
X-39756170Y887277D01*
X-39901940Y1135719D01*
X-40000970Y1401228D01*
X-40057372Y1693868D01*
X-40075259Y2023705D01*
X-39764681Y2023705D01*
X-39764600Y2003115D01*
X-39751935Y1792376D01*
X-39714089Y1598203D01*
X-39645906Y1401071D01*
X-39542228Y1181456D01*
X-39454308Y1033325D01*
X-39265652Y802382D01*
X-39034811Y605039D01*
X-38768452Y446592D01*
X-38473243Y332336D01*
X-38385915Y311407D01*
X-38236420Y287697D01*
X-38075457Y272241D01*
X-37925747Y267034D01*
X-37810012Y274072D01*
X-37674582Y301552D01*
X-37427237Y380881D01*
X-37172366Y496092D01*
X-37126615Y520808D01*
X-36881096Y691094D01*
X-36670589Y903092D01*
X-36499387Y1149577D01*
X-36371784Y1423324D01*
X-36292073Y1717109D01*
X-36264549Y2023705D01*
X-36264630Y2044295D01*
X-36277295Y2255035D01*
X-36315140Y2449207D01*
X-36383324Y2646339D01*
X-36487002Y2865954D01*
X-36511718Y2911705D01*
X-36682004Y3157224D01*
X-36894002Y3367731D01*
X-37140487Y3538933D01*
X-37414234Y3666536D01*
X-37708018Y3746247D01*
X-38014615Y3773771D01*
X-38035205Y3773690D01*
X-38245944Y3761025D01*
X-38440117Y3723179D01*
X-38637248Y3654996D01*
X-38856864Y3551318D01*
X-38902615Y3526602D01*
X-39148133Y3356316D01*
X-39358641Y3144318D01*
X-39529843Y2897833D01*
X-39657446Y2624086D01*
X-39737156Y2330302D01*
X-39764681Y2023705D01*
X-40075259Y2023705D01*
X-40073103Y2144533D01*
X-40042145Y2460146D01*
X-39971225Y2742101D01*
X-39856232Y3000462D01*
X-39693053Y3245296D01*
X-39477577Y3486667D01*
X-39392484Y3568639D01*
X-39151043Y3765260D01*
X-38902601Y3911030D01*
X-38637092Y4010060D01*
X-38344452Y4066463D01*
X-38014615Y4084349D01*
X-37893787Y4082194D01*
X-37578174Y4051235D01*
X-37296219Y3980315D01*
X-37037858Y3865322D01*
X-36793024Y3702143D01*
X-36551653Y3486667D01*
X-36469681Y3401575D01*
X-36273059Y3160133D01*
X-36127290Y2911691D01*
X-36028260Y2646182D01*
X-35971857Y2353542D01*
X-35953970Y2023705D01*
X-35956126Y1902877D01*
X-35987085Y1587264D01*
G37*
G36*
X-38755875Y-2112268D02*
G01*
X-38691013Y-2117026D01*
X-38645986Y-2137657D01*
X-38604475Y-2185766D01*
X-38550161Y-2272958D01*
X-38501941Y-2350368D01*
X-38460472Y-2410408D01*
X-38438914Y-2433205D01*
X-38422290Y-2416179D01*
X-38384107Y-2360553D01*
X-38334869Y-2279753D01*
X-38245917Y-2126813D01*
X-37108516Y-2126813D01*
X-37099357Y-2221807D01*
X-37090197Y-2316801D01*
X-37415420Y-2316801D01*
X-37415420Y-3193671D01*
X-37647689Y-3193671D01*
X-37655778Y-2762543D01*
X-37663867Y-2331416D01*
X-37815519Y-2322643D01*
X-37876213Y-2318324D01*
X-37937588Y-2306723D01*
X-37965728Y-2282163D01*
X-37976278Y-2236234D01*
X-37981959Y-2208758D01*
X-37995917Y-2200968D01*
X-38023199Y-2225842D01*
X-38069639Y-2289048D01*
X-38141075Y-2396252D01*
X-38296764Y-2633909D01*
X-38119153Y-2898054D01*
X-38059489Y-2987707D01*
X-37998435Y-3081807D01*
X-37956883Y-3148740D01*
X-37941542Y-3177935D01*
X-37947137Y-3182498D01*
X-37993434Y-3190503D01*
X-38071282Y-3193671D01*
X-38109696Y-3193306D01*
X-38166076Y-3186313D01*
X-38208421Y-3161898D01*
X-38251458Y-3109174D01*
X-38309914Y-3017251D01*
X-38368802Y-2930091D01*
X-38417083Y-2876146D01*
X-38445369Y-2867394D01*
X-38464865Y-2891387D01*
X-38509868Y-2954356D01*
X-38565018Y-3036507D01*
X-38614291Y-3108345D01*
X-38661306Y-3156896D01*
X-38715490Y-3179106D01*
X-38796716Y-3187965D01*
X-38842713Y-3189935D01*
X-38909198Y-3187958D01*
X-38935328Y-3179537D01*
X-38924899Y-3158193D01*
X-38887564Y-3096712D01*
X-38829485Y-3006285D01*
X-38757374Y-2897544D01*
X-38579420Y-2632888D01*
X-38742760Y-2387445D01*
X-38790139Y-2315607D01*
X-38849946Y-2222700D01*
X-38890907Y-2156186D01*
X-38906099Y-2127100D01*
X-38900470Y-2122769D01*
X-38854109Y-2115196D01*
X-38776207Y-2112198D01*
X-38755875Y-2112268D01*
G37*
G36*
X-32578482Y1826761D02*
G01*
X-32467503Y2180987D01*
X-32356525Y2535213D01*
X-32102606Y2535213D01*
X-32257555Y2050984D01*
X-32299067Y1921563D01*
X-32346792Y1773592D01*
X-32386567Y1651186D01*
X-32415125Y1564390D01*
X-32429199Y1523248D01*
X-32440384Y1506651D01*
X-32489044Y1488814D01*
X-32582630Y1488662D01*
X-32719365Y1497583D01*
X-32875509Y1965247D01*
X-32913749Y2079850D01*
X-32962997Y2227663D01*
X-33004084Y2351236D01*
X-33033553Y2440170D01*
X-33047946Y2484062D01*
X-33048807Y2486857D01*
X-33048670Y2517585D01*
X-33015497Y2531772D01*
X-32936683Y2535213D01*
X-32809128Y2535213D01*
X-32578482Y1826761D01*
G37*
G36*
X-41512523Y-2747815D02*
G01*
X-41512135Y-2901132D01*
X-41513532Y-3027594D01*
X-41516575Y-3116674D01*
X-41521125Y-3157840D01*
X-41558267Y-3184392D01*
X-41646083Y-3188142D01*
X-41755927Y-3179057D01*
X-41764602Y-2980343D01*
X-41773277Y-2781630D01*
X-41939398Y-2790355D01*
X-41977075Y-2792328D01*
X-42047461Y-2799477D01*
X-42092451Y-2818817D01*
X-42121577Y-2861563D01*
X-42144369Y-2938933D01*
X-42170359Y-3062141D01*
X-42194362Y-3179057D01*
X-42442808Y-3186904D01*
X-42691255Y-3194752D01*
X-42804081Y-3018838D01*
X-42809967Y-3009681D01*
X-42865541Y-2925318D01*
X-42907272Y-2865592D01*
X-42926513Y-2842923D01*
X-42926998Y-2843070D01*
X-42947840Y-2869293D01*
X-42989795Y-2931917D01*
X-43044366Y-3018297D01*
X-43152613Y-3193671D01*
X-43296329Y-3193671D01*
X-43370029Y-3191194D01*
X-43416289Y-3179839D01*
X-43418535Y-3157135D01*
X-43412506Y-3147350D01*
X-43377385Y-3093034D01*
X-43321923Y-3008899D01*
X-43255098Y-2908597D01*
X-43229887Y-2870660D01*
X-43167178Y-2773730D01*
X-43120051Y-2697177D01*
X-43097192Y-2654956D01*
X-43096818Y-2642805D01*
X-43117063Y-2585546D01*
X-43161870Y-2499868D01*
X-43224506Y-2399294D01*
X-43251162Y-2359405D01*
X-43314975Y-2263277D01*
X-43363996Y-2188533D01*
X-43389306Y-2148735D01*
X-43392768Y-2132127D01*
X-43362406Y-2116755D01*
X-43281698Y-2112198D01*
X-43255685Y-2112358D01*
X-43193873Y-2118083D01*
X-43148349Y-2140222D01*
X-43103247Y-2189761D01*
X-43042704Y-2277684D01*
X-42932828Y-2443170D01*
X-42831613Y-2277684D01*
X-42809623Y-2241923D01*
X-42760153Y-2168214D01*
X-42719041Y-2129558D01*
X-42670337Y-2114654D01*
X-42598090Y-2112198D01*
X-42589111Y-2112200D01*
X-42527651Y-2114038D01*
X-42492837Y-2124723D01*
X-42485878Y-2152179D01*
X-42507985Y-2204328D01*
X-42560367Y-2289092D01*
X-42644234Y-2414394D01*
X-42789107Y-2629086D01*
X-42609187Y-2900764D01*
X-42532887Y-3013248D01*
X-42470974Y-3093243D01*
X-42430145Y-3124080D01*
X-42405710Y-3106319D01*
X-42392980Y-3040521D01*
X-42387264Y-2927245D01*
X-42387147Y-2923962D01*
X-42367662Y-2829285D01*
X-42326734Y-2748331D01*
X-42326338Y-2747828D01*
X-42289116Y-2695365D01*
X-42288356Y-2663028D01*
X-42323380Y-2625979D01*
X-42324381Y-2625066D01*
X-42381348Y-2535876D01*
X-42393308Y-2451345D01*
X-42148864Y-2451345D01*
X-42144572Y-2521902D01*
X-42120538Y-2565712D01*
X-42096311Y-2574199D01*
X-42025022Y-2588358D01*
X-41930549Y-2600755D01*
X-41770541Y-2617270D01*
X-41770541Y-2316801D01*
X-41925455Y-2316801D01*
X-41984289Y-2319222D01*
X-42067815Y-2331928D01*
X-42115443Y-2351876D01*
X-42134081Y-2382072D01*
X-42148864Y-2451345D01*
X-42393308Y-2451345D01*
X-42397587Y-2421100D01*
X-42370420Y-2299317D01*
X-42368840Y-2295587D01*
X-42322147Y-2219479D01*
X-42252512Y-2166533D01*
X-42151362Y-2133934D01*
X-42010123Y-2118861D01*
X-41820222Y-2118499D01*
X-41522095Y-2126813D01*
X-41514139Y-2617270D01*
X-41514052Y-2622632D01*
X-41512523Y-2747815D01*
G37*
G36*
X-36810081Y2533343D02*
G01*
X-36671024Y2465370D01*
X-36572586Y2355858D01*
X-36514101Y2204025D01*
X-36494904Y2009091D01*
X-36496120Y1961753D01*
X-36527118Y1788147D01*
X-36601702Y1650557D01*
X-36722234Y1544155D01*
X-36751633Y1528029D01*
X-36864343Y1493613D01*
X-36993362Y1482238D01*
X-37115623Y1494526D01*
X-37208062Y1531095D01*
X-37248323Y1557283D01*
X-37279808Y1562231D01*
X-37303705Y1531095D01*
X-37336395Y1500992D01*
X-37402258Y1482969D01*
X-37418419Y1483160D01*
X-37445358Y1488698D01*
X-37461758Y1510005D01*
X-37470235Y1557752D01*
X-37473403Y1642613D01*
X-37473878Y1775259D01*
X-37473878Y2067549D01*
X-37006214Y2067549D01*
X-37006214Y1979862D01*
X-37006399Y1961033D01*
X-37014837Y1914402D01*
X-37048163Y1895637D01*
X-37123130Y1892175D01*
X-37178610Y1888310D01*
X-37233565Y1863263D01*
X-37234657Y1815587D01*
X-37181588Y1746030D01*
X-37170134Y1735960D01*
X-37085650Y1697971D01*
X-36978786Y1686730D01*
X-36875993Y1705728D01*
X-36848050Y1720766D01*
X-36789775Y1791485D01*
X-36754823Y1894712D01*
X-36743659Y2014931D01*
X-36756747Y2136625D01*
X-36794551Y2244278D01*
X-36857536Y2322373D01*
X-36861867Y2325556D01*
X-36939696Y2353932D01*
X-37031428Y2351420D01*
X-37119140Y2323534D01*
X-37184911Y2275788D01*
X-37210817Y2213694D01*
X-37213799Y2207142D01*
X-37254520Y2190947D01*
X-37327733Y2184465D01*
X-37402700Y2192445D01*
X-37442253Y2223818D01*
X-37436554Y2284509D01*
X-37387375Y2380341D01*
X-37357691Y2423409D01*
X-37260412Y2509107D01*
X-37131702Y2553304D01*
X-36963864Y2559249D01*
X-36810081Y2533343D01*
G37*
G36*
X-33374511Y1483611D02*
G01*
X-33590103Y1495600D01*
X-33758540Y1533373D01*
X-33881766Y1600574D01*
X-33964244Y1700852D01*
X-34010438Y1837855D01*
X-34019835Y1953822D01*
X-33789352Y1953822D01*
X-33784461Y1884265D01*
X-33759984Y1832815D01*
X-33709100Y1776525D01*
X-33655831Y1729478D01*
X-33584161Y1695989D01*
X-33486368Y1687572D01*
X-33352589Y1687572D01*
X-33352589Y2330610D01*
X-33482490Y2330610D01*
X-33593629Y2318002D01*
X-33692843Y2266387D01*
X-33755233Y2171562D01*
X-33784416Y2029924D01*
X-33789352Y1953822D01*
X-34019835Y1953822D01*
X-34024811Y2015233D01*
X-34023730Y2064052D01*
X-33996536Y2235672D01*
X-33930643Y2368500D01*
X-33823238Y2468865D01*
X-33777181Y2496333D01*
X-33723211Y2516688D01*
X-33652811Y2528466D01*
X-33551982Y2533898D01*
X-33406725Y2535213D01*
X-33089528Y2535213D01*
X-33089528Y1482969D01*
X-33374511Y1483611D01*
G37*
G36*
X-42880763Y1722212D02*
G01*
X-42933269Y1603946D01*
X-43016539Y1514232D01*
X-43042816Y1496437D01*
X-43152855Y1459103D01*
X-43277445Y1457000D01*
X-43395024Y1488406D01*
X-43484029Y1551597D01*
X-43539974Y1636629D01*
X-43593433Y1797814D01*
X-43610189Y1979862D01*
X-43378136Y1979862D01*
X-43375864Y1884536D01*
X-43361407Y1766425D01*
X-43332635Y1694075D01*
X-43323957Y1682499D01*
X-43258287Y1635351D01*
X-43188340Y1644136D01*
X-43123056Y1708248D01*
X-43106248Y1741106D01*
X-43080044Y1842065D01*
X-43069302Y1965144D01*
X-43073847Y2090671D01*
X-43093503Y2198976D01*
X-43128094Y2270388D01*
X-43158574Y2300026D01*
X-43229342Y2334993D01*
X-43289785Y2316855D01*
X-43336801Y2249217D01*
X-43367285Y2135684D01*
X-43378136Y1979862D01*
X-43610189Y1979862D01*
X-43611805Y1997422D01*
X-43601802Y2136048D01*
X-43556779Y2296401D01*
X-43479483Y2417113D01*
X-43374236Y2493969D01*
X-43245363Y2522752D01*
X-43097188Y2499244D01*
X-43002174Y2447843D01*
X-42918735Y2342271D01*
X-42868690Y2188789D01*
X-42852014Y1987344D01*
X-42852735Y1965144D01*
X-42855531Y1879062D01*
X-42880763Y1722212D01*
G37*
G36*
X-40429893Y-3060147D02*
G01*
X-40500813Y-3342101D01*
X-40615806Y-3600462D01*
X-40778984Y-3845296D01*
X-40994460Y-4086668D01*
X-41001935Y-4094121D01*
X-41216132Y-4287763D01*
X-41426492Y-4435053D01*
X-41647530Y-4544683D01*
X-41893757Y-4625347D01*
X-42067768Y-4659255D01*
X-42305409Y-4680963D01*
X-42556563Y-4682793D01*
X-42798771Y-4664718D01*
X-43009574Y-4626711D01*
X-43044938Y-4617399D01*
X-43286228Y-4536062D01*
X-43502587Y-4426411D01*
X-43708983Y-4279572D01*
X-43920385Y-4086668D01*
X-44002356Y-4001575D01*
X-44198978Y-3760134D01*
X-44344748Y-3511692D01*
X-44443778Y-3246183D01*
X-44500180Y-2953543D01*
X-44518067Y-2623706D01*
X-44207488Y-2623706D01*
X-44207407Y-2644296D01*
X-44194743Y-2855035D01*
X-44156897Y-3049208D01*
X-44088714Y-3246339D01*
X-43985036Y-3465955D01*
X-43897116Y-3614086D01*
X-43708460Y-3845028D01*
X-43477619Y-4042371D01*
X-43211260Y-4200819D01*
X-42916051Y-4315075D01*
X-42828723Y-4336004D01*
X-42679228Y-4359714D01*
X-42518265Y-4375170D01*
X-42368555Y-4380377D01*
X-42252820Y-4373339D01*
X-42117390Y-4345859D01*
X-41870045Y-4266530D01*
X-41615174Y-4151319D01*
X-41569423Y-4126602D01*
X-41323904Y-3956317D01*
X-41113397Y-3744319D01*
X-40942195Y-3497834D01*
X-40814592Y-3224087D01*
X-40734881Y-2930302D01*
X-40707357Y-2623706D01*
X-40707438Y-2603116D01*
X-40720103Y-2392376D01*
X-40757948Y-2198203D01*
X-40826131Y-2001072D01*
X-40929809Y-1781457D01*
X-40954526Y-1735706D01*
X-41124812Y-1490187D01*
X-41336809Y-1279680D01*
X-41583295Y-1108478D01*
X-41857042Y-980875D01*
X-42150826Y-901164D01*
X-42457423Y-873640D01*
X-42478013Y-873721D01*
X-42688752Y-886386D01*
X-42882925Y-924231D01*
X-43080056Y-992415D01*
X-43299671Y-1096093D01*
X-43345422Y-1120809D01*
X-43590941Y-1291095D01*
X-43801449Y-1503093D01*
X-43972651Y-1749578D01*
X-44100254Y-2023325D01*
X-44179964Y-2317109D01*
X-44207488Y-2623706D01*
X-44518067Y-2623706D01*
X-44515911Y-2502878D01*
X-44484952Y-2187265D01*
X-44414033Y-1905310D01*
X-44299039Y-1646949D01*
X-44135861Y-1402115D01*
X-43920385Y-1160744D01*
X-43835292Y-1078772D01*
X-43593851Y-882150D01*
X-43345408Y-736381D01*
X-43079900Y-637351D01*
X-42787260Y-580948D01*
X-42457423Y-563061D01*
X-42336594Y-565217D01*
X-42020982Y-596176D01*
X-41739027Y-667096D01*
X-41480666Y-782089D01*
X-41235832Y-945267D01*
X-40994460Y-1160744D01*
X-40912489Y-1245836D01*
X-40715867Y-1487278D01*
X-40570098Y-1735720D01*
X-40471068Y-2001228D01*
X-40414665Y-2293868D01*
X-40396778Y-2623706D01*
X-40398934Y-2744534D01*
X-40429893Y-3060147D01*
G37*
G36*
X-40429893Y1587264D02*
G01*
X-40500813Y1305310D01*
X-40615806Y1046948D01*
X-40778984Y802115D01*
X-40994460Y560743D01*
X-41001935Y553290D01*
X-41216132Y359647D01*
X-41426492Y212358D01*
X-41647530Y102728D01*
X-41893757Y22064D01*
X-42067768Y-11844D01*
X-42305409Y-33552D01*
X-42556563Y-35383D01*
X-42798771Y-17308D01*
X-43009574Y20700D01*
X-43044938Y30012D01*
X-43286228Y111349D01*
X-43502587Y221000D01*
X-43708983Y367839D01*
X-43920385Y560743D01*
X-44002356Y645836D01*
X-44198978Y887277D01*
X-44344748Y1135719D01*
X-44443778Y1401228D01*
X-44500180Y1693868D01*
X-44518067Y2023705D01*
X-44207488Y2023705D01*
X-44207407Y2003115D01*
X-44194743Y1792376D01*
X-44156897Y1598203D01*
X-44088714Y1401071D01*
X-43985036Y1181456D01*
X-43897116Y1033325D01*
X-43708460Y802382D01*
X-43477619Y605039D01*
X-43211260Y446592D01*
X-42916051Y332336D01*
X-42828723Y311407D01*
X-42679228Y287697D01*
X-42518265Y272241D01*
X-42368555Y267034D01*
X-42252820Y274072D01*
X-42117390Y301552D01*
X-41870045Y380881D01*
X-41615174Y496092D01*
X-41569423Y520808D01*
X-41323904Y691094D01*
X-41113397Y903092D01*
X-40942195Y1149577D01*
X-40814592Y1423324D01*
X-40734881Y1717109D01*
X-40707357Y2023705D01*
X-40708200Y2077394D01*
X-40745067Y2382289D01*
X-40833378Y2673121D01*
X-40968837Y2942665D01*
X-41147152Y3183696D01*
X-41364029Y3388989D01*
X-41615174Y3551318D01*
X-41636516Y3562312D01*
X-41853289Y3662561D01*
X-42049347Y3727782D01*
X-42244217Y3763133D01*
X-42457423Y3773771D01*
X-42478013Y3773690D01*
X-42688752Y3761025D01*
X-42882925Y3723179D01*
X-43080056Y3654996D01*
X-43299671Y3551318D01*
X-43345422Y3526602D01*
X-43590941Y3356316D01*
X-43801449Y3144318D01*
X-43972651Y2897833D01*
X-44100254Y2624086D01*
X-44179964Y2330302D01*
X-44207488Y2023705D01*
X-44518067Y2023705D01*
X-44515911Y2144533D01*
X-44484952Y2460146D01*
X-44414033Y2742101D01*
X-44299039Y3000462D01*
X-44135861Y3245296D01*
X-43920385Y3486667D01*
X-43835292Y3568639D01*
X-43593851Y3765260D01*
X-43345408Y3911030D01*
X-43079900Y4010060D01*
X-42787260Y4066463D01*
X-42457423Y4084349D01*
X-42336594Y4082194D01*
X-42020982Y4051235D01*
X-41739027Y3980315D01*
X-41480666Y3865322D01*
X-41235832Y3702143D01*
X-40994460Y3486667D01*
X-40912489Y3401575D01*
X-40715867Y3160133D01*
X-40570098Y2911691D01*
X-40471068Y2646182D01*
X-40414665Y2353542D01*
X-40396778Y2023705D01*
X-40398934Y1902877D01*
X-40429893Y1587264D01*
G37*
G36*
X-41801610Y1807793D02*
G01*
X-41864297Y1667290D01*
X-41961463Y1552471D01*
X-42092060Y1474829D01*
X-42122021Y1468248D01*
X-42200760Y1460158D01*
X-42299648Y1456047D01*
X-42400455Y1463692D01*
X-42552030Y1515891D01*
X-42673427Y1611566D01*
X-42759232Y1743882D01*
X-42804033Y1906000D01*
X-42803260Y1994476D01*
X-42545110Y1994476D01*
X-42544491Y1940408D01*
X-42536507Y1849080D01*
X-42514922Y1786933D01*
X-42474249Y1733770D01*
X-42420911Y1691398D01*
X-42314912Y1657199D01*
X-42204496Y1668512D01*
X-42109657Y1725776D01*
X-42093301Y1744039D01*
X-42040467Y1845775D01*
X-42018199Y1968995D01*
X-42025881Y2095513D01*
X-42062897Y2207142D01*
X-42128631Y2285696D01*
X-42159683Y2304018D01*
X-42269734Y2331219D01*
X-42382040Y2314283D01*
X-42474249Y2255182D01*
X-42494676Y2231821D01*
X-42526354Y2177225D01*
X-42541335Y2104842D01*
X-42545110Y1994476D01*
X-42803260Y1994476D01*
X-42802416Y2091085D01*
X-42776340Y2197500D01*
X-42692587Y2348161D01*
X-42562013Y2468752D01*
X-42543433Y2480250D01*
X-42416847Y2525685D01*
X-42268809Y2539003D01*
X-42122572Y2520185D01*
X-42001388Y2469211D01*
X-41916617Y2396808D01*
X-41830907Y2268488D01*
X-41783867Y2119884D01*
X-41774840Y1968995D01*
X-41774451Y1962488D01*
X-41801610Y1807793D01*
G37*
G36*
X-38962962Y1487452D02*
G01*
X-39029837Y1490105D01*
X-39177951Y1501363D01*
X-39285976Y1522626D01*
X-39367309Y1559132D01*
X-39435348Y1616119D01*
X-39503488Y1698828D01*
X-39529676Y1748429D01*
X-39557876Y1861207D01*
X-39566887Y1969845D01*
X-39336720Y1969845D01*
X-39307065Y1844148D01*
X-39239745Y1753729D01*
X-39139296Y1706443D01*
X-39122532Y1703079D01*
X-39029129Y1685824D01*
X-38967385Y1684546D01*
X-38930755Y1707740D01*
X-38912694Y1763899D01*
X-38906657Y1861518D01*
X-38906099Y2009091D01*
X-38906099Y2330610D01*
X-39047149Y2330610D01*
X-39141939Y2321265D01*
X-39242684Y2273940D01*
X-39306115Y2183532D01*
X-39335746Y2046581D01*
X-39336720Y1969845D01*
X-39566887Y1969845D01*
X-39569194Y1997660D01*
X-39563668Y2137919D01*
X-39541337Y2262118D01*
X-39502238Y2350388D01*
X-39446856Y2415408D01*
X-39365818Y2477987D01*
X-39263500Y2519660D01*
X-39127656Y2545012D01*
X-38946040Y2558628D01*
X-38643038Y2572104D01*
X-38643038Y1476502D01*
X-38962962Y1487452D01*
G37*
%LPC*%
D12*
X-22460000Y0D03*
X-27540000Y-1016000D03*
X-27540000Y1016000D03*
D13*
X-23730000Y-635000D03*
X-23730000Y635000D03*
X-25000000Y-635000D03*
X-25000000Y635000D03*
X-26270000Y-635000D03*
X-26270000Y635000D03*
M02*
