M48
; DRILL file {KiCad (6.0.11-0)} date Monday, 30 January 2023 at 23:46:09
; FORMAT={-:-/ absolute / inch / decimal}
; #@! TF.CreationDate,2023-01-30T23:46:09+00:00
; #@! TF.GenerationSoftware,Kicad,Pcbnew,(6.0.11-0)
; #@! TF.FileFunction,Plated,1,4,PTH
FMAT,2
INCH
; #@! TA.AperFunction,Plated,PTH,ViaDrill
T1C0.0079
; #@! TA.AperFunction,Plated,PTH,ComponentDrill
T2C0.0118
%
G90
G05
T1
X-1.295Y-0.43
X-1.2263Y0.3169
X-1.21Y0.61
X-1.2057Y0.3395
X-1.185Y0.3622
X-1.0531Y-0.565
X-1.0528Y-0.6237
X-1.052Y-0.5953
X-1.0354Y0.063
X-0.9872Y-0.0648
X-0.9843Y0.063
X-0.9657Y-0.1153
X-0.9331Y0.063
X-0.9331Y-0.063
X-0.795Y0.245
X-0.775Y0.23
X-0.77Y0.27
X-0.75Y0.255
X-0.74Y0.67
X-0.715Y0.695
X-0.715Y0.65
X-0.7Y0.43
X-0.69Y0.72
X-0.69Y0.675
X-0.665Y0.7
X-0.665Y0.655
X-0.64Y0.63
X-0.6309Y1.0831
X-0.62Y-1.21
X-0.6037Y1.0837
X-0.5815Y1.0755
X-0.58Y0.22
X-0.5591Y0.2402
X-0.5354Y0.3976
X-0.535Y0.26
X-0.49Y-0.2
X-0.45Y-0.395
X-0.4197Y1.2909
X-0.4134Y0.5157
X-0.4016Y0.2047
X-0.4016Y0.1496
X-0.378Y0.2244
X-0.3661Y-1.2441
X-0.36Y-0.72
X-0.355Y-0.16
X-0.3543Y0.248
X-0.3523Y-1.2779
X-0.3421Y-1.3122
X-0.34Y-1.64
X-0.3307Y0.2677
X-0.325Y0.52
X-0.325Y-0.72
X-0.315Y0.73
X-0.3071Y0.2913
X-0.29Y0.75
X-0.29Y0.705
X-0.29Y-1.36
X-0.2835Y0.311
X-0.2802Y-0.419
X-0.2745Y-0.4426
X-0.27Y0.725
X-0.2598Y0.3346
X-0.25Y-0.4693
X-0.25Y-1.11
X-0.25Y-1.15
X-0.25Y-1.21
X-0.25Y-1.25
X-0.2402Y-0.874
X-0.2362Y0.3583
X-0.225Y-0.2
X-0.2126Y0.622
X-0.2126Y0.378
X-0.205Y-0.305
X-0.19Y-1.08
X-0.189Y0.5984
X-0.185Y0.045
X-0.1772Y1.0906
X-0.16Y0.07
X-0.15Y-1.355
X-0.122Y1.1024
X-0.12Y-1.025
X-0.11Y-1.355
X-0.0802Y-0.4956
X-0.075Y-0.42
X-0.063Y0.5315
X-0.06Y-1.325
X-0.0591Y-1.9094
X-0.0175Y0.3575
X-0.0175Y0.2425
X-0.0071Y-0.5571
X0.0Y-0.605
X0.0Y-1.355
X0.0236Y-1.7913
X0.0293Y-0.075
X0.04Y-1.355
X0.0707Y-0.075
X0.0748Y1.126
X0.0748Y1.1063
X0.075Y1.085
X0.085Y0.075
X0.095Y-1.28
X0.095Y-1.325
X0.1Y-1.235
X0.1063Y1.126
X0.1063Y1.0984
X0.1457Y1.126
X0.1457Y1.0984
X0.16Y-0.085
X0.175Y-0.425
X0.175Y-0.475
X0.175Y-0.525
X0.175Y-0.575
X0.225Y-0.425
X0.225Y-0.475
X0.225Y-0.525
X0.225Y-0.575
X0.235Y1.055
X0.235Y1.005
X0.24Y-1.415
X0.255Y-1.05
X0.255Y-1.14
X0.255Y-1.28
X0.27Y-1.645
X0.275Y-0.425
X0.275Y-0.475
X0.275Y-0.525
X0.275Y-0.575
X0.305Y-1.45
X0.3141Y0.0509
X0.315Y-0.07
X0.325Y-0.425
X0.325Y-0.475
X0.325Y-0.525
X0.325Y-0.575
X0.3386Y-1.1575
X0.3406Y1.2696
X0.3612Y1.249
X0.375Y-0.11
X0.3937Y0.0
X0.3976Y1.2283
X0.445Y-0.01
X0.45Y-1.335
X0.505Y0.02
X0.505Y0.0
X0.545Y0.02
X0.545Y0.0
X0.55Y-0.93
X0.62Y1.215
X0.655Y0.545
X0.6932Y-1.2351
X0.695Y-1.2078
X0.6982Y-1.2589
X0.775Y0.43
X0.8719Y0.8128
X0.89Y0.31
X0.9724Y0.6811
X1.1181Y0.5945
X1.1248Y0.5579
X1.128Y0.5256
X1.1457Y-0.3937
X1.1663Y-0.3612
X1.187Y-0.3288
X1.2323Y-0.6024
X1.295Y0.42
T2
X-0.109Y-1.1035
X-0.109Y-1.1606
X-0.109Y-1.2176
X-0.0519Y-1.1035
X-0.0519Y-1.1606
X-0.0519Y-1.2176
X0.0051Y-1.1035
X0.0051Y-1.1606
X0.0051Y-1.2176
T0
M30
